<?xml version="1.0" encoding="utf-8"?>
<!-- Generator: Adobe Illustrator 18.1.1, SVG Export Plug-In . SVG Version: 6.00 Build 0)  -->
<svg version="1.1" xmlns="http://www.w3.org/2000/svg" xmlns:xlink="http://www.w3.org/1999/xlink" x="0px" y="0px"
	 viewBox="-801 497 316 88" enable-background="new -801 497 316 88" xml:space="preserve">
<g id="Layer_3" display="none">
	<g display="inline">
		<path d="M-787.8,561.8l-2.3-1.4c-1.4-0.9-2.5-1.7-3.1-2.6c-0.6-0.8-0.9-1.8-0.9-2.9c0-1.7,0.6-3,1.7-4c1.2-1,2.6-1.6,4.5-1.6
			c1.8,0,3.4,0.5,4.8,1.5v3.4c-1.5-1.5-3.1-2.2-4.9-2.2c-1,0-1.8,0.2-2.4,0.7c-0.6,0.5-0.9,1-0.9,1.8c0,0.6,0.2,1.2,0.7,1.8
			c0.5,0.5,1.2,1.1,2.2,1.7l2.3,1.4c2.6,1.5,3.9,3.5,3.9,5.9c0,1.7-0.6,3.1-1.7,4.1c-1.1,1.1-2.6,1.6-4.4,1.6c-2.1,0-4-0.6-5.7-1.9
			v-3.8c1.6,2.1,3.5,3.1,5.7,3.1c0.9,0,1.7-0.3,2.4-0.8c0.6-0.5,0.9-1.2,0.9-2C-785,564.2-786,563-787.8,561.8"/>
		<path d="M-779.1,570.7v-21.1h6.7c2,0,3.6,0.5,4.8,1.6c1.2,1.1,1.8,2.5,1.8,4.4c0,1.2-0.3,2.3-0.9,3.3c-0.6,0.9-1.5,1.6-2.5,2.1
			c-1.1,0.4-2.6,0.6-4.6,0.6h-2.2v9.1H-779.1z M-772.9,552.3h-3.1v6.6h3.3c1.2,0,2.2-0.3,2.8-0.9c0.7-0.6,1-1.4,1-2.5
			C-768.9,553.3-770.2,552.3-772.9,552.3"/>
		<path d="M-752.8,549.3c3.3,0,6,1,8.1,3.1c2.2,2.1,3.2,4.6,3.2,7.7c0,3.1-1.1,5.7-3.3,7.7s-4.9,3.1-8.3,3.1c-3.2,0-5.8-1-7.9-3.1
			c-2.1-2-3.2-4.6-3.2-7.6c0-3.1,1.1-5.7,3.2-7.8C-758.8,550.3-756.1,549.3-752.8,549.3 M-752.7,552.2c-2.4,0-4.4,0.8-5.9,2.3
			c-1.6,1.5-2.3,3.4-2.3,5.8c0,2.3,0.8,4.2,2.3,5.7c1.6,1.5,3.5,2.3,5.8,2.3s4.3-0.8,5.9-2.3c1.6-1.5,2.4-3.4,2.4-5.7
			c0-2.2-0.8-4.1-2.4-5.6C-748.5,552.9-750.4,552.2-752.7,552.2"/>
		<path d="M-737.7,570.7v-21.1h5.3c2.1,0,3.8,0.5,5.1,1.6c1.3,1.1,1.9,2.5,1.9,4.3c0,1.2-0.3,2.3-0.9,3.2c-0.6,0.9-1.5,1.6-2.6,2
			c0.7,0.4,1.3,1,2,1.8c0.6,0.8,1.5,2.1,2.7,4c0.7,1.2,1.3,2.1,1.8,2.7l1.1,1.5h-3.7l-0.9-1.4c0,0-0.1-0.1-0.2-0.3l-0.6-0.8
			l-0.9-1.5l-1-1.6c-0.6-0.9-1.2-1.6-1.7-2.1s-1-0.9-1.4-1.1c-0.4-0.2-1.1-0.3-2.1-0.3h-0.8v9.2L-737.7,570.7L-737.7,570.7z
			 M-733.7,552.2h-0.9v6.6h1.1c1.5,0,2.6-0.1,3.1-0.4c0.6-0.3,1-0.7,1.3-1.2c0.3-0.5,0.5-1.1,0.5-1.8c0-0.7-0.2-1.3-0.5-1.8
			c-0.4-0.5-0.8-0.9-1.5-1.1C-731.2,552.3-732.3,552.2-733.7,552.2"/>
		<polygon points="-723.7,549.6 -706.1,549.6 -706.1,552.3 -713.4,552.3 -713.4,570.7 -716.5,570.7 -716.5,552.3 -723.7,552.3 		"/>
		<path d="M-698,561.8l-2.3-1.4c-1.4-0.9-2.5-1.7-3.1-2.6c-0.6-0.8-0.9-1.8-0.9-2.9c0-1.7,0.6-3,1.7-4c1.1-1,2.6-1.6,4.5-1.6
			c1.8,0,3.4,0.5,4.8,1.5v3.4c-1.5-1.5-3.2-2.2-4.9-2.2c-1,0-1.8,0.2-2.4,0.7c-0.6,0.5-1,1-1,1.8c0,0.6,0.2,1.2,0.7,1.8
			c0.5,0.5,1.2,1.1,2.2,1.7l2.3,1.4c2.6,1.5,3.9,3.5,3.9,5.9c0,1.7-0.6,3.1-1.7,4.1c-1.1,1.1-2.6,1.6-4.4,1.6c-2.1,0-4-0.6-5.7-1.9
			v-3.8c1.6,2.1,3.5,3.1,5.7,3.1c0.9,0,1.7-0.3,2.4-0.8c0.6-0.5,0.9-1.2,0.9-2C-695.3,564.2-696.2,563-698,561.8"/>
		<path d="M-676.9,549.5h2.1l9.4,21.2h-3.1l-2.8-6.2h-9l-2.6,6.2h-3.1L-676.9,549.5z M-672.5,561.7l-3.4-7.6l-3.1,7.6H-672.5z"/>
		<polygon points="-638.7,549.6 -635.7,549.6 -644.2,570.7 -644.9,570.7 -651.7,553.6 -658.7,570.7 -659.4,570.7 -667.8,549.6 
			-664.8,549.6 -659,564.1 -653.2,549.6 -650.3,549.6 -644.4,564.1 		"/>
		<path d="M-629.1,549.5h2.1l9.4,21.2h-3.1l-2.8-6.2h-9l-2.6,6.2h-3.1L-629.1,549.5z M-624.7,561.7l-3.4-7.6l-3.2,7.6H-624.7z"/>
		<path d="M-615.2,570.7v-21.1h5.3c2.1,0,3.8,0.5,5.1,1.6c1.2,1.1,1.9,2.5,1.9,4.3c0,1.2-0.3,2.3-0.9,3.2c-0.6,0.9-1.5,1.6-2.6,2
			c0.7,0.4,1.3,1,2,1.8c0.6,0.8,1.5,2.1,2.7,4c0.7,1.2,1.3,2.1,1.8,2.7l1.1,1.5h-3.6l-0.9-1.4c0,0-0.1-0.1-0.2-0.3l-0.6-0.8
			l-0.9-1.5l-1-1.6c-0.6-0.9-1.2-1.6-1.7-2.1s-1-0.9-1.4-1.1c-0.4-0.2-1.1-0.3-2.1-0.3h-0.8v9.2L-615.2,570.7L-615.2,570.7z
			 M-611.2,552.2h-0.9v6.6h1.1c1.5,0,2.6-0.1,3.1-0.4c0.6-0.3,1-0.7,1.3-1.2s0.5-1.1,0.5-1.8c0-0.7-0.2-1.3-0.5-1.8
			c-0.4-0.5-0.8-0.9-1.5-1.1C-608.7,552.3-609.8,552.2-611.2,552.2"/>
		<path d="M-596.6,570.6v-21h7.1c2.9,0,5.1,0.4,6.8,1.3c1.7,0.9,3,2.1,4,3.8s1.5,3.5,1.5,5.5c0,1.4-0.3,2.8-0.8,4
			c-0.5,1.3-1.3,2.4-2.3,3.4s-2.2,1.8-3.6,2.3c-0.8,0.3-1.5,0.5-2.2,0.6c-0.7,0.1-1.9,0.2-3.8,0.2h-6.7V570.6z M-589.8,552.3h-3.8
			V568h3.9c1.5,0,2.7-0.1,3.5-0.3s1.5-0.5,2.1-0.8c0.6-0.3,1.1-0.7,1.5-1.2c1.5-1.5,2.2-3.4,2.2-5.7s-0.8-4.1-2.3-5.5
			c-0.6-0.5-1.2-1-1.9-1.3c-0.7-0.3-1.4-0.6-2.1-0.7C-587.3,552.3-588.3,552.3-589.8,552.3"/>
		<path d="M-568.2,561.8l-2.3-1.4c-1.4-0.9-2.5-1.7-3.1-2.6c-0.6-0.8-0.9-1.8-0.9-2.9c0-1.7,0.6-3,1.7-4c1.1-1,2.6-1.6,4.5-1.6
			c1.8,0,3.4,0.5,4.8,1.5v3.4c-1.5-1.5-3.1-2.2-4.9-2.2c-1,0-1.8,0.2-2.4,0.7c-0.6,0.5-0.9,1-0.9,1.8c0,0.6,0.2,1.2,0.7,1.8
			c0.5,0.5,1.2,1.1,2.3,1.7l2.3,1.4c2.6,1.5,3.9,3.5,3.9,5.9c0,1.7-0.6,3.1-1.7,4.1c-1.1,1.1-2.6,1.6-4.4,1.6c-2.1,0-4-0.6-5.7-1.9
			v-3.8c1.6,2.1,3.5,3.1,5.7,3.1c0.9,0,1.7-0.3,2.4-0.8c0.6-0.5,0.9-1.2,0.9-2C-565.5,564.2-566.4,563-568.2,561.8"/>
		<path d="M-546.7,567.7h8v2.9H-552v-0.2l1.3-1.5c2-2.5,3.6-4.5,4.7-6.2c1.2-1.7,1.9-3,2.3-3.9c0.4-0.9,0.5-1.7,0.5-2.6
			c0-1.2-0.3-2.1-1-2.9c-0.7-0.7-1.6-1.1-2.7-1.1c-0.8,0-1.7,0.3-2.5,0.7c-0.8,0.5-1.6,1.2-2.2,2.1v-3.8c1.6-1.3,3.3-2,5.1-2
			s3.4,0.6,4.5,1.8c1.2,1.2,1.8,2.8,1.8,4.7c0,0.8-0.1,1.7-0.4,2.7c-0.3,1-0.8,2.1-1.6,3.3c-0.8,1.3-2,3-3.8,5.1L-546.7,567.7z"/>
		<path d="M-529.8,549.3c1.9,0,3.5,1,4.8,3s1.9,4.6,1.9,7.7c0,3.2-0.6,5.8-1.9,7.8s-2.9,3-4.9,3s-3.7-1-4.9-2.9
			c-1.2-2-1.8-4.6-1.8-7.8c0-3.2,0.6-5.8,1.9-7.8C-533.5,550.3-531.8,549.3-529.8,549.3 M-529.8,552.2h-0.2c-1.2,0-2.1,0.7-2.7,2.1
			c-0.7,1.4-1,3.3-1,5.8s0.3,4.4,1,5.9c0.7,1.4,1.6,2.1,2.7,2.1s2.1-0.7,2.8-2.1s1-3.3,1-5.8c0-2.4-0.3-4.4-1-5.8
			C-527.8,552.9-528.7,552.2-529.8,552.2"/>
		<rect x="-516" y="549.6" width="3" height="21.1"/>
		<path d="M-495.8,549.3h1.2v11.8h2.4v2.6h-2.4v6.9h-2.9v-6.9h-8.9v-1.3L-495.8,549.3z M-497.5,561.1V555l-4.9,6.1H-497.5z"/>
	</g>
	<g display="inline">
		<path d="M-781.9,542.7h-11.7v-34.5h9c2.8,0,5.1,0.4,6.7,1.1c1.6,0.8,2.8,1.8,3.7,3.2c0.8,1.3,1.3,2.9,1.3,4.7
			c0,3.4-1.8,5.8-5.3,7.3c2.5,0.5,4.5,1.5,6,3.1c1.5,1.6,2.2,3.5,2.2,5.7c0,1.8-0.5,3.3-1.4,4.7c-0.9,1.4-2.2,2.5-4,3.4
			C-777.1,542.2-779.3,542.7-781.9,542.7 M-784.4,512.6h-4.2V523h3.3c2.6,0,4.5-0.5,5.6-1.5c1.1-1,1.7-2.3,1.7-3.9
			C-778.1,514.2-780.2,512.6-784.4,512.6 M-784,527.3h-4.6v10.9h4.9c2.7,0,4.5-0.2,5.5-0.6c1-0.4,1.7-1.1,2.3-2
			c0.6-0.9,0.9-1.8,0.9-2.9c0-1.1-0.3-2-0.9-2.9c-0.6-0.9-1.5-1.5-2.6-1.9C-779.8,527.6-781.6,527.3-784,527.3"/>
		<rect x="-765.3" y="508.2" width="4.9" height="34.5"/>
		<path d="M-752.9,542.7v-34.5h8.6c3.5,0,6.3,0.9,8.3,2.6c2,1.7,3.1,4.1,3.1,7c0,2-0.5,3.7-1.5,5.2s-2.4,2.6-4.3,3.3
			c1.1,0.7,2.2,1.7,3.2,3c1.1,1.2,2.5,3.4,4.4,6.5c1.2,2,2.2,3.4,2.9,4.4l1.8,2.5h-5.9l-1.5-2.3c0-0.1-0.1-0.2-0.3-0.4l-1-1.4
			l-1.5-2.5l-1.7-2.7c-1-1.4-2-2.5-2.8-3.4c-0.8-0.8-1.6-1.4-2.3-1.8c-0.7-0.4-1.8-0.6-3.4-0.6h-1.3v15h-4.8V542.7z M-746.4,512.4
			h-1.5v10.9h1.9c2.5,0,4.2-0.2,5.1-0.6c0.9-0.4,1.7-1.1,2.2-1.9c0.5-0.9,0.8-1.8,0.8-2.9c0-1.1-0.3-2.1-0.9-2.9
			c-0.6-0.9-1.4-1.5-2.4-1.9C-742.3,512.6-744,512.4-746.4,512.4"/>
		<polygon points="-695.3,508.2 -690.7,508.2 -690.7,542.7 -695.7,542.7 -695.7,515.9 -706.3,529.2 -707.2,529.2 -717.9,515.9 
			-717.9,542.7 -722.8,542.7 -722.8,508.2 -718.2,508.2 -706.7,522.4 		"/>
		<rect x="-683.5" y="508.2" width="4.9" height="34.5"/>
		<polygon points="-643.8,508.2 -639.1,508.2 -639.1,542.7 -643.4,542.7 -666.4,516.1 -666.4,542.7 -671,542.7 -671,508.2 
			-667,508.2 -643.8,535 		"/>
		<path d="M-613.4,525.7h11.6v14.6c-4.2,1.8-8.5,2.8-12.6,2.8c-5.7,0-10.3-1.7-13.7-5c-3.4-3.3-5.1-7.4-5.1-12.3
			c0-5.1,1.8-9.4,5.3-12.8c3.5-3.4,8-5.1,13.3-5.1c1.9,0,3.8,0.2,5.5,0.6c1.7,0.4,3.9,1.2,6.6,2.3v5c-4.1-2.4-8.2-3.6-12.2-3.6
			c-3.8,0-6.9,1.3-9.5,3.8c-2.6,2.6-3.9,5.7-3.9,9.4c0,3.9,1.3,7.1,3.9,9.6c2.6,2.5,5.9,3.7,10,3.7c2,0,4.3-0.5,7.1-1.4l0.5-0.1V530
			h-6.6v-4.3H-613.4z"/>
		<polygon points="-570.6,508.2 -565.6,508.2 -565.6,542.7 -570.6,542.7 -570.6,527.7 -589.9,527.7 -589.9,542.7 -594.9,542.7 
			-594.9,508.2 -589.9,508.2 -589.9,523.1 -570.6,523.1 		"/>
		<path d="M-547.3,508h3.5l15.4,34.7h-5l-4.6-10.2h-14.7l-4.3,10.2h-5.1L-547.3,508z M-540,528.1l-5.6-12.5l-5.2,12.5H-540z"/>
		<polygon points="-497.5,508.2 -492.8,508.2 -492.8,542.7 -497.8,542.7 -497.8,515.9 -508.4,529.2 -509.3,529.2 -520,515.9 
			-520,542.7 -525,542.7 -525,508.2 -520.3,508.2 -508.8,522.4 		"/>
	</g>
	<g display="inline">
		<path fill="#FFFFFF" d="M-781.9,544.9h-11.7v-34.5h9c2.8,0,5.1,0.4,6.7,1.1c1.6,0.8,2.8,1.8,3.7,3.2c0.8,1.3,1.3,2.9,1.3,4.7
			c0,3.4-1.8,5.8-5.3,7.3c2.5,0.5,4.5,1.5,6,3.1c1.5,1.6,2.2,3.5,2.2,5.7c0,1.8-0.5,3.3-1.4,4.7c-0.9,1.4-2.2,2.5-4,3.4
			C-777.1,544.4-779.3,544.9-781.9,544.9 M-784.4,514.8h-4.2v10.4h3.3c2.6,0,4.5-0.5,5.6-1.5c1.1-1,1.7-2.3,1.7-3.9
			C-778.1,516.4-780.2,514.8-784.4,514.8 M-784,529.5h-4.6v10.9h4.9c2.7,0,4.5-0.2,5.5-0.6c1-0.4,1.7-1.1,2.3-2
			c0.6-0.9,0.9-1.8,0.9-2.9c0-1.1-0.3-2-0.9-2.9c-0.6-0.9-1.5-1.5-2.6-1.9C-779.8,529.7-781.6,529.5-784,529.5"/>
		<rect x="-765.3" y="510.4" fill="#FFFFFF" width="4.9" height="34.5"/>
		<path fill="#FFFFFF" d="M-752.9,544.9v-34.5h8.6c3.5,0,6.3,0.9,8.3,2.6s3.1,4.1,3.1,7c0,2-0.5,3.7-1.5,5.2s-2.4,2.6-4.3,3.3
			c1.1,0.7,2.2,1.7,3.2,3c1.1,1.2,2.5,3.4,4.4,6.5c1.2,2,2.2,3.4,2.9,4.4l1.8,2.5h-5.9l-1.5-2.3c0-0.1-0.1-0.2-0.3-0.4l-1-1.4
			l-1.5-2.5l-1.7-2.7c-1-1.4-2-2.5-2.8-3.4c-0.8-0.8-1.6-1.4-2.3-1.8c-0.7-0.4-1.8-0.6-3.4-0.6h-1.3v15h-4.8V544.9z M-746.4,514.6
			h-1.5v10.9h1.9c2.5,0,4.2-0.2,5.1-0.6c0.9-0.4,1.7-1.1,2.2-1.9c0.5-1,0.7-2,0.7-3.1c0-1.1-0.3-2.1-0.9-2.9
			c-0.6-0.9-1.4-1.5-2.4-1.9C-742.3,514.8-744,514.6-746.4,514.6"/>
		<polygon fill="#FFFFFF" points="-695.3,510.4 -690.7,510.4 -690.7,544.9 -695.7,544.9 -695.7,518 -706.3,531.4 -707.2,531.4 
			-717.9,518 -717.9,544.9 -722.8,544.9 -722.8,510.4 -718.2,510.4 -706.7,524.5 		"/>
		<rect x="-683.5" y="510.4" fill="#FFFFFF" width="4.9" height="34.5"/>
		<polygon fill="#FFFFFF" points="-643.8,510.4 -639.1,510.4 -639.1,544.9 -643.4,544.9 -666.4,518.3 -666.4,544.9 -671,544.9 
			-671,510.4 -667,510.4 -643.8,537.2 		"/>
		<path fill="#FFFFFF" d="M-613.4,527.9h11.6v14.6c-4.2,1.8-8.5,2.8-12.6,2.8c-5.7,0-10.3-1.7-13.7-5c-3.4-3.3-5.1-7.4-5.1-12.3
			c0-5.1,1.8-9.4,5.3-12.8c3.5-3.4,8-5.1,13.3-5.1c1.9,0,3.8,0.2,5.5,0.6c1.7,0.4,3.9,1.2,6.6,2.3v5c-4.1-2.4-8.2-3.6-12.2-3.6
			c-3.8,0-6.9,1.3-9.5,3.8c-2.6,2.6-3.9,5.7-3.9,9.4c0,3.9,1.3,7.1,3.9,9.6c2.6,2.5,5.9,3.7,10,3.7c2,0,4.3-0.5,7.1-1.4l0.5-0.1
			v-7.2h-6.6v-4.3H-613.4z"/>
		<polygon fill="#FFFFFF" points="-570.6,510.4 -565.6,510.4 -565.6,544.9 -570.6,544.9 -570.6,529.9 -589.9,529.9 -589.9,544.9 
			-594.9,544.9 -594.9,510.4 -589.9,510.4 -589.9,525.3 -570.6,525.3 		"/>
		<path fill="#FFFFFF" d="M-547.3,510.2h3.5l15.4,34.7h-5l-4.6-10.3h-14.7l-4.3,10.3h-5.1L-547.3,510.2z M-540,530.2l-5.6-12.5
			l-5.2,12.5H-540z"/>
		<polygon fill="#FFFFFF" points="-497.5,510.4 -492.8,510.4 -492.8,544.9 -497.8,544.9 -497.8,518 -508.4,531.4 -509.3,531.4 
			-520,518 -520,544.9 -525,544.9 -525,510.4 -520.3,510.4 -508.8,524.5 		"/>
	</g>
	<g display="inline">
		<path fill="#FFFFFF" d="M-787.8,562.9l-2.3-1.4c-1.4-0.9-2.5-1.7-3.1-2.6c-0.6-0.8-0.9-1.8-0.9-2.9c0-1.7,0.6-3,1.7-4
			c1.2-1,2.6-1.6,4.5-1.6c1.8,0,3.4,0.5,4.8,1.5v3.4c-1.5-1.5-3.1-2.2-4.9-2.2c-1,0-1.8,0.2-2.4,0.7c-0.6,0.5-0.9,1-0.9,1.8
			c0,0.6,0.2,1.2,0.7,1.8c0.5,0.5,1.2,1.1,2.2,1.7l2.3,1.4c2.6,1.5,3.9,3.5,3.9,5.9c0,1.7-0.6,3.1-1.7,4.1c-1.1,1-2.6,1.5-4.4,1.5
			c-2.1,0-4-0.6-5.7-1.9v-3.8c1.6,2.1,3.5,3.1,5.7,3.1c0.9,0,1.7-0.3,2.4-0.8c0.6-0.5,0.9-1.2,0.9-2
			C-785,565.3-786,564.1-787.8,562.9"/>
		<path fill="#FFFFFF" d="M-779.1,571.7v-21h6.7c2,0,3.6,0.5,4.8,1.6c1.2,1.1,1.8,2.5,1.8,4.4c0,1.2-0.3,2.3-0.9,3.3
			c-0.6,0.9-1.5,1.6-2.5,2.1c-1.1,0.4-2.6,0.6-4.6,0.6h-2.2v9.1L-779.1,571.7L-779.1,571.7z M-772.9,553.3h-3.1v6.6h3.3
			c1.2,0,2.2-0.3,2.8-0.9c0.7-0.6,1-1.4,1-2.5C-768.9,554.4-770.2,553.3-772.9,553.3"/>
		<path fill="#FFFFFF" d="M-752.8,550.4c3.3,0,6,1,8.1,3.1c2.2,2.1,3.2,4.6,3.2,7.7c0,3.1-1.1,5.7-3.3,7.7s-4.9,3-8.3,3
			c-3.2,0-5.8-1-7.9-3s-3.2-4.6-3.2-7.6c0-3.1,1.1-5.7,3.2-7.8C-758.8,551.4-756.1,550.4-752.8,550.4 M-752.7,553.3
			c-2.4,0-4.4,0.8-5.9,2.3c-1.6,1.4-2.4,3.3-2.4,5.7c0,2.3,0.8,4.2,2.3,5.7c1.6,1.5,3.5,2.3,5.8,2.3c2.3,0,4.3-0.8,5.9-2.3
			s2.4-3.4,2.4-5.7c0-2.2-0.8-4.1-2.4-5.6C-748.5,554-750.4,553.3-752.7,553.3"/>
		<path fill="#FFFFFF" d="M-737.7,571.7v-21h5.3c2.1,0,3.8,0.5,5.1,1.6c1.3,1.1,1.9,2.5,1.9,4.3c0,1.2-0.3,2.3-0.9,3.2
			c-0.6,0.9-1.5,1.6-2.6,2c0.7,0.4,1.3,1,2,1.8c0.6,0.8,1.5,2.1,2.7,4c0.7,1.2,1.3,2.1,1.8,2.7l1.1,1.5h-3.7l-0.9-1.4
			c0,0-0.1-0.1-0.2-0.3l-0.6-0.8l-0.9-1.5l-1-1.6c-0.6-0.9-1.2-1.6-1.7-2.1s-1-0.9-1.4-1.1c-0.4-0.2-1.1-0.3-2.1-0.3h-0.8v9.2h-3.1
			V571.7z M-733.7,553.3h-0.9v6.6h1.1c1.5,0,2.6-0.1,3.1-0.4c0.6-0.3,1-0.7,1.3-1.2c0.3-0.5,0.5-1.1,0.5-1.8s-0.2-1.3-0.5-1.8
			c-0.4-0.5-0.8-0.9-1.5-1.1C-731.2,553.4-732.3,553.3-733.7,553.3"/>
		<polygon fill="#FFFFFF" points="-723.7,550.7 -706.1,550.7 -706.1,553.3 -713.4,553.3 -713.4,571.7 -716.5,571.7 -716.5,553.3 
			-723.7,553.3 		"/>
		<path fill="#FFFFFF" d="M-698,562.9l-2.3-1.4c-1.4-0.9-2.5-1.7-3.1-2.6c-0.6-0.8-0.9-1.8-0.9-2.9c0-1.7,0.6-3,1.7-4
			c1.1-1,2.6-1.6,4.5-1.6c1.8,0,3.4,0.5,4.8,1.5v3.4c-1.5-1.5-3.2-2.2-4.9-2.2c-1,0-1.8,0.2-2.4,0.7c-0.6,0.5-1,1-1,1.8
			c0,0.6,0.2,1.2,0.7,1.8c0.5,0.5,1.2,1.1,2.2,1.7l2.3,1.4c2.6,1.5,3.9,3.5,3.9,5.9c0,1.7-0.6,3.1-1.7,4.1c-1.1,1.1-2.6,1.6-4.4,1.6
			c-2.1,0-4-0.6-5.7-1.9v-3.8c1.6,2.1,3.5,3.1,5.7,3.1c0.9,0,1.7-0.3,2.4-0.8c0.6-0.5,0.9-1.2,0.9-2
			C-695.3,565.3-696.2,564.1-698,562.9"/>
		<path fill="#FFFFFF" d="M-676.9,550.6h2.1l9.4,21.2h-3.1l-2.8-6.2h-9l-2.6,6.2h-3.1L-676.9,550.6z M-672.5,562.8l-3.4-7.6
			l-3.1,7.6H-672.5z"/>
		<polygon fill="#FFFFFF" points="-638.7,550.7 -635.7,550.7 -644.2,571.8 -644.9,571.8 -651.7,554.7 -658.7,571.8 -659.4,571.8 
			-667.8,550.7 -664.8,550.7 -659,565.2 -653.2,550.7 -650.3,550.7 -644.4,565.2 		"/>
		<path fill="#FFFFFF" d="M-629.1,550.6h2.1l9.4,21.2h-3.1l-2.8-6.2h-9l-2.6,6.2h-3.1L-629.1,550.6z M-624.7,562.8l-3.4-7.6
			l-3.2,7.6H-624.7z"/>
		<path fill="#FFFFFF" d="M-615.2,571.7v-21h5.3c2.1,0,3.8,0.5,5.1,1.6c1.2,1.1,1.9,2.5,1.9,4.3c0,1.2-0.3,2.3-0.9,3.2
			c-0.6,0.9-1.5,1.6-2.6,2c0.7,0.4,1.3,1,2,1.8c0.6,0.8,1.5,2.1,2.7,4c0.7,1.2,1.3,2.1,1.8,2.7l1.1,1.5h-3.6l-0.9-1.4
			c0,0-0.1-0.1-0.2-0.3l-0.6-0.8l-0.9-1.5l-1-1.6c-0.6-0.9-1.2-1.6-1.7-2.1s-1-0.9-1.4-1.1s-1.1-0.3-2.1-0.3h-0.8v9.2h-3.2V571.7z
			 M-611.2,553.3h-0.9v6.6h1.1c1.5,0,2.6-0.1,3.1-0.4c0.6-0.3,1-0.7,1.3-1.2s0.5-1.1,0.5-1.8s-0.2-1.3-0.5-1.8
			c-0.4-0.5-0.8-0.9-1.5-1.1C-608.7,553.4-609.8,553.3-611.2,553.3"/>
		<path fill="#FFFFFF" d="M-596.6,571.7v-21h7.1c2.9,0,5.1,0.4,6.8,1.3s3,2.1,4,3.8s1.5,3.5,1.5,5.5c0,1.4-0.3,2.8-0.8,4
			c-0.5,1.3-1.3,2.4-2.3,3.4s-2.2,1.8-3.6,2.3c-0.8,0.3-1.5,0.5-2.2,0.6c-0.7,0.1-1.9,0.2-3.8,0.2L-596.6,571.7L-596.6,571.7z
			 M-589.8,553.4h-3.8V569h3.9c1.5,0,2.7-0.1,3.5-0.3s1.5-0.5,2.1-0.8c0.6-0.3,1.1-0.7,1.5-1.2c1.5-1.5,2.2-3.4,2.2-5.7
			s-0.8-4.1-2.3-5.5c-0.6-0.5-1.2-1-1.9-1.3c-0.7-0.3-1.4-0.6-2.1-0.7C-587.3,553.4-588.3,553.4-589.8,553.4"/>
		<path fill="#FFFFFF" d="M-568.2,562.9l-2.3-1.4c-1.4-0.9-2.5-1.7-3.1-2.6c-0.6-0.8-0.9-1.8-0.9-2.9c0-1.7,0.6-3,1.7-4
			c1.1-1,2.6-1.6,4.5-1.6c1.8,0,3.4,0.5,4.8,1.5v3.4c-1.5-1.5-3.1-2.2-4.9-2.2c-1,0-1.8,0.2-2.4,0.7c-0.6,0.5-0.9,1-0.9,1.8
			c0,0.6,0.2,1.2,0.7,1.8c0.5,0.5,1.2,1.1,2.3,1.7l2.3,1.4c2.6,1.5,3.9,3.5,3.9,5.9c0,1.7-0.6,3.1-1.7,4.1c-1.1,1.1-2.6,1.6-4.4,1.6
			c-2.1,0-4-0.6-5.7-1.9v-3.8c1.6,2.1,3.5,3.1,5.7,3.1c0.9,0,1.7-0.3,2.4-0.8c0.7-0.5,0.9-1.2,0.9-2
			C-565.5,565.3-566.4,564.1-568.2,562.9"/>
		<path fill="#FFFFFF" d="M-546.7,568.8h8v2.9H-552v-0.2l1.3-1.5c2-2.5,3.6-4.5,4.7-6.2c1.2-1.7,1.9-3,2.3-3.9
			c0.4-0.9,0.5-1.7,0.5-2.6c0-1.2-0.3-2.1-1-2.9c-0.7-0.7-1.6-1.1-2.7-1.1c-0.8,0-1.7,0.3-2.5,0.7c-0.8,0.5-1.6,1.2-2.2,2.1v-3.8
			c1.6-1.3,3.3-2,5.1-2s3.4,0.6,4.5,1.8c1.2,1.2,1.8,2.8,1.8,4.7c0,0.8-0.1,1.7-0.4,2.7c-0.3,1-0.8,2.1-1.6,3.3
			c-0.8,1.3-2,3-3.8,5.1L-546.7,568.8z"/>
		<path fill="#FFFFFF" d="M-529.8,550.4c1.9,0,3.5,1,4.8,3s1.9,4.6,1.9,7.7c0,3.2-0.6,5.8-1.9,7.8s-2.9,3-4.9,3s-3.7-1-4.9-2.9
			c-1.2-2-1.8-4.6-1.8-7.8s0.6-5.8,1.9-7.8C-533.5,551.4-531.8,550.4-529.8,550.4 M-529.8,553.3h-0.2c-1.2,0-2.1,0.7-2.7,2.1
			c-0.7,1.4-1,3.4-1,5.8c0,2.5,0.3,4.4,1,5.9c0.7,1.4,1.6,2.1,2.7,2.1s2.1-0.7,2.8-2.1c0.7-1.4,1-3.3,1-5.8c0-2.4-0.3-4.4-1-5.8
			C-527.8,554-528.7,553.3-529.8,553.3"/>
		<rect x="-516" y="550.7" fill="#FFFFFF" width="3" height="21.1"/>
		<path fill="#FFFFFF" d="M-495.8,550.4h1.2v11.8h2.4v2.6h-2.4v6.9h-2.9v-6.9h-8.9v-1.3L-495.8,550.4z M-497.5,562.2v-6.1l-4.9,6.1
			H-497.5z"/>
	</g>
</g>
<g id="Layer_2">
	<path d="M-781.7,542.6h-11.6v-34.3h9c2.8,0,5,0.4,6.6,1.1c1.6,0.8,2.8,1.8,3.6,3.1c0.8,1.3,1.3,2.9,1.3,4.6c0,3.4-1.7,5.8-5.2,7.2
		c2.5,0.5,4.5,1.5,6,3.1c1.5,1.6,2.2,3.5,2.2,5.7c0,1.8-0.5,3.3-1.4,4.7c-0.9,1.4-2.2,2.5-4,3.4
		C-776.9,542.1-779.1,542.6-781.7,542.6z M-784.2,512.6h-4.2v10.3h3.3c2.6,0,4.5-0.5,5.6-1.5c1.1-1,1.7-2.3,1.7-3.9
		C-777.9,514.3-780,512.6-784.2,512.6z M-783.8,527.3h-4.6v10.9h4.8c2.7,0,4.5-0.2,5.5-0.6c1-0.4,1.7-1.1,2.3-2
		c0.6-0.9,0.9-1.8,0.9-2.9c0-1-0.3-2-0.9-2.9c-0.6-0.9-1.5-1.5-2.6-1.9C-779.6,527.5-781.4,527.3-783.8,527.3z"/>
	<path d="M-765.2,508.2h4.9v34.3h-4.9V508.2z"/>
	<path d="M-752.8,542.6v-34.3h8.6c3.5,0,6.2,0.9,8.3,2.6c2,1.7,3.1,4,3.1,7c0,2-0.5,3.7-1.5,5.2c-1,1.5-2.4,2.5-4.3,3.3
		c1.1,0.7,2.2,1.7,3.2,2.9c1,1.2,2.5,3.4,4.4,6.5c1.2,1.9,2.2,3.4,2.9,4.4l1.8,2.5h-5.8l-1.5-2.3c0-0.1-0.1-0.2-0.3-0.4l-1-1.4
		l-1.5-2.5l-1.6-2.7c-1-1.4-1.9-2.5-2.8-3.4c-0.8-0.8-1.6-1.4-2.3-1.8c-0.7-0.4-1.8-0.6-3.4-0.6h-1.3v14.9H-752.8z M-746.4,512.4
		h-1.5v10.8h1.9c2.5,0,4.2-0.2,5.1-0.6c0.9-0.4,1.6-1.1,2.2-1.9c0.5-0.9,0.8-1.8,0.8-2.9c0-1.1-0.3-2.1-0.9-2.9
		c-0.6-0.9-1.4-1.5-2.4-1.9C-742.3,512.6-744,512.4-746.4,512.4z"/>
	<path d="M-695.5,508.2h4.6v34.3h-4.9v-26.7l-10.6,13.3h-0.9l-10.7-13.3v26.7h-4.9v-34.3h4.7l11.4,14.1L-695.5,508.2z"/>
	<path d="M-683.7,508.2h4.9v34.3h-4.9V508.2z"/>
	<path d="M-644.2,508.2h4.7v34.3h-4.2l-22.9-26.4v26.4h-4.6v-34.3h4l23.1,26.7V508.2z"/>
	<path d="M-613.9,525.7h11.5v14.5c-4.2,1.8-8.4,2.8-12.6,2.8c-5.7,0-10.2-1.7-13.6-5c-3.4-3.3-5.1-7.4-5.1-12.3
		c0-5.1,1.8-9.4,5.3-12.8c3.5-3.4,7.9-5.1,13.2-5.1c1.9,0,3.8,0.2,5.5,0.6c1.7,0.4,3.9,1.2,6.6,2.3v5c-4.1-2.4-8.2-3.6-12.2-3.6
		c-3.8,0-6.9,1.3-9.5,3.8c-2.6,2.6-3.9,5.7-3.9,9.4c0,3.9,1.3,7.1,3.9,9.6c2.6,2.5,5.9,3.7,9.9,3.7c2,0,4.3-0.4,7-1.4l0.5-0.1V530
		h-6.6V525.7z"/>
	<path d="M-571.2,508.2h4.9v34.3h-4.9v-14.9h-19.3v14.9h-4.9v-34.3h4.9v14.8h19.3V508.2z"/>
	<path d="M-548.1,508h3.5l15.4,34.5h-5l-4.6-10.2h-14.6l-4.3,10.2h-5L-548.1,508z M-540.8,528l-5.5-12.4l-5.1,12.4H-540.8z"/>
	<path d="M-498.4,508.2h4.6v34.3h-4.9v-26.7l-10.5,13.3h-0.9l-10.7-13.3v26.7h-4.9v-34.3h4.7l11.4,14.1L-498.4,508.2z"/>
	<path d="M-783,553.6c-1.8-1.7-3.5-2.2-4.9-2.2c-1.9,0-3.3,1-3.3,2.5c0,4,9.1,4,9.1,10.6c0,3.3-2.5,5.7-5.9,5.7
		c-2.3,0-4.1-0.6-5.9-1.9v-3.8c1.5,2,3.5,3,5.5,3c2.3,0,3.4-1.5,3.4-2.6c0-4.3-9.1-4.8-9.1-10.6c0-3.4,2.5-5.6,6.4-5.6
		c1.6,0,3.2,0.5,4.7,1.5V553.6z"/>
	<path d="M-772.4,548.9c4.6,0,6.7,2.7,6.7,6c0,3.3-2.2,5.9-7.1,5.9h-3.1v9.1h-3v-21H-772.4z M-776,558.1h3.4c2.2,0,3.7-1.2,3.7-3.3
		c0-1.5-0.8-3.2-3.6-3.2h-3.5V558.1z"/>
	<path d="M-752.8,548.7c6.9,0,11.3,4.9,11.3,10.8c0,5.7-4.2,10.8-11.4,10.8c-6.9,0-11.2-5.1-11.2-10.8
		C-764.1,553.6-759.6,548.7-752.8,548.7z M-752.8,567.4c4.7,0,8.2-3.4,8.2-8c0-4.6-3.5-8-8.2-8c-4.7,0-8.2,3.4-8.2,8
		C-761,564-757.5,567.4-752.8,567.4z"/>
	<path d="M-732.5,548.9c4.2,0,6.9,2.2,6.9,5.9c0,2.4-1.3,4.2-3.5,5.1c1.9,1.3,3.1,3.2,4.7,5.8c0.9,1.4,1.4,2.2,2.9,4.2h-3.6
		l-2.8-4.3c-2.8-4.3-4-4.8-5.6-4.8h-1.3v9.1h-3v-21H-732.5z M-734.7,558.1h1.9c3.2,0,4.2-1.7,4.1-3.4c0-2-1.2-3.2-4.1-3.2h-1.9
		V558.1z"/>
	<path d="M-706.2,551.7h-7.3v18.3h-3v-18.3h-7.3v-2.7h17.5V551.7z"/>
	<path d="M-693.4,553.6c-1.8-1.7-3.5-2.2-4.9-2.2c-1.9,0-3.3,1-3.3,2.5c0,4,9.1,4,9.1,10.6c0,3.3-2.5,5.7-5.9,5.7
		c-2.3,0-4.1-0.6-5.9-1.9v-3.8c1.5,2,3.5,3,5.5,3c2.3,0,3.4-1.5,3.4-2.6c0-4.3-9.1-4.8-9.1-10.6c0-3.4,2.5-5.6,6.4-5.6
		c1.6,0,3.2,0.5,4.7,1.5V553.6z"/>
	<path d="M-665.6,569.9h-3.1l-2.8-6.2h-8.9l-2.6,6.2h-3.1l9-21.1h2.1L-665.6,569.9z M-679.2,561h6.5l-3.4-7.6L-679.2,561z"/>
	<path d="M-644.6,570.1h-0.6l-6.9-17.2l-7,17.2h-0.6l-8.5-21.2h3l5.8,14.5l5.8-14.5h2.9l5.8,14.5l5.7-14.5h3L-644.6,570.1z"/>
	<path d="M-617.9,569.9h-3.1l-2.8-6.2h-8.9l-2.6,6.2h-3.1l9-21.1h2.1L-617.9,569.9z M-631.6,561h6.5l-3.4-7.6L-631.6,561z"/>
	<path d="M-610.3,548.9c4.2,0,6.9,2.2,6.9,5.9c0,2.4-1.3,4.2-3.5,5.1c1.9,1.3,3.1,3.2,4.7,5.8c0.9,1.4,1.4,2.2,2.9,4.2h-3.6
		l-2.8-4.3c-2.8-4.3-4-4.8-5.6-4.8h-1.3v9.1h-3v-21H-610.3z M-612.5,558.1h1.9c3.2,0,4.2-1.7,4.1-3.4c0-2-1.2-3.2-4.1-3.2h-1.9
		V558.1z"/>
	<path d="M-597,548.9h8.2c7.8,0,11.2,5.5,11.2,10.5c0,5.4-4.2,10.5-11.1,10.5h-8.2V548.9z M-594,567.2h4.8c6.8,0,8.4-5.2,8.4-7.8
		c0-4.2-2.7-7.8-8.6-7.8h-4.6V567.2z"/>
	<path d="M-564,553.6c-1.8-1.7-3.5-2.2-4.9-2.2c-1.9,0-3.3,1-3.3,2.5c0,4,9.1,4,9.1,10.6c0,3.3-2.5,5.7-5.9,5.7
		c-2.3,0-4.1-0.6-5.9-1.9v-3.8c1.5,2,3.5,3,5.5,3c2.3,0,3.4-1.5,3.4-2.6c0-4.3-9.1-4.8-9.1-10.6c0-3.4,2.5-5.6,6.4-5.6
		c1.6,0,3.2,0.5,4.7,1.5V553.6z"/>
	<path d="M-539.3,569.9h-13.3v-0.2c2.3-2.8,5.5-6.6,7.3-9.7c1-1.7,1.5-2.7,1.5-4.5c0-2.3-1.5-3.9-3.6-3.9c-1.5,0-3,0.7-4.7,2.8v-3.8
		c1.7-1.4,3.3-2,5-2c3.8,0,6.4,2.7,6.4,6.6c0,3.4-1.8,6.3-6.5,11.8h8V569.9z"/>
	<path d="M-530.5,570.2c-4.1,0-6.8-4.3-6.8-10.8c0-6.5,2.7-10.8,6.8-10.8c4.1,0,6.8,4.3,6.8,10.8
		C-523.8,565.9-526.5,570.2-530.5,570.2z M-530.5,551.5c-2.3,0-3.8,3-3.8,7.9c0,4.9,1.4,7.9,3.8,7.9c2.3,0,3.8-3,3.8-7.9
		C-526.8,554.5-528.2,551.5-530.5,551.5z"/>
	<path d="M-513.6,569.9h-3v-21h3V569.9z"/>
	<path d="M-495,551.7h-6.6v5.3c4.7-0.3,7.6,2.7,7.6,6.6c0,3.9-2.9,6.7-6.9,6.7c-1.8,0-3.3-0.4-5.1-1.3v-3.1c1.5,1,3,1.5,4.6,1.5
		c2.4,0,4.3-1.7,4.3-3.8c0-2.7-2.7-4.8-7.4-3.7v-10.9h9.3V551.7z"/>
	<g>
		<path fill="#FFFFFF" d="M-781.7,543.6h-11.6v-34.3h9c2.8,0,5,0.4,6.6,1.1c1.6,0.8,2.8,1.8,3.6,3.1c0.8,1.3,1.3,2.9,1.3,4.6
			c0,3.4-1.7,5.8-5.2,7.2c2.5,0.5,4.5,1.5,6,3.1c1.5,1.6,2.2,3.5,2.2,5.7c0,1.8-0.5,3.3-1.4,4.7c-0.9,1.4-2.2,2.5-4,3.4
			C-776.9,543.1-779.1,543.6-781.7,543.6z M-784.2,513.6h-4.2v10.3h3.3c2.6,0,4.5-0.5,5.6-1.5c1.1-1,1.7-2.3,1.7-3.9
			C-777.9,515.3-780,513.6-784.2,513.6z M-783.8,528.3h-4.6v10.9h4.8c2.7,0,4.5-0.2,5.5-0.6c1-0.4,1.7-1.1,2.3-2
			c0.6-0.9,0.9-1.8,0.9-2.9c0-1-0.3-2-0.9-2.9c-0.6-0.9-1.5-1.5-2.6-1.9C-779.6,528.5-781.4,528.3-783.8,528.3z"/>
		<path fill="#FFFFFF" d="M-765.2,509.2h4.9v34.3h-4.9V509.2z"/>
		<path fill="#FFFFFF" d="M-752.8,543.6v-34.3h8.6c3.5,0,6.2,0.9,8.3,2.6c2,1.7,3.1,4,3.1,7c0,2-0.5,3.7-1.5,5.2
			c-1,1.5-2.4,2.5-4.3,3.3c1.1,0.7,2.2,1.7,3.2,2.9c1,1.2,2.5,3.4,4.4,6.5c1.2,1.9,2.2,3.4,2.9,4.4l1.8,2.5h-5.8l-1.5-2.3
			c0-0.1-0.1-0.2-0.3-0.4l-1-1.4l-1.5-2.5l-1.6-2.7c-1-1.4-1.9-2.5-2.8-3.4c-0.8-0.8-1.6-1.4-2.3-1.8c-0.7-0.4-1.8-0.6-3.4-0.6h-1.3
			v14.9H-752.8z M-746.4,513.4h-1.5v10.8h1.9c2.5,0,4.2-0.2,5.1-0.6c0.9-0.4,1.6-1.1,2.2-1.9c0.5-0.9,0.8-1.8,0.8-2.9
			c0-1.1-0.3-2.1-0.9-2.9c-0.6-0.9-1.4-1.5-2.4-1.9C-742.3,513.6-744,513.4-746.4,513.4z"/>
		<path fill="#FFFFFF" d="M-695.5,509.2h4.6v34.3h-4.9v-26.7l-10.6,13.3h-0.9l-10.7-13.3v26.7h-4.9v-34.3h4.7l11.4,14.1
			L-695.5,509.2z"/>
		<path fill="#FFFFFF" d="M-683.7,509.2h4.9v34.3h-4.9V509.2z"/>
		<path fill="#FFFFFF" d="M-644.2,509.2h4.7v34.3h-4.2l-22.9-26.4v26.4h-4.6v-34.3h4l23.1,26.7V509.2z"/>
		<path fill="#FFFFFF" d="M-613.9,526.7h11.5v14.5c-4.2,1.8-8.4,2.8-12.6,2.8c-5.7,0-10.2-1.7-13.6-5c-3.4-3.3-5.1-7.4-5.1-12.3
			c0-5.1,1.8-9.4,5.3-12.8c3.5-3.4,7.9-5.1,13.2-5.1c1.9,0,3.8,0.2,5.5,0.6c1.7,0.4,3.9,1.2,6.6,2.3v5c-4.1-2.4-8.2-3.6-12.2-3.6
			c-3.8,0-6.9,1.3-9.5,3.8c-2.6,2.6-3.9,5.7-3.9,9.4c0,3.9,1.3,7.1,3.9,9.6c2.6,2.5,5.9,3.7,9.9,3.7c2,0,4.3-0.4,7-1.4l0.5-0.1V531
			h-6.6V526.7z"/>
		<path fill="#FFFFFF" d="M-571.2,509.2h4.9v34.3h-4.9v-14.9h-19.3v14.9h-4.9v-34.3h4.9v14.8h19.3V509.2z"/>
		<path fill="#FFFFFF" d="M-548.1,509h3.5l15.4,34.5h-5l-4.6-10.2h-14.6l-4.3,10.2h-5L-548.1,509z M-540.8,529l-5.5-12.4l-5.1,12.4
			H-540.8z"/>
		<path fill="#FFFFFF" d="M-498.4,509.2h4.6v34.3h-4.9v-26.7l-10.5,13.3h-0.9l-10.7-13.3v26.7h-4.9v-34.3h4.7l11.4,14.1
			L-498.4,509.2z"/>
	</g>
	<g>
		<path fill="#FFFFFF" d="M-783,554.6c-1.8-1.7-3.5-2.2-4.9-2.2c-1.9,0-3.3,1-3.3,2.5c0,4,9.1,4,9.1,10.6c0,3.3-2.5,5.7-5.9,5.7
			c-2.3,0-4.1-0.6-5.9-1.9v-3.8c1.5,2,3.5,3,5.5,3c2.3,0,3.4-1.5,3.4-2.6c0-4.3-9.1-4.8-9.1-10.6c0-3.4,2.5-5.6,6.4-5.6
			c1.6,0,3.2,0.5,4.7,1.5V554.6z"/>
		<path fill="#FFFFFF" d="M-772.4,549.9c4.6,0,6.7,2.7,6.7,6c0,3.3-2.2,5.9-7.1,5.9h-3.1v9.1h-3v-21H-772.4z M-776,559.1h3.4
			c2.2,0,3.7-1.2,3.7-3.3c0-1.5-0.8-3.2-3.6-3.2h-3.5V559.1z"/>
		<path fill="#FFFFFF" d="M-752.8,549.7c6.9,0,11.3,4.9,11.3,10.8c0,5.7-4.2,10.8-11.4,10.8c-6.9,0-11.2-5.1-11.2-10.8
			C-764.1,554.6-759.6,549.7-752.8,549.7z M-752.8,568.4c4.7,0,8.2-3.4,8.2-8c0-4.6-3.5-8-8.2-8c-4.7,0-8.2,3.4-8.2,8
			C-761,565-757.5,568.4-752.8,568.4z"/>
		<path fill="#FFFFFF" d="M-732.5,549.9c4.2,0,6.9,2.2,6.9,5.9c0,2.4-1.3,4.2-3.5,5.1c1.9,1.3,3.1,3.2,4.7,5.8
			c0.9,1.4,1.4,2.2,2.9,4.2h-3.6l-2.8-4.3c-2.8-4.3-4-4.8-5.6-4.8h-1.3v9.1h-3v-21H-732.5z M-734.7,559.1h1.9c3.2,0,4.2-1.7,4.1-3.4
			c0-2-1.2-3.2-4.1-3.2h-1.9V559.1z"/>
		<path fill="#FFFFFF" d="M-706.2,552.7h-7.3v18.3h-3v-18.3h-7.3v-2.7h17.5V552.7z"/>
		<path fill="#FFFFFF" d="M-693.4,554.6c-1.8-1.7-3.5-2.2-4.9-2.2c-1.9,0-3.3,1-3.3,2.5c0,4,9.1,4,9.1,10.6c0,3.3-2.5,5.7-5.9,5.7
			c-2.3,0-4.1-0.6-5.9-1.9v-3.8c1.5,2,3.5,3,5.5,3c2.3,0,3.4-1.5,3.4-2.6c0-4.3-9.1-4.8-9.1-10.6c0-3.4,2.5-5.6,6.4-5.6
			c1.6,0,3.2,0.5,4.7,1.5V554.6z"/>
		<path fill="#FFFFFF" d="M-665.6,570.9h-3.1l-2.8-6.2h-8.9l-2.6,6.2h-3.1l9-21.1h2.1L-665.6,570.9z M-679.2,562h6.5l-3.4-7.6
			L-679.2,562z"/>
		<path fill="#FFFFFF" d="M-644.6,571.1h-0.6l-6.9-17.2l-7,17.2h-0.6l-8.5-21.2h3l5.8,14.5l5.8-14.5h2.9l5.8,14.5l5.7-14.5h3
			L-644.6,571.1z"/>
		<path fill="#FFFFFF" d="M-617.9,570.9h-3.1l-2.8-6.2h-8.9l-2.6,6.2h-3.1l9-21.1h2.1L-617.9,570.9z M-631.6,562h6.5l-3.4-7.6
			L-631.6,562z"/>
		<path fill="#FFFFFF" d="M-610.3,549.9c4.2,0,6.9,2.2,6.9,5.9c0,2.4-1.3,4.2-3.5,5.1c1.9,1.3,3.1,3.2,4.7,5.8
			c0.9,1.4,1.4,2.2,2.9,4.2h-3.6l-2.8-4.3c-2.8-4.3-4-4.8-5.6-4.8h-1.3v9.1h-3v-21H-610.3z M-612.5,559.1h1.9c3.2,0,4.2-1.7,4.1-3.4
			c0-2-1.2-3.2-4.1-3.2h-1.9V559.1z"/>
		<path fill="#FFFFFF" d="M-597,549.9h8.2c7.8,0,11.2,5.5,11.2,10.5c0,5.4-4.2,10.5-11.1,10.5h-8.2V549.9z M-594,568.2h4.8
			c6.8,0,8.4-5.2,8.4-7.8c0-4.2-2.7-7.8-8.6-7.8h-4.6V568.2z"/>
		<path fill="#FFFFFF" d="M-564,554.6c-1.8-1.7-3.5-2.2-4.9-2.2c-1.9,0-3.3,1-3.3,2.5c0,4,9.1,4,9.1,10.6c0,3.3-2.5,5.7-5.9,5.7
			c-2.3,0-4.1-0.6-5.9-1.9v-3.8c1.5,2,3.5,3,5.5,3c2.3,0,3.4-1.5,3.4-2.6c0-4.3-9.1-4.8-9.1-10.6c0-3.4,2.5-5.6,6.4-5.6
			c1.6,0,3.2,0.5,4.7,1.5V554.6z"/>
		<path fill="#FFFFFF" d="M-539.3,570.9h-13.3v-0.2c2.3-2.8,5.5-6.6,7.3-9.7c1-1.7,1.5-2.7,1.5-4.5c0-2.3-1.5-3.9-3.6-3.9
			c-1.5,0-3,0.7-4.7,2.8v-3.8c1.7-1.4,3.3-2,5-2c3.8,0,6.4,2.7,6.4,6.6c0,3.4-1.8,6.3-6.5,11.8h8V570.9z"/>
		<path fill="#FFFFFF" d="M-530.5,571.2c-4.1,0-6.8-4.3-6.8-10.8c0-6.5,2.7-10.8,6.8-10.8c4.1,0,6.8,4.3,6.8,10.8
			C-523.8,566.9-526.5,571.2-530.5,571.2z M-530.5,552.5c-2.3,0-3.8,3-3.8,7.9c0,4.9,1.4,7.9,3.8,7.9c2.3,0,3.8-3,3.8-7.9
			C-526.8,555.5-528.2,552.5-530.5,552.5z"/>
		<path fill="#FFFFFF" d="M-513.6,570.9h-3v-21h3V570.9z"/>
		<path fill="#FFFFFF" d="M-495,552.7h-6.6v5.3c4.7-0.3,7.6,2.7,7.6,6.6c0,3.9-2.9,6.7-6.9,6.7c-1.8,0-3.3-0.4-5.1-1.3v-3.1
			c1.5,1,3,1.5,4.6,1.5c2.4,0,4.3-1.7,4.3-3.8c0-2.7-2.7-4.8-7.4-3.7v-10.9h9.3V552.7z"/>
	</g>
</g>
</svg>
