<?xml version="1.0" encoding="utf-8"?>
<!-- Generator: Adobe Illustrator 18.1.1, SVG Export Plug-In . SVG Version: 6.00 Build 0)  -->
<svg version="1.1" xmlns="http://www.w3.org/2000/svg" xmlns:xlink="http://www.w3.org/1999/xlink" x="0px" y="0px"
	 viewBox="-839 421 240 240" enable-background="new -839 421 240 240" xml:space="preserve">
<g id="Layer_1" display="none">
	<g display="inline">
		<path d="M-789.3,612.3l-1.1-0.7c-0.7-0.4-1.2-0.8-1.5-1.3c-0.3-0.4-0.4-0.9-0.4-1.4c0-0.8,0.3-1.5,0.8-2s1.3-0.8,2.2-0.8
			c0.9,0,1.6,0.2,2.3,0.7v1.7c-0.7-0.7-1.5-1.1-2.4-1.1c-0.5,0-0.9,0.1-1.2,0.3c-0.3,0.2-0.5,0.5-0.5,0.8s0.1,0.6,0.3,0.9
			c0.2,0.3,0.6,0.5,1.1,0.8l1.1,0.7c1.2,0.7,1.9,1.7,1.9,2.8c0,0.8-0.3,1.5-0.8,2s-1.3,0.8-2.1,0.8c-1,0-1.9-0.3-2.8-0.9v-1.9
			c0.8,1,1.7,1.5,2.7,1.5c0.5,0,0.8-0.1,1.1-0.4c0.3-0.3,0.5-0.6,0.5-1C-788,613.4-788.4,612.8-789.3,612.3"/>
		<path d="M-785.1,616.6v-10.2h3.2c1,0,1.8,0.3,2.3,0.8c0.6,0.5,0.9,1.2,0.9,2.1c0,0.6-0.1,1.1-0.4,1.6c-0.3,0.5-0.7,0.8-1.2,1
			s-1.3,0.3-2.2,0.3h-1.1v4.4L-785.1,616.6L-785.1,616.6z M-782.1,607.6h-1.5v3.2h1.6c0.6,0,1.1-0.1,1.4-0.4
			c0.3-0.3,0.5-0.7,0.5-1.2C-780.1,608.2-780.8,607.6-782.1,607.6"/>
		<path d="M-772.4,606.2c1.6,0,2.9,0.5,3.9,1.5s1.6,2.3,1.6,3.8s-0.5,2.8-1.6,3.7c-1.1,1-2.4,1.5-4,1.5c-1.5,0-2.8-0.5-3.8-1.5
			s-1.5-2.2-1.5-3.7s0.5-2.8,1.5-3.8C-775.2,606.7-773.9,606.2-772.4,606.2 M-772.3,607.6c-1.2,0-2.1,0.4-2.9,1.1s-1.1,1.7-1.1,2.8
			c0,1.1,0.4,2,1.1,2.7c0.8,0.7,1.7,1.1,2.8,1.1c1.1,0,2.1-0.4,2.9-1.1s1.1-1.7,1.1-2.8c0-1.1-0.4-2-1.1-2.7
			C-770.3,608-771.2,607.6-772.3,607.6"/>
		<path d="M-765,616.6v-10.2h2.6c1,0,1.9,0.3,2.5,0.8c0.6,0.5,0.9,1.2,0.9,2.1c0,0.6-0.1,1.1-0.4,1.5c-0.3,0.4-0.7,0.8-1.3,1
			c0.3,0.2,0.6,0.5,1,0.9c0.3,0.4,0.8,1,1.3,1.9c0.4,0.6,0.6,1,0.9,1.3l0.5,0.7h-1.7l-0.4-0.7c0,0,0-0.1-0.1-0.1l-0.3-0.4l-0.5-0.7
			l-0.5-0.8c-0.3-0.4-0.6-0.8-0.8-1c-0.3-0.2-0.5-0.4-0.7-0.5c-0.2-0.1-0.5-0.2-1-0.2h-0.4v4.4H-765z M-763.1,607.6h-0.4v3.2h0.5
			c0.7,0,1.2-0.1,1.5-0.2c0.3-0.1,0.5-0.3,0.6-0.6c0.2-0.3,0.2-0.5,0.2-0.9c0-0.3-0.1-0.6-0.3-0.9s-0.4-0.4-0.7-0.6
			C-761.9,607.7-762.4,607.6-763.1,607.6"/>
		<polygon points="-758.2,606.3 -749.7,606.3 -749.7,607.6 -753.2,607.6 -753.2,616.6 -754.7,616.6 -754.7,607.6 -758.2,607.6 		"/>
		<path d="M-745.8,612.3l-1.1-0.7c-0.7-0.4-1.2-0.8-1.5-1.3c-0.3-0.4-0.4-0.9-0.4-1.4c0-0.8,0.3-1.5,0.8-2c0.6-0.5,1.3-0.8,2.2-0.8
			c0.9,0,1.6,0.2,2.3,0.7v1.7c-0.7-0.7-1.5-1.1-2.4-1.1c-0.5,0-0.9,0.1-1.2,0.3c-0.3,0.2-0.5,0.5-0.5,0.8s0.1,0.6,0.3,0.9
			c0.2,0.3,0.6,0.5,1.1,0.8l1.1,0.7c1.2,0.7,1.9,1.7,1.9,2.8c0,0.8-0.3,1.5-0.8,2s-1.3,0.8-2.1,0.8c-1,0-1.9-0.3-2.8-0.9v-1.9
			c0.8,1,1.7,1.5,2.7,1.5c0.5,0,0.8-0.1,1.1-0.4c0.3-0.3,0.5-0.6,0.5-1C-744.4,613.4-744.9,612.8-745.8,612.3"/>
		<path d="M-735.5,606.3h1l4.6,10.3h-1.5l-1.4-3h-4.4l-1.3,3h-1.5L-735.5,606.3z M-733.4,612.2l-1.6-3.7l-1.5,3.7H-733.4z"/>
		<polygon points="-717,606.4 -715.5,606.4 -719.7,616.6 -720,616.6 -723.3,608.3 -726.7,616.6 -727,616.6 -731.1,606.4 
			-729.7,606.4 -726.8,613.4 -724,606.4 -722.6,606.4 -719.8,613.4 		"/>
		<path d="M-712.3,606.3h1l4.6,10.3h-1.5l-1.4-3h-4.4l-1.3,3h-1.5L-712.3,606.3z M-710.2,612.2l-1.6-3.7l-1.5,3.7H-710.2z"/>
		<path d="M-705.6,616.6v-10.2h2.6c1,0,1.9,0.3,2.5,0.8s0.9,1.2,0.9,2.1c0,0.6-0.1,1.1-0.4,1.5c-0.3,0.4-0.7,0.8-1.3,1
			c0.3,0.2,0.6,0.5,1,0.9c0.3,0.4,0.8,1,1.3,1.9c0.4,0.6,0.6,1,0.9,1.3l0.5,0.7h-1.7l-0.4-0.7c0,0,0-0.1-0.1-0.1l-0.3-0.4l-0.5-0.7
			l-0.5-0.8c-0.3-0.4-0.6-0.8-0.8-1c-0.3-0.2-0.5-0.4-0.7-0.5c-0.2-0.1-0.5-0.2-1-0.2h-0.4v4.4H-705.6z M-703.7,607.6h-0.4v3.2h0.6
			c0.7,0,1.2-0.1,1.5-0.2c0.3-0.1,0.5-0.3,0.6-0.6c0.2-0.3,0.2-0.5,0.2-0.9c0-0.3-0.1-0.6-0.3-0.9c-0.2-0.3-0.4-0.4-0.7-0.6
			C-702.4,607.7-703,607.6-703.7,607.6"/>
		<path d="M-696.6,616.6v-10.2h3.4c1.4,0,2.5,0.2,3.3,0.6c0.8,0.4,1.5,1,1.9,1.8c0.5,0.8,0.7,1.7,0.7,2.6c0,0.7-0.1,1.3-0.4,2
			c-0.3,0.6-0.6,1.2-1.1,1.6c-0.5,0.5-1.1,0.9-1.7,1.1c-0.4,0.2-0.7,0.3-1.1,0.3c-0.3,0.1-0.9,0.1-1.8,0.1L-696.6,616.6
			L-696.6,616.6z M-693.3,607.7h-1.8v7.6h1.9c0.7,0,1.3-0.1,1.7-0.2c0.4-0.1,0.7-0.2,1-0.4c0.3-0.2,0.5-0.3,0.7-0.6
			c0.7-0.7,1.1-1.7,1.1-2.8c0-1.1-0.4-2-1.1-2.7c-0.3-0.3-0.6-0.5-0.9-0.6c-0.4-0.2-0.7-0.3-1-0.3
			C-692.1,607.7-692.6,607.7-693.3,607.7"/>
		<path d="M-682.8,612.3l-1.1-0.7c-0.7-0.4-1.2-0.8-1.5-1.3c-0.3-0.4-0.4-0.9-0.4-1.4c0-0.8,0.3-1.5,0.8-2c0.6-0.5,1.3-0.8,2.2-0.8
			c0.9,0,1.6,0.2,2.3,0.7v1.7c-0.7-0.7-1.5-1.1-2.4-1.1c-0.5,0-0.9,0.1-1.2,0.3c-0.3,0.2-0.5,0.5-0.5,0.8s0.1,0.6,0.3,0.9
			c0.2,0.3,0.6,0.5,1.1,0.8l1.1,0.7c1.2,0.7,1.9,1.7,1.9,2.8c0,0.8-0.3,1.5-0.8,2s-1.3,0.8-2.1,0.8c-1,0-1.9-0.3-2.8-0.9v-1.9
			c0.8,1,1.7,1.5,2.7,1.5c0.5,0,0.8-0.1,1.1-0.4c0.3-0.3,0.5-0.6,0.5-1C-681.5,613.4-681.9,612.8-682.8,612.3"/>
		<path d="M-672.4,615.2h3.9v1.4h-6.5v-0.1l0.6-0.7c1-1.2,1.7-2.2,2.3-3c0.6-0.8,0.9-1.5,1.1-1.9c0.2-0.4,0.3-0.8,0.3-1.3
			c0-0.6-0.2-1-0.5-1.4c-0.3-0.3-0.8-0.5-1.3-0.5c-0.4,0-0.8,0.1-1.2,0.4c-0.4,0.2-0.8,0.6-1.1,1v-1.9c0.8-0.6,1.6-1,2.5-1
			s1.6,0.3,2.2,0.9c0.6,0.6,0.9,1.3,0.9,2.3c0,0.4-0.1,0.8-0.2,1.3c-0.1,0.5-0.4,1-0.8,1.6c-0.4,0.6-1,1.4-1.9,2.5L-672.4,615.2z"/>
		<path d="M-664.2,606.2c0.9,0,1.7,0.5,2.3,1.5c0.6,1,0.9,2.2,0.9,3.7c0,1.6-0.3,2.8-0.9,3.8c-0.6,1-1.4,1.5-2.4,1.5
			s-1.8-0.5-2.4-1.4c-0.6-0.9-0.9-2.2-0.9-3.8c0-1.5,0.3-2.8,0.9-3.8C-666,606.7-665.2,606.2-664.2,606.2 M-664.2,607.6
			L-664.2,607.6c-0.6,0-1.1,0.3-1.4,1c-0.3,0.7-0.5,1.6-0.5,2.8c0,1.2,0.2,2.2,0.5,2.8c0.3,0.7,0.8,1,1.3,1s1-0.3,1.3-1
			c0.3-0.7,0.5-1.6,0.5-2.8c0-1.2-0.2-2.1-0.5-2.8C-663.2,608-663.6,607.6-664.2,607.6"/>
		<rect x="-657.5" y="606.4" width="1.5" height="10.2"/>
		<path d="M-647.7,606.2h0.6v5.7h1.1v1.2h-1.1v3.4h-1.4v-3.4h-4.3v-0.6L-647.7,606.2z M-648.5,612v-3l-2.4,3H-648.5z"/>
	</g>
	<g display="inline">
		<path d="M-786.5,604h-5.7v-16.7h4.4c1.4,0,2.5,0.2,3.2,0.6c0.8,0.4,1.4,0.9,1.8,1.5c0.4,0.7,0.6,1.4,0.6,2.3
			c0,1.6-0.8,2.8-2.5,3.5c1.2,0.2,2.2,0.7,2.9,1.5s1.1,1.7,1.1,2.8c0,0.9-0.2,1.6-0.7,2.3c-0.4,0.7-1.1,1.2-1.9,1.6
			C-784.1,603.8-785.2,604-786.5,604 M-787.7,589.4h-2.1v5h1.6c1.3,0,2.2-0.2,2.7-0.7s0.8-1.1,0.8-1.9
			C-784.6,590.2-785.6,589.4-787.7,589.4 M-787.5,596.5h-2.2v5.3h2.4c1.3,0,2.2-0.1,2.7-0.3s0.8-0.5,1.1-1c0.3-0.4,0.4-0.9,0.4-1.4
			s-0.1-1-0.4-1.4s-0.7-0.7-1.3-0.9C-785.4,596.6-786.3,596.5-787.5,596.5"/>
		<rect x="-778.4" y="587.3" width="2.4" height="16.7"/>
		<path d="M-772.4,604v-16.7h4.2c1.7,0,3,0.4,4,1.3c1,0.8,1.5,2,1.5,3.4c0,1-0.2,1.8-0.7,2.5s-1.2,1.2-2.1,1.6
			c0.5,0.3,1.1,0.8,1.6,1.4s1.2,1.7,2.2,3.2c0.6,0.9,1,1.7,1.4,2.1l0.9,1.2h-2.8l-0.7-1.1c0,0-0.1-0.1-0.1-0.2l-0.5-0.7l-0.7-1.2
			l-0.8-1.3c-0.5-0.7-0.9-1.2-1.4-1.6c-0.4-0.4-0.8-0.7-1.1-0.9s-0.9-0.3-1.7-0.3h-0.8v7.3H-772.4z M-769.3,589.3h-0.7v5.3h0.9
			c1.2,0,2-0.1,2.5-0.3s0.8-0.5,1.1-0.9c0.3-0.4,0.4-0.9,0.4-1.4s-0.1-1-0.4-1.4c-0.3-0.4-0.7-0.7-1.2-0.9
			C-767.2,589.4-768.1,589.3-769.3,589.3"/>
		<polygon points="-744.5,587.3 -742.2,587.3 -742.2,604 -744.6,604 -744.6,591 -749.8,597.4 -750.2,597.4 -755.4,591 -755.4,604 
			-757.8,604 -757.8,587.3 -755.5,587.3 -750,594.1 		"/>
		<rect x="-738.7" y="587.3" width="2.4" height="16.7"/>
		<polygon points="-719.5,587.3 -717.2,587.3 -717.2,604 -719.3,604 -730.4,591.1 -730.4,604 -732.7,604 -732.7,587.3 -730.7,587.3 
			-719.5,600.2 		"/>
		<path d="M-704.7,595.7h5.6v7.1c-2.1,0.9-4.1,1.3-6.1,1.3c-2.8,0-5-0.8-6.6-2.4c-1.7-1.6-2.5-3.6-2.5-6c0-2.5,0.9-4.6,2.6-6.2
			c1.7-1.7,3.9-2.5,6.4-2.5c0.9,0,1.8,0.1,2.7,0.3c0.9,0.2,1.9,0.6,3.2,1.1v2.4c-2-1.2-4-1.7-5.9-1.7c-1.8,0-3.4,0.6-4.6,1.9
			c-1.3,1.2-1.9,2.8-1.9,4.6c0,1.9,0.6,3.4,1.9,4.7c1.3,1.2,2.9,1.8,4.8,1.8c1,0,2.1-0.2,3.4-0.7l0.2-0.1v-3.5h-3.2V595.7
			L-704.7,595.7z"/>
		<polygon points="-684,587.3 -681.6,587.3 -681.6,604 -684,604 -684,596.7 -693.3,596.7 -693.3,604 -695.7,604 -695.7,587.3 
			-693.3,587.3 -693.3,594.5 -684,594.5 		"/>
		<path d="M-672.7,587.2h1.7l7.5,16.8h-2.4l-2.2-5h-7.1l-2.1,5h-2.5L-672.7,587.2z M-669.1,596.9l-2.7-6.1l-2.5,6.1H-669.1z"/>
		<polygon points="-648.5,587.3 -646.3,587.3 -646.3,604 -648.7,604 -648.7,591 -653.8,597.4 -654.2,597.4 -659.4,591 -659.4,604 
			-661.8,604 -661.8,587.3 -659.6,587.3 -654,594.1 		"/>
	</g>
	<g display="inline">
		<g>
			<defs>
				<path id="SVGID_1_" d="M-680.7,524c-2,11.7,46.7-22,24.2-29.1c-1-0.3-1.9-0.5-2.9-0.5C-670.1,494.4-678.9,513.2-680.7,524"/>
			</defs>
			<clipPath id="SVGID_2_">
				<use xlink:href="#SVGID_1_"  overflow="visible"/>
			</clipPath>
			
				<linearGradient id="SVGID_3_" gradientUnits="userSpaceOnUse" x1="-1836.3022" y1="642.6498" x2="-1835.908" y2="642.6498" gradientTransform="matrix(57.5683 -50.5948 50.5948 57.5683 72526.5156 -129376.9531)">
				<stop  offset="0" style="stop-color:#1E7CC0"/>
				<stop  offset="1" style="stop-color:#224088"/>
			</linearGradient>
			<polygon clip-path="url(#SVGID_2_)" fill="url(#SVGID_3_)" points="-703.2,512.4 -655.2,470.2 -613.5,517.7 -661.5,559.9 			"/>
		</g>
	</g>
	<g display="inline">
		<g>
			<defs>
				<path id="SVGID_4_" d="M-702.8,562.2c19.4-7.2,40.3-19.9,48.2-37.6C-680.4,529.8-722.2,569.4-702.8,562.2"/>
			</defs>
			<clipPath id="SVGID_5_">
				<use xlink:href="#SVGID_4_"  overflow="visible"/>
			</clipPath>
			
				<linearGradient id="SVGID_6_" gradientUnits="userSpaceOnUse" x1="-1835.8702" y1="637.6138" x2="-1835.4755" y2="637.6138" gradientTransform="matrix(101.2181 -64.9006 64.9006 101.2181 143741.2031 -183132.3438)">
				<stop  offset="0" style="stop-color:#1E7CC0"/>
				<stop  offset="1" style="stop-color:#224088"/>
			</linearGradient>
			<polygon clip-path="url(#SVGID_5_)" fill="url(#SVGID_6_)" points="-742.5,537.6 -674.3,493.9 -634.2,556.3 -702.5,600.1 			"/>
		</g>
	</g>
	<g display="inline">
		<g>
			<defs>
				<path id="SVGID_7_" d="M-660.5,489.5c-9.6,6.2-17.8,18.8-20.3,34.5c1.2-4.7,9.4-21,22.1-20.2c16.5,1,0.6,41.1-44.1,58.4
					c34-10.4,58.2-29,64.7-54c4-15.1-2-22.6-10.7-22.6C-652.4,485.6-656.5,486.9-660.5,489.5"/>
			</defs>
			<clipPath id="SVGID_8_">
				<use xlink:href="#SVGID_7_"  overflow="visible"/>
			</clipPath>
			
				<linearGradient id="SVGID_9_" gradientUnits="userSpaceOnUse" x1="-1846.579" y1="625.7291" x2="-1846.1846" y2="625.7291" gradientTransform="matrix(-99.5422 0 0 -99.5422 -184443.6875 62810.3477)">
				<stop  offset="0" style="stop-color:#AFE1F9"/>
				<stop  offset="1" style="stop-color:#1C97D4"/>
			</linearGradient>
			<rect x="-702.8" y="485.6" clip-path="url(#SVGID_8_)" fill="url(#SVGID_9_)" width="68.7" height="76.6"/>
		</g>
	</g>
	<g display="inline">
		<g>
			<defs>
				<path id="SVGID_10_" d="M-650.1,456c-5,1-7.9,7.1-6.6,13.5s6.4,10.8,11.4,9.7c5-1,7.9-7.1,6.6-13.5c-1.2-5.8-5.5-9.9-9.9-9.9
					C-649.1,455.8-649.6,455.9-650.1,456"/>
			</defs>
			<clipPath id="SVGID_11_">
				<use xlink:href="#SVGID_10_"  overflow="visible"/>
			</clipPath>
			
				<radialGradient id="SVGID_12_" cx="-1831.3695" cy="637.645" r="0.3939" gradientTransform="matrix(87.6433 0 0 87.6433 159871.1562 -55422.8516)" gradientUnits="userSpaceOnUse">
				<stop  offset="0" style="stop-color:#AFE1F9"/>
				<stop  offset="1" style="stop-color:#1C97D4"/>
			</radialGradient>
			<rect x="-658" y="455.8" clip-path="url(#SVGID_11_)" fill="url(#SVGID_12_)" width="20.6" height="24.4"/>
		</g>
	</g>
	<g display="inline">
		<g>
			<defs>
				<path id="SVGID_13_" d="M-698.4,481.7c5.5,13.4,6.5,15.8,6.8,7.5c0.4-11-1-26.1-6.5-35.9c-0.9-1.6-1.6-2.2-2.2-2.2
					C-703.5,451.1-703,470.4-698.4,481.7"/>
			</defs>
			<clipPath id="SVGID_14_">
				<use xlink:href="#SVGID_13_"  overflow="visible"/>
			</clipPath>
			
				<linearGradient id="SVGID_15_" gradientUnits="userSpaceOnUse" x1="-1815.6272" y1="634.2001" x2="-1815.2327" y2="634.2001" gradientTransform="matrix(37.131 19.6239 -19.6239 37.131 79153.5469 12549.8682)">
				<stop  offset="0" style="stop-color:#EC2024"/>
				<stop  offset="0.2089" style="stop-color:#EC2024"/>
				<stop  offset="1" style="stop-color:#C0272D"/>
			</linearGradient>
			<polygon clip-path="url(#SVGID_14_)" fill="url(#SVGID_15_)" points="-700.8,446 -672,461.2 -693.9,502.6 -722.6,487.4 			"/>
		</g>
	</g>
	<g display="inline">
		<g>
			<defs>
				<path id="SVGID_16_" d="M-746.1,453.3c-3.3,7-5.2,15.7-6.1,24.5l9,16.2c5.6-16.5,4.6-44,0-44C-744,449.9-745,451-746.1,453.3"/>
			</defs>
			<clipPath id="SVGID_17_">
				<use xlink:href="#SVGID_16_"  overflow="visible"/>
			</clipPath>
			
				<linearGradient id="SVGID_18_" gradientUnits="userSpaceOnUse" x1="-1856.662" y1="603.9532" x2="-1856.2676" y2="603.9532" gradientTransform="matrix(-30.1994 12.9266 -12.9266 -30.1994 -48999.5664 42707.6992)">
				<stop  offset="0" style="stop-color:#EC2024"/>
				<stop  offset="0.2292" style="stop-color:#EC2024"/>
				<stop  offset="1" style="stop-color:#C0272D"/>
			</linearGradient>
			<polygon clip-path="url(#SVGID_17_)" fill="url(#SVGID_18_)" points="-721.6,487.1 -750,499.3 -768.2,456.7 -739.8,444.6 			"/>
		</g>
	</g>
	<g display="inline">
		<g>
			<defs>
				<path id="SVGID_19_" d="M-725.3,574.6c4.8,23.7,12.2,0.1,13.4-11.2c0.7-6.7,1.3-37,0.6-44.2c8.4,0.4,12.6-9.3,1.4-16.5
					C-714.3,534.6-732.4,539.4-725.3,574.6"/>
			</defs>
			<clipPath id="SVGID_20_">
				<use xlink:href="#SVGID_19_"  overflow="visible"/>
			</clipPath>
			
				<linearGradient id="SVGID_21_" gradientUnits="userSpaceOnUse" x1="-1836.066" y1="642.1998" x2="-1835.6716" y2="642.1998" gradientTransform="matrix(56.8043 -58.9785 58.9785 56.8043 65688.2344 -144200.3281)">
				<stop  offset="0" style="stop-color:#EC2024"/>
				<stop  offset="0.2292" style="stop-color:#EC2024"/>
				<stop  offset="0.8593" style="stop-color:#C0272D"/>
				<stop  offset="1" style="stop-color:#C0272D"/>
			</linearGradient>
			<polygon clip-path="url(#SVGID_20_)" fill="url(#SVGID_21_)" points="-780.2,552.3 -716.2,485.9 -651,548.7 -714.9,615.1 			"/>
		</g>
	</g>
	<g display="inline">
		<g>
			<defs>
				<path id="SVGID_22_" d="M-718.2,499.9c-25.1,0-34.2-20.6-27.9-46.6c-13.4,31.2-7.6,45.5,12.1,60.7
					c13.6,10.6,23.2,26.5,22.2,49.4c5-43.8,41.4-71,13.8-110.1C-690.6,467.2-692.6,499.9-718.2,499.9"/>
			</defs>
			<clipPath id="SVGID_23_">
				<use xlink:href="#SVGID_22_"  overflow="visible"/>
			</clipPath>
			
				<linearGradient id="SVGID_24_" gradientUnits="userSpaceOnUse" x1="-1844.2618" y1="633.9887" x2="-1843.8677" y2="633.9887" gradientTransform="matrix(-166.1738 0 0 166.1738 -307155.875 -104843.9609)">
				<stop  offset="0" style="stop-color:#EC2024"/>
				<stop  offset="1" style="stop-color:#C0272D"/>
			</linearGradient>
			<rect x="-759.5" y="453.3" clip-path="url(#SVGID_23_)" fill="url(#SVGID_24_)" width="89" height="110.1"/>
		</g>
	</g>
	<g display="inline">
		<g>
			<defs>
				<path id="SVGID_25_" d="M-728.8,479.9c0,6.3,4.4,11.3,9.7,11.3c5.4,0,9.7-5.1,9.7-11.3c0-6.3-4.4-11.3-9.7-11.3
					C-724.4,468.6-728.8,473.7-728.8,479.9"/>
			</defs>
			<clipPath id="SVGID_26_">
				<use xlink:href="#SVGID_25_"  overflow="visible"/>
			</clipPath>
			
				<radialGradient id="SVGID_27_" cx="-1824.1558" cy="641.5543" r="0.3919" gradientTransform="matrix(54.0677 0 0 54.0677 97915.5391 -34213.0977)" gradientUnits="userSpaceOnUse">
				<stop  offset="0" style="stop-color:#EC2024"/>
				<stop  offset="1" style="stop-color:#C0272D"/>
			</radialGradient>
			<rect x="-728.8" y="468.6" clip-path="url(#SVGID_26_)" fill="url(#SVGID_27_)" width="19.5" height="22.7"/>
		</g>
	</g>
	<g display="inline">
		<g>
			<defs>
				<path id="SVGID_28_" d="M-781.5,494.8c-22.5,7.2,26.2,40.9,24.2,29.2c-1.8-10.8-10.6-29.6-21.3-29.6
					C-779.5,494.4-780.5,494.5-781.5,494.8"/>
			</defs>
			<clipPath id="SVGID_29_">
				<use xlink:href="#SVGID_28_"  overflow="visible"/>
			</clipPath>
			
				<linearGradient id="SVGID_30_" gradientUnits="userSpaceOnUse" x1="-1852.759" y1="628.1769" x2="-1852.3647" y2="628.1769" gradientTransform="matrix(-57.5678 -50.5943 -50.5943 57.5678 -75643.5156 -129375.1328)">
				<stop  offset="0" style="stop-color:#1E7CC0"/>
				<stop  offset="1" style="stop-color:#224088"/>
			</linearGradient>
			<polygon clip-path="url(#SVGID_29_)" fill="url(#SVGID_30_)" points="-734.8,512.4 -782.8,470.2 -824.5,517.7 -776.5,559.9 			
				"/>
		</g>
	</g>
	<g display="inline">
		<g>
			<defs>
				<path id="SVGID_31_" d="M-735.2,562.2c19.4,7.2-22.4-32.4-48.2-37.6C-775.6,542.2-754.7,555-735.2,562.2"/>
			</defs>
			<clipPath id="SVGID_32_">
				<use xlink:href="#SVGID_31_"  overflow="visible"/>
			</clipPath>
			
				<linearGradient id="SVGID_33_" gradientUnits="userSpaceOnUse" x1="-1847.6324" y1="630.0779" x2="-1847.2382" y2="630.0779" gradientTransform="matrix(-101.2174 -64.9001 -64.9001 101.2174 -146857.7969 -183131.5469)">
				<stop  offset="0" style="stop-color:#1E7CC0"/>
				<stop  offset="1" style="stop-color:#224088"/>
			</linearGradient>
			<polygon clip-path="url(#SVGID_32_)" fill="url(#SVGID_33_)" points="-695.5,537.6 -763.7,493.9 -803.8,556.3 -735.5,600.1 			
				"/>
		</g>
	</g>
	<g display="inline">
		<g>
			<defs>
				<path id="SVGID_34_" d="M-800,508.2c6.6,24.9,30.7,43.6,64.7,54c-44.7-17.2-60.6-57.3-44.1-58.4c12.7-0.8,20.9,15.5,22.1,20.2
					c-2.5-15.7-10.6-28.3-20.3-34.5c-4-2.6-8.1-3.9-11.7-3.9C-797.9,485.6-804,493.1-800,508.2"/>
			</defs>
			<clipPath id="SVGID_35_">
				<use xlink:href="#SVGID_34_"  overflow="visible"/>
			</clipPath>
			
				<linearGradient id="SVGID_36_" gradientUnits="userSpaceOnUse" x1="-1829.7128" y1="625.7284" x2="-1829.3185" y2="625.7284" gradientTransform="matrix(99.5393 0 0 -99.5393 181321.375 62808.4688)">
				<stop  offset="0" style="stop-color:#AFE1F9"/>
				<stop  offset="1" style="stop-color:#1C97D4"/>
			</linearGradient>
			<rect x="-804" y="485.6" clip-path="url(#SVGID_35_)" fill="url(#SVGID_36_)" width="68.7" height="76.6"/>
		</g>
	</g>
	<g display="inline">
		<g>
			<defs>
				<path id="SVGID_37_" d="M-799.3,465.7c-1.3,6.4,1.6,12.5,6.6,13.5s10.1-3.3,11.4-9.7s-1.6-12.5-6.6-13.5c-0.5-0.1-1-0.2-1.5-0.2
					C-793.8,455.8-798.1,459.9-799.3,465.7"/>
			</defs>
			<clipPath id="SVGID_38_">
				<use xlink:href="#SVGID_37_"  overflow="visible"/>
			</clipPath>
			
				<radialGradient id="SVGID_39_" cx="-1850.527" cy="637.645" r="0.394" gradientTransform="matrix(-87.6433 0 0 87.6433 -162988.1562 -55422.8516)" gradientUnits="userSpaceOnUse">
				<stop  offset="0" style="stop-color:#AFE1F9"/>
				<stop  offset="1" style="stop-color:#1C97D4"/>
			</radialGradient>
			<rect x="-800.6" y="455.8" clip-path="url(#SVGID_38_)" fill="url(#SVGID_39_)" width="20.6" height="24.4"/>
		</g>
	</g>
	<g display="inline">
		<path fill="#EC1C27" d="M-786.5,603.1h-5.7v-16.7h4.4c1.4,0,2.5,0.2,3.2,0.6c0.8,0.4,1.4,0.9,1.8,1.5c0.4,0.7,0.6,1.4,0.6,2.3
			c0,1.6-0.8,2.8-2.5,3.5c1.2,0.2,2.2,0.7,2.9,1.5c0.7,0.8,1.1,1.7,1.1,2.8c0,0.9-0.2,1.6-0.7,2.3c-0.4,0.7-1.1,1.2-1.9,1.6
			C-784.1,602.9-785.2,603.1-786.5,603.1 M-787.7,588.5h-2.1v5h1.6c1.3,0,2.2-0.2,2.7-0.7s0.8-1.1,0.8-1.9
			C-784.6,589.3-785.6,588.5-787.7,588.5 M-787.5,595.7h-2.2v5.3h2.4c1.3,0,2.2-0.1,2.7-0.3s0.8-0.5,1.1-1c0.3-0.4,0.4-0.9,0.4-1.4
			s-0.1-1-0.4-1.4c-0.3-0.4-0.7-0.7-1.3-0.9C-785.4,595.8-786.3,595.7-787.5,595.7"/>
		<rect x="-778.4" y="586.4" fill="#EC1C27" width="2.4" height="16.7"/>
		<path fill="#EC1C27" d="M-772.4,603.1v-16.7h4.2c1.7,0,3,0.4,4,1.3c1,0.8,1.5,2,1.5,3.4c0,1-0.2,1.8-0.7,2.5
			c-0.5,0.7-1.2,1.2-2.1,1.6c0.5,0.4,1.1,0.8,1.6,1.4c0.5,0.6,1.2,1.7,2.2,3.2c0.6,0.9,1,1.7,1.4,2.1l0.9,1.2h-2.8l-0.7-1.1
			c0,0-0.1-0.1-0.1-0.2l-0.5-0.7l-0.7-1.2l-0.8-1.3c-0.5-0.7-0.9-1.2-1.4-1.6c-0.4-0.4-0.8-0.7-1.1-0.9c-0.3-0.2-0.9-0.3-1.7-0.3
			h-0.8v7.3H-772.4z M-769.3,588.4h-0.7v5.3h0.9c1.2,0,2-0.1,2.5-0.3c0.5-0.2,0.8-0.5,1.1-0.9s0.4-0.9,0.4-1.4s-0.1-1-0.4-1.4
			s-0.7-0.7-1.2-0.9C-767.2,588.5-768.1,588.4-769.3,588.4"/>
		<polygon fill="#EC1C27" points="-744.5,586.4 -742.2,586.4 -742.2,603.1 -744.6,603.1 -744.6,590.1 -749.8,596.5 -750.2,596.5 
			-755.4,590.1 -755.4,603.1 -757.8,603.1 -757.8,586.4 -755.5,586.4 -750,593.2 		"/>
		<rect x="-738.7" y="586.4" fill="#EC1C27" width="2.4" height="16.7"/>
		<polygon fill="#EC1C27" points="-719.5,586.4 -717.2,586.4 -717.2,603.1 -719.3,603.1 -730.4,590.2 -730.4,603.1 -732.7,603.1 
			-732.7,586.4 -730.7,586.4 -719.5,599.4 		"/>
		<path fill="#EC1C27" d="M-704.7,594.9h5.6v7.1c-2.1,0.9-4.1,1.3-6.1,1.3c-2.8,0-5-0.8-6.6-2.4c-1.7-1.6-2.5-3.6-2.5-6
			c0-2.5,0.9-4.6,2.6-6.2c1.7-1.7,3.9-2.5,6.4-2.5c0.9,0,1.8,0.1,2.7,0.3c0.9,0.2,1.9,0.6,3.2,1.1v2.4c-2-1.2-4-1.7-5.9-1.7
			c-1.8,0-3.4,0.6-4.6,1.9c-1.3,1.2-1.9,2.8-1.9,4.6c0,1.9,0.6,3.4,1.9,4.7c1.3,1.2,2.9,1.8,4.8,1.8c1,0,2.1-0.2,3.4-0.7l0.2-0.1
			V597h-3.2V594.9L-704.7,594.9z"/>
		<polygon fill="#EC1C27" points="-684,586.4 -681.6,586.4 -681.6,603.1 -684,603.1 -684,595.8 -693.3,595.8 -693.3,603.1 
			-695.7,603.1 -695.7,586.4 -693.3,586.4 -693.3,593.6 -684,593.6 		"/>
		<path fill="#EC1C27" d="M-672.7,586.3h1.7l7.5,16.8h-2.4l-2.2-5h-7.1l-2.1,5h-2.5L-672.7,586.3z M-669.1,596l-2.7-6.1l-2.5,6.1
			H-669.1z"/>
		<polygon fill="#EC1C27" points="-648.5,586.4 -646.3,586.4 -646.3,603.1 -648.7,603.1 -648.7,590.1 -653.8,596.5 -654.2,596.5 
			-659.4,590.1 -659.4,603.1 -661.8,603.1 -661.8,586.4 -659.6,586.4 -654,593.2 		"/>
	</g>
	<g display="inline">
		<path fill="#1081C4" d="M-789.3,611.9l-1.1-0.7c-0.7-0.4-1.2-0.8-1.5-1.3c-0.3-0.4-0.4-0.9-0.4-1.4c0-0.8,0.3-1.5,0.8-2
			c0.6-0.5,1.3-0.8,2.2-0.8c0.9,0,1.6,0.2,2.3,0.7v1.7c-0.7-0.7-1.5-1.1-2.4-1.1c-0.5,0-0.9,0.1-1.2,0.3c-0.3,0.2-0.5,0.5-0.5,0.8
			c0,0.3,0.1,0.6,0.3,0.9s0.6,0.5,1.1,0.8l1.1,0.7c1.2,0.7,1.9,1.7,1.9,2.8c0,0.8-0.3,1.5-0.8,2s-1.3,0.8-2.1,0.8
			c-1,0-1.9-0.3-2.8-0.9v-1.9c0.8,1,1.7,1.5,2.7,1.5c0.5,0,0.8-0.1,1.1-0.4c0.3-0.3,0.5-0.6,0.5-1C-788,613-788.4,612.4-789.3,611.9
			"/>
		<path fill="#1081C4" d="M-785.1,616.1v-10.2h3.2c1,0,1.8,0.3,2.3,0.8c0.6,0.5,0.9,1.2,0.9,2.1c0,0.6-0.1,1.1-0.4,1.6
			c-0.3,0.5-0.7,0.8-1.2,1s-1.3,0.3-2.2,0.3h-1.1v4.4L-785.1,616.1L-785.1,616.1z M-782.1,607.2h-1.5v3.2h1.6c0.6,0,1.1-0.1,1.4-0.4
			c0.3-0.3,0.5-0.7,0.5-1.2C-780.1,607.7-780.8,607.2-782.1,607.2"/>
		<path fill="#1081C4" d="M-772.4,605.8c1.6,0,2.9,0.5,3.9,1.5s1.6,2.3,1.6,3.8s-0.5,2.8-1.6,3.7c-1.1,1-2.4,1.5-4,1.5
			c-1.5,0-2.8-0.5-3.8-1.5s-1.5-2.2-1.5-3.7s0.5-2.8,1.5-3.8C-775.2,606.3-773.9,605.8-772.4,605.8 M-772.3,607.2
			c-1.2,0-2.1,0.4-2.9,1.1s-1.1,1.7-1.1,2.8c0,1.1,0.4,2,1.1,2.7c0.8,0.7,1.7,1.1,2.8,1.1c1.1,0,2.1-0.4,2.9-1.1s1.1-1.7,1.1-2.8
			s-0.4-2-1.1-2.7C-770.3,607.5-771.2,607.2-772.3,607.2"/>
		<path fill="#1081C4" d="M-765,616.1v-10.2h2.6c1,0,1.9,0.3,2.5,0.8c0.6,0.5,0.9,1.2,0.9,2.1c0,0.6-0.1,1.1-0.4,1.5
			c-0.3,0.4-0.7,0.8-1.3,1c0.3,0.2,0.6,0.5,1,0.9c0.3,0.4,0.8,1,1.3,1.9c0.4,0.6,0.6,1,0.9,1.3l0.5,0.7h-1.7l-0.4-0.7
			c0,0,0-0.1-0.1-0.1l-0.3-0.4l-0.5-0.7l-0.5-0.8c-0.3-0.4-0.6-0.8-0.8-1c-0.3-0.2-0.5-0.4-0.7-0.5c-0.2-0.1-0.5-0.2-1-0.2h-0.4v4.4
			H-765z M-763.1,607.2h-0.4v3.2h0.5c0.7,0,1.2-0.1,1.5-0.2c0.3-0.1,0.5-0.3,0.6-0.6c0.2-0.3,0.2-0.5,0.2-0.9c0-0.3-0.1-0.6-0.3-0.9
			s-0.4-0.4-0.7-0.6C-761.9,607.2-762.4,607.2-763.1,607.2"/>
		<polygon fill="#1081C4" points="-758.2,605.9 -749.7,605.9 -749.7,607.2 -753.2,607.2 -753.2,616.1 -754.7,616.1 -754.7,607.2 
			-758.2,607.2 		"/>
		<path fill="#1081C4" d="M-745.8,611.9l-1.1-0.7c-0.7-0.4-1.2-0.8-1.5-1.3c-0.3-0.4-0.4-0.9-0.4-1.4c0-0.8,0.3-1.5,0.8-2
			c0.6-0.5,1.3-0.8,2.2-0.8c0.9,0,1.6,0.2,2.3,0.7v1.7c-0.7-0.7-1.5-1.1-2.4-1.1c-0.5,0-0.9,0.1-1.2,0.3c-0.3,0.2-0.5,0.5-0.5,0.8
			c0,0.3,0.1,0.6,0.3,0.9s0.6,0.5,1.1,0.8l1.1,0.7c1.2,0.7,1.9,1.7,1.9,2.8c0,0.8-0.3,1.5-0.8,2s-1.3,0.8-2.1,0.8
			c-1,0-1.9-0.3-2.8-0.9v-1.9c0.8,1,1.7,1.5,2.7,1.5c0.5,0,0.8-0.1,1.1-0.4c0.3-0.3,0.5-0.6,0.5-1
			C-744.4,613-744.9,612.4-745.8,611.9"/>
		<path fill="#1081C4" d="M-735.5,605.9h1l4.6,10.3h-1.5l-1.4-3h-4.4l-1.3,3h-1.5L-735.5,605.9z M-733.4,611.8l-1.6-3.7l-1.5,3.7
			H-733.4z"/>
		<polygon fill="#1081C4" points="-717,605.9 -715.5,605.9 -719.7,616.2 -720,616.2 -723.3,607.9 -726.7,616.2 -727,616.2 
			-731.1,605.9 -729.7,605.9 -726.8,613 -724,605.9 -722.6,605.9 -719.8,613 		"/>
		<path fill="#1081C4" d="M-712.3,605.9h1l4.6,10.3h-1.5l-1.4-3h-4.4l-1.3,3h-1.5L-712.3,605.9z M-710.2,611.8l-1.6-3.7l-1.5,3.7
			H-710.2z"/>
		<path fill="#1081C4" d="M-705.6,616.1v-10.2h2.6c1,0,1.9,0.3,2.5,0.8s0.9,1.2,0.9,2.1c0,0.6-0.1,1.1-0.4,1.5
			c-0.3,0.4-0.7,0.8-1.3,1c0.3,0.2,0.6,0.5,1,0.9c0.3,0.4,0.8,1,1.3,1.9c0.4,0.6,0.6,1,0.9,1.3l0.5,0.7h-1.7l-0.4-0.7
			c0,0,0-0.1-0.1-0.1l-0.3-0.4l-0.5-0.7l-0.5-0.8c-0.3-0.4-0.6-0.8-0.8-1c-0.3-0.2-0.5-0.4-0.7-0.5c-0.2-0.1-0.5-0.2-1-0.2h-0.4v4.4
			H-705.6z M-703.7,607.2h-0.4v3.2h0.6c0.7,0,1.2-0.1,1.5-0.2c0.3-0.1,0.5-0.3,0.6-0.6c0.2-0.3,0.2-0.5,0.2-0.9
			c0-0.3-0.1-0.6-0.3-0.9c-0.2-0.3-0.4-0.4-0.7-0.6C-702.4,607.2-703,607.2-703.7,607.2"/>
		<path fill="#1081C4" d="M-696.6,616.1v-10.2h3.4c1.4,0,2.5,0.2,3.3,0.6c0.8,0.4,1.5,1,1.9,1.8c0.5,0.8,0.7,1.7,0.7,2.6
			c0,0.7-0.1,1.3-0.4,2c-0.3,0.6-0.6,1.2-1.1,1.6c-0.5,0.5-1.1,0.9-1.7,1.1c-0.4,0.2-0.7,0.3-1.1,0.3c-0.3,0.1-0.9,0.1-1.8,0.1
			L-696.6,616.1L-696.6,616.1z M-693.3,607.2h-1.8v7.6h1.9c0.7,0,1.3-0.1,1.7-0.2c0.4-0.1,0.7-0.2,1-0.4c0.3-0.2,0.5-0.3,0.7-0.6
			c0.7-0.7,1.1-1.7,1.1-2.8c0-1.1-0.4-2-1.1-2.7c-0.3-0.3-0.6-0.5-0.9-0.6c-0.4-0.2-0.7-0.3-1-0.3
			C-692.1,607.2-692.6,607.2-693.3,607.2"/>
		<path fill="#1081C4" d="M-682.8,611.9l-1.1-0.7c-0.7-0.4-1.2-0.8-1.5-1.3c-0.3-0.4-0.4-0.9-0.4-1.4c0-0.8,0.3-1.5,0.8-2
			c0.6-0.5,1.3-0.8,2.2-0.8c0.9,0,1.6,0.2,2.3,0.7v1.7c-0.7-0.7-1.5-1.1-2.4-1.1c-0.5,0-0.9,0.1-1.2,0.3c-0.3,0.2-0.5,0.5-0.5,0.8
			c0,0.3,0.1,0.6,0.3,0.9s0.6,0.5,1.1,0.8l1.1,0.7c1.2,0.7,1.9,1.7,1.9,2.8c0,0.8-0.3,1.5-0.8,2s-1.3,0.8-2.1,0.8
			c-1,0-1.9-0.3-2.8-0.9v-1.9c0.8,1,1.7,1.5,2.7,1.5c0.5,0,0.8-0.1,1.1-0.4c0.3-0.3,0.5-0.6,0.5-1
			C-681.5,613-681.9,612.4-682.8,611.9"/>
		<path fill="#1081C4" d="M-672.4,614.7h3.9v1.4h-6.5V616l0.6-0.7c1-1.2,1.7-2.2,2.3-3c0.6-0.8,0.9-1.5,1.1-1.9
			c0.2-0.4,0.3-0.8,0.3-1.3c0-0.6-0.2-1-0.5-1.4c-0.3-0.3-0.8-0.5-1.3-0.5c-0.4,0-0.8,0.1-1.2,0.4c-0.4,0.2-0.8,0.6-1.1,1v-1.9
			c0.8-0.6,1.6-1,2.5-1s1.6,0.3,2.2,0.9c0.6,0.6,0.9,1.3,0.9,2.3c0,0.4-0.1,0.8-0.2,1.3c-0.1,0.5-0.4,1-0.8,1.6
			c-0.4,0.6-1,1.4-1.9,2.5L-672.4,614.7z"/>
		<path fill="#1081C4" d="M-664.2,605.8c0.9,0,1.7,0.5,2.3,1.5c0.6,1,0.9,2.2,0.9,3.7c0,1.6-0.3,2.8-0.9,3.8c-0.6,1-1.4,1.5-2.4,1.5
			s-1.8-0.5-2.4-1.4c-0.6-0.9-0.9-2.2-0.9-3.8c0-1.5,0.3-2.8,0.9-3.8C-666,606.3-665.2,605.8-664.2,605.8 M-664.2,607.2
			L-664.2,607.2c-0.6,0-1.1,0.3-1.4,1c-0.3,0.7-0.5,1.6-0.5,2.8s0.2,2.2,0.5,2.8c0.3,0.7,0.8,1,1.3,1s1-0.3,1.3-1
			c0.3-0.7,0.5-1.6,0.5-2.8s-0.2-2.1-0.5-2.8C-663.2,607.5-663.6,607.2-664.2,607.2"/>
		<rect x="-657.5" y="605.9" fill="#1081C4" width="1.5" height="10.2"/>
		<path fill="#1081C4" d="M-647.7,605.8h0.6v5.7h1.1v1.2h-1.1v3.4h-1.4v-3.4h-4.3v-0.6L-647.7,605.8z M-648.5,611.5v-3l-2.4,3
			H-648.5z"/>
	</g>
	<g display="inline">
		<rect x="-681.4" y="624" fill="#D1232A" width="35.4" height="13.4"/>
		<g>
			<path fill="#FFFFFF" d="M-662.7,635.4h-0.9v1.3h3.9v-1.3h-0.5l-2.7-6.8h-2.7l-2.7,6.8h-0.5v1.3h3.5v-1.3h-0.9l0.4-1h2.9
				L-662.7,635.4z M-663.5,633.2h-1.9l0.9-2.9l0,0L-663.5,633.2z"/>
			<polygon fill="#FFFFFF" points="-658.3,635.4 -659.2,635.4 -659.2,636.7 -655,636.7 -655,635.4 -655.9,635.4 -655.9,630 
				-655,630 -655,628.6 -659.2,628.6 -659.2,630 -658.3,630 			"/>
			<polygon fill="#FFFFFF" points="-649.4,635.4 -651.3,635.4 -651.3,630 -650.1,630 -650.1,628.6 -654.5,628.6 -654.5,630 
				-653.7,630 -653.7,635.4 -654.5,635.4 -654.5,636.7 -647.4,636.7 -647.4,633.7 -649.4,633.7 			"/>
			<polygon fill="#FFFFFF" points="-670.3,635.4 -670.3,630 -669.4,630 -669.4,628.6 -670.7,628.6 -672.4,628.6 -672.5,628.6 
				-674.7,632.8 -677,628.6 -677,628.6 -678.8,628.6 -680.1,628.6 -680.1,630 -679.2,630 -679.2,635.4 -680.1,635.4 -680.1,636.7 
				-675.9,636.7 -675.9,635.4 -676.8,635.4 -676.8,632.6 -674.7,636.7 -672.6,632.6 -672.6,635.4 -673.5,635.4 -673.5,636.7 
				-669.4,636.7 -669.4,635.4 			"/>
		</g>
		<path fill="#FFFFFF" d="M-680,627.6h1.7c0.5,0,1-0.3,1-0.8c0-0.2-0.2-0.7-0.7-0.7l0,0c0.4,0,0.7-0.3,0.7-0.7
			c0-0.3-0.1-0.7-0.9-0.7h-1.8v0.2h0.5v2.5h-0.5V627.6z M-679.2,624.9h0.9c0.4,0,0.6,0.3,0.6,0.6s-0.3,0.6-0.7,0.6h-0.8V624.9z
			 M-679.2,626.2h0.8c0.5,0,0.7,0.3,0.7,0.6c0,0.4-0.3,0.6-0.8,0.6h-0.7V626.2z M-676.6,627.4h-0.4v0.2h1.2v-0.2h-0.5v-2.5h0.5v-0.2
			h-1.2v0.2h0.5L-676.6,627.4L-676.6,627.4z M-675.4,627.6h1.2v-0.2h-0.5v-1.1h0.6c0.5,0,0.6,0.1,0.8,0.8l0.1,0.5h0.6v-0.2h-0.4
			l-0.2-0.6c-0.1-0.3-0.2-0.5-0.5-0.6l0,0c0.4,0,0.7-0.3,0.7-0.7c0-0.5-0.3-0.8-1-0.8h-1.5v0.2h0.5v2.5h-0.5L-675.4,627.6
			L-675.4,627.6z M-674.7,624.9h0.6c0.6,0,0.8,0.2,0.8,0.6c0,0.2-0.2,0.6-0.8,0.6h-0.6V624.9z M-671.7,627.4h-0.5v0.2h1.2v-0.2h-0.4
			v-2.5l0,0l1.2,2.7h0.2l1.2-2.7l0,0v2.5h-0.4v0.2h1.2v-0.2h-0.5v-2.5h0.5v-0.2h-1l-1.1,2.5l0,0l-1.1-2.5h-1v0.2h0.5V627.4
			L-671.7,627.4z M-667.2,627.4h-0.5v0.2h1.2v-0.2h-0.5v-2.5h0.5v-0.2h-1.2v0.2h0.5V627.4z M-665.6,627.4h-0.5v0.2h1.2v-0.2h-0.5
			v-2.5l0,0l1.8,2.7h0.4v-2.7h0.4v-0.2h-1.2v0.2h0.5v2.4l0,0l-1.7-2.6h-0.9v0.2h0.5V627.4z M-660,625.2L-660,625.2
			c-0.2-0.3-0.5-0.5-1-0.5c-1.1,0-1.6,0.7-1.6,1.5s0.5,1.5,1.5,1.5c0.4,0,0.9-0.2,1-0.5l0,0v0.5h0.3v-1.2h0.4v-0.2h-1.3v0.2h0.6v0.2
			c0,0.5-0.4,0.9-1,0.9c-0.7,0-1.2-0.4-1.2-1.3c0-0.8,0.5-1.3,1.2-1.3c0.6,0,1,0.3,1,0.8h0.2v-1h-0.1V625.2z M-657,627.6h1.2v-0.2
			h-0.5v-2.5h0.5v-0.2h-1.2v0.2h0.5v1.1h-1.8v-1.1h0.5v-0.2h-1.2v0.2h0.5v2.5h-0.5v0.2h1.2v-0.2h-0.5v-1.2h1.8v1.2h-0.5V627.6z
			 M-654.4,626.4l0.7-1.4l0,0l0.7,1.4H-654.4z M-655.5,627.6h1.1v-0.2h-0.5l0.4-0.8h1.5l0.4,0.8h-0.5v0.2h1.1v-0.2h-0.3l-1.2-2.7
			h-0.4l-1.2,2.7h-0.3L-655.5,627.6L-655.5,627.6z M-651.2,627.4h-0.5v0.2h1.2v-0.2h-0.5v-2.5l0,0l1.2,2.7h0.2l1.2-2.7l0,0v2.5h-0.4
			v0.2h1.2v-0.2h-0.5v-2.5h0.5v-0.2h-1l-1.1,2.5l0,0l-1.1-2.5h-1v0.2h0.5v2.5H-651.2z"/>
	</g>
	<g display="inline">
		<rect x="-792" y="624" fill="#214392" width="105.3" height="13.4"/>
		<g>
			<path fill="#FFFFFF" d="M-786.4,635.2h-4.7c-0.1,0-0.1,0-0.1-0.1v-0.3c0-0.1,0-0.1,0.2-0.1c0.5,0,0.8,0,1-0.2
				c0.2-0.2,0.2-0.7,0.2-1.7v-4.2c0-0.4,0-1.6-0.2-1.9c-0.2-0.2-0.6-0.2-1.1-0.2c-0.1,0-0.1-0.1-0.1-0.1v-0.2c0-0.1,0.1-0.1,0.1-0.1
				h4.8c1.5,0,2.3,0.9,2.3,2c0,1.4-0.8,2.1-2.1,2.3l0,0c1.7,0.1,2.6,1,2.6,2.4C-783.5,634.3-784.8,635.2-786.4,635.2 M-788.1,626.7
				v3.5h0.7c1,0,1.8-0.6,1.8-1.8C-785.6,627.1-786.3,626.3-788.1,626.7 M-787.2,630.7h-0.8v4c1,0.1,1.7,0,2.2-0.5
				c0.4-0.4,0.5-0.9,0.5-1.4C-785.3,631.6-785.9,630.7-787.2,630.7"/>
			<path fill="#FFFFFF" d="M-779.7,627.9c-0.4,0-0.8,0-0.9,0.2c-0.1,0.2-0.1,0.8-0.1,1.2v4.5c0,0.3,0,0.7,0.1,0.8
				c0.1,0.1,0.6,0.2,0.9,0.2c0.1,0,0.2,0,0.2,0.1v0.2c0,0.1,0,0.1-0.1,0.1h-3.7c-0.1,0-0.1,0-0.1-0.1v-0.2c0-0.1,0-0.1,0.2-0.1
				s0.7,0,0.9-0.2c0.1-0.2,0.1-0.7,0.1-1.2v-4.6c0-0.2,0-0.5-0.2-0.7c-0.1-0.1-0.7-0.2-0.8-0.2c-0.2,0-0.3,0-0.3-0.1v-0.2
				c0-0.1,0-0.1,0.1-0.1h3.8c0.1,0,0.1,0,0.1,0.1v0.2C-779.5,627.9-779.5,627.9-779.7,627.9"/>
			<path fill="#FFFFFF" d="M-772.4,635.2h-2c-0.6-1.3-1.3-2.6-2-3.8h-0.6v1.3c0,0.7,0,1.7,0.2,2c0.1,0.1,0.3,0.1,0.9,0.1
				c0.2,0,0.2,0,0.2,0.1v0.2c0,0.1,0,0.1-0.1,0.1h-3.6c-0.1,0-0.1,0-0.1-0.1v-0.2c0-0.1,0-0.1,0.1-0.1c0.4,0,0.7,0,0.9-0.1
				c0.1-0.1,0.1-1.3,0.1-2.1v-2.9c0-0.5,0-1.5-0.2-1.6c-0.1-0.1-0.6-0.1-0.9-0.1c-0.1,0-0.1,0-0.1-0.1v-0.3c0-0.1,0-0.1,0.1-0.1h3.9
				c1.6,0,2.4,0.8,2.4,1.9c0,1-0.8,1.6-1.6,1.9c0.4,0.7,1.8,3,2.1,3.4c0.1,0.1,0.2,0.2,0.5,0.2c0.1,0,0.1,0,0.1,0.1v0.2
				C-772.3,635.1-772.3,635.2-772.4,635.2 M-775.2,628.4c-0.3-0.3-0.7-0.5-1.3-0.5c-0.2,0-0.4,0-0.6,0c0,0.2,0,0.5,0,0.7v2.4
				c1.5,0,2.2-0.6,2.2-1.6C-774.9,629-775,628.6-775.2,628.4"/>
			<path fill="#FFFFFF" d="M-762.8,635.2h-2.9c-0.1,0-0.2,0-0.2-0.1v-0.2c0-0.1,0-0.1,0.2-0.1s0.7,0,0.8-0.2
				c0.1-0.1,0.1-0.3,0.1-0.6c0-0.4,0-0.9-0.1-1.4l-0.1-3.9l0,0c-0.5,1.2-2,4.9-2.5,6.2c-0.1,0.2-0.1,0.3-0.2,0.3h-0.2
				c-0.1,0-0.1-0.1-0.2-0.4c-0.5-1.4-1.8-4.7-2.5-6.1l0,0l-0.1,3.8c0,0.3,0,0.7,0,1c0,0.6,0,1,0.1,1.1c0.1,0.1,0.5,0.2,0.8,0.2
				c0.1,0,0.1,0,0.1,0.1v0.2c0,0.1,0,0.1-0.1,0.1h-2.3c-0.1,0-0.1,0-0.1-0.1v-0.2c0,0,0-0.1,0.1-0.1c0.2,0,0.5,0,0.7-0.2
				c0.1-0.1,0.2-1.2,0.2-1.7l0.2-3.1c0-0.3,0-0.7,0-1.1c0-0.4,0-0.6-0.1-0.7c-0.1-0.2-0.4-0.2-0.5-0.2c-0.1,0-0.1,0-0.1-0.1v-0.2
				c0-0.1,0-0.1,0.1-0.1h2c0.1,0,0.1,0.1,0.2,0.4c0.4,1.2,1.7,4.3,2.1,5.3c0.4-1,1.7-4,2.1-5.2c0.1-0.4,0.1-0.4,0.2-0.4h1.9h0.1v0.2
				c0,0.1,0,0.1-0.1,0.1c-0.3,0-0.5,0-0.6,0.1c-0.1,0.1-0.1,0.3-0.1,0.6c0,0.3,0,0.6,0,0.8l0.2,3.1c0,0.6,0.1,1.9,0.2,2
				c0.1,0.2,0.4,0.2,0.6,0.2c0.1,0,0.1,0,0.1,0.1v0.3C-762.7,635.2-762.7,635.2-762.8,635.2"/>
			<path fill="#FFFFFF" d="M-759.4,627.9c-0.4,0-0.8,0-0.9,0.2c-0.1,0.2-0.1,0.8-0.1,1.2v4.5c0,0.3,0,0.7,0.1,0.8
				c0.1,0.1,0.6,0.2,0.9,0.2c0.1,0,0.2,0,0.2,0.1v0.2c0,0.1,0,0.1-0.1,0.1h-3.7c-0.1,0-0.1,0-0.1-0.1v-0.2c0-0.1,0-0.1,0.2-0.1
				c0.2,0,0.7,0,0.9-0.2c0.1-0.2,0.1-0.7,0.1-1.2v-4.6c0-0.2,0-0.5-0.2-0.7c-0.1-0.1-0.7-0.2-0.8-0.2c-0.2,0-0.3,0-0.3-0.1v-0.2
				c0-0.1,0-0.1,0.1-0.1h3.8c0.1,0,0.1,0,0.1,0.1v0.2C-759.2,627.9-759.2,627.9-759.4,627.9"/>
			<path fill="#FFFFFF" d="M-750.9,627.9c-0.4,0-0.9,0-1,0.1c-0.1,0.1-0.1,0.7-0.1,0.9v6.3c0,0.1,0,0.1-0.1,0.1h-0.6
				c-0.6-1-1.6-2.2-2.4-3.2c-0.8-1-1.6-2.1-2.4-3.1v3.8c0,0.6,0,1.7,0.2,1.9c0.1,0.1,0.6,0.2,0.9,0.2c0.1,0,0.2,0,0.2,0.1v0.2
				c0,0.1,0,0.1-0.1,0.1h-2.9c-0.1,0-0.1,0-0.1-0.1V635c0,0,0-0.1,0.2-0.1c0.3,0,0.9,0,1-0.2c0.1-0.1,0.1-1.1,0.1-1.6v-3.7
				c0-0.4,0-1-0.1-1.2c-0.2-0.2-0.7-0.2-1-0.2c-0.2,0-0.2,0-0.2-0.2v-0.2c0,0,0-0.1,0.1-0.1h2.5c0.1,0,0.1,0.1,0.2,0.3
				c0.7,1,2.9,4,3.8,5.1v-3.8c0-0.3,0-0.9-0.1-1c-0.1-0.2-0.7-0.2-1-0.2c-0.2,0-0.2,0-0.2-0.1v-0.2c0-0.1,0-0.1,0.1-0.1h2.9
				c0,0,0.1,0,0.1,0.1v0.2C-750.8,627.9-750.8,627.9-750.9,627.9"/>
			<path fill="#FFFFFF" d="M-742.9,632c-1.1,0-1.1,0.3-1.1,1.1c0,0.4,0,1.3,0,1.8c-0.7,0.2-1.6,0.5-2.8,0.5c-1.6,0-2.6-0.4-3.3-1.2
				c-0.7-0.7-1-1.6-1-2.5c0-1.3,0.5-2.4,1.2-3.1c0.9-0.9,2-1.3,3.6-1.3c0.7,0,1.5,0.1,2.1,0.2c0.1,0,0.1,0,0.1,0.1v2.2
				c0,0.1,0,0.1-0.1,0.1h-0.3c-0.1,0-0.1-0.1-0.1-0.2c-0.4-0.9-1.1-1.8-2.2-1.8c-1.4,0-2.7,1.1-2.7,3.5c0,1.5,0.5,2.5,1,3
				c0.4,0.4,1,0.7,1.7,0.7c0.4,0,0.7-0.1,1.1-0.3c0-0.4,0-0.7,0-0.9V633c0-0.4,0-0.7-0.2-0.8c-0.2-0.2-0.5-0.2-0.9-0.2
				c-0.2,0-0.2,0-0.2-0.1v-0.3c0,0,0-0.1,0.1-0.1h3.9c0.1,0,0.1,0,0.1,0.1v0.2C-742.8,631.9-742.9,632-742.9,632"/>
			<path fill="#FFFFFF" d="M-734.9,635.2h-3.6c-0.1,0-0.1,0-0.1-0.1v-0.2c0-0.1,0-0.1,0.1-0.1c0.2,0,0.8,0,0.9-0.2
				c0.1-0.1,0.1-0.7,0.1-1.2v-1.9h-3.3v2.1c0,0.5,0,0.9,0.2,1c0.1,0.1,0.5,0.2,0.9,0.2c0.1,0,0.1,0,0.1,0.1v0.2c0,0.1,0,0.1-0.1,0.1
				h-3.6c-0.1,0-0.1,0-0.1-0.1v-0.2c0-0.1,0-0.1,0.2-0.1c0.6,0,0.8-0.1,0.9-0.2c0.1-0.1,0.1-0.5,0.1-0.8V629c0-0.5,0-0.8-0.2-0.9
				c-0.1-0.1-0.6-0.2-0.9-0.2c-0.2,0-0.2,0-0.2-0.1v-0.2c0-0.1,0-0.1,0.1-0.1h3.6c0.1,0,0.1,0,0.1,0.1v0.2c0,0.1,0,0.1-0.2,0.1
				c-0.3,0-0.7,0-0.8,0.2c-0.1,0.2-0.2,0.8-0.2,1.2v1.5h3.3v-1.7c0-0.5,0-0.9-0.2-1.1c-0.1-0.1-0.6-0.2-0.9-0.2
				c-0.1,0-0.1,0-0.1-0.1v-0.2c0-0.1,0-0.1,0.1-0.1h3.6c0.1,0,0.1,0,0.1,0.1v0.2c0,0.1,0,0.1-0.1,0.1c-0.4,0-0.8,0-0.9,0.2
				c-0.1,0.1-0.1,0.8-0.1,1.2v4.2c0,0.5,0,0.9,0.2,1.1c0.1,0.2,0.6,0.2,0.9,0.2c0.2,0,0.2,0,0.2,0.1L-734.9,635.2
				C-734.8,635.2-734.8,635.2-734.9,635.2"/>
			<path fill="#FFFFFF" d="M-727.9,635.2h-2.9c-0.1,0-0.1,0-0.1-0.1v-0.3c0,0,0-0.1,0.1-0.1c0.5,0,0.7-0.1,0.7-0.4
				c0-0.1,0-0.3-0.1-0.5l-0.3-1.1h-2.6l-0.4,1c-0.1,0.3-0.1,0.5-0.1,0.6c0,0.4,0.3,0.4,0.7,0.4c0.1,0,0.1,0,0.1,0.1v0.1
				c0,0.1,0,0.1-0.1,0.1h-2l-0.1-0.1v-0.2c0-0.1,0-0.1,0.1-0.1c0.4,0,0.6-0.4,0.9-1.1l2.3-6c0.1-0.2,0.1-0.4,0.2-0.4h0.6
				c0.1,0,0.1,0.3,0.3,0.7l2.2,6.1c0.2,0.4,0.4,0.7,0.7,0.7c0.1,0,0.1,0,0.1,0.1v0.2C-727.8,635.2-727.8,635.2-727.9,635.2
				 M-731.8,629.1l-1.2,3.2h2.3L-731.8,629.1z"/>
			<path fill="#FFFFFF" d="M-717.9,635.2h-3c-0.1,0-0.2,0-0.2-0.1v-0.2c0-0.1,0-0.1,0.2-0.1c0.2,0,0.7,0,0.8-0.2
				c0.1-0.1,0.1-0.3,0.1-0.6c0-0.4,0-0.9-0.1-1.4l-0.1-3.9l0,0c-0.5,1.2-2.1,4.9-2.6,6.2c-0.1,0.2-0.1,0.3-0.2,0.3h-0.2
				c-0.1,0-0.1-0.1-0.2-0.4c-0.6-1.4-1.9-4.7-2.6-6.1l0,0l-0.1,3.8c0,0.3,0,0.7,0,1c0,0.6,0,1,0.1,1.1c0.1,0.1,0.5,0.2,0.8,0.2
				c0.1,0,0.1,0,0.1,0.1v0.2c0,0.1,0,0.1-0.1,0.1h-2.4c-0.1,0-0.1,0-0.1-0.1v-0.2c0,0,0-0.1,0.1-0.1c0.2,0,0.6,0,0.7-0.2
				c0.1-0.1,0.2-1.2,0.2-1.7l0.2-3.1c0-0.3,0-0.7,0-1.1c0-0.4,0-0.6-0.1-0.7c-0.2-0.2-0.4-0.2-0.6-0.2c-0.1,0-0.1,0-0.1-0.1v-0.2
				c0-0.1,0-0.1,0.1-0.1h2.1c0.1,0,0.1,0.1,0.2,0.4c0.4,1.2,1.7,4.3,2.2,5.3c0.4-1,1.7-4,2.2-5.2c0.2-0.4,0.1-0.4,0.2-0.4h2h0.1v0.2
				c0,0.1,0,0.1-0.1,0.1c-0.3,0-0.5,0-0.6,0.1c-0.1,0.1-0.1,0.3-0.1,0.6c0,0.3,0,0.6,0,0.8l0.2,3.1c0,0.6,0.1,1.9,0.2,2
				c0.1,0.2,0.4,0.2,0.7,0.2c0.1,0,0.1,0,0.1,0.1v0.3C-717.8,635.2-717.8,635.2-717.9,635.2"/>
		</g>
		<g>
			<path fill="#FFFFFF" d="M-708.1,630.1c-0.7,0.7-1.7,1.1-3.2,1.1c-0.3,0-0.6,0-0.9,0v1.6c0,0.6,0,1.6,0.2,1.8s0.8,0.2,1.3,0.2
				c0.2,0,0.2,0,0.2,0.1v0.2c0,0.1,0,0.1-0.1,0.1h-4.9c-0.1,0-0.2,0-0.2-0.1v-0.2c0-0.1,0-0.1,0.2-0.1c0.4,0,1.1,0,1.2-0.2
				c0.2-0.2,0.2-1.8,0.2-2.6v-2.4c0-1,0-2.6-0.2-2.8c-0.2-0.2-0.8-0.2-1.3-0.2c-0.1,0-0.2,0-0.2-0.1v-0.3c0-0.1,0-0.1,0.1-0.1h5.1
				c0.9,0,1.8,0.3,2.3,0.9c0.4,0.4,0.6,1,0.6,1.5C-707.4,629.2-707.7,629.7-708.1,630.1 M-709.8,627.2c-0.4-0.5-1-0.6-1.7-0.6
				c-0.2,0-0.4,0-0.5,0c0,0.4,0,0.7,0,1.1v2.9c0.2,0,0.4,0,0.6,0c0.6,0,1.2-0.2,1.7-0.6c0.4-0.4,0.6-0.9,0.6-1.4
				C-709.3,628.1-709.4,627.6-709.8,627.2"/>
			<path fill="#FFFFFF" d="M-704,635.4c-2.3,0-3.8-1.6-3.8-3.8c0-2.2,1.6-4.2,4.2-4.2c2.6,0,3.8,1.9,3.8,3.9S-701.4,635.4-704,635.4
				 M-702.5,628.4c-0.4-0.5-0.9-0.7-1.4-0.7c-1.5,0-2.3,1.7-2.3,3.3c0,1.2,0.4,2.6,1,3.2c0.4,0.4,1,0.7,1.5,0.7c1.7,0,2.3-2,2.3-3.3
				C-701.4,630.7-701.7,629.2-702.5,628.4"/>
			<path fill="#FFFFFF" d="M-697.9,635.4c-0.9,0-1.6-0.2-2-0.2c-0.1,0-0.2-0.1-0.2-0.2v-2c0,0,0-0.1,0.1-0.1h0.3
				c0.1,0,0.1,0.1,0.1,0.2c0.2,0.7,0.4,1.1,0.5,1.2c0.3,0.3,0.7,0.6,1.4,0.6c0.9,0,1.5-0.6,1.5-1.3c0-0.3-0.1-0.5-0.3-0.8
				c-0.7-0.7-2.2-1-2.9-1.8c-0.4-0.4-0.6-0.9-0.6-1.5c0-1.2,1-2.3,3-2.3c0.6,0,1.5,0.1,1.8,0.2c0.1,0.1,0.2,0.1,0.2,0.1v1.7
				c0,0.1,0,0.1-0.1,0.1h-0.3c-0.1,0-0.1-0.1-0.2-0.2c-0.1-0.4-0.2-0.8-0.5-1.1c-0.3-0.3-0.7-0.4-1.2-0.4c-0.9,0-1.3,0.7-1.3,1.3
				c0,0.2,0.1,0.6,0.4,0.9c0.7,0.7,2.2,1,2.9,1.8c0.4,0.5,0.6,1,0.6,1.4C-694.8,634.8-696.2,635.4-697.9,635.4"/>
			<path fill="#FFFFFF" d="M-688.4,629.6h-0.2c-0.1,0-0.1,0-0.1-0.2c-0.3-0.9-0.6-1.5-2.1-1.4c0,0.3,0,0.5,0,0.7v3.3
				c0,0.8,0,2.3,0.2,2.5c0.2,0.2,0.7,0.2,1.1,0.2c0.1,0,0.1,0.1,0.1,0.1v0.3c0,0.1-0.1,0.1-0.1,0.1h-4.2c-0.1,0-0.1,0-0.1-0.1v-0.2
				c0-0.1,0-0.1,0.2-0.1c0.3,0,0.8,0,1.1-0.2c0.2-0.2,0.2-1.7,0.2-2.5v-3.2c0-0.3,0-0.5,0-0.8h-0.7c-0.7,0-1.2,0.5-1.5,1.3
				c-0.1,0.2-0.1,0.2-0.1,0.2h-0.3c-0.1,0-0.1-0.1-0.1-0.2v-1.8c0-0.1,0-0.1,0.1-0.1h6.4c0.1,0,0.1,0,0.1,0.1V629.6
				C-688.3,629.6-688.3,629.6-688.4,629.6"/>
		</g>
	</g>
</g>
<g id="Layer_2">
	<g>
		<path fill="#12100B" d="M-786.5,606c-0.9-0.8-1.7-1.1-2.4-1.1c-0.9,0-1.6,0.5-1.6,1.2c0,2,4.4,1.9,4.4,5.2c0,1.6-1.2,2.8-2.9,2.8
			c-1.1,0-2-0.3-2.9-0.9v-1.9c0.7,1,1.7,1.5,2.7,1.5c1.1,0,1.7-0.7,1.7-1.3c0-2.1-4.4-2.3-4.4-5.1c0-1.7,1.2-2.7,3.1-2.7
			c0.8,0,1.6,0.2,2.3,0.7V606z"/>
		<path fill="#12100B" d="M-781.4,603.8c2.2,0,3.2,1.3,3.2,2.9c0,1.6-1.1,2.9-3.4,2.9h-1.5v4.4h-1.5v-10.2H-781.4z M-783.1,608.2
			h1.7c1.1,0,1.8-0.6,1.8-1.6c0-0.7-0.4-1.6-1.7-1.6h-1.7V608.2z"/>
		<path fill="#12100B" d="M-771.8,603.6c3.4,0,5.5,2.4,5.5,5.2c0,2.7-2.1,5.2-5.5,5.2c-3.3,0-5.4-2.5-5.4-5.2
			C-777.3,606-775.1,603.6-771.8,603.6z M-771.8,612.7c2.3,0,4-1.7,4-3.9c0-2.2-1.7-3.9-4-3.9c-2.3,0-4,1.6-4,3.9
			C-775.8,611.1-774.1,612.7-771.8,612.7z"/>
		<path fill="#12100B" d="M-762,603.8c2.1,0,3.3,1.1,3.3,2.9c0,1.2-0.6,2.1-1.7,2.5c0.9,0.6,1.5,1.6,2.3,2.8c0.4,0.7,0.7,1,1.4,2
			h-1.7l-1.3-2.1c-1.3-2.1-2-2.3-2.7-2.3h-0.6v4.4h-1.5v-10.2H-762z M-763.1,608.2h0.9c1.6,0,2-0.8,2-1.7c0-1-0.6-1.5-2-1.5h-0.9
			V608.2z"/>
		<path fill="#12100B" d="M-749.2,605.1h-3.5v8.9h-1.5v-8.9h-3.5v-1.3h8.5V605.1z"/>
		<path fill="#12100B" d="M-743,606c-0.9-0.8-1.7-1.1-2.4-1.1c-0.9,0-1.6,0.5-1.6,1.2c0,2,4.4,1.9,4.4,5.2c0,1.6-1.2,2.8-2.9,2.8
			c-1.1,0-2-0.3-2.9-0.9v-1.9c0.7,1,1.7,1.5,2.7,1.5c1.1,0,1.7-0.7,1.7-1.3c0-2.1-4.4-2.3-4.4-5.1c0-1.7,1.2-2.7,3.1-2.7
			c0.8,0,1.6,0.2,2.3,0.7V606z"/>
		<path fill="#12100B" d="M-729.5,614h-1.5l-1.4-3h-4.3l-1.3,3h-1.5l4.4-10.3h1L-729.5,614z M-736.1,609.6h3.2l-1.6-3.7
			L-736.1,609.6z"/>
		<path fill="#12100B" d="M-719.3,614h-0.3l-3.3-8.3l-3.4,8.3h-0.3l-4.1-10.3h1.5l2.8,7l2.8-7h1.4l2.8,7l2.8-7h1.4L-719.3,614z"/>
		<path fill="#12100B" d="M-706.3,614h-1.5l-1.4-3h-4.3l-1.3,3h-1.5l4.4-10.3h1L-706.3,614z M-713,609.6h3.2l-1.6-3.7L-713,609.6z"
			/>
		<path fill="#12100B" d="M-702.6,603.8c2.1,0,3.3,1.1,3.3,2.9c0,1.2-0.6,2.1-1.7,2.5c0.9,0.6,1.5,1.6,2.3,2.8c0.4,0.7,0.7,1,1.4,2
			h-1.7l-1.3-2.1c-1.3-2.1-2-2.3-2.7-2.3h-0.6v4.4h-1.5v-10.2H-702.6z M-703.7,608.2h0.9c1.6,0,2-0.8,2-1.7c0-1-0.6-1.5-2-1.5h-0.9
			V608.2z"/>
		<path fill="#12100B" d="M-696.2,603.8h4c3.8,0,5.4,2.7,5.4,5.1c0,2.6-2,5.1-5.4,5.1h-4V603.8z M-694.7,612.6h2.3
			c3.3,0,4.1-2.5,4.1-3.8c0-2-1.3-3.8-4.2-3.8h-2.3V612.6z"/>
		<path fill="#12100B" d="M-680.1,606c-0.9-0.8-1.7-1.1-2.4-1.1c-0.9,0-1.6,0.5-1.6,1.2c0,2,4.4,1.9,4.4,5.2c0,1.6-1.2,2.8-2.9,2.8
			c-1.1,0-2-0.3-2.9-0.9v-1.9c0.7,1,1.7,1.5,2.7,1.5c1.1,0,1.7-0.7,1.7-1.3c0-2.1-4.4-2.3-4.4-5.1c0-1.7,1.2-2.7,3.1-2.7
			c0.8,0,1.6,0.2,2.3,0.7V606z"/>
		<path fill="#12100B" d="M-668.1,614h-6.5v-0.1c1.1-1.4,2.7-3.2,3.5-4.7c0.5-0.8,0.7-1.3,0.7-2.2c0-1.1-0.7-1.9-1.7-1.9
			c-0.7,0-1.5,0.3-2.3,1.4v-1.8c0.8-0.7,1.6-1,2.4-1c1.8,0,3.1,1.3,3.1,3.2c0,1.7-0.9,3-3.2,5.8h3.9V614z"/>
		<path fill="#12100B" d="M-663.9,614.1c-2,0-3.3-2.1-3.3-5.2c0-3.1,1.3-5.2,3.3-5.2c2,0,3.3,2.1,3.3,5.2
			C-660.6,612-661.9,614.1-663.9,614.1z M-663.9,605c-1.1,0-1.8,1.4-1.8,3.8c0,2.4,0.7,3.8,1.8,3.8c1.1,0,1.8-1.4,1.8-3.8
			C-662.1,606.5-662.7,605-663.9,605z"/>
		<path fill="#12100B" d="M-655.7,614h-1.5v-10.2h1.5V614z"/>
		<path fill="#12100B" d="M-646.6,605.1h-3.2v2.6c2.3-0.1,3.7,1.3,3.7,3.2c0,1.9-1.4,3.3-3.3,3.3c-0.9,0-1.6-0.2-2.5-0.6V612
			c0.7,0.5,1.5,0.7,2.2,0.7c1.2,0,2.1-0.8,2.1-1.8c0-1.3-1.3-2.3-3.6-1.8v-5.3h4.5V605.1z"/>
	</g>
	<g>
		<g>
			<linearGradient id="SVGID_40_" gradientUnits="userSpaceOnUse" x1="-678.0661" y1="516.7021" x2="-655.4221" y2="496.8011">
				<stop  offset="0" style="stop-color:#1F79BD"/>
				<stop  offset="1" style="stop-color:#26367F"/>
			</linearGradient>
			<path fill="url(#SVGID_40_)" d="M-656.7,492.3c-12-3.8-22.2,17.4-24.1,29.1C-682.8,533.1-634.2,499.5-656.7,492.3z"/>
			<linearGradient id="SVGID_41_" gradientUnits="userSpaceOnUse" x1="-699.756" y1="553.6785" x2="-659.9427" y2="528.1504">
				<stop  offset="0" style="stop-color:#1F79BD"/>
				<stop  offset="1" style="stop-color:#26367F"/>
			</linearGradient>
			<path fill="url(#SVGID_41_)" d="M-654.7,522c-25.8,5.2-67.4,44.7-48.1,37.5C-683.4,552.3-662.6,539.6-654.7,522z"/>
			<linearGradient id="SVGID_42_" gradientUnits="userSpaceOnUse" x1="-631.3798" y1="521.2812" x2="-670.5337" y2="521.2812">
				<stop  offset="0" style="stop-color:#C0E4FA"/>
				<stop  offset="1" style="stop-color:#2596D4"/>
			</linearGradient>
			<path fill="url(#SVGID_42_)" d="M-638.2,505.6c-6.6,24.9-30.6,43.5-64.6,53.8c44.6-17.2,60.4-57.2,44-58.2
				c-12.6-0.8-20.8,15.4-22,20.1c2.5-15.7,10.6-28.2,20.2-34.4C-647,478.2-632.6,484.3-638.2,505.6z"/>
			<radialGradient id="SVGID_43_" cx="-636.3965" cy="460.064" r="34.4738" gradientUnits="userSpaceOnUse">
				<stop  offset="0" style="stop-color:#C0E4FA"/>
				<stop  offset="1" style="stop-color:#2596D4"/>
			</radialGradient>
			<path fill="url(#SVGID_43_)" d="M-638.9,463.3c1.3,6.4-1.6,12.4-6.5,13.4c-4.9,1-10-3.3-11.4-9.7c-1.3-6.4,1.6-12.4,6.5-13.4
				C-645.4,452.5-640.3,456.9-638.9,463.3z"/>
		</g>
		<g>
			<linearGradient id="SVGID_44_" gradientUnits="userSpaceOnUse" x1="-707.0671" y1="464.3999" x2="-692.4621" y2="472.1187">
				<stop  offset="0.2089" style="stop-color:#E20A13"/>
				<stop  offset="1" style="stop-color:#C01F21"/>
			</linearGradient>
			<path fill="url(#SVGID_44_)" d="M-691.7,486.7c0.4-11-1-26-6.4-35.8c-5.4-9.8-5.8,14.9-0.3,28.3
				C-692.9,492.5-692,494.9-691.7,486.7z"/>
			<linearGradient id="SVGID_45_" gradientUnits="userSpaceOnUse" x1="-736.2173" y1="466.4735" x2="-748.096" y2="471.5581">
				<stop  offset="0.2292" style="stop-color:#E20A13"/>
				<stop  offset="1" style="stop-color:#C01F21"/>
			</linearGradient>
			<path fill="url(#SVGID_45_)" d="M-752.2,475.4c0.9-8.8,2.8-17.5,6.1-24.5c6.9-14.5,9.7,20.8,3,40.5L-752.2,475.4z"/>
			<linearGradient id="SVGID_46_" gradientUnits="userSpaceOnUse" x1="-735.0992" y1="562.271" x2="-712.7557" y2="539.0723">
				<stop  offset="0.2292" style="stop-color:#E20A13"/>
				<stop  offset="0.8593" style="stop-color:#C01F21"/>
			</linearGradient>
			<path fill="url(#SVGID_46_)" d="M-725.3,571.9c4.7,23.6,12.2,0.1,13.4-11.2c0.7-6.7,1.3-36.9,0.6-44.1c8.3,0.4,12.5-9.3,1.4-16.4
				C-714.3,532-732.4,536.7-725.3,571.9z"/>
			
				<linearGradient id="SVGID_47_" gradientUnits="userSpaceOnUse" x1="-1321.4786" y1="505.8004" x2="-1256.1157" y2="505.8004" gradientTransform="matrix(-1 0 0 1 -2009.4092 0)">
				<stop  offset="0" style="stop-color:#E20A13"/>
				<stop  offset="1" style="stop-color:#C01F21"/>
			</linearGradient>
			<path fill="url(#SVGID_47_)" d="M-698.1,450.9c27.5,39-8.9,66.1-13.8,109.8c1-22.8-8.5-38.7-22.1-49.2
				c-19.6-15.3-25.4-29.5-12.1-60.5c-6.3,25.9,2.8,46.5,27.9,46.5C-692.7,497.4-690.7,464.8-698.1,450.9z"/>
			<radialGradient id="SVGID_48_" cx="-712.3755" cy="471.8564" r="21.267" gradientUnits="userSpaceOnUse">
				<stop  offset="0" style="stop-color:#E20A13"/>
				<stop  offset="1" style="stop-color:#C01F21"/>
			</radialGradient>
			<ellipse fill="url(#SVGID_48_)" cx="-719.1" cy="477.4" rx="9.7" ry="11.3"/>
		</g>
		<g>
			
				<linearGradient id="SVGID_49_" gradientUnits="userSpaceOnUse" x1="-319.8927" y1="516.702" x2="-297.2491" y2="496.8013" gradientTransform="matrix(-1 0 0 1 -1079.8281 0)">
				<stop  offset="0" style="stop-color:#1F79BD"/>
				<stop  offset="1" style="stop-color:#26367F"/>
			</linearGradient>
			<path fill="url(#SVGID_49_)" d="M-781.3,492.3c12-3.8,22.2,17.4,24.1,29.1C-755.2,533.1-803.8,499.5-781.3,492.3z"/>
			
				<linearGradient id="SVGID_50_" gradientUnits="userSpaceOnUse" x1="-341.5826" y1="553.6783" x2="-301.7697" y2="528.1505" gradientTransform="matrix(-1 0 0 1 -1079.8281 0)">
				<stop  offset="0" style="stop-color:#1F79BD"/>
				<stop  offset="1" style="stop-color:#26367F"/>
			</linearGradient>
			<path fill="url(#SVGID_50_)" d="M-783.3,522c25.8,5.2,67.4,44.7,48.1,37.5C-754.6,552.3-775.4,539.6-783.3,522z"/>
			
				<linearGradient id="SVGID_51_" gradientUnits="userSpaceOnUse" x1="-273.208" y1="521.2812" x2="-312.3608" y2="521.2812" gradientTransform="matrix(-1 0 0 1 -1079.8281 0)">
				<stop  offset="0" style="stop-color:#C0E4FA"/>
				<stop  offset="1" style="stop-color:#2596D4"/>
			</linearGradient>
			<path fill="url(#SVGID_51_)" d="M-799.8,505.6c6.6,24.9,30.6,43.5,64.6,53.8c-44.6-17.2-60.4-57.2-44-58.2
				c12.6-0.8,20.8,15.4,22,20.1c-2.5-15.7-10.6-28.2-20.2-34.4C-791,478.2-805.4,484.3-799.8,505.6z"/>
			
				<radialGradient id="SVGID_52_" cx="-278.2232" cy="460.064" r="34.4738" gradientTransform="matrix(-1 0 0 1 -1079.8281 0)" gradientUnits="userSpaceOnUse">
				<stop  offset="0" style="stop-color:#C0E4FA"/>
				<stop  offset="1" style="stop-color:#2596D4"/>
			</radialGradient>
			<path fill="url(#SVGID_52_)" d="M-799.1,463.3c-1.3,6.4,1.6,12.4,6.5,13.4c4.9,1,10-3.3,11.4-9.7c1.3-6.4-1.6-12.4-6.5-13.4
				C-792.6,452.5-797.7,456.9-799.1,463.3z"/>
		</g>
	</g>
	<g>
		<g>
			<path fill="#12100B" d="M-785.9,600.7h-5.6V584h4.4c1.4,0,2.4,0.2,3.2,0.6c0.8,0.4,1.4,0.9,1.8,1.5c0.4,0.6,0.6,1.4,0.6,2.3
				c0,1.6-0.8,2.8-2.5,3.5c1.2,0.2,2.2,0.7,2.9,1.5c0.7,0.8,1.1,1.7,1.1,2.8c0,0.9-0.2,1.6-0.7,2.3c-0.4,0.7-1.1,1.2-1.9,1.6
				C-783.6,600.5-784.6,600.7-785.9,600.7z M-787.1,586.1h-2.1v5h1.6c1.3,0,2.2-0.2,2.7-0.7c0.5-0.5,0.8-1.1,0.8-1.9
				C-784.1,586.9-785.1,586.1-787.1,586.1z M-786.9,593.3h-2.2v5.3h2.4c1.3,0,2.2-0.1,2.7-0.3c0.5-0.2,0.8-0.5,1.1-0.9
				c0.3-0.4,0.4-0.9,0.4-1.4c0-0.5-0.1-1-0.4-1.4s-0.7-0.7-1.3-0.9C-784.9,593.4-785.8,593.3-786.9,593.3z"/>
			<path fill="#12100B" d="M-777.9,584h2.4v16.7h-2.4V584z"/>
			<path fill="#12100B" d="M-771.9,600.7V584h4.2c1.7,0,3,0.4,4,1.3c1,0.8,1.5,2,1.5,3.4c0,1-0.2,1.8-0.7,2.5
				c-0.5,0.7-1.2,1.2-2.1,1.6c0.5,0.3,1.1,0.8,1.6,1.4c0.5,0.6,1.2,1.7,2.1,3.2c0.6,0.9,1,1.7,1.4,2.1l0.9,1.2h-2.8l-0.7-1.1
				c0,0-0.1-0.1-0.1-0.2l-0.5-0.7l-0.7-1.2l-0.8-1.3c-0.5-0.7-0.9-1.2-1.4-1.6c-0.4-0.4-0.8-0.7-1.1-0.9c-0.3-0.2-0.9-0.3-1.7-0.3
				h-0.6v7.3H-771.9z M-768.8,586h-0.7v5.3h0.9c1.2,0,2-0.1,2.5-0.3c0.4-0.2,0.8-0.5,1.1-0.9c0.3-0.4,0.4-0.9,0.4-1.4
				c0-0.5-0.1-1-0.4-1.4c-0.3-0.4-0.7-0.7-1.2-0.9C-766.8,586.1-767.6,586-768.8,586z"/>
			<path fill="#12100B" d="M-744,584h2.2v16.7h-2.4v-13l-5.1,6.4h-0.4l-5.2-6.4v13h-2.4V584h2.3l5.5,6.8L-744,584z"/>
			<path fill="#12100B" d="M-738.3,584h2.4v16.7h-2.4V584z"/>
			<path fill="#12100B" d="M-719.1,584h2.3v16.7h-2.1l-11.1-12.8v12.8h-2.2V584h1.9l11.2,12.9V584z"/>
			<path fill="#12100B" d="M-704.4,592.5h5.6v7.1c-2.1,0.9-4.1,1.3-6.1,1.3c-2.8,0-5-0.8-6.6-2.4c-1.7-1.6-2.5-3.6-2.5-6
				c0-2.5,0.9-4.6,2.6-6.2c1.7-1.7,3.9-2.5,6.4-2.5c0.9,0,1.8,0.1,2.7,0.3c0.8,0.2,1.9,0.6,3.2,1.1v2.4c-2-1.2-4-1.7-5.9-1.7
				c-1.8,0-3.4,0.6-4.6,1.9c-1.2,1.2-1.9,2.8-1.9,4.6c0,1.9,0.6,3.4,1.9,4.6c1.2,1.2,2.9,1.8,4.8,1.8c1,0,2.1-0.2,3.4-0.7l0.2-0.1
				v-3.5h-3.2V592.5z"/>
			<path fill="#12100B" d="M-683.7,584h2.4v16.7h-2.4v-7.3h-9.4v7.3h-2.4V584h2.4v7.2h9.4V584z"/>
			<path fill="#12100B" d="M-672.4,583.9h1.7l7.5,16.8h-2.4l-2.2-4.9h-7.1l-2.1,4.9h-2.5L-672.4,583.9z M-668.9,593.6l-2.7-6l-2.5,6
				H-668.9z"/>
			<path fill="#12100B" d="M-648.3,584h2.2v16.7h-2.4v-13l-5.1,6.4h-0.4l-5.2-6.4v13h-2.4V584h2.3l5.5,6.8L-648.3,584z"/>
		</g>
		<g>
			<path fill="#E20518" d="M-786.3,600.3h-5.6v-16.7h4.4c1.4,0,2.4,0.2,3.2,0.6c0.8,0.4,1.4,0.9,1.8,1.5c0.4,0.6,0.6,1.4,0.6,2.3
				c0,1.6-0.8,2.8-2.5,3.5c1.2,0.2,2.2,0.7,2.9,1.5c0.7,0.8,1.1,1.7,1.1,2.8c0,0.9-0.2,1.6-0.7,2.3c-0.4,0.7-1.1,1.2-1.9,1.6
				C-783.9,600.1-785,600.3-786.3,600.3z M-787.5,585.7h-2.1v5h1.6c1.3,0,2.2-0.2,2.7-0.7c0.5-0.5,0.8-1.1,0.8-1.9
				C-784.4,586.5-785.4,585.7-787.5,585.7z M-787.3,592.9h-2.2v5.3h2.4c1.3,0,2.2-0.1,2.7-0.3c0.5-0.2,0.8-0.5,1.1-0.9
				c0.3-0.4,0.4-0.9,0.4-1.4c0-0.5-0.1-1-0.4-1.4s-0.7-0.7-1.3-0.9C-785.2,593-786.1,592.9-787.3,592.9z"/>
			<path fill="#E20518" d="M-778.3,583.6h2.4v16.7h-2.4V583.6z"/>
			<path fill="#E20518" d="M-772.2,600.3v-16.7h4.2c1.7,0,3,0.4,4,1.3c1,0.8,1.5,2,1.5,3.4c0,1-0.2,1.8-0.7,2.5
				c-0.5,0.7-1.2,1.2-2.1,1.6c0.5,0.3,1.1,0.8,1.6,1.4c0.5,0.6,1.2,1.7,2.1,3.2c0.6,0.9,1,1.7,1.4,2.1l0.9,1.2h-2.8l-0.7-1.1
				c0,0-0.1-0.1-0.1-0.2l-0.5-0.7l-0.7-1.2l-0.8-1.3c-0.5-0.7-0.9-1.2-1.4-1.6c-0.4-0.4-0.8-0.7-1.1-0.9c-0.3-0.2-0.9-0.3-1.7-0.3
				h-0.6v7.3H-772.2z M-769.1,585.6h-0.7v5.3h0.9c1.2,0,2-0.1,2.5-0.3c0.4-0.2,0.8-0.5,1.1-0.9c0.3-0.4,0.4-0.9,0.4-1.4
				c0-0.5-0.1-1-0.4-1.4c-0.3-0.4-0.7-0.7-1.2-0.9C-767.1,585.7-768,585.6-769.1,585.6z"/>
			<path fill="#E20518" d="M-744.4,583.6h2.2v16.7h-2.4v-13l-5.1,6.4h-0.4l-5.2-6.4v13h-2.4v-16.7h2.3l5.5,6.8L-744.4,583.6z"/>
			<path fill="#E20518" d="M-738.7,583.6h2.4v16.7h-2.4V583.6z"/>
			<path fill="#E20518" d="M-719.5,583.6h2.3v16.7h-2.1l-11.1-12.8v12.8h-2.2v-16.7h1.9l11.2,12.9V583.6z"/>
			<path fill="#E20518" d="M-704.8,592.1h5.6v7.1c-2.1,0.9-4.1,1.3-6.1,1.3c-2.8,0-5-0.8-6.6-2.4c-1.7-1.6-2.5-3.6-2.5-6
				c0-2.5,0.9-4.6,2.6-6.2c1.7-1.7,3.9-2.5,6.4-2.5c0.9,0,1.8,0.1,2.7,0.3c0.8,0.2,1.9,0.6,3.2,1.1v2.4c-2-1.2-4-1.7-5.9-1.7
				c-1.8,0-3.4,0.6-4.6,1.9c-1.2,1.2-1.9,2.8-1.9,4.6c0,1.9,0.6,3.4,1.9,4.6c1.2,1.2,2.9,1.8,4.8,1.8c1,0,2.1-0.2,3.4-0.7l0.2-0.1
				v-3.5h-3.2V592.1z"/>
			<path fill="#E20518" d="M-684,583.6h2.4v16.7h-2.4V593h-9.4v7.3h-2.4v-16.7h2.4v7.2h9.4V583.6z"/>
			<path fill="#E20518" d="M-672.8,583.5h1.7l7.5,16.8h-2.4l-2.2-4.9h-7.1l-2.1,4.9h-2.5L-672.8,583.5z M-669.3,593.2l-2.7-6l-2.5,6
				H-669.3z"/>
			<path fill="#E20518" d="M-648.7,583.6h2.2v16.7h-2.4v-13l-5.1,6.4h-0.4l-5.2-6.4v13h-2.4v-16.7h2.3l5.5,6.8L-648.7,583.6z"/>
		</g>
	</g>
	<polygon fill="#CC1719" points="-681.5,621.2 -681.5,634.5 -646.2,634.5 -646.2,621.2 -681.5,621.2 	"/>
	<path fill="#FFFFFF" d="M-662.8,632.2h-0.9v1.3h3.8v-1.3h-0.5l-2.6-6.6h-2.7l-2.7,6.6h-0.5v1.3h3.5v-1.3h-0.9l0.4-1h2.8
		L-662.8,632.2L-662.8,632.2z M-663.7,630h-1.8l0.9-2.8h0L-663.7,630L-663.7,630z"/>
	<polygon fill="#FFFFFF" points="-658.5,632.2 -659.4,632.2 -659.4,633.5 -655.4,633.5 -655.4,632.2 -656.2,632.2 -656.2,626.9 
		-655.4,626.9 -655.4,625.6 -659.4,625.6 -659.4,626.9 -658.5,626.9 -658.5,632.2 	"/>
	<polygon fill="#FFFFFF" points="-649.8,632.2 -651.7,632.2 -651.7,626.9 -650.6,626.9 -650.6,625.6 -654.8,625.6 -654.8,626.9 
		-654.1,626.9 -654.1,632.2 -654.8,632.2 -654.8,633.5 -647.9,633.5 -647.9,630.5 -649.8,630.5 -649.8,632.2 	"/>
	<polygon fill="#FFFFFF" points="-670.3,632.2 -670.3,626.9 -669.4,626.9 -669.4,625.6 -670.7,625.6 -672.4,625.6 -672.4,625.6 
		-674.7,629.7 -676.9,625.6 -676.9,625.6 -678.6,625.6 -679.9,625.6 -679.9,626.9 -679,626.9 -679,632.2 -679.9,632.2 -679.9,633.5 
		-675.8,633.5 -675.8,632.2 -676.7,632.2 -676.7,629.4 -674.7,633.5 -672.6,629.4 -672.6,632.2 -673.5,632.2 -673.5,633.5 
		-669.4,633.5 -669.4,632.2 -670.3,632.2 	"/>
	<path fill="#FFFFFF" d="M-679.8,624.8h1.6c0.5,0,0.9-0.3,0.9-0.8c0-0.2-0.2-0.7-0.7-0.7v0c0.4,0,0.7-0.3,0.7-0.7
		c0-0.3-0.1-0.7-0.9-0.7h-1.6v0.2h0.5v2.4h-0.5V624.8L-679.8,624.8z M-679.1,622.2h0.9c0.4,0,0.6,0.2,0.6,0.5c0,0.3-0.3,0.6-0.7,0.6
		h-0.8V622.2L-679.1,622.2z M-679.1,623.5h0.8c0.5,0,0.7,0.2,0.7,0.6c0,0.4-0.3,0.6-0.8,0.6h-0.7V623.5L-679.1,623.5z M-676.5,624.7
		h-0.5v0.2h1.2v-0.2h-0.5v-2.4h0.5v-0.2h-1.2v0.2h0.5V624.7L-676.5,624.7z M-675.4,624.8h1.2v-0.2h-0.5v-1.1h0.6
		c0.5,0,0.6,0.1,0.8,0.8l0.1,0.5h0.6v-0.2h-0.3l-0.2-0.6c-0.1-0.3-0.2-0.5-0.5-0.6v0c0.4,0,0.7-0.3,0.7-0.7c0-0.5-0.3-0.8-1-0.8
		h-1.5v0.2h0.5v2.4h-0.5V624.8L-675.4,624.8z M-674.7,622.2h0.6c0.6,0,0.8,0.2,0.8,0.6c0,0.2-0.2,0.6-0.8,0.6h-0.6V622.2
		L-674.7,622.2z M-671.7,624.7h-0.5v0.2h1.2v-0.2h-0.4v-2.4h0l1.1,2.6h0.2l1.1-2.6h0v2.4h-0.4v0.2h1.2v-0.2h-0.5v-2.4h0.5v-0.2h-1
		l-1.1,2.5h0l-1.1-2.5h-1v0.2h0.5V624.7L-671.7,624.7z M-667.3,624.7h-0.5v0.2h1.2v-0.2h-0.5v-2.4h0.5v-0.2h-1.2v0.2h0.5V624.7
		L-667.3,624.7z M-665.7,624.7h-0.5v0.2h1.2v-0.2h-0.5v-2.4h0l1.7,2.6h0.4v-2.6h0.4v-0.2h-1.2v0.2h0.5v2.4h0l-1.7-2.5h-0.9v0.2h0.5
		V624.7L-665.7,624.7z M-660.2,622.5L-660.2,622.5c-0.2-0.3-0.5-0.5-1-0.5c-1.1,0-1.5,0.7-1.5,1.4c0,0.8,0.5,1.4,1.5,1.4
		c0.4,0,0.9-0.2,1-0.5h0v0.4h0.3v-1.2h0.4v-0.2h-1.2v0.2h0.6v0.2c0,0.5-0.4,0.9-1,0.9c-0.7,0-1.2-0.4-1.2-1.2c0-0.8,0.5-1.2,1.2-1.2
		c0.6,0,1,0.3,1,0.8h0.2v-1h-0.2V622.5L-660.2,622.5z M-657.3,624.8h1.2v-0.2h-0.5v-2.4h0.5v-0.2h-1.2v0.2h0.5v1.1h-1.8v-1.1h0.5
		v-0.2h-1.2v0.2h0.5v2.4h-0.5v0.2h1.2v-0.2h-0.5v-1.2h1.8v1.2h-0.5V624.8L-657.3,624.8z M-654.7,623.7l0.6-1.4h0l0.6,1.4H-654.7
		L-654.7,623.7z M-655.8,624.8h1.1v-0.2h-0.5l0.4-0.8h1.5l0.4,0.8h-0.5v0.2h1.1v-0.2h-0.3l-1.2-2.6h-0.3l-1.2,2.6h-0.3V624.8
		L-655.8,624.8z M-651.6,624.7h-0.5v0.2h1.2v-0.2h-0.4v-2.4h0l1.1,2.6h0.2l1.1-2.6h0v2.4h-0.4v0.2h1.2v-0.2h-0.5v-2.4h0.5v-0.2h-1
		l-1.1,2.5h0l-1.1-2.5h-1v0.2h0.5V624.7L-651.6,624.7z"/>
	<g>
		<rect x="-791.8" y="621.2" fill="#263887" width="105" height="13.3"/>
		<path fill="#FFFFFF" d="M-786.2,632.3h-4.7c-0.1,0-0.1,0-0.1-0.1V632c0-0.1,0-0.1,0.2-0.1c0.5,0,0.8,0,1-0.2
			c0.2-0.2,0.2-0.7,0.2-1.7v-4.2c0-0.4,0-1.6-0.2-1.9c-0.2-0.2-0.6-0.2-1-0.2c-0.1,0-0.1-0.1-0.1-0.1v-0.2c0-0.1,0.1-0.1,0.1-0.1
			h4.8c1.5,0,2.3,0.9,2.3,2c0,1.4-0.8,2.1-2.1,2.3v0c1.7,0.1,2.5,1,2.5,2.4C-783.3,631.4-784.6,632.3-786.2,632.3z M-787.9,623.8
			v3.5h0.7c1,0,1.8-0.6,1.8-1.8C-785.4,624.2-786.1,623.4-787.9,623.8z M-787,627.8h-0.8v4c1,0.1,1.7,0,2.2-0.5
			c0.4-0.4,0.5-0.9,0.5-1.4C-785.1,628.7-785.8,627.8-787,627.8z"/>
		<path fill="#FFFFFF" d="M-779.5,625c-0.4,0-0.8,0-0.9,0.2c-0.1,0.2-0.1,0.8-0.1,1.2v4.5c0,0.3,0,0.7,0.1,0.8
			c0.1,0.1,0.6,0.2,0.9,0.2c0.1,0,0.2,0,0.2,0.1v0.2c0,0.1,0,0.1-0.1,0.1h-3.7c-0.1,0-0.1,0-0.1-0.1V632c0-0.1,0-0.1,0.2-0.1
			c0.2,0,0.7,0,0.9-0.2c0.1-0.1,0.1-0.7,0.1-1.2v-4.6c0-0.2,0-0.5-0.2-0.7c-0.1-0.1-0.7-0.2-0.8-0.2c-0.2,0-0.3,0-0.3-0.1v-0.2
			c0-0.1,0-0.1,0.1-0.1h3.8c0.1,0,0.1,0,0.1,0.1v0.2C-779.4,625-779.4,625-779.5,625z"/>
		<path fill="#FFFFFF" d="M-772.2,632.3h-2c-0.6-1.3-1.3-2.6-2-3.8h-0.6v1.3c0,0.7,0,1.7,0.2,1.9c0.1,0.1,0.3,0.1,0.9,0.1
			c0.2,0,0.2,0,0.2,0.1v0.2c0,0.1,0,0.1-0.1,0.1h-3.6c-0.1,0-0.1,0-0.1-0.1V632c0-0.1,0-0.1,0.1-0.1c0.4,0,0.7,0,0.9-0.1
			c0.1-0.1,0.1-1.3,0.1-2.1v-2.9c0-0.5,0-1.5-0.2-1.6c-0.1-0.1-0.6-0.1-0.9-0.1c-0.1,0-0.1,0-0.1-0.1v-0.3c0-0.1,0-0.1,0.1-0.1h3.9
			c1.6,0,2.4,0.8,2.4,1.9c0,1-0.8,1.6-1.6,1.9c0.4,0.7,1.8,3,2.1,3.4c0.1,0.1,0.2,0.2,0.5,0.2c0.1,0,0.1,0,0.1,0.1v0.2
			C-772.2,632.2-772.2,632.3-772.2,632.3z M-775.1,625.5c-0.3-0.3-0.7-0.5-1.3-0.5c-0.2,0-0.4,0-0.6,0c0,0.2,0,0.5,0,0.7v2.3
			c1.5,0,2.2-0.6,2.2-1.6C-774.7,626.1-774.8,625.7-775.1,625.5z"/>
		<path fill="#FFFFFF" d="M-762.7,632.3h-2.9c-0.1,0-0.2,0-0.2-0.1V632c0-0.1,0-0.1,0.2-0.1c0.2,0,0.7,0,0.8-0.2
			c0.1-0.1,0.1-0.3,0.1-0.6c0-0.4,0-0.9-0.1-1.4l-0.1-3.9h0c-0.5,1.2-2,4.8-2.5,6.2c-0.1,0.2-0.1,0.3-0.2,0.3h-0.2
			c-0.1,0-0.1-0.1-0.2-0.4c-0.5-1.4-1.8-4.7-2.5-6.1h0l-0.1,3.8c0,0.3,0,0.7,0,1c0,0.6,0,1,0.1,1.1c0.1,0.1,0.5,0.2,0.8,0.2
			c0.1,0,0.1,0,0.1,0.1v0.2c0,0.1,0,0.1-0.1,0.1h-2.3c-0.1,0-0.1,0-0.1-0.1V632c0,0,0-0.1,0.1-0.1c0.2,0,0.5,0,0.7-0.2
			c0.1-0.1,0.2-1.2,0.2-1.7l0.2-3.1c0-0.3,0-0.7,0-1.1c0-0.4,0-0.6-0.1-0.7c-0.1-0.2-0.4-0.2-0.5-0.2c-0.1,0-0.1,0-0.1-0.1v-0.2
			c0-0.1,0-0.1,0.1-0.1h2c0.1,0,0.1,0.1,0.2,0.4c0.4,1.2,1.7,4.3,2.1,5.2c0.4-1,1.7-4,2.1-5.2c0.1-0.4,0.1-0.4,0.2-0.4h1.9
			c0,0,0.1,0,0.1,0v0.2c0,0.1,0,0.1-0.1,0.1c-0.3,0-0.5,0-0.6,0.1c-0.1,0.1-0.1,0.3-0.1,0.6c0,0.3,0,0.6,0,0.8l0.2,3.1
			c0,0.6,0.1,1.8,0.2,2c0.1,0.2,0.4,0.2,0.6,0.2c0.1,0,0.1,0,0.1,0.1v0.3C-762.6,632.3-762.6,632.3-762.7,632.3z"/>
		<path fill="#FFFFFF" d="M-759.3,625c-0.4,0-0.8,0-0.9,0.2c-0.1,0.2-0.1,0.8-0.1,1.2v4.5c0,0.3,0,0.7,0.1,0.8
			c0.1,0.1,0.6,0.2,0.9,0.2c0.1,0,0.2,0,0.2,0.1v0.2c0,0.1,0,0.1-0.1,0.1h-3.7c-0.1,0-0.1,0-0.1-0.1V632c0-0.1,0-0.1,0.2-0.1
			c0.2,0,0.7,0,0.9-0.2c0.1-0.1,0.1-0.7,0.1-1.2v-4.6c0-0.2,0-0.5-0.2-0.7c-0.1-0.1-0.7-0.2-0.8-0.2c-0.2,0-0.3,0-0.3-0.1v-0.2
			c0-0.1,0-0.1,0.1-0.1h3.8c0.1,0,0.1,0,0.1,0.1v0.2C-759.1,625-759.1,625-759.3,625z"/>
		<path fill="#FFFFFF" d="M-750.8,625c-0.4,0-0.9,0-1,0.1c-0.1,0.1-0.1,0.7-0.1,0.9v6.2c0,0.1,0,0.1-0.1,0.1h-0.6
			c-0.6-1-1.5-2.2-2.4-3.2c-0.8-1-1.5-2.1-2.4-3.1v3.8c0,0.6,0,1.7,0.2,1.9c0.1,0.1,0.6,0.2,0.9,0.2c0.1,0,0.2,0,0.2,0.1v0.2
			c0,0.1,0,0.1-0.1,0.1h-2.9c-0.1,0-0.1,0-0.1-0.1V632c0,0,0-0.1,0.2-0.1c0.3,0,0.8,0,1-0.2c0.1-0.1,0.1-1.1,0.1-1.6v-3.7
			c0-0.4,0-1-0.1-1.2c-0.2-0.2-0.7-0.2-1-0.2c-0.2,0-0.2,0-0.2-0.2v-0.2c0,0,0-0.1,0.1-0.1h2.5c0.1,0,0.1,0.1,0.2,0.3
			c0.7,1,2.9,4,3.8,5.1v-3.8c0-0.3,0-0.9-0.1-1c-0.1-0.2-0.7-0.2-1-0.2c-0.2,0-0.2,0-0.2-0.1v-0.2c0-0.1,0-0.1,0.1-0.1h2.9
			c0,0,0.1,0,0.1,0.1v0.2C-750.7,625-750.7,625-750.8,625z"/>
		<path fill="#FFFFFF" d="M-742.9,629.1c-1.1,0-1.1,0.3-1.1,1.1c0,0.4,0,1.3,0,1.8c-0.7,0.2-1.6,0.5-2.8,0.5c-1.6,0-2.6-0.4-3.3-1.2
			c-0.7-0.7-1-1.6-1-2.5c0-1.3,0.5-2.4,1.2-3.1c0.9-0.9,2-1.3,3.6-1.3c0.7,0,1.5,0.1,2.1,0.2c0.1,0,0.1,0,0.1,0.1v2.2
			c0,0.1,0,0.1-0.1,0.1h-0.3c-0.1,0-0.1-0.1-0.1-0.2c-0.4-0.9-1.1-1.8-2.1-1.8c-1.4,0-2.7,1.1-2.7,3.5c0,1.5,0.5,2.5,1,3
			c0.4,0.4,1,0.7,1.7,0.7c0.4,0,0.7-0.1,1.1-0.3c0-0.4,0-0.7,0-0.9v-0.8c0-0.4,0-0.7-0.2-0.8c-0.2-0.2-0.5-0.2-0.9-0.2
			c-0.2,0-0.2,0-0.2-0.1v-0.3c0,0,0-0.1,0.1-0.1h3.9c0.1,0,0.1,0,0.1,0.1v0.2C-742.7,629-742.8,629.1-742.9,629.1z"/>
		<path fill="#FFFFFF" d="M-734.9,632.3h-3.6c-0.1,0-0.1,0-0.1-0.1V632c0-0.1,0-0.1,0.1-0.1c0.2,0,0.7,0,0.9-0.2
			c0.1-0.1,0.1-0.7,0.1-1.2v-1.9h-3.3v2.1c0,0.5,0,0.9,0.2,1c0.1,0.1,0.5,0.2,0.9,0.2c0.1,0,0.1,0,0.1,0.1v0.2c0,0.1,0,0.1-0.1,0.1
			h-3.6c-0.1,0-0.1,0-0.1-0.1V632c0-0.1,0-0.1,0.2-0.1c0.6,0,0.8-0.1,0.9-0.2c0.1-0.1,0.1-0.5,0.1-0.8v-4.8c0-0.5,0-0.8-0.2-0.9
			c-0.1-0.1-0.6-0.2-0.9-0.2c-0.2,0-0.2,0-0.2-0.1v-0.2c0-0.1,0-0.1,0.1-0.1h3.6c0.1,0,0.1,0,0.1,0.1v0.2c0,0.1,0,0.1-0.2,0.1
			c-0.3,0-0.7,0-0.8,0.2c-0.1,0.2-0.2,0.8-0.2,1.2v1.5h3.3v-1.7c0-0.5,0-0.9-0.2-1.1c-0.1-0.1-0.6-0.2-0.9-0.2c-0.1,0-0.1,0-0.1-0.1
			v-0.2c0-0.1,0-0.1,0.1-0.1h3.6c0.1,0,0.1,0,0.1,0.1v0.2c0,0.1,0,0.1-0.1,0.1c-0.4,0-0.8,0-0.9,0.2c-0.1,0.1-0.1,0.8-0.1,1.2v4.2
			c0,0.5,0,0.9,0.2,1.1c0.1,0.2,0.6,0.2,0.8,0.2c0.2,0,0.2,0,0.2,0.1L-734.9,632.3C-734.8,632.3-734.8,632.3-734.9,632.3z"/>
		<path fill="#FFFFFF" d="M-727.8,632.3h-2.9c-0.1,0-0.1,0-0.1-0.1V632c0,0,0-0.1,0.1-0.1c0.5,0,0.7-0.1,0.7-0.4
			c0-0.1,0-0.3-0.1-0.5l-0.3-1.1h-2.6l-0.4,1c-0.1,0.3-0.1,0.5-0.1,0.6c0,0.4,0.3,0.4,0.7,0.4c0.1,0,0.1,0,0.1,0.1v0.1
			c0,0.1,0,0.1-0.1,0.1h-2c0,0-0.1-0.1-0.1-0.1V632c0-0.1,0-0.1,0.1-0.1c0.4,0,0.6-0.4,0.9-1.1l2.3-6c0.1-0.2,0.1-0.4,0.2-0.4h0.6
			c0.1,0,0.1,0.3,0.3,0.7l2.2,6.1c0.2,0.4,0.4,0.7,0.7,0.7c0.1,0,0.1,0,0.1,0.1v0.2C-727.8,632.3-727.8,632.3-727.8,632.3z
			 M-731.8,626.2l-1.2,3.2h2.3L-731.8,626.2z"/>
		<path fill="#FFFFFF" d="M-717.9,632.3h-3c-0.1,0-0.2,0-0.2-0.1V632c0-0.1,0-0.1,0.2-0.1c0.2,0,0.7,0,0.8-0.2
			c0.1-0.1,0.1-0.3,0.1-0.6c0-0.4,0-0.9-0.1-1.4l-0.1-3.9h0c-0.5,1.2-2.1,4.8-2.6,6.2c-0.1,0.2-0.1,0.3-0.2,0.3h-0.2
			c-0.1,0-0.1-0.1-0.2-0.4c-0.6-1.4-1.9-4.7-2.6-6.1h0l-0.1,3.8c0,0.3,0,0.7,0,1c0,0.6,0,1,0.1,1.1c0.1,0.1,0.5,0.2,0.8,0.2
			c0.1,0,0.1,0,0.1,0.1v0.2c0,0.1,0,0.1-0.1,0.1h-2.4c-0.1,0-0.1,0-0.1-0.1V632c0,0,0-0.1,0.1-0.1c0.2,0,0.6,0,0.7-0.2
			c0.1-0.1,0.2-1.2,0.2-1.7l0.2-3.1c0-0.3,0-0.7,0-1.1c0-0.4,0-0.6-0.1-0.7c-0.2-0.2-0.4-0.2-0.6-0.2c-0.1,0-0.1,0-0.1-0.1v-0.2
			c0-0.1,0-0.1,0.1-0.1h2.1c0.1,0,0.1,0.1,0.2,0.4c0.4,1.2,1.7,4.3,2.2,5.2c0.4-1,1.7-4,2.2-5.2c0.2-0.4,0.1-0.4,0.2-0.4h2
			c0,0,0.1,0,0.1,0v0.2c0,0.1,0,0.1-0.1,0.1c-0.3,0-0.5,0-0.6,0.1c-0.1,0.1-0.1,0.3-0.1,0.6c0,0.3,0,0.6,0,0.8l0.2,3.1
			c0,0.6,0.1,1.8,0.2,2c0.1,0.2,0.4,0.2,0.7,0.2c0.1,0,0.1,0,0.1,0.1v0.3C-717.8,632.3-717.8,632.3-717.9,632.3z"/>
		<path fill="#FFFFFF" d="M-708.1,627.2c-0.7,0.7-1.7,1.1-3.1,1.1c-0.3,0-0.6,0-0.9,0v1.6c0,0.6,0,1.6,0.2,1.8
			c0.2,0.2,0.8,0.2,1.3,0.2c0.2,0,0.2,0,0.2,0.1v0.2c0,0.1,0,0.1-0.1,0.1h-4.9c-0.1,0-0.2,0-0.2-0.1V632c0-0.1,0-0.1,0.2-0.1
			c0.4,0,1.1,0,1.2-0.2c0.2-0.2,0.2-1.8,0.2-2.6v-2.4c0-1,0-2.6-0.2-2.8c-0.2-0.2-0.7-0.2-1.3-0.2c-0.1,0-0.2,0-0.2-0.1v-0.3
			c0-0.1,0-0.1,0.1-0.1h5.1c0.9,0,1.8,0.3,2.3,0.9c0.4,0.4,0.6,1,0.6,1.5C-707.4,626.3-707.7,626.9-708.1,627.2z M-709.9,624.3
			c-0.4-0.5-1-0.6-1.7-0.6c-0.2,0-0.4,0-0.5,0c0,0.4,0,0.7,0,1.1v2.9c0.2,0,0.4,0,0.6,0c0.6,0,1.2-0.2,1.7-0.6
			c0.4-0.4,0.6-0.9,0.6-1.4C-709.3,625.2-709.5,624.7-709.9,624.3z"/>
		<path fill="#FFFFFF" d="M-704.1,632.5c-2.2,0-3.8-1.6-3.8-3.8c0-2.2,1.6-4.2,4.2-4.2c2.6,0,3.8,1.9,3.8,3.9
			C-699.8,630.4-701.4,632.5-704.1,632.5z M-702.5,625.6c-0.4-0.5-0.9-0.7-1.4-0.7c-1.5,0-2.2,1.7-2.2,3.3c0,1.2,0.4,2.5,1,3.2
			c0.4,0.4,1,0.7,1.5,0.7c1.7,0,2.2-2,2.2-3.3C-701.5,627.8-701.7,626.4-702.5,625.6z"/>
		<path fill="#FFFFFF" d="M-698,632.5c-0.9,0-1.6-0.2-2-0.2c-0.1,0-0.2-0.1-0.2-0.2v-1.9c0,0,0-0.1,0.1-0.1h0.3
			c0.1,0,0.1,0.1,0.1,0.2c0.2,0.7,0.4,1.1,0.5,1.2c0.3,0.3,0.7,0.6,1.4,0.6c0.9,0,1.5-0.6,1.5-1.3c0-0.3-0.1-0.5-0.3-0.8
			c-0.7-0.7-2.2-1-2.9-1.8c-0.4-0.4-0.6-0.9-0.6-1.5c0-1.2,1-2.3,3-2.3c0.6,0,1.5,0.1,1.8,0.2c0.1,0.1,0.2,0.1,0.2,0.1v1.7
			c0,0.1,0,0.1-0.1,0.1h-0.3c-0.1,0-0.1-0.1-0.2-0.2c-0.1-0.4-0.2-0.8-0.5-1.1c-0.3-0.3-0.7-0.4-1.2-0.4c-0.9,0-1.3,0.7-1.3,1.3
			c0,0.2,0.1,0.6,0.4,0.9c0.7,0.7,2.1,1,2.9,1.8c0.4,0.5,0.6,1,0.6,1.4C-694.8,631.8-696.3,632.5-698,632.5z"/>
		<path fill="#FFFFFF" d="M-688.4,626.7h-0.2c-0.1,0-0.1,0-0.1-0.2c-0.3-0.9-0.6-1.5-2.1-1.4c0,0.3,0,0.5,0,0.7v3.2
			c0,0.8,0,2.3,0.2,2.5c0.2,0.2,0.7,0.2,1.1,0.2c0.1,0,0.1,0.1,0.1,0.1v0.3c0,0.1-0.1,0.1-0.1,0.1h-4.1c-0.1,0-0.1,0-0.1-0.1V632
			c0-0.1,0-0.1,0.2-0.1c0.3,0,0.8,0,1.1-0.2c0.2-0.2,0.2-1.7,0.2-2.5V626c0-0.3,0-0.5,0-0.8h-0.6c-0.7,0-1.2,0.5-1.5,1.3
			c-0.1,0.2-0.1,0.2-0.1,0.2h-0.3c-0.1,0-0.1-0.1-0.1-0.2v-1.8c0-0.1,0-0.1,0.1-0.1h6.4c0.1,0,0.1,0,0.1,0.1v1.9
			C-688.4,626.7-688.4,626.7-688.4,626.7z"/>
	</g>
	<g>
		<path fill="#0B7FC2" d="M-786.9,605.6c-0.9-0.8-1.7-1.1-2.4-1.1c-0.9,0-1.6,0.5-1.6,1.2c0,2,4.4,1.9,4.4,5.2
			c0,1.6-1.2,2.8-2.9,2.8c-1.1,0-2-0.3-2.9-0.9v-1.9c0.7,1,1.7,1.5,2.7,1.5c1.1,0,1.7-0.7,1.7-1.3c0-2.1-4.4-2.3-4.4-5.1
			c0-1.7,1.2-2.7,3.1-2.7c0.8,0,1.6,0.2,2.3,0.7V605.6z"/>
		<path fill="#0B7FC2" d="M-781.8,603.4c2.2,0,3.2,1.3,3.2,2.9c0,1.6-1.1,2.9-3.4,2.9h-1.5v4.4h-1.5v-10.2H-781.8z M-783.5,607.8
			h1.7c1.1,0,1.8-0.6,1.8-1.6c0-0.7-0.4-1.6-1.7-1.6h-1.7V607.8z"/>
		<path fill="#0B7FC2" d="M-772.2,603.2c3.4,0,5.5,2.4,5.5,5.2c0,2.7-2.1,5.2-5.5,5.2c-3.3,0-5.4-2.5-5.4-5.2
			C-777.7,605.6-775.5,603.2-772.2,603.2z M-772.2,612.4c2.3,0,4-1.7,4-3.9c0-2.2-1.7-3.9-4-3.9c-2.3,0-4,1.6-4,3.9
			C-776.2,610.7-774.5,612.4-772.2,612.4z"/>
		<path fill="#0B7FC2" d="M-762.4,603.4c2.1,0,3.3,1.1,3.3,2.9c0,1.2-0.6,2.1-1.7,2.5c0.9,0.6,1.5,1.6,2.3,2.8c0.4,0.7,0.7,1,1.4,2
			h-1.7l-1.3-2.1c-1.3-2.1-2-2.3-2.7-2.3h-0.6v4.4h-1.5v-10.2H-762.4z M-763.5,607.8h0.9c1.6,0,2-0.8,2-1.7c0-1-0.6-1.5-2-1.5h-0.9
			V607.8z"/>
		<path fill="#0B7FC2" d="M-749.6,604.7h-3.5v8.9h-1.5v-8.9h-3.5v-1.3h8.5V604.7z"/>
		<path fill="#0B7FC2" d="M-743.4,605.6c-0.9-0.8-1.7-1.1-2.4-1.1c-0.9,0-1.6,0.5-1.6,1.2c0,2,4.4,1.9,4.4,5.2
			c0,1.6-1.2,2.8-2.9,2.8c-1.1,0-2-0.3-2.9-0.9v-1.9c0.7,1,1.7,1.5,2.7,1.5c1.1,0,1.7-0.7,1.7-1.3c0-2.1-4.4-2.3-4.4-5.1
			c0-1.7,1.2-2.7,3.1-2.7c0.8,0,1.6,0.2,2.3,0.7V605.6z"/>
		<path fill="#0B7FC2" d="M-729.9,613.6h-1.5l-1.4-3h-4.3l-1.3,3h-1.5l4.4-10.3h1L-729.9,613.6z M-736.5,609.2h3.2l-1.6-3.7
			L-736.5,609.2z"/>
		<path fill="#0B7FC2" d="M-719.7,613.7h-0.3l-3.3-8.3l-3.4,8.3h-0.3l-4.1-10.3h1.5l2.8,7l2.8-7h1.4l2.8,7l2.8-7h1.4L-719.7,613.7z"
			/>
		<path fill="#0B7FC2" d="M-706.7,613.6h-1.5l-1.4-3h-4.3l-1.3,3h-1.5l4.4-10.3h1L-706.7,613.6z M-713.3,609.2h3.2l-1.6-3.7
			L-713.3,609.2z"/>
		<path fill="#0B7FC2" d="M-703,603.4c2.1,0,3.3,1.1,3.3,2.9c0,1.2-0.6,2.1-1.7,2.5c0.9,0.6,1.5,1.6,2.3,2.8c0.4,0.7,0.7,1,1.4,2
			h-1.7l-1.3-2.1c-1.3-2.1-2-2.3-2.7-2.3h-0.6v4.4h-1.5v-10.2H-703z M-704.1,607.8h0.9c1.6,0,2-0.8,2-1.7c0-1-0.6-1.5-2-1.5h-0.9
			V607.8z"/>
		<path fill="#0B7FC2" d="M-696.6,603.4h4c3.8,0,5.4,2.7,5.4,5.1c0,2.6-2,5.1-5.4,5.1h-4V603.4z M-695.1,612.2h2.3
			c3.3,0,4.1-2.5,4.1-3.8c0-2-1.3-3.8-4.2-3.8h-2.3V612.2z"/>
		<path fill="#0B7FC2" d="M-680.5,605.6c-0.9-0.8-1.7-1.1-2.4-1.1c-0.9,0-1.6,0.5-1.6,1.2c0,2,4.4,1.9,4.4,5.2
			c0,1.6-1.2,2.8-2.9,2.8c-1.1,0-2-0.3-2.9-0.9v-1.9c0.7,1,1.7,1.5,2.7,1.5c1.1,0,1.7-0.7,1.7-1.3c0-2.1-4.4-2.3-4.4-5.1
			c0-1.7,1.2-2.7,3.1-2.7c0.8,0,1.6,0.2,2.3,0.7V605.6z"/>
		<path fill="#0B7FC2" d="M-668.5,613.6h-6.5v-0.1c1.1-1.4,2.7-3.2,3.5-4.7c0.5-0.8,0.7-1.3,0.7-2.2c0-1.1-0.7-1.9-1.7-1.9
			c-0.7,0-1.5,0.3-2.3,1.4v-1.8c0.8-0.7,1.6-1,2.4-1c1.8,0,3.1,1.3,3.1,3.2c0,1.7-0.9,3-3.2,5.8h3.9V613.6z"/>
		<path fill="#0B7FC2" d="M-664.3,613.7c-2,0-3.3-2.1-3.3-5.2c0-3.1,1.3-5.2,3.3-5.2c2,0,3.3,2.1,3.3,5.2
			C-661,611.6-662.3,613.7-664.3,613.7z M-664.3,604.6c-1.1,0-1.8,1.4-1.8,3.8s0.7,3.8,1.8,3.8c1.1,0,1.8-1.4,1.8-3.8
			S-663.1,604.6-664.3,604.6z"/>
		<path fill="#0B7FC2" d="M-656.1,613.6h-1.5v-10.2h1.5V613.6z"/>
		<path fill="#0B7FC2" d="M-647,604.7h-3.2v2.6c2.3-0.1,3.7,1.3,3.7,3.2c0,1.9-1.4,3.3-3.3,3.3c-0.9,0-1.6-0.2-2.5-0.6v-1.5
			c0.7,0.5,1.5,0.7,2.2,0.7c1.2,0,2.1-0.8,2.1-1.8c0-1.3-1.3-2.3-3.6-1.8v-5.3h4.5V604.7z"/>
	</g>
</g>
</svg>
