<?xml version="1.0" encoding="utf-8"?>
<!-- Generator: Adobe Illustrator 18.1.1, SVG Export Plug-In . SVG Version: 6.00 Build 0)  -->
<svg version="1.1" id="Layer_6" xmlns="http://www.w3.org/2000/svg" xmlns:xlink="http://www.w3.org/1999/xlink" x="0px" y="0px"
	 viewBox="0 0 390 150" enable-background="new 0 0 390 150" xml:space="preserve">
<g>
	<g>
		<g>
			<g>
				<path fill="#DB2F34" d="M74.9,565.6L61,579.5l6.8,6.8c0,0,1.2,1.6,2.5,0.1l12.7-12.7V567c0,0,0.2-1.5-2.2-1.5
					C78.9,565.6,76,565.6,74.9,565.6L74.9,565.6"/>
				<path fill="#004A92" d="M63,565.6l0.3,0l5,5l-8.1,8.1l-5-5c0,0,0.1-3.4,0-5.8c-0.1-2.4,1.4-2.3,1.4-2.3H63"/>
				<path fill="#004A92" d="M97.9,575.5h20.3c-0.5-0.1-0.8-1.2-0.8-1.2H83.6l-13.9,13.9l0.8,0.9l13.5-13.5H97.9"/>
				<path fill="#004A92" d="M165.3,574.3h-41c0,0-0.1,1.1-0.6,1.2h40.9L165.3,574.3"/>
				<polyline fill="#004A92" points="167.8,575.5 211.1,575.5 211.1,574.3 168.4,574.3 167.8,575.5 				"/>
				<path fill="#DB2F34" d="M86.6,570.4h0.2c0.6,0,1.6-0.1,1.6,0.8c0,0.8-1,0.8-1.6,0.8h-0.2V570.4 M87.6,573.6
					c1.4,0,2.7-0.5,2.7-2.1c0-1-0.5-1.8-1.5-1.9v0c0.6-0.3,0.8-0.9,0.8-1.5c0-1.4-0.9-2-2.2-2h-2.8v7.5H87.6z M86.6,567.5h0.1
					c0.5,0,1.1,0,1.1,0.7c0,0.6-0.5,0.7-1.1,0.7h-0.2V567.5z"/>
				<path fill="#DB2F34" d="M93.1,573.6h-1.8v-5.1h1.8V573.6z M93.3,566.5c0,0.6-0.5,1-1,1s-1-0.5-1-1s0.5-1,1-1
					S93.3,565.9,93.3,566.5z"/>
				<path fill="#DB2F34" d="M96.2,569.3L96.2,569.3c0.4-0.6,1-0.9,1.7-0.9h0.3v1.7c-0.2-0.1-0.5-0.2-0.8-0.2c-1,0-1.3,0.7-1.3,1.5
					v2.1h-1.8v-5.1h1.8V569.3"/>
				<path fill="#DB2F34" d="M100.7,569.1L100.7,569.1c0.5-0.6,1-0.8,1.6-0.8c0.7,0,1.4,0.3,1.7,1c0.4-0.6,1-1,1.7-1
					c1.3,0,1.7,0.8,1.7,2v3.2h-1.8v-2.4c0-0.5,0-1.4-0.8-1.4c-0.8,0-0.9,0.8-0.9,1.4v2.4h-1.8v-2.4c0-0.6,0-1.4-0.8-1.4
					c-0.8,0-0.8,0.9-0.8,1.4v2.4h-1.8v-5.1h1.8V569.1"/>
				<path fill="#DB2F34" d="M110.5,573.6h-1.8v-5.1h1.8V573.6z M110.6,566.5c0,0.6-0.5,1-1,1c-0.6,0-1-0.5-1-1s0.5-1,1-1
					C110.2,565.5,110.6,565.9,110.6,566.5z"/>
				<path fill="#DB2F34" d="M113.5,569.1L113.5,569.1c0.4-0.6,1-0.8,1.7-0.8c1.4,0,1.9,0.9,1.9,2.1v3.2h-1.8v-2.5
					c0-0.5,0.1-1.3-0.8-1.3c-0.7,0-1,0.5-1,1.2v2.7h-1.8v-5.1h1.8V569.1"/>
				<path fill="#DB2F34" d="M121,569.8c0.7,0,1.2,0.5,1.2,1.2c0,0.6-0.4,1.1-1.2,1.1c-0.7,0-1.2-0.5-1.2-1.1
					C119.8,570.3,120.3,569.8,121,569.8 M123.9,568.4h-1.8v0.5h0c-0.4-0.5-0.9-0.7-1.5-0.7c-1.6,0-2.6,1.3-2.6,2.8
					c0,1.5,1,2.6,2.5,2.6c0.7,0,1.2-0.2,1.6-0.7v0.2c0,0.8-0.2,1.5-1.2,1.5c-0.2,0-0.4,0-0.5-0.1c-0.2-0.1-0.3-0.2-0.3-0.4h-2
					c0.2,1.3,1.7,2,2.9,2c1.9,0,3-0.9,3-3V568.4z"/>
				<path fill="#DB2F34" d="M126.9,565.3v3.8h0c0.4-0.6,0.9-0.8,1.6-0.8c1.3,0,1.9,0.9,1.9,2.2v3.1h-1.8v-2.6c0-0.6-0.1-1.2-0.8-1.2
					c-0.7,0-1,0.6-1,1.2v2.6h-1.8v-8.3H126.9"/>
				<path fill="#DB2F34" d="M134.3,569.9c0.7,0,1.2,0.5,1.2,1.1c0,0.6-0.4,1.1-1.2,1.1c-0.7,0-1.2-0.5-1.2-1.1
					C133.1,570.4,133.6,569.9,134.3,569.9 M137.2,568.4h-1.8v0.5c-0.4-0.5-1-0.7-1.6-0.7c-1.5,0-2.6,1.3-2.6,2.7
					c0,1.5,1.1,2.7,2.6,2.7c0.6,0,1.2-0.2,1.6-0.7h0v0.6h1.8V568.4z"/>
				<path fill="#DB2F34" d="M140.3,569.1L140.3,569.1c0.5-0.6,1-0.8,1.6-0.8c0.7,0,1.4,0.3,1.7,1c0.4-0.6,1-1,1.7-1
					c1.3,0,1.7,0.8,1.7,2v3.2h-1.8v-2.4c0-0.5,0-1.4-0.8-1.4c-0.8,0-0.9,0.8-0.9,1.4v2.4h-1.8v-2.4c0-0.6,0-1.4-0.8-1.4
					c-0.8,0-0.8,0.9-0.8,1.4v2.4h-1.8v-5.1h1.8V569.1"/>
				<path fill="#DB2F34" d="M157.1,568.6c-0.4-0.5-1-0.8-1.7-0.8c-1.2,0-2,0.9-2,2.1c0,1.2,0.8,2,2,2c0.6,0,1.3-0.3,1.7-0.8v2.3
					c-0.6,0.2-1.1,0.3-1.7,0.3c-1,0-2-0.4-2.8-1.1c-0.8-0.7-1.2-1.7-1.2-2.8c0-1,0.4-2,1.1-2.8c0.7-0.8,1.8-1.2,2.9-1.2
					c0.6,0,1.2,0.1,1.8,0.4V568.6"/>
				<path fill="#DB2F34" d="M160.1,573.6h-1.8v-5.1h1.8V573.6z M160.2,566.5c0,0.6-0.5,1-1,1s-1-0.5-1-1s0.5-1,1-1
					S160.2,565.9,160.2,566.5z"/>
				<polyline fill="#DB2F34" points="163.3,573.6 161.5,573.6 161.5,569.9 160.9,569.9 160.9,568.4 161.5,568.4 161.5,566.9 
					163.3,566.9 163.3,568.4 164.3,568.4 164.3,569.9 163.3,569.9 163.3,573.6 				"/>
				<polyline fill="#DB2F34" points="164.1,568.4 166.2,568.4 167.6,571.1 168.9,568.4 171,568.4 166.9,576.1 164.9,576.1 
					166.6,572.9 164.1,568.4 				"/>
				<path fill="#DB2F34" d="M180.2,568.6c-0.4-0.5-1-0.8-1.7-0.8c-1.2,0-2,0.9-2,2.1c0,1.2,0.8,2,2,2c0.6,0,1.3-0.3,1.7-0.8v2.3
					c-0.6,0.2-1.1,0.3-1.7,0.3c-1,0-2-0.4-2.8-1.1c-0.8-0.7-1.2-1.7-1.2-2.8c0-1,0.4-2,1.1-2.8c0.7-0.8,1.8-1.2,2.9-1.2
					c0.6,0,1.2,0.1,1.8,0.4V568.6"/>
				<path fill="#DB2F34" d="M184.1,569.9c0.7,0,1.2,0.5,1.2,1.1c0,0.6-0.4,1.1-1.2,1.1c-0.7,0-1.2-0.5-1.2-1.1
					C182.9,570.4,183.4,569.9,184.1,569.9 M184.1,568.3c-1.6,0-3.1,1-3.1,2.7c0,1.7,1.4,2.7,3.1,2.7c1.6,0,3.1-1,3.1-2.7
					C187.2,569.3,185.8,568.3,184.1,568.3z"/>
				<path fill="#DB2F34" d="M189.8,568.4v2.7c0,0.6,0.2,1.1,0.9,1.1c0.8,0,0.9-0.5,0.9-1.1v-2.7h1.8v3.1c0,1.7-1.2,2.2-2.7,2.2
					c-1.5,0-2.7-0.5-2.7-2.2v-3.1H189.8"/>
				<path fill="#DB2F34" d="M196.4,569.1L196.4,569.1c0.4-0.6,1-0.8,1.7-0.8c1.4,0,1.9,0.9,1.9,2.1v3.2h-1.8v-2.5
					c0-0.5,0.1-1.3-0.8-1.3c-0.7,0-1,0.5-1,1.2v2.7h-1.8v-5.1h1.8V569.1"/>
				<path fill="#DB2F34" d="M204.8,570.1c-0.3-0.2-0.6-0.4-0.9-0.4c-0.7,0-1.2,0.5-1.2,1.2c0,0.7,0.5,1.2,1.3,1.2
					c0.3,0,0.7-0.1,0.9-0.3v1.5c-0.4,0.2-0.8,0.3-1.3,0.3c-1.5,0-2.8-1.1-2.8-2.7c0-1.6,1.3-2.8,2.9-2.8c0.4,0,0.8,0.1,1.2,0.3
					V570.1"/>
				<path fill="#DB2F34" d="M207.8,573.6H206v-5.1h1.8V573.6z M207.9,566.5c0,0.6-0.5,1-1,1c-0.6,0-1-0.5-1-1s0.5-1,1-1
					C207.4,565.5,207.9,565.9,207.9,566.5z"/>
				<rect x="209" y="565.3" fill="#DB2F34" width="1.8" height="8.3"/>
			</g>
		</g>
	</g>
</g>
<g>
	<g>
		<g>
			<g>
				<path fill="#DB2F34" d="M59.4,56.6L26.7,89.3l16,16c0,0,2.9,3.8,5.8,0.2l29.8-29.8V60c0,0,0.6-3.6-5.2-3.5
					C68.8,56.6,62,56.6,59.4,56.6L59.4,56.6"/>
				<path fill="#004A92" d="M31.5,56.6l0.7,0l11.7,11.7l-19,19L13.2,75.5c0,0,0.1-8.1,0-13.7c-0.1-5.7,3.3-5.3,3.3-5.3H31.5"/>
				<path fill="#004A92" d="M113.5,79.9h47.7c-1.3-0.2-2-2.9-2-2.9H80l-32.6,32.6l2,2.1l31.8-31.8H113.5"/>
				<path fill="#004A92" d="M271.9,77h-96.4c0,0-0.3,2.6-1.4,2.9h96.2L271.9,77"/>
				<polyline fill="#004A92" points="277.9,79.9 379.6,79.9 379.6,77 279.2,77 277.9,79.9 				"/>
				<path fill="#DB2F34" d="M86.9,68h0.5c1.5,0,3.8-0.2,3.8,1.9c0,1.9-2.3,1.9-3.7,1.9h-0.6V68 M89.4,75.3c3.2,0,6.4-1.2,6.4-4.9
					c0-2.5-1.1-4.2-3.6-4.5v0c1.4-0.7,2-2,2-3.6c0-3.4-2.1-4.6-5.2-4.6h-6.6v17.7H89.4z M86.9,61.1h0.3c1.3,0,2.7,0.1,2.7,1.7
					c0,1.5-1.3,1.7-2.5,1.7h-0.5V61.1z"/>
				<path fill="#DB2F34" d="M102.3,75.3h-4.2v-12h4.2V75.3z M102.6,58.7c0,1.3-1.1,2.4-2.4,2.4s-2.4-1.1-2.4-2.4
					c0-1.3,1.1-2.4,2.4-2.4S102.6,57.4,102.6,58.7z"/>
				<path fill="#DB2F34" d="M109.4,65.2L109.4,65.2c0.9-1.5,2.3-2.1,3.9-2.1h0.8v4.1c-0.6-0.3-1.1-0.4-1.8-0.4c-2.4,0-3,1.6-3,3.6
					v4.9h-4.2v-12h4.2V65.2"/>
				<path fill="#DB2F34" d="M120,64.8L120,64.8c1.1-1.3,2.3-1.9,3.9-1.9c1.7,0,3.2,0.7,4.1,2.3c0.8-1.5,2.5-2.3,4.1-2.3
					c3,0,4.1,2,4.1,4.8v7.6h-4.2v-5.7c0-1.2,0-3.3-1.8-3.3c-2,0-2.1,1.8-2.1,3.3v5.7h-4.2v-5.7c0-1.3,0-3.4-1.9-3.4
					c-1.9,0-1.9,2-1.9,3.4v5.7h-4.2v-12h4.2V64.8"/>
				<path fill="#DB2F34" d="M143.2,75.3H139v-12h4.3V75.3z M143.5,58.7c0,1.3-1.1,2.4-2.4,2.4c-1.3,0-2.4-1.1-2.4-2.4
					c0-1.3,1.1-2.4,2.4-2.4C142.4,56.3,143.5,57.4,143.5,58.7z"/>
				<path fill="#DB2F34" d="M150.3,64.9L150.3,64.9c1-1.5,2.2-1.9,3.9-1.9c3.2,0,4.5,2,4.5,5v7.4h-4.2v-5.8c0-1.1,0.2-3.2-1.9-3.2
					c-1.7,0-2.2,1.3-2.2,2.8v6.2H146v-12h4.2V64.9"/>
				<path fill="#DB2F34" d="M167.8,66.5c1.8,0,2.8,1.2,2.8,2.7c0,1.5-1,2.7-2.8,2.7c-1.7,0-2.8-1.2-2.8-2.7
					C165.1,67.7,166.1,66.5,167.8,66.5 M174.7,63.3h-4.2v1.3h0c-0.8-1.2-2.1-1.7-3.5-1.7c-3.7,0-6.2,3-6.2,6.5
					c0,3.5,2.4,6.1,5.9,6.1c1.6,0,2.7-0.5,3.8-1.6v0.6c0,2-0.4,3.5-2.8,3.5c-0.4,0-0.8-0.1-1.2-0.3c-0.4-0.2-0.7-0.5-0.8-0.9h-4.8
					c0.4,3.2,4.1,4.6,6.8,4.6c4.4,0,7-2.1,7-7.2V63.3z"/>
				<path fill="#DB2F34" d="M181.6,55.9v9h0c1-1.3,2.2-1.9,3.9-1.9c3,0,4.5,2,4.5,5.1v7.3h-4.2v-6.1c0-1.4-0.2-2.9-1.9-2.9
					c-1.7,0-2.2,1.4-2.2,2.9v6.1h-4.2V55.9H181.6"/>
				<path fill="#DB2F34" d="M199.1,66.6c1.7,0,2.7,1.2,2.7,2.7c0,1.5-1,2.7-2.7,2.7c-1.7,0-2.8-1.2-2.8-2.7
					C196.4,67.8,197.4,66.6,199.1,66.6 M206,63.3h-4.2v1.2c-0.9-1.1-2.3-1.6-3.7-1.6c-3.6,0-6,3-6,6.4c0,3.4,2.5,6.4,6.1,6.4
					c1.4,0,2.9-0.5,3.6-1.7h0v1.4h4.2V63.3z"/>
				<path fill="#DB2F34" d="M213.1,64.8L213.1,64.8c1.1-1.3,2.3-1.9,3.9-1.9c1.7,0,3.2,0.7,4.1,2.3c0.8-1.5,2.5-2.3,4.1-2.3
					c3,0,4.1,2,4.1,4.8v7.6H225v-5.7c0-1.2,0-3.3-1.8-3.3c-2,0-2.1,1.8-2.1,3.3v5.7h-4.2v-5.7c0-1.3,0-3.4-1.9-3.4
					c-1.9,0-1.9,2-1.9,3.4v5.7h-4.3v-12h4.3V64.8"/>
				<path fill="#DB2F34" d="M252.8,63.6c-0.9-1.3-2.5-2-4-2c-2.8,0-4.7,2.2-4.7,4.9c0,2.8,1.9,4.8,4.8,4.8c1.5,0,3-0.7,4-1.9v5.5
					c-1.5,0.5-2.6,0.8-4.1,0.8c-2.5,0-4.8-0.9-6.6-2.6c-1.9-1.8-2.8-4.1-2.8-6.7c0-2.4,0.9-4.7,2.6-6.5c1.7-1.8,4.2-2.8,6.7-2.8
					c1.5,0,2.8,0.3,4.2,0.9V63.6"/>
				<path fill="#DB2F34" d="M259.8,75.3h-4.2v-12h4.2V75.3z M260,58.7c0,1.3-1.1,2.4-2.4,2.4s-2.4-1.1-2.4-2.4
					c0-1.3,1.1-2.4,2.4-2.4S260,57.4,260,58.7z"/>
				<polyline fill="#DB2F34" points="267.2,75.3 263,75.3 263,66.8 261.6,66.8 261.6,63.3 263,63.3 263,59.7 267.2,59.7 267.2,63.3 
					269.6,63.3 269.6,66.8 267.2,66.8 267.2,75.3 				"/>
				<polyline fill="#DB2F34" points="269.3,63.3 274.2,63.3 277.4,69.5 280.5,63.3 285.4,63.3 275.8,81.3 271,81.3 275.1,73.7 
					269.3,63.3 				"/>
				<path fill="#DB2F34" d="M307.1,63.6c-0.9-1.3-2.5-2-4-2c-2.8,0-4.7,2.2-4.7,4.9c0,2.8,1.9,4.8,4.8,4.8c1.5,0,3-0.7,4-1.9v5.5
					c-1.5,0.5-2.6,0.8-4.1,0.8c-2.5,0-4.8-0.9-6.6-2.6c-1.9-1.8-2.8-4.1-2.8-6.7c0-2.4,0.9-4.7,2.6-6.5c1.7-1.8,4.2-2.8,6.7-2.8
					c1.5,0,2.8,0.3,4.2,0.9V63.6"/>
				<path fill="#DB2F34" d="M316.2,66.6c1.7,0,2.7,1.2,2.7,2.7c0,1.5-1,2.7-2.7,2.7c-1.7,0-2.7-1.2-2.7-2.7
					C313.5,67.8,314.5,66.6,316.2,66.6 M316.2,62.9c-3.9,0-7.2,2.3-7.2,6.4c0,4.1,3.4,6.4,7.2,6.4c3.9,0,7.3-2.3,7.3-6.4
					C323.4,65.2,320.1,62.9,316.2,62.9z"/>
				<path fill="#DB2F34" d="M329.5,63.3v6.4c0,1.5,0.4,2.6,2.1,2.6c1.8,0,2.1-1.1,2.1-2.6v-6.4h4.2v7.2c0,4-2.8,5.2-6.4,5.2
					c-3.6,0-6.4-1.2-6.4-5.2v-7.2H329.5"/>
				<path fill="#DB2F34" d="M345.1,64.9L345.1,64.9c1-1.5,2.2-1.9,3.9-1.9c3.2,0,4.5,2,4.5,5v7.4h-4.2v-5.8c0-1.1,0.2-3.2-1.9-3.2
					c-1.7,0-2.2,1.3-2.2,2.8v6.2h-4.2v-12h4.2V64.9"/>
				<path fill="#DB2F34" d="M365,67.2c-0.6-0.5-1.4-0.8-2.2-0.8c-1.6,0-2.9,1.3-2.9,2.9c0,1.7,1.2,2.9,3,2.9c0.7,0,1.6-0.3,2.1-0.8
					V75c-0.9,0.5-2,0.7-3,0.7c-3.6,0-6.5-2.7-6.5-6.3c0-3.8,2.9-6.5,6.7-6.5c1,0,2,0.2,2.8,0.7V67.2"/>
				<path fill="#DB2F34" d="M371.9,75.3h-4.2v-12h4.2V75.3z M372.1,58.7c0,1.3-1.1,2.4-2.4,2.4c-1.3,0-2.4-1.1-2.4-2.4
					c0-1.3,1.1-2.4,2.4-2.4C371.1,56.3,372.1,57.4,372.1,58.7z"/>
				<rect x="374.7" y="55.9" fill="#DB2F34" width="4.2" height="19.4"/>
			</g>
		</g>
	</g>
</g>
<g>
</g>
<g>
</g>
<g>
</g>
<g>
</g>
<g>
</g>
<g>
</g>
<g>
</g>
<g>
</g>
<g>
</g>
<g>
</g>
</svg>
