<?xml version="1.0" encoding="utf-8"?>
<!-- Generator: Adobe Illustrator 18.1.1, SVG Export Plug-In . SVG Version: 6.00 Build 0)  -->
<svg version="1.1" id="Layer_5" xmlns="http://www.w3.org/2000/svg" xmlns:xlink="http://www.w3.org/1999/xlink" x="0px" y="0px"
	 viewBox="0 0 390 150" enable-background="new 0 0 390 150" xml:space="preserve">
<g>
	<path fill="#6F9795" d="M195.9,56.3c-2.2-3.5-5.5-6.5-10.1-9.2l-7.9-4.6c-7-4.2-10-7.7-10-12c0-4.8,4.7-8.3,11.4-8.3
		c8.9,0,16.5,7.2,16.5,7.2s7.8-7.2,16.5-7.2c6.7,0,11.4,3.5,11.4,8.3c0,4.3-2.9,7.8-10,12l-7.9,4.6
		C201.4,49.8,198.1,52.9,195.9,56.3 M228.6,71.7c0,0-0.9,0.7-1.5,1.1c-4,2.9-8.9,4.6-13.3,4.6c-6.4,0-11.2-4-11.2-9.5
		c0-4.4,3.4-8.8,9.5-12.4l7.8-4.7c9.7-5.8,13.6-11.1,13.6-18.8c0-11.2-8.6-19-21.1-19c-5.8,0-11.2,1.5-16.3,4.9
		c-5.1-3.4-10.5-4.9-16.3-4.9c-12.5,0-21.1,7.8-21.1,19c0,7.7,3.9,13,13.6,18.8l7.8,4.7c6.1,3.6,9.5,8,9.5,12.4
		c0,5.5-4.8,9.5-11.2,9.5c-4.4,0-9.4-1.7-13.3-4.6c-0.6-0.4-1.5-1.1-1.5-1.1l-4.4,8.3c5.9,4.4,12.4,6.6,19.3,6.6
		c7.9,0,14.2-3.3,17.7-8.7c3.5,5.4,9.9,8.7,17.7,8.7c6.9,0,13.5-2.2,19.3-6.6L228.6,71.7z"/>
	<path fill="#706F6F" d="M186.4,113.1c-2.6,0-4.2,3.1-4.2,6.4v5.5c0.8,0.2,1.6,0.4,2.6,0.4c2.8,0,4.9-1.8,4.9-6.7
		C189.7,115,188.7,113.1,186.4,113.1 M184.7,129.3c-0.9,0-1.7,0-2.5-0.2v9.4h-5v-29.2h4.7c0,0.9,0,2.2-0.2,3.3h0.1
		c1.1-2.3,3.2-3.7,6.1-3.7c4.6,0,7.1,3.4,7.1,9.2C195,125,191.5,129.3,184.7,129.3"/>
	<path fill="#706F6F" d="M215.4,113.9c-3.6-0.8-5.4,1.6-5.4,7.1v8h-5v-19.6h4.7c0,1-0.1,2.6-0.4,4h0.1c0.9-2.5,2.8-4.7,6.2-4.4
		L215.4,113.9z"/>
	<path fill="#706F6F" d="M224.7,112.6c-2.1,0-3.5,1.5-3.8,3.9h7.2C228.1,114.1,226.8,112.6,224.7,112.6 M232.8,120h-12
		c0,3.7,1.8,5.5,5.4,5.5c1.9,0,4-0.4,5.7-1.2l0.5,3.9c-2.1,0.8-4.5,1.3-7,1.3c-6.2,0-9.6-3.1-9.6-10c0-6,3.3-10.4,9.1-10.4
		c5.7,0,8.2,3.9,8.2,8.8C233,118.4,233,119.2,232.8,120"/>
	<rect x="197.1" y="109.4" fill="#706F6F" width="5" height="19.6"/>
	<path fill="#706F6F" d="M196.8,104.7c0,1.5,1.3,2.8,2.8,2.8c1.6,0,2.8-1.3,2.8-2.8c0-1.5-1.3-2.8-2.8-2.8
		C198,101.9,196.8,103.1,196.8,104.7"/>
	<path fill="#706F6F" d="M158.3,107.5c0,3.3,1.6,5.6,5.7,8l3,1.9c2.2,1.3,3.4,2.8,3.4,4.3c0,1.8-1.6,3-3.7,3c-1.6,0-3.4-0.6-4.8-1.7
		c0,0-1.2-0.9-1.2-0.9l-2.4,4.5l0.5,0.3c2.4,1.8,5.1,2.7,8,2.7c7,0,8.9-5.2,8.9-8c0-2.6-0.4-5.6-5.5-8.7c0,0-3.1-1.8-3.1-1.8
		c-2.5-1.5-3.6-2.7-3.6-4.1c0-1.5,1.6-2.6,3.8-2.6c3.2,0,6,2.6,6,2.6l1.1,1.1l0-6.5l-0.3-0.2c-2.1-1.4-4.3-2-6.8-2
		C162,99.3,158.3,102.7,158.3,107.5"/>
</g>
<g>
</g>
<g>
</g>
<g>
</g>
<g>
</g>
<g>
</g>
<g>
</g>
<g>
</g>
<g>
</g>
<g>
</g>
<g>
</g>
</svg>
