<?xml version="1.0" encoding="utf-8"?>
<!-- Generator: Adobe Illustrator 19.1.0, SVG Export Plug-In . SVG Version: 6.00 Build 0)  -->
<svg version="1.1" id="Layer_14" xmlns="http://www.w3.org/2000/svg" xmlns:xlink="http://www.w3.org/1999/xlink" x="0px" y="0px"
	 viewBox="0 0 390 150" enable-background="new 0 0 390 150" xml:space="preserve">
<g>
	<polygon fill-rule="evenodd" clip-rule="evenodd" fill="#00ADEE" points="12.5,29.1 378.5,29.1 378.5,121.9 12.5,121.9 12.5,29.1 	
		"/>
	<path fill-rule="evenodd" clip-rule="evenodd" fill="#FFFFFF" d="M158.7,50.9l-17.9,31.2c-0.4,0.7-3.9,6-11.1,6.5
		c-7.1,0.3-13.2-6.4-13.1-13.6c0.2-7.2,5.6-12.9,12.8-13.1c6.1,0.1,10.6,4.8,10.5,4.8c1.3,1.1,2.1,1.9,3.1,3.4l6.5-11.4
		c-1.2-1.2-1.7-1.8-3.1-2.8c-3.7-3.3-9.1-6-16.8-6.2c-7.3-0.2-14.7,2.9-20.4,10.2c-3.5,4.7-4.9,8.9-5.1,15
		c0.1,7.2,2.7,13.1,6.5,17.3c6.6,6.9,14.5,8.5,18.7,8.5c6.1-0.3,10.5-1.7,14.8-4.5c1.3-0.9,2.8-2.1,4.3-3.7h11.4v7.1h11.6V50.9
		H158.7L158.7,50.9z M159.9,82.5h-6.2l6.2-11.1V82.5L159.9,82.5z"/>
	<polygon fill-rule="evenodd" clip-rule="evenodd" fill="#FFFFFF" points="183,100.1 183,62.5 173.8,62.5 173.8,51.1 204.5,51.1 
		204.5,62.5 195.1,62.5 195.1,100.1 183,100.1 	"/>
	<polygon fill-rule="evenodd" clip-rule="evenodd" fill="#FFFFFF" points="231.2,81.3 218.8,81.3 218.8,100.1 206.6,100.1 
		206.6,51.1 218.8,51.1 218.8,69.7 231.2,69.7 231.2,51.1 243.4,51.1 243.4,100.1 231.2,100.1 231.2,81.3 	"/>
	<path fill-rule="evenodd" clip-rule="evenodd" fill="#FFFFFF" d="M344,51.1v27.2l-18.2-27.2h-10.9v16.5c-1.2-3.8-3.4-7.2-6.4-10.2
		c-4.8-4.7-11.1-7.2-17.7-7.2c-7,0-13.2,2.4-18.1,7.2c-4.9,4.7-7.5,10.9-7.5,17.7c0,5.4,1.3,10.1,3.9,14.2h-9.3V51.1h-12.1v48.9H274
		v-5.2c4.6,4,10.3,6.1,16.7,6.1c6.9,0,13.5-2.7,18.3-7.6c2.8-2.8,4.8-6.2,6-9.9v16.7H327V72.8l18.5,27.2h10.7V51.1H344L344,51.1z
		 M290.7,88.8c-6.8,0-13-5.9-13-13.6c0-7.2,5.8-12.9,13.2-12.9c7,0,12.8,5.7,12.8,12.9C303.6,83.2,297.8,88.8,290.7,88.8L290.7,88.8
		z"/>
	<path fill-rule="evenodd" clip-rule="evenodd" fill="#FFFFFF" d="M104.2,61.7V50.9h-27v20.1c-0.8-5.8-3.1-10.6-6.9-14.1
		c-5.2-4.8-10.7-5.8-18.5-5.8H34.9v48.9h18.6c7,0,11.6-1,16.9-6.1c3.7-3.6,6-8.2,6.8-13.7v19.4h27V89.3h-15v-9.1h13.1V69.7H89.2v-8
		H104.2L104.2,61.7z M51.9,89.3H47V61.7h4.8c8.9,0,13.7,5,13.7,13.8C65.5,85.1,61.1,89.3,51.9,89.3L51.9,89.3z"/>
</g>
<g>
</g>
<g>
</g>
<g>
</g>
<g>
</g>
<g>
</g>
<g>
</g>
<g>
</g>
<g>
</g>
<g>
</g>
<g>
</g>
</svg>
