<?xml version="1.0" encoding="utf-8"?>
<!-- Generator: Adobe Illustrator 19.1.0, SVG Export Plug-In . SVG Version: 6.00 Build 0)  -->
<svg version="1.1" id="Layer_13" xmlns="http://www.w3.org/2000/svg" xmlns:xlink="http://www.w3.org/1999/xlink" x="0px" y="0px"
	 viewBox="0 0 390 150" enable-background="new 0 0 390 150" xml:space="preserve">
<g>
	<polygon fill="#61784B" points="91.8,87.3 91.9,87.3 91.9,87.2 91.8,87.2 91.8,87.3 	"/>
	<path fill="#61784B" d="M88.3,75.9c0.1,0.7-0.3,0.7-0.2,1.3c0.1,0.6-0.4,0.5-0.5,0.9c-0.1,0.5-0.4,0.5-0.4,0.5s-0.4-0.2-0.5,0.2
		c0,0-0.5-0.4-0.9,0c-0.4,0.4-0.6-0.3-1.2,0c0,0,0-0.3-0.2-0.5c0,0,0.9,0,1.1-1c0,0,0.6-0.1,0.6-0.3c0-0.2,0-0.4,0-0.4
		s0.1-0.1,0.2-0.4c0.1-0.3,0.1-0.5,0.1-0.5s0.8,0,0.8-0.4c-0.1-0.4-0.7-1.5-0.6-2c0.1-0.4,0.3-0.5,0.3-0.5l0.8-0.3
		c0,0,0.2,0.6,0.4,0.9c0.1,0.3,0.8,0.9,0.8,0.9S88.2,75.1,88.3,75.9 M91.6,74.1c0.2-0.2,0.3-0.9,0.2-1.1c0-0.2-0.1-0.6-0.1-0.8
		c0-0.2-0.1-0.4-0.3-0.4c-0.2,0-0.3,0.1-0.3,0.1s0-0.3-0.4-0.3c-0.4,0-0.3,0.5-0.3,0.5c-0.2-0.3-0.8-0.2-0.8-0.2s-0.5-0.6-0.9-0.6
		c-0.3,0.1-0.3,0.5-0.3,0.5l-0.5-0.5c-0.3-0.4-1.1-0.8-1.1-0.8c-0.1-0.3-0.8-1-0.8-1c-0.1-0.4-0.6-0.5-0.6-0.5s-0.4-0.7-2-1.2
		c-1.6-0.5-2.2-0.2-4,0.9c-1.8,1.1-1.5,2.9-1.6,3.5c0,0.7,0.5,1.2,0.5,1.2l-0.1,0.4c-0.9-0.4-1.5,0.6-1.6,0.7
		c-0.1,0.1-0.4,0.6-0.4,0.6s0,0.9-0.1,1.1c-0.1,0.2,0,0.6,0,0.6c-1.5,0.4-2.3,1.8-2.3,2c-0.1,0.1-1.3,0.4-1.5,0.8
		c-0.2,0.4-0.9,1.1-1.5,1.9c-0.6,0.7-0.3,2-0.2,2.8c0.1,0.8,1,2.9,0.6,3.6c-0.4,0.8-0.7,2.5-1.3,4.7c-0.6,2.2,0.2,5.4,0.4,5.9
		c0.1,0.5,0,2.2-0.2,3.5c-0.2,1.4,1.6,2.1,1.6,2.1s0.1,11.1,0.5,12.8c0.5,1.6-0.7,5.2-0.7,5.2h6.9l0.8-9.4l1.6,9.3l4.8-0.4l0.3-2.2
		l-0.3-2.2l-0.2-1.7c0,0-0.2-3.2-0.2-3.5c0-0.2-0.1-5.1-0.2-7c-0.1-1.9-1.8-4.6-1.8-4.6c0.6-1.1,0.3-2.7,0.2-2.9
		c-0.1-0.2,0.1-0.8,0.4-1.4c0.3-0.6,0.4-3.5,0.6-4.7c0.2-1.2-0.4-4.5-0.4-4.5l0-4c0,0,2-0.2,3.3-0.4c1.3-0.1,2.5-0.8,2.8-1
		c0.2-0.2,0.4-0.6,0.9-1.5c0.5-0.9,0.3-2,0.3-2s0.5-1.5,0.6-1.9c0.1-0.3,0.1-0.5,0.1-0.6c0,0,0-0.2,0.1-0.5
		C92.1,74.3,91.6,74.1,91.6,74.1"/>
	<path fill="#61784B" d="M119.1,77.8C119.1,77.8,119.1,77.8,119.1,77.8C119.1,77.8,119.1,77.8,119.1,77.8"/>
	<g>
		<path fill="#61784B" d="M119.1,77.8c-0.1,0.2-0.5,0.9-0.9,1.2l-6,5.3c-0.1,0-1,0.2-1,0.4c0,0.3,0.5,1.2,1,0.5
			c0.5-0.8,1.1-1.1,1.2-1.2c0.1-0.1,0.2,0,0.2,0.1c-0.2,0.4-0.2,0.8-0.1,1.2c0.3,0.9,1.2,1.3,2,1c0.8-0.3,1.3-1.2,1-2.1
			c-0.2-0.7-0.9-1.2-1.6-1.1c0,0,0,0,0,0s-0.5,0-0.2-0.4c0.3-0.4,4.2-3.5,4.2-3.5s0.6-0.4,1-0.5C120,78.7,119.3,78.1,119.1,77.8"/>
		<path fill="#61784B" d="M217.8,12.5c0,0,10,5.6,73.1,19.7c63.2,14,20.8,34.4-12.5,28.7c-33.3-5.6-62.4-33.1-93.2-25.8
			c-30.8,7.3-66,43.2-66,43.2l0.3,0.3c0,0,35.2-35.9,66-43.2c30.8-7.3,60,20.2,93.2,25.8c33.3,5.6,75.7-14.7,12.5-28.7
			C228,18.4,218,12.8,218,12.8"/>
	</g>
	<path fill="#61784B" d="M133.4,66c0.1,0.2,0.2,0.3,0.2,0.3c0,0-0.2-0.1-0.3-0.2c-0.1-0.2-0.2-0.3-0.2-0.3
		C133.1,65.8,133.3,65.9,133.4,66"/>
	<path fill="#61784B" d="M143.1,58.2c0.1,0.1,0.2,0.3,0.2,0.3c0,0-0.2-0.1-0.3-0.2c-0.1-0.1-0.2-0.3-0.2-0.3
		C142.8,57.9,142.9,58,143.1,58.2"/>
	<path fill="#61784B" d="M151.7,52.1c0.1,0.1,0.2,0.3,0.2,0.3c0,0-0.2-0.1-0.3-0.2c-0.1-0.2-0.2-0.3-0.2-0.3
		C151.4,51.8,151.5,51.9,151.7,52.1"/>
	<path fill="#61784B" d="M161.1,45.9c0.1,0.1,0.2,0.3,0.2,0.3c0,0-0.2-0.1-0.3-0.2c-0.1-0.2-0.2-0.3-0.2-0.3
		C160.8,45.7,160.9,45.8,161.1,45.9"/>
	<path fill="#61784B" d="M170.4,40.8c0.1,0.1,0.2,0.3,0.2,0.3c0,0-0.2-0.1-0.3-0.2c-0.1-0.2-0.2-0.3-0.2-0.3
		C170.1,40.6,170.2,40.7,170.4,40.8"/>
	<path fill="#61784B" d="M179.1,37.2c0.1,0.1,0.2,0.2,0.2,0.3c0,0-0.1,0-0.3-0.2c-0.1-0.1-0.2-0.2-0.2-0.3
		C178.8,37,178.9,37.1,179.1,37.2"/>
	<path fill="#61784B" d="M187.1,34.9c0.1,0.1,0.2,0.2,0.2,0.3c0,0-0.1,0-0.3-0.2c-0.1-0.1-0.2-0.2-0.2-0.3
		C186.9,34.7,187,34.8,187.1,34.9"/>
	<path fill="#61784B" d="M114.8,89c-2.1,2.4-4,4.4-5.4,5.7c-1.5,1.3-2.9,6.1-3.6,11.9c-0.7,6-0.3,11.1,0.9,13
		c0.6,0.9,1.3,1.1,2.2,0.8c1.5-0.6,3.1-4.3,4.5-10.1c1.2-4.8,1.9-10.1,1.8-12.4C115.1,95.4,114.9,91.8,114.8,89 M108.1,120.7
		c-0.6,0-1.1-0.3-1.5-1c-1.5-2.4-1.4-8.3-0.9-13.1c0.7-5.9,2.1-10.7,3.6-12c1.4-1.3,3.4-3.3,5.5-5.8c-0.1-2.1-0.1-3.6-0.1-3.6l0.1,0
		c0,0,0,1.5,0.1,3.4c8.1-9.2,19.5-24,19.6-24.2l0.1,0.1c-0.1,0.2-11.6,15-19.7,24.3c0.1,2.8,0.2,6.5,0.4,9
		c0.3,4.6-2.9,21.1-6.4,22.6C108.7,120.7,108.4,120.7,108.1,120.7"/>
	<path fill="#61784B" d="M84.2,133.9c-2.7-0.3-1.1-0.7,1.1-0.6c2.2,0.1,6.8-0.3,4.5,0.5c0,0-3.5,0.4-0.2,0.4c1.3,0,0.3,0.5-1.5,0.5
		c-1.8,0-1.6,0.6-4.3,0.4c-2.6-0.2,0.5-0.3,1.9-0.7C87.2,133.9,84.7,133.9,84.2,133.9"/>
	<path fill="#61784B" d="M77.7,125.6c-2.7-0.3-1.1-0.7,1.1-0.6c2.2,0.1,6.8-0.3,4.5,0.4c0,0-3.5,0.4-0.2,0.4c1.3,0,0.3,0.5-1.5,0.5
		c-1.8,0-1.6,0.6-4.3,0.4c-2.6-0.2,0.5-0.3,1.9-0.7C80.7,125.6,78.2,125.6,77.7,125.6"/>
	<path fill="#61784B" d="M100.3,132.6c0,0-2.6-0.5,0.5-0.6c3.1-0.1,3.2,0.3,2.5,0.4c-0.7,0.1,1,0.3,1.6,0.3
		C105.4,132.7,104.5,133.4,100.3,132.6"/>
	<path fill="#61784B" d="M77.3,130.2c0,0-2.6-0.5,0.5-0.6c3.1-0.1,3.2,0.3,2.5,0.4c-0.7,0.1,1,0.3,1.6,0.3
		C82.5,130.3,81.6,131,77.3,130.2"/>
	<path fill="#61784B" d="M92.9,133.5c0,0,6.7-0.1,8.3,0.2c0,0,3.8,0.5-0.2,1.1c-4.1,0.6-6.3,0.5-8.7,0.6c-2.4,0.1-5.7-0.1-0.2-0.4
		c5.4-0.3,7.9-0.7,4.9-0.8C94,134.1,91.2,134,92.9,133.5"/>
	<path fill="#61784B" d="M90,136.2c0,0-4.2,0.8-0.7,0.8c3.5,0,11.8-0.7,7.6-0.9C92.7,135.9,90,136.2,90,136.2"/>
	<path fill="#61784B" d="M88.5,138.2c0,0,1.7-0.2,3-0.3c1.3,0,3.6,0.5,2.3,0.6C92.4,138.6,87.1,139.2,88.5,138.2"/>
	<path fill="#61784B" d="M97.3,137.4c0,0-3.2,0.7-0.7,0.6c2.5,0,5.7,0,3.3-0.4c-2.4-0.4,2.7-0.7-0.8-0.8
		C95.6,136.7,97.1,137.4,97.3,137.4"/>
	<path fill="#61784B" d="M81.5,123.6c-0.2,0-0.3,0-0.4,0C80.9,123.7,81.1,123.6,81.5,123.6"/>
	<path fill="#61784B" d="M100.8,129.5c-16.6-0.8,1.6-0.9,1.8-0.9c0.2,0,10.8,0-2.8-0.6c0,0-7.7-1.1,0-1.2c7.7-0.2,8.7-0.2,1.8-0.5
		c-6.9-0.3-4.6-0.7-2.7-0.8c1.9-0.2,7.8-0.6,6.1-0.8c-1.3-0.2-3.2-0.4-4.4-0.5h0.4c0.8,0,3.2-0.6,3.2-0.6l-2.6-1l-1-0.6
		c0.3-0.2,0.6-0.5,1.4-0.5c1.8-0.1,2.4-0.9,2.4-0.9l1.1-0.3l-19.3-0.1l-3.7,0.5l4.7,0.3c-0.3,0-4.3,0.4-4.3,0.4l3.5,0.4
		c0,0,0.5,0.5-0.1,0.7c-0.5,0.1-3.6,0.8-4.7,1c1.4-0.1,6.7,0,7.6,0.5l-5.5,0.3h5.3c0.3,0,2.3,1.2,0.8,1.2c-1.5-0.1-5.3-0.2-5.8,0.2
		c-0.5,0.3,2,0.5,2.6,0.6c0.6,0.1,2.6,0.4,2.6,0.4s-2.3,0.7-5.3,0.6c-3-0.1,4.7,0.5,5.2,0.5c-0.3,0-3.7,0.5-6.6,0.3
		c-3.1-0.2,1.4,0.8,4,0.8c2.6,0-5.2,1.3-2.5,1.9c2.6,0.6,10.3-0.1,9.6,0.3c-0.7,0.4-6.4,0-7.9,0.7c0,0,0.4,0.1,3.9,0.1
		c3.5-0.1-1.6,0.4-2.4,0.7c-0.8,0.3,12.4-0.3,10.4-0.7c-2-0.4-4.5-0.8-2.3-0.7c2.2,0.1,7.9-0.7,2.5-0.9
		C97.6,130.3,117.4,130.3,100.8,129.5"/>
	<path fill="#61784B" d="M70.6,129.5c16.6-0.8-1.6-0.9-1.8-0.9c-0.2,0-10.8,0,2.8-0.6c0,0,7.7-1.1,0-1.2c-7.7-0.2-8.7-0.2-1.8-0.5
		c6.9-0.3,4.6-0.7,2.7-0.8c-1.9-0.2-7.8-0.6-6.1-0.8c1.3-0.2,3.2-0.4,4.4-0.5h-0.4c-0.8,0-3.2-0.6-3.2-0.6l2.6-1l1-0.6
		c-0.3-0.2-0.6-0.5-1.4-0.5c-1.8-0.1,0.4-0.9,0.4-0.9l-1.1-0.3l16.5-0.1l3.7,0.5l-4.7,0.3c0.3,0,4.3,0.4,4.3,0.4l-3.5,0.4
		c0,0-0.5,0.5,0.1,0.7c0.5,0.1,3.6,0.8,4.7,1c-1.4-0.1-6.7,0-7.6,0.5l5.5,0.3h-5.3c-0.3,0-2.3,1.2-0.8,1.2c1.5-0.1,5.3-0.2,5.8,0.2
		c0.5,0.3-2,0.5-2.6,0.6c-0.6,0.1-2.6,0.4-2.6,0.4s2.3,0.7,5.3,0.6c3-0.1-4.7,0.5-5.2,0.5c0.3,0,3.7,0.5,6.6,0.3
		c3.1-0.2-1.4,0.8-4,0.8c-2.6,0,5.2,1.3,2.5,1.9c-2.6,0.6-10.3-0.1-9.6,0.3c0.7,0.4,6.4,0,7.9,0.7c0,0-0.4,0.1-3.9,0.1
		c-3.5-0.1,1.6,0.4,2.4,0.7c0.8,0.3-12.4-0.3-10.4-0.7c2-0.4,4.5-0.8,2.3-0.7c-2.2,0.1-7.9-0.7-2.5-0.9
		C73.8,130.3,54,130.3,70.6,129.5"/>
	<path fill="#61784B" d="M135.7,104.9c0,1.1,0.2,1.8,0.6,2c0.1,0.1,0.1,0.2,0,0.3c-0.3,0-0.8,0.1-1.3,0.2c-1.4,0.4-3.4,0.7-4.8,0.7
		c-3.2,0-6.2-0.9-8.2-3.1c-1.6-1.7-2.5-3.8-2.5-6.3c0-2.3,0.8-4.7,2.4-6.5c1.8-1.9,4.5-3.2,8.6-3.2c1.5,0,3,0.3,3.4,0.4
		c0.5,0.1,1.4,0.3,1.7,0.2c0,0.9,0.2,2.3,0.4,4c-0.1,0.2-0.6,0.2-0.7,0.1c-0.8-3-2.8-3.9-5.5-3.9c-5.2,0-7.5,3.8-7.5,7.9
		c0,5.3,2.7,9.5,8.1,9.5c1.7,0,2.7-0.4,3-0.8c0.1-0.2,0.3-0.7,0.3-1.6v-1.1c0-2.3-0.1-2.5-1.8-2.7l-1.2-0.1c-0.2-0.1-0.2-0.6,0-0.7
		c0.8,0.1,2.3,0.1,3.9,0.1c1.1,0,2,0,2.9-0.1c0.2,0.1,0.2,0.5,0,0.7l-0.4,0.1c-1.1,0.1-1.2,0.9-1.2,2.3V104.9L135.7,104.9z"/>
	<path fill="#61784B" d="M144.5,98.9c-0.2,0.6-0.2,0.7,0.6,0.7h3.3c0.8,0,0.8-0.1,0.6-0.9l-1.5-4.5c-0.2-0.7-0.5-1.4-0.6-1.7h-0.1
		c-0.1,0.1-0.4,0.8-0.6,1.6L144.5,98.9L144.5,98.9z M149.9,101.3c-0.2-0.6-0.3-0.7-1.1-0.7h-4.1c-0.7,0-0.8,0.1-1,0.7l-0.9,2.9
		c-0.4,1.2-0.6,2-0.6,2.3c0,0.3,0.1,0.5,0.8,0.6l0.9,0.1c0.2,0.1,0.2,0.6-0.1,0.7c-0.7-0.1-1.5-0.1-2.8-0.1c-0.9,0-1.9,0.1-2.6,0.1
		c-0.2-0.1-0.2-0.6-0.1-0.7l0.9-0.1c0.6-0.1,1.2-0.4,1.6-1.3c0.5-1.3,1.2-3.1,2.4-6.1l2.8-7.4c0.4-1,0.5-1.5,0.5-2
		c0.6-0.2,1.1-0.7,1.4-1c0.2,0,0.4,0.1,0.4,0.2c0.4,1.2,0.8,2.5,1.2,3.7l3.7,11.1c0.8,2.4,1.1,2.8,2.3,2.9l0.7,0.1
		c0.2,0.1,0.1,0.6,0,0.7c-1.1-0.1-2.1-0.1-3.3-0.1c-1.3,0-2.3,0.1-3.1,0.1c-0.2-0.1-0.2-0.6-0.1-0.7l0.8-0.1
		c0.6-0.1,0.9-0.2,0.9-0.5c0-0.3-0.1-0.8-0.4-1.5L149.9,101.3L149.9,101.3z"/>
	<path fill="#61784B" d="M167.3,100.4c0.6,1.3,1.2,2.6,1.9,3.8h0.1c0.7-1.3,1.4-2.7,2.1-4.1l2.5-5.3c1.2-2.5,2-4,2.1-5.3
		c0.9,0.1,1.5,0.1,2,0.1c0.7,0,1.6,0,2.4-0.1c0.2,0.1,0.2,0.6,0,0.7l-0.6,0.1c-1.7,0.2-1.9,0.7-1.9,2.6c0.1,2.9,0.1,8,0.3,12
		c0.1,1.4,0.1,2.1,1.3,2.2l0.9,0.1c0.2,0.2,0.1,0.6-0.1,0.7c-1.1-0.1-2.2-0.1-3.2-0.1c-0.9,0-2.2,0-3.3,0.1
		c-0.2-0.1-0.2-0.5-0.1-0.7l0.8-0.1c1.3-0.1,1.3-0.6,1.3-2.3l-0.1-11.5h-0.1c-0.2,0.3-1.2,2.5-1.8,3.6l-2.4,4.8
		c-1.2,2.4-2.4,5-2.9,6.3c-0.1,0.1-0.2,0.1-0.3,0.1c-0.1,0-0.2,0-0.2-0.1c-0.5-1.5-1.8-4.2-2.4-5.5l-2.4-5.3c-0.6-1.3-1.1-2.7-1.7-4
		h-0.1c-0.1,1.7-0.2,3.3-0.3,4.9c-0.1,1.7-0.2,4.1-0.2,6.5c0,2,0.2,2.5,1.2,2.6l1,0.1c0.2,0.2,0.2,0.6,0,0.7c-0.9-0.1-2-0.1-3-0.1
		c-0.9,0-1.8,0-2.8,0.1c-0.2-0.1-0.2-0.6-0.1-0.7l0.6-0.1c1.1-0.2,1.5-0.3,1.7-2.3c0.2-1.8,0.3-3.3,0.5-6.1c0.1-2.3,0.2-4.6,0.3-6.1
		c0.1-1.7-0.2-2.2-1.8-2.4l-0.4-0.1c-0.1-0.2-0.1-0.6,0.1-0.7c0.8,0.1,1.5,0.1,2.1,0.1c0.6,0,1.4,0,2.2-0.1
		c-0.1,1.1,0.6,2.8,1.4,4.5L167.3,100.4L167.3,100.4z"/>
	<path fill="#61784B" d="M185.1,93.7c0-2.9-0.1-3.3-1.6-3.5l-0.4-0.1c-0.2-0.1-0.1-0.6,0.1-0.7c1.2,0.1,2.1,0.1,3.2,0.1h5.1
		c1.7,0,3.3,0,3.6-0.1c0.2,0.5,0.3,2.5,0.4,3.7c-0.1,0.2-0.5,0.2-0.7,0.1c-0.4-1.3-0.6-2.3-2.1-2.6c-0.6-0.1-1.4-0.2-2.6-0.2h-1.9
		c-0.8,0-0.8,0.1-0.8,1.1V97c0,0.8,0.1,0.8,0.9,0.8h1.6c1.1,0,2-0.1,2.3-0.2c0.3-0.1,0.5-0.3,0.6-1l0.2-1.1c0.1-0.2,0.6-0.2,0.7,0
		c0,0.7-0.1,1.7-0.1,2.8c0,1,0.1,2,0.1,2.6c-0.1,0.2-0.6,0.2-0.7,0l-0.2-1.1c-0.1-0.5-0.3-0.9-0.8-1c-0.4-0.1-1-0.1-2.1-0.1h-1.6
		c-0.8,0-0.9,0-0.9,0.7v3.9c0,1.5,0.1,2.4,0.5,2.9c0.3,0.3,0.9,0.6,3.3,0.6c2.1,0,2.9-0.1,3.5-0.4c0.5-0.3,1.2-1.2,1.9-2.7
		c0.2-0.1,0.6-0.1,0.7,0.2c-0.2,1-0.9,3.1-1.2,3.8c-2.4-0.1-4.8-0.1-7.2-0.1h-2.4c-1.2,0-2.1,0-3.7,0.1c-0.2-0.1-0.2-0.5-0.1-0.7
		l0.9-0.1c1.5-0.1,1.7-0.6,1.7-3.4V93.7L185.1,93.7z"/>
	<path fill="#61784B" d="M209.8,98.9c-0.2,0.6-0.2,0.7,0.6,0.7h3.3c0.8,0,0.8-0.1,0.6-0.9l-1.5-4.5c-0.2-0.7-0.5-1.4-0.6-1.7h-0.1
		c-0.1,0.1-0.4,0.8-0.6,1.6L209.8,98.9L209.8,98.9z M215.2,101.3c-0.2-0.6-0.3-0.7-1.1-0.7H210c-0.7,0-0.8,0.1-1,0.7l-0.9,2.9
		c-0.4,1.2-0.6,2-0.6,2.3c0,0.3,0.1,0.5,0.8,0.6l0.9,0.1c0.2,0.1,0.2,0.6-0.1,0.7c-0.7-0.1-1.5-0.1-2.8-0.1c-0.9,0-1.9,0.1-2.6,0.1
		c-0.2-0.1-0.2-0.6-0.1-0.7l0.9-0.1c0.6-0.1,1.2-0.4,1.6-1.3c0.5-1.3,1.2-3.1,2.4-6.1l2.8-7.4c0.4-1,0.5-1.5,0.5-2
		c0.6-0.2,1.1-0.7,1.4-1c0.2,0,0.4,0.1,0.4,0.2c0.4,1.2,0.8,2.5,1.2,3.7l3.7,11.1c0.8,2.4,1.1,2.8,2.3,2.9l0.7,0.1
		c0.2,0.1,0.1,0.6,0,0.7c-1.1-0.1-2.1-0.1-3.3-0.1c-1.3,0-2.3,0.1-3.1,0.1c-0.2-0.1-0.2-0.6-0.1-0.7l0.8-0.1
		c0.6-0.1,0.9-0.2,0.9-0.5c0-0.3-0.1-0.8-0.4-1.5L215.2,101.3L215.2,101.3z"/>
	<path fill="#61784B" d="M239.9,103c0,0.8,0,4.1,0.1,4.8c-0.1,0.2-0.2,0.3-0.5,0.3c-0.3-0.5-1.1-1.4-3.5-4.2l-6.3-7.3
		c-0.7-0.9-2.6-3.1-3.1-3.7h-0.1c-0.1,0.3-0.1,1-0.1,1.8v6c0,1.3,0,4.9,0.5,5.7c0.2,0.3,0.7,0.5,1.4,0.5l0.8,0.1
		c0.2,0.2,0.1,0.6-0.1,0.7c-1.2-0.1-2.2-0.1-3.2-0.1c-1.1,0-1.9,0-2.8,0.1c-0.2-0.1-0.2-0.5-0.1-0.7l0.7-0.1
		c0.6-0.1,1.1-0.2,1.2-0.6c0.4-1,0.4-4.4,0.4-5.7v-8c0-0.8,0-1.3-0.6-2c-0.4-0.4-1-0.6-1.7-0.7l-0.5-0.1c-0.2-0.2-0.2-0.6,0.1-0.7
		c1.1,0.1,2.6,0.1,3.1,0.1c0.4,0,0.9,0,1.2-0.1c0.5,1.4,3.7,5,4.6,6.1l2.6,3c1.9,2.1,3.2,3.7,4.5,5h0.1c0.1-0.1,0.1-0.6,0.1-1.2
		v-5.9c0-1.3,0-4.9-0.5-5.7c-0.2-0.2-0.6-0.4-1.7-0.6l-0.5-0.1c-0.2-0.2-0.2-0.6,0.1-0.7c1.2,0.1,2.2,0.1,3.2,0.1
		c1.2,0,1.9,0,2.8-0.1c0.2,0.1,0.2,0.5,0.1,0.7l-0.4,0.1c-0.9,0.1-1.4,0.4-1.5,0.6c-0.5,1-0.4,4.4-0.4,5.7V103L239.9,103z"/>
	<path fill="#61784B" d="M259.9,104.9c0,1.1,0.2,1.8,0.6,2c0.1,0.1,0.1,0.2,0,0.3c-0.3,0-0.8,0.1-1.3,0.2c-1.4,0.4-3.4,0.7-4.8,0.7
		c-3.2,0-6.2-0.9-8.2-3.1c-1.6-1.7-2.5-3.8-2.5-6.3c0-2.3,0.8-4.7,2.4-6.5c1.8-1.9,4.5-3.2,8.6-3.2c1.5,0,3,0.3,3.4,0.4
		c0.5,0.1,1.4,0.3,1.7,0.2c0,0.9,0.2,2.3,0.4,4c-0.1,0.2-0.6,0.2-0.7,0.1c-0.8-3-2.8-3.9-5.5-3.9c-5.2,0-7.5,3.8-7.5,7.9
		c0,5.3,2.7,9.5,8.1,9.5c1.7,0,2.7-0.4,3-0.8c0.1-0.2,0.3-0.7,0.3-1.6v-1.1c0-2.3-0.1-2.5-1.8-2.7l-1.2-0.1c-0.2-0.1-0.2-0.6,0-0.7
		c0.8,0.1,2.3,0.1,3.9,0.1c1.1,0,2,0,2.9-0.1c0.2,0.1,0.2,0.5,0,0.7l-0.4,0.1c-1.1,0.1-1.2,0.9-1.2,2.3V104.9L259.9,104.9z"/>
	<path fill="#61784B" d="M265.6,93.7c0-2.9-0.1-3.3-1.8-3.5l-0.7-0.1c-0.2-0.1-0.1-0.6,0.1-0.7c1.5,0.1,2.4,0.1,3.5,0.1
		c1.1,0,2,0,3.3-0.1c0.2,0.1,0.2,0.6,0.1,0.7l-0.6,0.1c-1.6,0.1-1.6,0.6-1.6,3.5v9.6c0,1.7,0.1,2.5,0.6,3c0.3,0.3,0.8,0.6,2.9,0.6
		c2.3,0,2.9-0.1,3.3-0.4c0.5-0.3,1.2-1.3,1.8-2.7c0.2-0.1,0.7,0,0.7,0.2c0,0.3-0.8,3.1-1.1,3.9c-1.4-0.1-3.9-0.1-6.7-0.1h-2.5
		c-1.1,0-2,0-3.5,0.1c-0.2-0.1-0.2-0.5-0.1-0.7l0.8-0.1c1.6-0.2,1.6-0.6,1.6-3.4V93.7L265.6,93.7z"/>
	<path fill="#61784B" d="M280.8,93.7c0-2.9-0.1-3.4-1.6-3.5l-0.7-0.1c-0.2-0.1-0.1-0.6,0.1-0.7c1.4,0.1,2.3,0.1,3.4,0.1
		c1.1,0,2,0,3.4-0.1c0.2,0.1,0.2,0.6,0.1,0.7l-0.7,0.1c-1.6,0.1-1.6,0.6-1.6,3.5v9.8c0,2.9,0.1,3.3,1.6,3.5l0.7,0.1
		c0.2,0.1,0.1,0.6-0.1,0.7c-1.4-0.1-2.3-0.1-3.4-0.1c-1.1,0-2.1,0-3.4,0.1c-0.2-0.1-0.2-0.5-0.1-0.7l0.7-0.1
		c1.6-0.2,1.6-0.6,1.6-3.5V93.7L280.8,93.7z"/>
	<path fill="#61784B" d="M304.7,103c0,0.8,0,4.1,0.1,4.8c-0.1,0.2-0.2,0.3-0.5,0.3c-0.3-0.5-1.1-1.4-3.5-4.2l-6.3-7.3
		c-0.7-0.9-2.6-3.1-3.1-3.7h-0.1c-0.1,0.3-0.1,1-0.1,1.8v6c0,1.3,0,4.9,0.5,5.7c0.2,0.3,0.7,0.5,1.4,0.5l0.8,0.1
		c0.2,0.2,0.1,0.6-0.1,0.7c-1.2-0.1-2.2-0.1-3.2-0.1c-1.1,0-1.9,0-2.8,0.1c-0.2-0.1-0.2-0.5-0.1-0.7l0.7-0.1
		c0.6-0.1,1.1-0.2,1.2-0.6c0.4-1,0.4-4.4,0.4-5.7v-8c0-0.8,0-1.3-0.6-2c-0.4-0.4-1-0.6-1.7-0.7l-0.5-0.1c-0.2-0.2-0.2-0.6,0.1-0.7
		c1.1,0.1,2.6,0.1,3.1,0.1c0.4,0,0.9,0,1.2-0.1c0.5,1.4,3.7,5,4.6,6.1l2.6,3c1.9,2.1,3.2,3.7,4.5,5h0.1c0.1-0.1,0.1-0.6,0.1-1.2
		v-5.9c0-1.3,0-4.9-0.5-5.7c-0.2-0.2-0.6-0.4-1.7-0.6l-0.5-0.1c-0.2-0.2-0.2-0.6,0.1-0.7c1.2,0.1,2.2,0.1,3.2,0.1
		c1.2,0,1.9,0,2.8-0.1c0.2,0.1,0.2,0.5,0.1,0.7l-0.4,0.1c-0.9,0.1-1.4,0.4-1.5,0.6c-0.5,1-0.4,4.4-0.4,5.7V103L304.7,103z"/>
	<path fill="#61784B" d="M324.7,104.9c0,1.1,0.2,1.8,0.6,2c0.1,0.1,0.1,0.2,0,0.3c-0.3,0-0.8,0.1-1.3,0.2c-1.4,0.4-3.4,0.7-4.8,0.7
		c-3.2,0-6.2-0.9-8.2-3.1c-1.6-1.7-2.5-3.8-2.5-6.3c0-2.3,0.8-4.7,2.4-6.5c1.8-1.9,4.5-3.2,8.6-3.2c1.5,0,3,0.3,3.4,0.4
		c0.5,0.1,1.4,0.3,1.7,0.2c0,0.9,0.2,2.3,0.4,4c-0.1,0.2-0.6,0.2-0.7,0.1c-0.8-3-2.8-3.9-5.5-3.9c-5.2,0-7.5,3.8-7.5,7.9
		c0,5.3,2.7,9.5,8.1,9.5c1.7,0,2.7-0.4,3-0.8c0.1-0.2,0.3-0.7,0.3-1.6v-1.1c0-2.3-0.1-2.5-1.8-2.7l-1.2-0.1c-0.2-0.1-0.2-0.6,0-0.7
		c0.8,0.1,2.3,0.1,3.9,0.1c1.1,0,2,0,2.9-0.1c0.2,0.1,0.2,0.5,0,0.7l-0.4,0.1c-1.1,0.1-1.2,0.9-1.2,2.3V104.9L324.7,104.9z"/>
	<path fill="#BCD75F" d="M128.4,112.4c0,0.3,0,1.4,0.2,2.3c-0.1,0.2-0.4,0.2-0.5,0.1c-0.4-1.4-1.3-2.1-2.7-2.1
		c-1.6,0-3.3,1.4-3.3,4.3c0,2.9,1.7,4.5,3.4,4.5c1.7,0,2.6-1.3,2.9-2.3c0.1-0.1,0.5-0.1,0.5,0.1c-0.1,1.1-0.3,2-0.5,2.3
		c-0.8,0.2-1.8,0.5-2.9,0.5c-1.4,0-2.9-0.3-3.9-1.1c-1-0.8-1.8-2-1.8-3.9c0-1.8,0.7-3.1,1.7-3.9c1-0.9,2.5-1.3,4-1.3
		C126.9,112,128,112.4,128.4,112.4"/>
	<path fill="#BCD75F" d="M144.8,112.7c-1.8,0-2.7,1.7-2.7,4.1c0,1.8,0.6,4.7,3,4.7c1.9,0,2.6-1.9,2.6-4.3
		C147.6,114.8,146.6,112.7,144.8,112.7 M150,117.1c0,3.2-2.1,5.1-5.2,5.1c-2.9,0-5-1.9-5-5c0-2.9,2.1-5.2,5.1-5.2
		C147.9,112,150,114.1,150,117.1"/>
	<path fill="#BCD75F" d="M169.8,119.5c0,1,0,1.9,0,2.4c-0.1,0.2-0.5,0.3-0.9,0.3c0,0-0.5-0.8-1.2-1.6l-3.3-4.2
		c-0.8-1-1.3-1.7-1.6-1.9c-0.1,0.1-0.1,0.4-0.1,0.9v2.9c0,1.2,0.1,2.3,0.2,2.7c0.1,0.3,0.5,0.4,0.8,0.5l0.4,0.1
		c0.1,0.1,0.1,0.4,0,0.5c-0.8,0-1.4,0-1.9,0c-0.5,0-1.1,0-1.6,0c-0.1-0.1-0.1-0.4,0-0.5l0.2,0c0.4-0.1,0.7-0.2,0.8-0.5
		c0.2-0.4,0.2-1.5,0.2-2.7v-3.7c0-0.8,0-1-0.1-1.2c-0.1-0.3-0.3-0.4-0.8-0.5l-0.4-0.1c-0.1-0.1-0.1-0.5,0.1-0.5c0.7,0,1.4,0,2,0
		c0.5,0,0.9,0,1.2,0c0.1,0.7,1.1,1.8,2.4,3.4l1.2,1.5c0.6,0.8,1.1,1.3,1.4,1.6c0.1-0.1,0.1-0.4,0.1-0.7v-2c0-1.2-0.1-2.3-0.2-2.7
		c-0.1-0.3-0.4-0.4-0.8-0.5l-0.4-0.1c-0.1-0.1-0.1-0.4,0-0.5c0.8,0,1.3,0,1.9,0c0.5,0,1.1,0,1.6,0c0.1,0.1,0.1,0.4,0,0.5l-0.3,0
		c-0.4,0.1-0.6,0.2-0.8,0.5c-0.2,0.4-0.2,1.5-0.2,2.7V119.5L169.8,119.5z"/>
	<path fill="#BCD75F" d="M184.5,122.2c-1.3,0-2.1-0.4-2.5-0.6c-0.3-0.3-0.5-1.4-0.5-2.4c0.1-0.2,0.4-0.2,0.5,0
		c0.3,1,1.3,2.3,2.5,2.3c1.1,0,1.6-0.8,1.6-1.5c0-1.2-1.1-1.9-2-2.3c-1-0.5-2.2-1.4-2.2-2.9c0-1.7,1.3-2.8,3.3-2.8
		c0.5,0,1.1,0.1,1.6,0.2c0.2,0.1,0.3,0.1,0.5,0.1c0.1,0.3,0.3,1.1,0.3,2.1c-0.1,0.2-0.4,0.2-0.6,0c-0.2-0.8-0.9-1.8-1.9-1.8
		c-1,0-1.5,0.6-1.5,1.4c0,0.7,0.6,1.3,1.3,1.7l1,0.5c0.9,0.5,2,1.3,2,3C188.1,121,186.7,122.2,184.5,122.2"/>
	<path fill="#BCD75F" d="M200.1,114.4c0-1.4-0.1-1.5-0.7-1.6l-0.4-0.1c-0.1-0.1-0.1-0.4,0-0.5c0.7,0,1.4,0,2.1,0c0.7,0,1.4,0,2.1,0
		c0.1,0.1,0.1,0.4,0,0.5l-0.3,0.1c-0.6,0.1-0.7,0.2-0.7,1.6v3.4c0,1.7,0.2,3.6,2.4,3.6c1.8,0,2.4-1.6,2.4-3.7V116
		c0-1.2-0.1-2.3-0.2-2.7c-0.1-0.3-0.4-0.4-0.8-0.5l-0.4-0.1c-0.1-0.1-0.1-0.4,0-0.5c0.8,0,1.3,0,1.9,0c0.5,0,1.1,0,1.6,0
		c0.1,0.1,0.1,0.4,0,0.5l-0.3,0.1c-0.4,0.1-0.6,0.2-0.8,0.5c-0.2,0.4-0.2,1.5-0.2,2.7v1.6c0,1.4-0.1,2.6-0.9,3.5
		c-0.6,0.7-1.7,1.1-2.9,1.1c-1.1,0-2.1-0.2-2.9-0.8c-0.8-0.6-1.1-1.7-1.1-3.3V114.4L200.1,114.4z"/>
	<path fill="#BCD75F" d="M223.3,119.5c0,0.7,0.1,1.2,0.2,1.4c0.2,0.3,0.4,0.4,1.5,0.4c1.3,0,1.7,0,2.6-1.8c0.1-0.1,0.4-0.1,0.5,0.1
		c-0.1,0.8-0.4,2-0.6,2.4c-0.8,0-2.1,0-3.3,0h-1.9c-0.7,0-1.4,0-2.3,0c-0.1-0.1-0.2-0.4,0-0.5l0.5-0.1c0.6-0.1,0.7-0.2,0.7-1.6v-5.5
		c0-1.4-0.1-1.5-0.7-1.6l-0.4-0.1c-0.1-0.1-0.1-0.4,0-0.5c0.8,0,1.5,0,2.2,0c0.7,0,1.4,0,2.1,0c0.1,0.1,0.1,0.4,0,0.5l-0.4,0.1
		c-0.6,0.1-0.7,0.2-0.7,1.6V119.5L223.3,119.5z"/>
	<path fill="#BCD75F" d="M241.1,113.4c0-0.4,0-0.4-0.3-0.4h-0.9c-1.1,0-1.4,0.6-1.8,1.7c-0.2,0.1-0.4,0.1-0.5-0.1
		c0.3-1,0.4-1.9,0.5-2.5c0.1,0,0.1-0.1,0.2-0.1c0.1,0,0.1,0,0.2,0.1c0.1,0.3,0.1,0.3,1.2,0.3h5.4c1,0,1.2,0,1.3-0.3
		c0.1,0,0.1,0,0.2,0s0.2,0.1,0.2,0.1c-0.1,0.5-0.2,1.7-0.2,2.5c-0.1,0.1-0.5,0.2-0.5,0c-0.2-0.9-0.4-1.6-1.5-1.6h-0.9
		c-0.3,0-0.4,0-0.4,0.4v6.5c0,1.4,0.1,1.5,0.7,1.6l0.6,0.1c0.1,0.1,0.1,0.4,0,0.5c-0.9,0-1.7,0-2.3,0c-0.7,0-1.4,0-2.5,0
		c-0.1-0.1-0.1-0.4,0-0.5l0.6-0.1c0.6-0.1,0.7-0.2,0.7-1.6V113.4L241.1,113.4z"/>
	<path fill="#BCD75F" d="M261.1,117.9c0.3,0,0.4,0,0.3-0.4l-0.4-1.2c-0.2-0.6-0.5-1.4-0.6-1.7c-0.1,0.3-0.4,1.1-0.6,1.8l-0.4,1.1
		c-0.1,0.4-0.1,0.4,0.3,0.4H261.1L261.1,117.9z M259.5,118.7c-0.3,0-0.4,0-0.5,0.3l-0.6,1.7c-0.1,0.3-0.1,0.4-0.1,0.5
		c0,0.1,0.2,0.2,0.6,0.2l0.4,0.1c0.1,0.1,0.1,0.4,0,0.5c-0.5,0-1,0-1.6,0c-0.5,0-0.8,0-1.5,0c-0.2-0.1-0.1-0.4,0-0.5l0.4,0
		c0.3,0,0.6-0.2,0.9-0.7c0.2-0.6,0.5-1.3,0.9-2.4l1.3-3.6c0.3-0.9,0.6-1.4,0.5-1.9c0.7-0.2,1.2-0.9,1.3-0.9c0.2,0,0.3,0.1,0.3,0.3
		c0.1,0.4,0.3,1,0.6,2l2,5.8c0.3,0.9,0.4,1.2,1,1.3l0.5,0.1c0.1,0.1,0.1,0.4,0,0.5c-0.7,0-1.5,0-2.2,0c-0.7,0-1.3,0-1.9,0
		c-0.2-0.1-0.2-0.4,0-0.5l0.5-0.1c0.3-0.1,0.4-0.2,0.4-0.2c0-0.1-0.1-0.5-0.3-1l-0.4-1.3c-0.1-0.2-0.2-0.3-0.7-0.3H259.5
		L259.5,118.7z"/>
	<path fill="#BCD75F" d="M285.7,119.5c0,1,0,1.9,0,2.4c-0.1,0.2-0.5,0.3-0.9,0.3c0,0-0.5-0.8-1.2-1.6l-3.3-4.2
		c-0.8-1-1.3-1.7-1.6-1.9c-0.1,0.1-0.1,0.4-0.1,0.9v2.9c0,1.2,0.1,2.3,0.2,2.7c0.1,0.3,0.5,0.4,0.8,0.5l0.4,0.1
		c0.1,0.1,0.1,0.4,0,0.5c-0.8,0-1.4,0-1.9,0c-0.5,0-1.1,0-1.6,0c-0.1-0.1-0.1-0.4,0-0.5l0.2,0c0.4-0.1,0.7-0.2,0.8-0.5
		c0.2-0.4,0.2-1.5,0.2-2.7v-3.7c0-0.8,0-1-0.1-1.2c-0.1-0.3-0.3-0.4-0.8-0.5l-0.4-0.1c-0.1-0.1-0.1-0.5,0.1-0.5c0.7,0,1.4,0,2,0
		c0.5,0,0.9,0,1.2,0c0.1,0.7,1.1,1.8,2.4,3.4l1.2,1.5c0.6,0.8,1.1,1.3,1.4,1.6c0.1-0.1,0.1-0.4,0.1-0.7v-2c0-1.2-0.1-2.3-0.2-2.7
		c-0.1-0.3-0.4-0.4-0.8-0.5l-0.4-0.1c-0.1-0.1-0.1-0.4,0-0.5c0.8,0,1.3,0,1.9,0c0.5,0,1.1,0,1.6,0c0.1,0.1,0.1,0.4,0,0.5l-0.3,0
		c-0.4,0.1-0.6,0.2-0.8,0.5c-0.2,0.4-0.2,1.5-0.2,2.7V119.5L285.7,119.5z"/>
	<path fill="#BCD75F" d="M306.2,112.4c0,0.3,0,1.4,0.2,2.3c-0.1,0.2-0.4,0.2-0.5,0.1c-0.4-1.4-1.3-2.1-2.7-2.1
		c-1.6,0-3.3,1.4-3.3,4.3c0,2.9,1.7,4.5,3.4,4.5c1.7,0,2.6-1.3,2.9-2.3c0.1-0.1,0.5-0.1,0.5,0.1c-0.1,1.1-0.3,2-0.5,2.3
		c-0.8,0.2-1.8,0.5-2.9,0.5c-1.4,0-2.9-0.3-3.9-1.1c-1-0.8-1.8-2-1.8-3.9c0-1.8,0.7-3.1,1.7-3.9c1-0.9,2.5-1.3,4-1.3
		C304.7,112,305.8,112.4,306.2,112.4"/>
	<path fill="#BCD75F" d="M322.7,119.9c0,1.4,0.1,1.5,0.7,1.6l0.6,0.1c0.1,0.1,0.1,0.4,0,0.5c-0.9,0-1.6,0-2.3,0c-0.7,0-1.4,0-2.3,0
		c-0.1-0.1-0.1-0.4,0-0.5l0.5-0.1c0.6-0.1,0.7-0.2,0.7-1.6v-0.7c0-0.7,0-1-0.4-1.7l-1.7-3.6c-0.3-0.6-0.4-0.8-0.9-0.9l-0.5-0.1
		c-0.1-0.1-0.1-0.5,0.1-0.5c0.6,0,1.2,0,2,0c0.9,0,1.6,0,2.1,0c0.1,0.1,0.2,0.4,0,0.5l-0.5,0.1c-0.3,0.1-0.3,0.1-0.3,0.1
		c0,0.1,0.1,0.3,0.4,1l0.7,1.6c0.2,0.5,0.5,1.2,0.7,1.5c0.4-0.7,0.9-1.7,1.2-2.4c0.5-1,0.7-1.5,0.7-1.7c0-0.1-0.2-0.2-0.6-0.2
		l-0.3-0.1c-0.1-0.1-0.1-0.4,0-0.5c0.6,0,1.1,0,1.6,0c0.5,0,1,0,1.4,0c0.2,0.1,0.2,0.4,0.1,0.5l-0.4,0.1c-0.3,0-0.6,0.1-0.7,0.4
		c-0.2,0.3-0.6,0.8-1.3,2.1l-0.9,1.7c-0.4,0.7-0.5,1.1-0.5,1.9V119.9L322.7,119.9z"/>
	<path fill="#61784B" d="M96,121.3l-0.1-2.2l-0.2-1.9v-0.7c0-0.1,0-0.6,0-0.6v-0.5l-0.1-0.4c0,0-0.3-0.3-0.3-0.8c0-0.4,0-0.1,0-0.1
		s-0.7,0.4-0.8,0.7c-0.1,0.4-1,0.3-1.3,0.9c-0.3,0.6-1.8,4.2-2.3,4.9c-0.5,0.7-0.2,0.6-0.2,0.6l-4.6-0.4c0,0,0.1-2.1,0.4-3.1
		c0.4-1,1.1-2.7,1.2-3.3c0.1-0.6,0.2-1.9,1-2.9c0,0,0.3-0.4,0-1c-0.3-0.6,0-1.2,0.2-1.8c0.1-0.6-0.2-4.9-0.3-5.4
		c0-0.6-1.2-1.5-1.3-3c-0.1-1.4,0-4.7,0-6.1c0-1.4,0.5-3.8,0.4-4.9c-0.1-1-0.4-3.8-0.4-3.8l-0.2-1l0.5-0.1c0,0,0.6-6.4,2.2-8.1
		c1.6-1.7,2.9-2.6,3.3-3.2c0,0-0.7-1.1-0.2-2.1c0,0,0-0.4-0.2-0.5c-0.2-0.2-0.1-0.4,0.1-1.2c0.3-1.1,0.8-1.2,1.2-1.6
		c0.4-0.3,0.7-1.1,2.7-1.1c2.1,0,3.3,0.8,3.7,2.4c0,0,0.3,2.6,0.5,2.8c0.1,0.2,0.6,1-0.1,1c-0.8,0-0.6,0.4-0.6,0.8
		c0,0.4,0.1,0.5,0.3,0.9c0.1,0.4,0.1,0.8-0.2,1c-0.3,0.2-0.6,0-1.1,0.3c-0.6,0.3-1.4,1-1.4,1s2.7,2.2,3.4,2.8
		c0.7,0.6,1.1,0.6,1.8,0.6c0.7-0.1,1.6-0.3,3.6-0.2c2,0.1,5.2-0.1,6.7-0.2c1.5-0.1,2-0.3,2.8,0c0.8,0.3,2.2,1.2,2.5,1.8
		c0.3,0.6,0.2,0.8-0.3,0.8c0,0-0.1,0.8-0.9,0.6c0,0-0.2,0.6-0.8,0.5c0,0,0.1,0.7-0.6,0.6c-0.7-0.2-0.8-0.7-1.8-1
		c-1-0.2-1.8-0.5-3.7,0c-1.9,0.5-3.7,1.2-5.5,1.3c-1.7,0.1-4-0.4-3.5,0.6c0.5,1,1.2,3.2,1.2,4.4c0,0,2.1,1.5,3.1,1.8
		c0.9,0.4,2.3,0.8,2.4,0.8c0.1,0,0.9-1,1.2-0.9c0.4,0.1,0.9,0.8,1.6,1c0.7,0.2,1.2,0.6,1.1,1c-0.2,0.4-0.5,0.3-0.5,0.3
		s0.2,0.8-0.4,1c0,0-0.1,0.5-0.5,0.7c0,0-0.2,0.8-1.1,0.7c-0.8-0.1-1.6-1-1.6-1s-2.6,0-4.2-0.3c-1.6-0.3-2.5-0.7-2.5-0.7
		s-0.2,1,0,1.3c0.3,0.3,0.4,1.2,0.4,2.3c0,1.1-0.1,2.5,0.2,3.1c0.3,0.6,0.3,1.7,0.2,2.5c-0.1,0.8-0.4,1.9,0,2.2
		c0.4,0.3,0.2,1.8,0.3,2.5c0.1,0.6,0.7,3.3,0.7,4.3c0,1.1,0.2,2.1-0.8,2.7c-0.9,0.6-1.2,1.4-1.2,2.6c0,1.2-0.2,3.8-0.3,4.1
		C101.1,121.6,96,121.3,96,121.3"/>
	<path fill="#61784B" d="M85.2,95.1c-0.3,4.5-2.1,8.1-4,7.9c-1.9-0.1-3.2-3.9-2.9-8.4c0.3-4.5,2.8-12.9,4.7-12.8
		C84.9,82,85.5,90.6,85.2,95.1"/>
	<path fill="#61784B" d="M74.2,78.5c-0.3,0-4.2,1-4.1,8.3c0.2,7.3,0,10.2,0,10.2s-0.1,2.1,0.1,2.4c0.2,0.3-0.1,1,0.3,1.4
		c0.4,0.5,0.4,1.1,1.3,1.1c0.9,0,2.5,0.2,2.8-1.1c0.3-1.2,1-4.5,1.2-7.4c0.2-2.9,0.5-7.6,0.6-8.8C76.6,83.3,74.2,78.5,74.2,78.5"/>
	<path fill="#61784B" d="M91.3,70.8c0,0-0.9,0.7,0.3,0.9c1.2,0.2,3.7,0.1,6.3-0.4c2.6-0.5,5.9-1.1,5-1.7c-0.9-0.6-1.9-0.7-2.1-1.2
		c-0.2-0.5-0.4-2.5-1.6-2.5c-1.2,0-2.8-0.1-4.2,0.2c-1.4,0.4-2.8,1.1-2.8,1.8c0,0-0.2,0.3,0.2,0.5l0.1,0.9c0,0-0.2,0.3,0,0.4
		L91.3,70.8L91.3,70.8z"/>
	<path fill="#61784B" d="M100.8,71.7c0,0,0-1.3-0.3-2l-0.3,0.5l-0.2,0.4L100.8,71.7L100.8,71.7z"/>
	<path fill="#61784B" d="M99.4,66c0,0,1.2,0.1,1.1,0.9c0,0,0.5,0.4,0.1,1h-0.8c0,0-0.5-0.2-0.5-0.3c-0.1-0.1,0-1.1,0-1.1L99.4,66
		L99.4,66z"/>
	<path fill="#61784B" d="M99.8,67.9c0,0,0.7-0.2,0.8,0.3c0,0,0.4,0.1,0.2,0.5l-0.5,0.2c0,0-0.3,0-0.4-0.1c-0.1,0-0.2-0.6-0.2-0.6
		L99.8,67.9L99.8,67.9z"/>
</g>
<g>
</g>
<g>
</g>
<g>
</g>
<g>
</g>
<g>
</g>
<g>
</g>
<g>
</g>
<g>
</g>
<g>
</g>
<g>
</g>
</svg>
