<?xml version="1.0" encoding="utf-8"?>
<!-- Generator: Adobe Illustrator 16.0.0, SVG Export Plug-In . SVG Version: 6.00 Build 0)  -->
<!DOCTYPE svg PUBLIC "-//W3C//DTD SVG 1.1//EN" "http://www.w3.org/Graphics/SVG/1.1/DTD/svg11.dtd">
<svg version="1.1" id="SLM_Builders" xmlns="http://www.w3.org/2000/svg" xmlns:xlink="http://www.w3.org/1999/xlink" x="0px"
	 y="0px" width="750px" height="301.485px" viewBox="0 349.598 750 301.485" enable-background="new 0 349.598 750 301.485"
	 xml:space="preserve">
<g>
	<path fill="#555759" d="M261.065,616.817c0-0.815,0.012-1.61,0.041-2.384c0.025-0.773,0.093-1.459,0.202-2.056l-0.081-0.042
		c-0.488,1.332-1.359,2.466-2.606,3.4c-1.25,0.937-2.77,1.406-4.561,1.406c-1.576,0-2.887-0.47-3.93-1.406
		c-1.046-0.935-1.568-2.22-1.568-3.848c0-1.005,0.265-1.927,0.794-2.77c0.529-0.842,1.316-1.568,2.362-2.18
		c1.042-0.608,2.349-1.086,3.909-1.424c1.561-0.338,3.36-0.51,5.396-0.51v-1.546c0-1.655-0.347-2.928-1.039-3.808
		c-0.692-0.883-1.949-1.325-3.767-1.325c-0.977,0-2.016,0.145-3.114,0.428c-1.1,0.286-2.057,0.659-2.871,1.121l-0.652-2.16
		c0.949-0.433,2.037-0.788,3.258-1.059c1.222-0.269,2.484-0.405,3.787-0.405c1.357,0,2.484,0.162,3.38,0.487
		s1.608,0.783,2.138,1.364c0.529,0.584,0.901,1.271,1.12,2.056c0.216,0.79,0.326,1.646,0.326,2.567v7.817
		c0,1.031,0.006,2.104,0.021,3.219c0.012,1.11,0.032,2.132,0.061,3.055H261.065z M261.024,607.002c-1.929,0-3.522,0.129-4.785,0.388
		c-1.263,0.256-2.268,0.589-3.014,0.997c-0.746,0.407-1.275,0.882-1.588,1.426c-0.313,0.542-0.469,1.099-0.469,1.668
		c0,1.034,0.318,1.882,0.957,2.545c0.636,0.667,1.486,1,2.545,1c0.949,0,1.817-0.217,2.606-0.651
		c0.787-0.436,1.459-1.012,2.016-1.732c0.558-0.719,0.986-1.526,1.284-2.424c0.297-0.895,0.448-1.804,0.448-2.727V607.002z"/>
	<path fill="#555759" d="M277.924,616.998c-0.705,0.07-1.372,0.103-1.996,0.103c-0.977,0-1.8-0.114-2.463-0.346
		c-0.665-0.229-1.189-0.584-1.568-1.059c-0.381-0.475-0.651-1.079-0.814-1.812c-0.163-0.732-0.245-1.615-0.245-2.646v-12.624h-4.601
		v-2.038h4.601v-6.84l2.566-0.694v7.534h6.229v2.038h-6.229v11.361c0,0.977,0.048,1.779,0.142,2.4
		c0.094,0.627,0.265,1.121,0.509,1.486c0.245,0.368,0.578,0.619,0.998,0.756s0.944,0.201,1.567,0.201
		c1.059,0,1.996-0.106,2.81-0.325l0.367,2.2C279.252,616.83,278.628,616.932,277.924,616.998"/>
	<path fill="#555759" d="M307.488,608.387c0,1.274-0.26,2.455-0.774,3.541c-0.516,1.089-1.237,2.023-2.158,2.812
		c-0.924,0.788-2.044,1.404-3.36,1.852c-1.318,0.45-2.764,0.674-4.337,0.674c-2.415,0-4.535-0.246-6.352-0.733l0.572-5.09
		c0.898,0.38,1.845,0.671,2.838,0.874c0.998,0.204,2.052,0.306,3.171,0.306c0.624,0,1.217-0.066,1.776-0.203
		c0.561-0.135,1.049-0.346,1.472-0.632c0.422-0.285,0.755-0.651,1-1.099c0.247-0.449,0.369-0.999,0.369-1.65
		c0-0.867-0.289-1.561-0.858-2.075c-0.573-0.517-1.289-0.964-2.148-1.345c-0.857-0.38-1.79-0.753-2.797-1.121
		c-1.008-0.365-1.941-0.84-2.799-1.424c-0.859-0.584-1.576-1.337-2.146-2.26c-0.573-0.922-0.858-2.145-0.858-3.666
		c0-1.223,0.229-2.341,0.692-3.36c0.461-1.017,1.132-1.884,2.016-2.604c0.881-0.719,1.967-1.282,3.257-1.69
		c1.291-0.407,2.763-0.611,4.419-0.611c0.758,0,1.581,0.042,2.463,0.132c0.884,0.087,1.716,0.206,2.504,0.357l-0.486,4.641
		c-0.758-0.243-1.529-0.433-2.312-0.568c-0.784-0.135-1.581-0.204-2.392-0.204c-1.54,0-2.676,0.308-3.407,0.922
		c-0.729,0.614-1.094,1.412-1.094,2.394c0,0.82,0.29,1.481,0.87,1.988c0.583,0.505,1.309,0.955,2.171,1.353
		c0.868,0.395,1.807,0.782,2.823,1.163c1.013,0.38,1.955,0.875,2.82,1.486c0.866,0.611,1.59,1.379,2.171,2.302
		C307.197,605.767,307.488,606.947,307.488,608.387"/>
	<path fill="#555759" d="M329.438,605.617c0,1.765-0.232,3.354-0.695,4.765c-0.463,1.412-1.146,2.62-2.044,3.624
		c-0.898,1.004-2.013,1.772-3.349,2.302c-1.333,0.529-2.871,0.793-4.614,0.793c-0.488,0-0.939-0.015-1.348-0.04
		c-0.408-0.027-0.831-0.069-1.266-0.121v9.69h-5.172v-30.052h4.806c0,0.486-0.016,1.038-0.041,1.647
		c-0.027,0.611-0.082,1.188-0.163,1.732h0.081c0.57-1.195,1.388-2.125,2.452-2.791c1.062-0.667,2.366-0.997,3.92-0.997
		c2.422,0,4.268,0.822,5.533,2.463C328.804,600.276,329.438,602.605,329.438,605.617 M323.98,606.187
		c0-3.827-1.161-5.741-3.479-5.741c-0.683,0-1.295,0.184-1.842,0.549c-0.548,0.368-1.003,0.857-1.372,1.467
		c-0.367,0.611-0.655,1.317-0.861,2.117c-0.203,0.803-0.305,1.639-0.305,2.506v5.619c0.817,0.244,1.732,0.366,2.741,0.366
		c0.738,0,1.42-0.122,2.046-0.366c0.629-0.243,1.168-0.644,1.618-1.2c0.451-0.56,0.806-1.27,1.065-2.14
		C323.85,608.496,323.98,607.437,323.98,606.187"/>
	<path fill="#555759" d="M338.762,590.426c0,0.87-0.318,1.61-0.957,2.22c-0.639,0.614-1.406,0.917-2.302,0.917
		s-1.657-0.303-2.281-0.917c-0.626-0.609-0.936-1.35-0.936-2.22c0-0.867,0.31-1.613,0.936-2.239
		c0.624-0.624,1.385-0.937,2.281-0.937s1.663,0.305,2.302,0.919C338.444,588.778,338.762,589.531,338.762,590.426 M332.897,596.575
		h5.172v20.239h-5.172V596.575z"/>
	<path fill="#555759" d="M353.746,601.26c-3.771-0.732-5.658,1.698-5.658,7.291v8.267h-5.171v-20.239h4.886
		c0,0.517-0.028,1.146-0.082,1.894c-0.053,0.745-0.147,1.472-0.282,2.177h0.081c0.248-0.65,0.553-1.262,0.925-1.831
		c0.366-0.569,0.816-1.066,1.348-1.486c0.532-0.421,1.148-0.738,1.843-0.957c0.697-0.217,1.481-0.286,2.357-0.204L353.746,601.26z"
		/>
	<path fill="#555759" d="M372.846,604.763c0,0.624-0.015,1.133-0.04,1.525c-0.027,0.396-0.07,0.836-0.122,1.325h-12.543
		c-0.138,3.746,1.722,5.604,5.579,5.577c1.983,0,3.935-0.407,5.865-1.22l0.569,3.949c-1.112,0.447-2.3,0.775-3.563,0.986
		c-1.262,0.212-2.516,0.316-3.767,0.316c-3.204,0-5.668-0.841-7.391-2.525c-1.726-1.681-2.586-4.288-2.586-7.817
		c0-1.493,0.229-2.905,0.692-4.235c0.461-1.33,1.092-2.471,1.894-3.422c0.801-0.947,1.792-1.698,2.973-2.24
		c1.181-0.541,2.533-0.812,4.051-0.812c1.467,0,2.737,0.224,3.808,0.671c1.071,0.447,1.967,1.094,2.688,1.934
		c0.717,0.843,1.214,1.812,1.485,2.913C372.711,602.786,372.846,603.812,372.846,604.763 M367.675,604.151
		c0-1.33-0.301-2.354-0.896-3.075c-0.598-0.718-1.453-1.078-2.565-1.078c-1.087,0-1.983,0.365-2.688,1.098
		c-0.705,0.733-1.14,1.753-1.304,3.056h7.494H367.675z"/>
	<polygon fill="#555759" points="384.493,616.814 384.493,589.327 389.787,589.327 389.787,612.174 398.705,612.174 
		398.705,616.814 	"/>
	<path fill="#555759" d="M406.97,590.426c0,0.87-0.318,1.61-0.957,2.22c-0.639,0.614-1.404,0.917-2.302,0.917
		c-0.895,0-1.655-0.303-2.279-0.917c-0.624-0.609-0.938-1.35-0.938-2.22c0-0.867,0.313-1.613,0.938-2.239
		c0.624-0.624,1.385-0.937,2.279-0.937c0.897,0,1.663,0.305,2.302,0.919C406.651,588.778,406.97,589.531,406.97,590.426
		 M401.106,596.575h5.172v20.239h-5.172V596.575z"/>
	<path fill="#555759" d="M420.162,617.07c-0.785,0.103-1.533,0.154-2.239,0.154c-1.111,0-2.048-0.109-2.809-0.325
		c-0.761-0.219-1.364-0.579-1.812-1.081s-0.766-1.153-0.957-1.957c-0.189-0.797-0.286-1.797-0.286-2.992v-10.263h-3.502v-4.031
		h3.502v-6.229l5.173-1.385v7.613h4.926v4.031h-4.926v8.908c0,1.31,0.174,2.194,0.529,2.657c0.353,0.465,0.977,0.695,1.871,0.695
		c0.897,0,1.671-0.097,2.321-0.288l0.368,4.116C421.671,616.845,420.953,616.971,420.162,617.07"/>
	<path fill="#555759" d="M434.621,617.07c-0.786,0.103-1.536,0.154-2.24,0.154c-1.113,0-2.048-0.109-2.811-0.325
		c-0.761-0.219-1.365-0.579-1.812-1.081s-0.766-1.153-0.957-1.957c-0.188-0.797-0.283-1.797-0.283-2.992v-10.263h-3.502v-4.031
		h3.502v-6.229l5.17-1.385v7.613h4.929v4.031h-4.929v8.908c0,1.31,0.177,2.194,0.529,2.657c0.355,0.465,0.979,0.695,1.874,0.695
		c0.896,0,1.671-0.097,2.322-0.288l0.365,4.116C436.127,616.845,435.408,616.971,434.621,617.07"/>
	<rect x="440.037" y="587.088" fill="#555759" width="5.172" height="29.727"/>
	<path fill="#555759" d="M466.629,604.763c0,0.624-0.015,1.133-0.042,1.525c-0.027,0.396-0.067,0.836-0.122,1.325h-12.542
		c-0.137,3.746,1.723,5.604,5.578,5.577c1.983,0,3.937-0.407,5.865-1.22l0.569,3.949c-1.111,0.447-2.302,0.775-3.562,0.986
		c-1.263,0.212-2.518,0.316-3.769,0.316c-3.203,0-5.667-0.841-7.392-2.525c-1.725-1.681-2.585-4.288-2.585-7.817
		c0-1.493,0.229-2.905,0.691-4.235c0.462-1.33,1.094-2.471,1.894-3.422c0.803-0.947,1.792-1.698,2.973-2.24
		c1.181-0.541,2.533-0.812,4.054-0.812c1.464,0,2.734,0.224,3.806,0.671c1.073,0.447,1.969,1.094,2.689,1.934
		c0.718,0.843,1.213,1.812,1.486,2.913C466.492,602.786,466.629,603.812,466.629,604.763 M461.457,604.151
		c0-1.33-0.301-2.354-0.897-3.075c-0.597-0.718-1.451-1.078-2.565-1.078c-1.086,0-1.98,0.365-2.687,1.098
		c-0.706,0.733-1.141,1.753-1.303,3.056h7.491H461.457z"/>
	<path fill="#555759" d="M495.031,616.817l-1.877-5.62h-10.456l-1.919,5.62h-5.294l9.487-27.49h6.23l9.693,27.49H495.031z
		 M489.006,598.817c-0.219-0.679-0.422-1.333-0.611-1.956c-0.188-0.624-0.355-1.233-0.489-1.832h-0.04
		c-0.164,0.599-0.333,1.208-0.51,1.832c-0.176,0.623-0.36,1.277-0.549,1.956l-2.812,8.185h7.819L489.006,598.817z"/>
	<path fill="#555759" d="M515.494,610.504c0,1.004-0.211,1.921-0.631,2.749c-0.423,0.827-1.024,1.533-1.812,2.118
		c-0.79,0.584-1.729,1.038-2.831,1.364c-1.099,0.325-2.313,0.487-3.644,0.487c-0.788,0-1.576-0.038-2.361-0.112
		c-0.788-0.074-1.509-0.201-2.16-0.375l0.368-4.357c0.624,0.271,1.308,0.475,2.056,0.609c0.746,0.137,1.499,0.203,2.26,0.203
		c0.979,0,1.765-0.196,2.363-0.591c0.597-0.396,0.895-0.918,0.895-1.571c0-0.599-0.203-1.066-0.611-1.407
		c-0.405-0.343-0.914-0.626-1.526-0.857c-0.611-0.233-1.27-0.472-1.976-0.716c-0.703-0.246-1.364-0.579-1.974-1.001
		c-0.611-0.42-1.121-0.979-1.528-1.671c-0.408-0.695-0.609-1.615-0.609-2.756c0-0.9,0.169-1.742,0.508-2.53
		c0.34-0.791,0.859-1.477,1.568-2.063c0.705-0.584,1.596-1.049,2.667-1.39c1.073-0.338,2.341-0.509,3.808-0.509
		c0.599,0,1.223,0.04,1.874,0.111c0.651,0.075,1.263,0.187,1.832,0.339l-0.244,4.031c-0.542-0.164-1.133-0.291-1.772-0.388
		c-0.639-0.095-1.27-0.142-1.894-0.142c-1.031,0-1.784,0.188-2.26,0.568c-0.477,0.381-0.713,0.883-0.713,1.507
		c0,0.571,0.204,1.019,0.611,1.345c0.407,0.325,0.925,0.611,1.549,0.854c0.621,0.244,1.297,0.497,2.016,0.753
		c0.718,0.257,1.392,0.607,2.016,1.039c0.624,0.433,1.139,0.989,1.546,1.671C515.29,608.496,515.494,609.391,515.494,610.504"/>
	<path fill="#555759" d="M528.118,617.07c-0.785,0.103-1.536,0.154-2.239,0.154c-1.113,0-2.051-0.109-2.812-0.325
		c-0.761-0.219-1.364-0.579-1.812-1.081s-0.766-1.153-0.957-1.957c-0.188-0.797-0.283-1.797-0.283-2.992v-10.263h-3.505v-4.031
		h3.505v-6.229l5.17-1.385v7.613h4.929v4.031h-4.929v8.908c0,1.31,0.176,2.194,0.529,2.657c0.355,0.465,0.977,0.695,1.874,0.695
		c0.895,0,1.67-0.097,2.321-0.288l0.365,4.116C529.624,616.845,528.906,616.971,528.118,617.07"/>
	<path fill="#555759" d="M551.696,606.309c0,1.603-0.252,3.069-0.754,4.399c-0.502,1.327-1.215,2.478-2.138,3.439
		c-0.924,0.962-2.016,1.72-3.278,2.262s-2.651,0.813-4.173,0.813c-1.441,0-2.741-0.189-3.909-0.569
		c-1.169-0.381-2.16-0.984-2.973-1.812c-0.815-0.827-1.447-1.886-1.895-3.176c-0.447-1.288-0.671-2.831-0.671-4.623
		c0-1.573,0.251-3.025,0.753-4.357c0.502-1.33,1.206-2.476,2.118-3.44c0.907-0.964,1.993-1.717,3.256-2.259
		c1.263-0.544,2.667-0.815,4.215-0.815c2.879,0,5.173,0.822,6.883,2.463C550.841,600.276,551.696,602.836,551.696,606.309
		 M546.319,606.574c0-1.964-0.353-3.46-1.059-4.494c-0.703-1.033-1.832-1.553-3.378-1.553c-0.571,0-1.133,0.114-1.69,0.346
		c-0.557,0.233-1.051,0.596-1.486,1.083c-0.435,0.49-0.782,1.111-1.038,1.859c-0.259,0.748-0.388,1.641-0.388,2.677
		c0,4.195,1.506,6.293,4.521,6.293c1.303,0,2.381-0.517,3.236-1.553C545.893,610.195,546.319,608.643,546.319,606.574"/>
	<path fill="#555759" d="M567.496,616.814v-12.949c0-1.029-0.179-1.845-0.532-2.443c-0.354-0.597-1.011-0.895-1.966-0.895
		c-0.656,0-1.277,0.176-1.864,0.529c-0.586,0.353-1.093,0.822-1.514,1.404c-0.422,0.584-0.758,1.27-1.004,2.056
		c-0.246,0.79-0.368,1.63-0.368,2.525v9.772h-5.172v-20.236h4.887c0,0.459-0.021,1.043-0.06,1.749
		c-0.043,0.709-0.114,1.333-0.222,1.874h0.042c0.624-1.192,1.517-2.164,2.675-2.913c1.156-0.745,2.565-1.118,4.226-1.118
		c1.141,0,2.103,0.169,2.881,0.51c0.772,0.34,1.392,0.8,1.856,1.385c0.462,0.581,0.798,1.262,1.002,2.035
		c0.203,0.773,0.306,1.608,0.306,2.503v14.212H567.496z"/>
	<polygon fill="#555759" points="602.557,616.814 602.557,604.884 590.912,604.884 590.912,616.814 585.618,616.814 
		585.618,589.327 590.912,589.327 590.912,600.323 602.557,600.323 602.557,589.327 607.851,589.327 607.851,616.814 	"/>
	<path fill="#555759" d="M631.063,606.309c0,1.603-0.251,3.069-0.753,4.399c-0.503,1.327-1.216,2.478-2.138,3.439
		c-0.925,0.962-2.016,1.72-3.278,2.262s-2.652,0.813-4.174,0.813c-1.441,0-2.741-0.189-3.909-0.569
		c-1.168-0.381-2.16-0.984-2.973-1.812c-0.815-0.827-1.447-1.886-1.895-3.176c-0.447-1.288-0.671-2.831-0.671-4.623
		c0-1.573,0.251-3.025,0.753-4.357c0.502-1.33,1.206-2.476,2.118-3.44c0.907-0.964,1.993-1.717,3.256-2.259
		c1.263-0.544,2.667-0.815,4.216-0.815c2.878,0,5.172,0.822,6.882,2.463C630.208,600.276,631.063,602.836,631.063,606.309
		 M625.688,606.574c0-1.964-0.354-3.46-1.06-4.494c-0.703-1.033-1.831-1.553-3.378-1.553c-0.571,0-1.133,0.114-1.689,0.346
		c-0.557,0.233-1.052,0.596-1.486,1.083c-0.436,0.49-0.783,1.111-1.039,1.859c-0.259,0.748-0.388,1.641-0.388,2.677
		c0,4.195,1.506,6.293,4.521,6.293c1.303,0,2.382-0.517,3.236-1.553C625.26,610.195,625.688,608.643,625.688,606.574"/>
	<path fill="#555759" d="M647.025,610.504c0,1.004-0.212,1.921-0.632,2.749c-0.42,0.827-1.021,1.533-1.812,2.118
		c-0.788,0.584-1.73,1.038-2.828,1.364c-1.102,0.325-2.314,0.487-3.646,0.487c-0.786,0-1.576-0.038-2.361-0.112
		s-1.507-0.201-2.157-0.375l0.365-4.357c0.624,0.271,1.31,0.475,2.058,0.609c0.746,0.137,1.499,0.203,2.26,0.203
		c0.977,0,1.765-0.196,2.361-0.591c0.599-0.396,0.896-0.918,0.896-1.571c0-0.599-0.203-1.066-0.611-1.407
		c-0.407-0.343-0.917-0.626-1.528-0.857c-0.609-0.233-1.271-0.472-1.974-0.716c-0.706-0.246-1.364-0.579-1.976-1.001
		c-0.611-0.42-1.119-0.979-1.526-1.671c-0.407-0.695-0.611-1.615-0.611-2.756c0-0.9,0.172-1.742,0.51-2.53
		c0.338-0.791,0.859-1.477,1.568-2.063c0.703-0.584,1.596-1.049,2.667-1.39c1.073-0.338,2.341-0.509,3.808-0.509
		c0.597,0,1.221,0.04,1.871,0.111c0.654,0.075,1.263,0.187,1.835,0.339l-0.246,4.031c-0.542-0.164-1.131-0.291-1.77-0.388
		c-0.64-0.095-1.271-0.142-1.895-0.142c-1.034,0-1.784,0.188-2.262,0.568c-0.475,0.381-0.711,0.883-0.711,1.507
		c0,0.571,0.204,1.019,0.611,1.345c0.405,0.325,0.923,0.611,1.546,0.854c0.624,0.244,1.298,0.497,2.016,0.753
		c0.722,0.257,1.393,0.607,2.017,1.039c0.623,0.433,1.141,0.989,1.548,1.671C646.824,608.496,647.025,609.391,647.025,610.504"/>
	<path fill="#555759" d="M669.099,605.617c0,1.765-0.23,3.354-0.695,4.765c-0.463,1.412-1.144,2.62-2.043,3.624
		c-0.897,1.004-2.014,1.772-3.349,2.302c-1.334,0.529-2.873,0.793-4.615,0.793c-0.489,0-0.939-0.015-1.35-0.04
		c-0.407-0.027-0.83-0.069-1.266-0.121v9.69h-5.17v-30.052h4.805c0,0.486-0.015,1.038-0.039,1.647
		c-0.03,0.611-0.082,1.188-0.164,1.732h0.082c0.568-1.195,1.387-2.125,2.45-2.791c1.062-0.667,2.366-0.997,3.92-0.997
		c2.423,0,4.268,0.822,5.532,2.463C668.465,600.276,669.099,602.605,669.099,605.617 M663.641,606.187
		c0-3.827-1.16-5.741-3.477-5.741c-0.684,0-1.298,0.184-1.845,0.549c-0.547,0.368-1.002,0.857-1.372,1.467
		c-0.365,0.611-0.653,1.317-0.86,2.117c-0.203,0.803-0.306,1.639-0.306,2.506v5.619c0.818,0.244,1.735,0.366,2.742,0.366
		c0.738,0,1.422-0.122,2.048-0.366c0.626-0.243,1.168-0.644,1.618-1.2c0.45-0.56,0.803-1.27,1.063-2.14
		C663.512,608.496,663.641,607.437,663.641,606.187"/>
	<path fill="#555759" d="M678.425,590.426c0,0.87-0.318,1.61-0.957,2.22c-0.639,0.614-1.407,0.917-2.302,0.917
		s-1.657-0.303-2.279-0.917c-0.626-0.609-0.937-1.35-0.937-2.22c0-0.867,0.311-1.613,0.937-2.239
		c0.622-0.624,1.385-0.937,2.279-0.937s1.663,0.305,2.302,0.919C678.106,588.778,678.425,589.531,678.425,590.426 M672.559,596.575
		h5.173v20.239h-5.173V596.575z"/>
	<path fill="#555759" d="M691.615,617.07c-0.785,0.103-1.533,0.154-2.239,0.154c-1.111,0-2.048-0.109-2.809-0.325
		c-0.761-0.219-1.364-0.579-1.812-1.081c-0.447-0.502-0.765-1.153-0.956-1.957c-0.189-0.797-0.286-1.797-0.286-2.992v-10.263h-3.502
		v-4.031h3.502v-6.229l5.172-1.385v7.613h4.927v4.031h-4.927v8.908c0,1.31,0.174,2.194,0.529,2.657
		c0.354,0.465,0.978,0.695,1.872,0.695c0.897,0,1.67-0.097,2.321-0.288l0.368,4.116C693.124,616.845,692.405,616.971,691.615,617.07
		"/>
	<path fill="#555759" d="M707.865,616.817c0-0.604,0.013-1.196,0.04-1.772c0.03-0.576,0.082-1.141,0.164-1.69l-0.04-0.039
		c-0.489,1.15-1.312,2.09-2.465,2.818c-1.153,0.726-2.491,1.089-4.012,1.089c-1.847,0-3.269-0.55-4.275-1.648
		c-1.004-1.101-1.506-2.48-1.506-4.133c0-1.193,0.278-2.24,0.837-3.137c0.56-0.896,1.35-1.634,2.369-2.22
		c1.023-0.582,2.254-1.017,3.698-1.303c1.446-0.286,3.053-0.428,4.824-0.428v-1.009c0-1.047-0.293-1.842-0.88-2.379
		c-0.586-0.539-1.615-0.808-3.087-0.808c-0.927,0-1.906,0.137-2.942,0.407c-1.034,0.273-1.961,0.611-2.779,1.02l-0.941-4.113
		c1.031-0.393,2.212-0.714,3.544-0.967c1.33-0.251,2.659-0.378,3.989-0.378c1.604,0,2.933,0.156,3.992,0.47
		c1.059,0.312,1.908,0.766,2.545,1.364c0.639,0.597,1.086,1.315,1.345,2.157c0.256,0.841,0.385,1.792,0.385,2.852v8.632
		c0,0.815,0.008,1.623,0.021,2.423c0.015,0.804,0.074,1.732,0.184,2.792H707.865z M707.5,607.735c-1.347,0-2.46,0.082-3.34,0.241
		c-0.878,0.164-1.574,0.385-2.081,0.666c-0.507,0.283-0.864,0.613-1.071,0.994c-0.206,0.375-0.311,0.777-0.311,1.21
		c0,0.677,0.214,1.235,0.639,1.678c0.428,0.445,1.024,0.666,1.795,0.666c0.658,0,1.255-0.142,1.792-0.425
		c0.534-0.281,0.997-0.646,1.379-1.091c0.389-0.442,0.684-0.954,0.891-1.534c0.203-0.581,0.308-1.183,0.308-1.799V607.735z"/>
	<rect x="717.56" y="587.088" fill="#555759" width="5.172" height="29.727"/>
	<path fill="#555759" d="M61.472,513.422c-1.868,0-4.518-0.161-7.014-0.312l-7.025,37.126H27.622L47.59,444.929
		c8.583-0.471,17.784-0.626,28.395-0.626c20.439,0,32.919,9.367,32.919,26.836C108.904,494.854,87.839,513.422,61.472,513.422
		 M72.554,460.839c-3.589,0-5.775,0-8.117,0.158l-6.552,34.95c1.719,0.471,3.586,0.471,5.615,0.471
		c13.576,0,24.652-10.145,24.652-22.625C88.152,466.146,83.943,460.839,72.554,460.839"/>
	<path fill="#555759" d="M129.042,518.572c-0.156,1.705-0.469,4.357-0.469,6.077c0,8.894,3.431,11.548,14.195,11.548
		c7.49,0,15.446-1.715,22.621-4.681v15.286c-8.579,3.275-18.72,4.993-29.017,4.993c-19.657,0-27.455-9.05-27.455-26.212
		c0-32.446,19.657-54.444,43.838-54.444c19.19,0,25.119,9.512,25.119,18.875C177.874,508.58,159.464,517.633,129.042,518.572
		 M150.571,485.803c-10.145,0-16.536,9.363-19.349,19.501c17.943-0.624,27.305-4.372,27.305-12.635
		C158.527,488.3,155.56,485.803,150.571,485.803"/>
	<path fill="#555759" d="M235.803,490.329c-11.39-3.591-24.963,16.85-30.115,43.062l-3.273,16.847h-19.506l7.804-40.565
		c2.181-10.916,5.151-26.99,6.706-36.971h18.877c-1.086,5.923-2.96,12.791-6.706,23.404h0.313
		c8.266-16.388,16.69-27.149,30.108-24.966L235.803,490.329z"/>
	<path fill="#555759" d="M312.245,551.799c-21.682,0-30.27-10.293-30.27-27.773c0-32.448,21.685-52.887,46.65-52.887
		c22.156,0,30.423,11.856,30.423,28.242C359.049,531.357,336.582,551.799,312.245,551.799 M325.661,488.144
		c-14.508,0-23.247,17.317-23.247,32.771c0,8.418,3.435,13.725,12.481,13.725c13.889,0,23.561-15.455,23.561-32.77
		C338.455,492.981,334.712,488.144,325.661,488.144"/>
	<path fill="#555759" d="M418.38,490.329c-11.388-3.591-24.959,16.85-30.111,43.062l-3.276,16.847h-19.501l7.799-40.565
		c2.185-10.916,5.15-26.99,6.706-36.971h18.881c-1.089,5.923-2.963,12.791-6.706,23.404h0.312
		c8.268-16.388,16.693-27.149,30.11-24.966L418.38,490.329z"/>
	<path fill="#555759" d="M534.19,550.235h-19.501l9.36-48.677c1.879-9.516,0.161-13.572-4.365-13.572
		c-10.302,0-24.184,24.188-27.619,42.436l-3.745,19.812h-19.501l9.365-48.677c1.717-9.516,0.312-13.572-4.526-13.572
		c-10.298,0-24.027,24.188-27.616,42.593l-3.743,19.655h-19.504l7.802-40.563c1.874-9.209,5.15-27.302,6.711-36.971h19.19
		c-0.937,4.838-2.965,12.321-7.021,24.026l0.311,0.158c7.024-13.892,17.471-25.903,32.141-25.903
		c9.515,0,15.758,5.151,15.758,15.134c0,3.12-0.78,6.085-2.341,11.237h0.312c7.176-14.36,17.784-26.372,32.451-26.372
		s19.345,10.606,16.385,25.745L534.19,550.235z"/>
	<path fill="#3E8EDE" d="M151.278,632.731c-1.377,0-2.756-0.042-4.111-0.142c-6.467-0.397-12.721-1.504-18.551-3.283
		c-11.51-3.544-22.238-9.812-31.039-18.137c-8.592-8.138-15.189-17.307-19.608-27.256c-0.639-1.43-0.042-3.104,1.345-3.825
		c0.43-0.214,0.88-0.328,1.349-0.328c1.042,0,2.013,0.554,2.542,1.451c2.494,4.176,5.607,8.376,9.241,12.447
		c3.572,4.042,7.404,7.683,11.397,10.817c8.628,6.811,18.343,11.607,28.104,13.874c5.197,1.228,10.491,1.869,15.739,1.916
		l0.79,0.008c4.792,0,9.539-0.735,14.085-2.18c8.687-2.764,17.148-8.15,25.161-16.017c6.312-6.189,12.469-13.81,19.379-23.966
		c5.188-7.688,10.278-16.213,16.009-26.791c8.833-16.183,17.146-33.106,25.185-49.469l3.395-6.92
		c6.684-13.24,12.729-25.119,19.152-36.732c0.252-0.45,0.241-1.013-0.019-1.462c-0.259-0.454-0.746-0.731-1.264-0.736
		c-2.645-0.054-5.422-0.112-8.247-0.209c-9.824-0.296-17.399-0.702-24.543-1.311c-1.54-0.122-2.701-1.387-2.701-2.937
		c0-1.545,1.161-2.812,2.706-2.943c7.14-0.605,14.714-1.013,24.546-1.308c5.648-0.181,11.298-0.26,15.062-0.295
		c0.52-0.01,1.005-0.285,1.271-0.736c1.746-2.965,3.291-5.54,4.793-7.969c6.676-10.613,12.736-19.234,19.104-27.132
		c7.944-9.902,15.933-17.896,24.432-24.454c10.691-8.243,21.792-13.794,32.978-16.5c5.882-1.448,12.036-2.186,18.278-2.186
		c6.585,0,13.153,0.816,19.517,2.415c11.654,2.978,22.73,8.763,32.023,16.725c9.018,7.75,16.102,16.619,21.058,26.368
		c0.7,1.394,0.198,3.094-1.142,3.883c-0.449,0.27-0.967,0.408-1.491,0.408c-0.986,0-1.906-0.495-2.458-1.318
		c-2.736-4.092-6.074-8.143-9.92-12.043c-3.798-3.884-7.826-7.346-11.978-10.3c-9.032-6.453-18.999-10.805-28.842-12.592
		c-4.282-0.814-8.625-1.227-12.935-1.227c-6.343,0-12.453,0.881-18.159,2.621c-9.307,2.792-18.261,7.795-26.632,14.874
		c-3.752,3.146-7.368,6.647-11.077,10.723c-3.461,3.765-6.805,7.771-9.957,11.909c-5.392,7.073-10.715,15.031-16.276,24.337
		c-0.274,0.45-0.282,1.025-0.025,1.492c0.262,0.457,0.748,0.753,1.278,0.763c3.255,0.043,6.657,0.123,10.071,0.224
		c9.826,0.306,17.398,0.706,24.548,1.318c1.509,0.13,2.698,1.423,2.698,2.943c0,1.514-1.189,2.815-2.698,2.937
		c-7.135,0.619-14.709,1.015-24.553,1.319c-6.297,0.206-12.74,0.277-17.03,0.313c-0.527,0-1.026,0.296-1.289,0.753
		c-8.598,15.286-16.306,30.741-23.468,45.254c-1.901,3.763-3.786,7.511-5.666,11.257c-7.562,15.062-15.354,30.569-23.91,45.574
		c-6.317,10.926-11.907,19.728-17.603,27.718c-7.383,10.38-14.734,18.82-22.469,25.772c-4.821,4.32-9.581,7.862-14.541,10.827
		c-5.8,3.473-11.73,5.998-17.628,7.496C161.711,632.073,156.521,632.731,151.278,632.731"/>
</g>
</svg>
