<?xml version="1.0" encoding="utf-8"?>
<!-- Generator: Adobe Illustrator 18.1.1, SVG Export Plug-In . SVG Version: 6.00 Build 0)  -->
<svg version="1.1" id="sponsor-logo_university-birmingham-sport"
	 xmlns="http://www.w3.org/2000/svg" xmlns:xlink="http://www.w3.org/1999/xlink" x="0px" y="0px" viewBox="-764 466 390 150"
	 enable-background="new -764 466 390 150" xml:space="preserve">
<path fill="#231F20" d="M-584.7,573.3c-3.4,2.9-8,2.9-9.3,2.9c-1.7,0-7.1-0.1-11-4.2c-0.5-0.5-1-1.2-1.4-1.8l4.4-3.1
	c1.2,1.8,3.6,4.2,8.8,4.2c0.2,0,1.2,0,2.1-0.2c0.6-0.1,3.4-0.9,3.4-3.5c0-0.3,0-1-0.5-1.7c-1-1.3-3.5-1.6-4.9-2l-3.4-0.8
	c-1.4-0.3-3-0.6-4.3-1.3s-4-2.5-4-6.6c0-0.6,0.1-2.5,1.1-4.2c1.3-2.2,4.4-4.6,10.1-4.6c2.5,0,7.5,0.4,11.4,5.7l-4.4,3.2
	c-0.9-1.4-2.9-4.2-7.3-4.2c-0.3,0-3.8,0-5,2.2c-0.2,0.4-0.3,0.8-0.3,1.3s0.1,0.9,0.4,1.3c0.7,1.2,2.2,1.5,4.9,2.1l2.9,0.6
	c2.7,0.6,5.7,1.4,7.5,3.6c0.8,0.9,1.6,2.2,1.6,4.8C-581.9,569.7-582.7,571.7-584.7,573.3"/>
<path fill="#231F20" d="M-561.9,564.3c-2.4,1.6-5.1,1.6-7.9,1.6h-4.1v9.6h-5.3v-28.3h9.5c0.7,0,1.4,0,2,0c1.2,0.1,4.8,0.3,7.3,3.3
	c2,2.4,2.1,5,2.1,6.1C-558.2,561.1-560.5,563.4-561.9,564.3 M-564.3,553.9c-1.2-2.1-3.6-2.1-5.6-2.1h-4v9.8h3.8c0.4,0,0.8,0,1.1,0
	c2.7-0.1,3.9-1,4.6-2.1c0.3-0.5,0.8-1.5,0.8-3C-563.6,555.6-563.8,554.7-564.3,553.9z"/>
<path fill="#231F20" d="M-533.3,572.2c-0.6,0.7-2.3,2.3-4.8,3.2c-0.9,0.3-2.5,0.8-4.9,0.8c-4,0-7.1-1.3-9.7-4.4
	c-2.6-3-3.8-6.5-3.8-10.5c0-0.9,0-3.1,0.8-5.5c1.8-5.7,6.7-9.4,12.7-9.4c5.5,0,8.7,3,10,4.5c1.5,1.7,3.6,5,3.5,10.4
	C-529.4,563.2-529.6,568.2-533.3,572.2 M-536.4,555.1c-1.5-2.4-3.7-3.7-6.6-3.7c-1.8,0-3,0.6-3.6,0.8c-2,1.1-4.5,3.7-4.5,9
	c0,1.1,0,6.3,4,8.9c1.7,1.1,3.4,1.2,4.2,1.2c0.6,0,1.8,0,3.2-0.7c2.1-1,4.8-3.4,4.9-8.7C-534.7,559.6-535.1,557.1-536.4,555.1z"/>
<path fill="#231F20" d="M-511.2,575.5l-5.5-10.5h-4.8v10.5h-5.2v-28.3h11.6c1.3,0,5.1,0.1,7.6,3.4c1.6,2.2,1.7,4.6,1.7,5.5
	c0,0.4,0,1.8-0.5,3.2c-0.4,1.2-1.8,3.6-5,4.6l6.3,11.5L-511.2,575.5 M-513,552.7c-0.9-0.6-2-0.8-4.2-0.8h-4.3v8.8h1.9
	c3.1,0,5,0,6.3-0.7c0.8-0.4,2.1-1.5,2.1-3.8C-511.2,555.5-511.3,553.8-513,552.7z"/>
<polyline fill="#231F20" points="-491.5,552 -491.5,575.5 -496.8,575.5 -496.8,552 -504.5,552 -504.5,547.2 -483.7,547.2 
	-483.7,552 -491.5,552 "/>
<path fill="#231F20" d="M-568.6,527.7v-7.6h1.4c2.9,0,4.4,1,4.4,4c0,2.6-1.5,3.6-4.6,3.6H-568.6 M-559,533.9
	c-1.6-2.9-2.4-5.6-5.8-5.7c3.6-0.5,5.3-2.2,5.3-4.5c0-3.6-3.3-4.4-6.1-4.4h-8.5v0.4h0.3c2.4,0,2.4,1.7,2.4,6.2v5.3
	c0,4.6-0.1,6.3-2.4,6.3h-0.3v0.4h8.2v-0.4h-0.2c-2.4,0-2.5-1.7-2.5-6.5v-2.3c0.3,0,1.2,0,1.2,0c2.1,0,2.6,0.5,3.8,2.6
	c0.7,1.3,1.5,3.8,3.4,6.5h4.6v-0.4C-556.8,537.3-557.7,536.1-559,533.9"/>
<path fill="#231F20" d="M-510.6,500.8v-7.6h1.4c2.9,0,4.4,1,4.4,4c0,2.6-1.5,3.6-4.6,3.6H-510.6 M-501,506.9
	c-1.6-2.9-2.4-5.6-5.8-5.7c3.6-0.5,5.3-2.2,5.3-4.5c0-3.5-3.3-4.4-6.1-4.4h-8.5v0.4h0.2c2.4,0,2.4,1.7,2.4,6.2v5.3
	c0,4.5-0.1,6.2-2.4,6.2h-0.2v0.4h8.3v-0.4h-0.2c-2.4,0-2.5-1.8-2.5-6.5v-2.3h1c0.1,0,0.1,0,0.2,0c2.1,0,2.7,0.5,3.9,2.6
	c0.7,1.3,1.5,3.8,3.3,6.5h5.1v-0.4h-0.1C-498.8,510.4-499.7,509.2-501,506.9"/>
<path fill="#231F20" d="M-483.7,528.8c2.1,0.1,2.9,0.8,2.9,2.7v2.2c0,2.4-1.6,3.6-4,3.6c-3.7,0-6.3-3.1-6.3-8.5
	c0-5.9,2.6-9.2,6.1-9.2c3.1,0,5.6,2,6.1,5.5h0.4v-5.9h-0.4c-0.2,0.4-0.4,0.6-0.8,0.6c-1,0-2.7-1.1-5.2-1.1c-5.4,0-9.6,4.1-9.6,10
	c0,5.3,3.6,9.4,8.9,9.4c2.2,0,3.9-0.6,5.8-1.4c0.6-0.3,1.2-0.6,1.8-0.4c-0.1-0.9-0.1-1.6-0.1-2.1V532c0-2.4,0.2-3,2.7-3.2v-0.4h-8.3
	V528.8"/>
<path fill="#231F20" d="M-489.7,511.2c3.9,0,6.3-2.4,6.3-5.6c0-3.9-2.9-4.8-5.9-6.2c-2.3-1.1-3.8-2-3.8-3.9c0-1.6,1.5-2.7,3.3-2.7
	c2.6,0,4.5,1.7,5,4.8h0.3v-5.4h-0.4c-0.1,0.5-0.3,0.8-0.7,0.8c-0.8,0-1.8-1-4.4-1c-3,0-5.6,2.2-5.6,4.9c0,3.2,2.1,4.2,5.6,5.9
	c2.4,1.1,3.9,2.1,3.9,4.2s-1.4,3.4-3.8,3.4c-3.2,0-4.9-2.1-5.6-5.6h-0.5v6h0.4c0.1-0.5,0.3-0.7,0.7-0.7
	C-493.9,510-492.7,511.2-489.7,511.2"/>
<path fill="#231F20" d="M-524.3,510c-3.7,0-3.9-0.3-3.9-4.7v-3.6c3.2,0.1,4.3,0.6,4.5,3.4h0.4v-7.3h-0.4c-0.1,2.6-1.2,3.1-4.5,3.1
	v-7.7h2.7c3.5,0,5.1,0.6,5.7,3.6h0.4l-0.2-4.5h-14.2v0.4h0.2c2.4,0,2.4,1.7,2.4,6.2v5.3c0,4.5-0.1,6.2-2.4,6.2h-0.2v0.4h15.5
	l0.2-5.6h-0.4C-519,508.7-520.7,510-524.3,510"/>
<path fill="#231F20" d="M-503.8,519.6c2.3,0.1,2.7,1.5,2.7,4.9v8.1l-10.7-13.4h-5.1v0.4c2.4,0.1,2.7,1.6,2.7,4.7v8.1
	c0,3.4-0.5,4.9-2.7,4.9v0.4h6.5v-0.4c-2.3-0.1-2.8-1.5-2.8-4.9v-9.9l12.3,15.4h0.8v-13.3c0-3.4,0.5-4.9,2.8-4.9v-0.4h-6.5
	L-503.8,519.6"/>
<path fill="#231F20" d="M-528,519.6h0.2c2.4,0,2.4,1.7,2.4,6.2v5.3c0,4.6,0,6.2-2.4,6.2h-0.2v0.4h8.3v-0.4h-0.3
	c-2.4,0-2.4-1.7-2.4-6.5v-4.7c0-4.8,0-6.5,2.4-6.5h0.3v-0.4h-8.3V519.6"/>
<path fill="#231F20" d="M-461.7,519.6h0.2c2.4,0,2.4,1.7,2.4,6.2v1.8h-9.3v-1.5c0-4.7,0.1-6.5,2.5-6.5h0.2v-0.4h-8.2v0.4h0.2
	c2.4,0,2.4,1.7,2.4,6.2v5.3c0,4.6-0.1,6.2-2.4,6.2h-0.2v0.4h8.2v-0.4h-0.2c-2.4,0-2.5-1.7-2.5-6.5v-2.4h9.3v2.6
	c0,4.6-0.1,6.2-2.4,6.2h-0.2v0.4h8.2v-0.4h-0.2c-2.4,0-2.4-1.7-2.4-6.2v-5.3c0-4.5,0.1-6.2,2.4-6.2h0.2v-0.4h-8.2V519.6"/>
<path fill="#231F20" d="M-409.5,519.6h0.3v-0.4h-5.4l-6,14l-5.6-14h-5.9v0.4c1.4,0.1,2.1,0.2,2.3,0.9c0.3,0.6,0.4,2.6,0.4,5.9v6
	c0,3.4-0.4,4.9-2.8,4.9v0.4h6.8v-0.4c-2.7-0.1-3.1-1.5-3.1-4.9v-10.6l6.4,16h0.5l6.8-15.8v8.9c0,4.7,0,6.4-2.7,6.4v0.4h8.3v-0.4
	h-0.3c-2.4,0-2.4-1.7-2.4-6.5v-4.7C-412,521.4-412,519.6-409.5,519.6"/>
<path fill="#231F20" d="M-427.3,495.3c0.4,0,0.5,0,0.9,0.1v-0.5c-0.3-0.1-0.9-0.2-1.1-0.2c-3.5,0-5.6,2.4-5.6,5.3
	c0,3.6,2.4,5.7,6.1,5.7s6.5-3,6.5-6.8c0-4.1-3.1-7.1-8.1-7.1c-7.8,0-12.8,6.1-14.9,9.8l-3.6-6.3c-0.3-0.6-0.4-1.3-0.4-1.5
	c0-0.8,0.6-1.1,1.9-1.2v-0.4h-7.4v0.4c1.4,0.1,1.9,1.3,3,3.1l4.1,7.2v2.5c0,3.6-0.3,5-2.4,5h-0.2v0.4h8.3v-0.4h-0.2
	c-2.1,0-2.4-1.3-2.4-5v-2.9c1.9-3.1,6.9-9.8,14.1-9.8c3.6,0,5.9,1.8,5.9,6.3c0,4.1-1.6,6.2-4,6.2c-2.5,0-3.8-1.9-3.8-5.2
	C-430.7,497-428.9,495.3-427.3,495.3"/>
<path fill="#231F20" d="M-578.8,510.4c-2.3-0.1-2.7-1.5-2.7-5v-9.9l12.3,15.5h0.8v-13.4c0-3.4,0.5-4.9,2.7-5v-0.4h-6.5v0.4
	c2.3,0.1,2.8,1.5,2.8,5v8l-10.7-13.4h-5.1v0.4c2.4,0.1,2.7,1.6,2.7,4.8v8c0,3.4-0.5,4.9-2.8,5v0.4h6.5V510.4"/>
<path fill="#231F20" d="M-471.9,510.4h-0.3c-2.4,0-2.4-1.8-2.4-6.5v-4.8c0-4.7,0-6.5,2.4-6.5h0.3v-0.4h-8.3v0.4h0.2
	c2.4,0,2.4,1.7,2.4,6.2v5.3c0,4.5,0,6.2-2.4,6.2h-0.2v0.4h8.3V510.4"/>
<path fill="#231F20" d="M-413.3,505h-0.2c-2.1,0-2.1-1-2.1-4.6v-1.5c2.1,0.1,2.6,0.5,2.7,2.4h0.4v-5.2h-0.4
	c-0.1,1.7-0.5,2.1-2.7,2.2V493h1.4c2.4,0,3.5,0.3,3.9,2.4h0.4l-0.1-3.1h-9.6v0.4h0.1c1.7,0,1.8,1,1.8,4.3v3.9c0,3.2-0.1,4.2-1.8,4.2
	h-0.1v0.5h6.3L-413.3,505"/>
<path fill="#231F20" d="M-550.8,495.9l5.9,15.3h0.6l5.2-13.4c1.2-3.1,2.1-4.7,4.1-5.1v-0.4h-6.6v0.4c1.6,0.1,2.2,0.6,2.2,1.9
	c0,0.8-0.3,2.1-0.9,3.7l-3.1,8l-4-10c-0.4-1.1-0.5-1.9-0.5-2.1c0-1,0.7-1.4,2.2-1.6v-0.4h-8.1v0.4
	C-552.2,492.7-551.7,493.7-550.8,495.9"/>
<path fill="#231F20" d="M-465.1,493.2h1.4v11c0,4.5-0.1,6.2-2.4,6.2h-0.3v0.4h8.4v-0.4h-0.2c-2.4,0-2.4-1.7-2.4-6.2v-11h1.4
	c3.3,0,4.1,0.9,4.8,4.5h0.4v-5.4h-16.1v5.4h0.4C-469.1,494.1-468.3,493.2-465.1,493.2"/>
<path fill="#231F20" d="M-593.1,492.7c2.3,0.1,2.7,1.5,2.7,5v6c0,0.5,0,1.6-0.1,2.2c-0.3,2.4-1.9,4.2-4.7,4.2c-3.5,0-4.6-1.9-5-3.9
	c-0.2-0.8-0.1-1.6-0.1-2.3v-5c0-4.5,0.1-6.2,2.4-6.2h0.3v-0.4h-8.2v0.4h0.2c2.4,0,2.5,1.8,2.5,6.5v4.8c0,2.6,0.4,4,1.5,5.2
	c1.2,1.3,3.5,2.1,5.4,2.1c4.9,0,6.5-2.7,6.8-5.4c0.1-0.8,0.1-1.7,0.1-2.4v-5.8c0-3.4,0.5-4.9,2.8-5v-0.4h-6.5L-593.1,492.7"/>
<path fill="#231F20" d="M-563.5,492.7h0.2c2.4,0,2.4,1.7,2.4,6.2v5.3c0,4.5,0,6.2-2.4,6.2h-0.2v0.4h8.3v-0.4h-0.2
	c-2.4,0-2.4-1.8-2.4-6.5v-4.8c0-4.7,0-6.5,2.4-6.5h0.2v-0.4h-8.3V492.7"/>
<path fill="#231F20" d="M-597.5,536.9c-2.5,0-2.7-0.8-2.7-4.3v-4h2.5c3.1,0,5,1.1,5,4.1C-592.7,535.6-594.3,536.9-597.5,536.9
	 M-598.9,520.1c3,0,4.5,1.1,4.5,3.8c0,2.8-1.6,3.8-4.6,3.9c-0.1,0-1,0-1.3,0v-7.6h1.4V520.1z M-595.7,527.9c3.2-0.7,4.5-2.4,4.5-4.3
	c0-2.8-2.4-4.3-6-4.3h-8.6v0.4h0.2c2.4,0,2.4,1.7,2.4,6.2v5.3c0,4.6-0.1,6.3-2.4,6.3h-0.2v0.4h8.4c2,0,3.5,0,5.1-0.8
	c1.6-0.7,2.8-2.3,2.8-4.2C-589.5,530.1-591.6,527.9-595.7,527.9"/>
<path fill="#231F20" d="M-586,519.6h0.2c2.4,0,2.4,1.7,2.4,6.2v5.3c0,4.6,0,6.2-2.4,6.2h-0.2v0.4h8.3v-0.4h-0.2
	c-2.4,0-2.4-1.7-2.4-6.5v-4.7c0-4.7,0-6.5,2.4-6.5h0.2v-0.4h-8.3V519.6"/>
<path fill="#231F20" d="M-542.9,533.1l-5.6-13.9h-5.8v0.4c1.4,0.1,2.1,0.2,2.3,0.9c0.3,0.6,0.4,2.6,0.4,5.9v6c0,3.4-0.4,4.9-2.8,4.9
	v0.4h6.8v-0.4c-2.7-0.1-3.1-1.5-3.1-4.9v-10.6l6.4,15.9h0.5l6.8-15.6v8.9c0,4.7,0,6.4-2.7,6.4v0.4h8.3v-0.4h-0.2
	c-2.4,0-2.4-1.7-2.4-6.5v-4.7c0-4.8,0-6.5,2.4-6.5h0.2v-0.4h-5.3L-542.9,533.1"/>
<path fill="#231F20" d="M-446.6,530.1l2.7-6.7l2.6,6.7H-446.6 M-436.9,532.7l-5.6-13.9h-0.6l-5.1,12.6c-1.3,3.1-2.4,5.9-4.3,6v0.4
	h6.3v-0.4c-1.3-0.1-2.3-0.8-2.3-1.9c0-0.8,0.5-2,1.2-3.7l0.3-0.8h6.1l1,2.5c0.4,1.1,0.6,1.8,0.6,2.3c0,0.9-0.8,1.4-2.3,1.5v0.4h8.2
	v-0.4C-435.1,537.3-436,534.9-436.9,532.7"/>
<path fill="#E8CF00" d="M-632,501.8c-0.3,0.8-0.3,1.6,0.1,2.4c0.2,0.4,0.4,0.8,0.6,1.1c0.3,0.4,0.5,0.7,0.8,1.1
	c1.3,1.7,1.4,3.4,1,5.4l0.3,0.1c0.1-0.2,0.2-0.4,0.3-0.6c0.4-1.2,0.3-2.3,0.1-3.3c-0.3-1-0.7-2-0.9-3.2c-0.1-1-0.3-2-0.3-2.9
	s0.2-1.7,0.8-2.6c0.2-0.4,0.4-0.6,0.8-1c0.2-0.2,0.5-0.4,0.7-0.5c0.3-0.1,0.6-0.3,0.8-0.4c0.2-0.2,0.5-0.3,0.7-0.4
	c0.2-0.1,0.5-0.2,0.7-0.4c0.7-0.5,1.2-0.9,1.7-1.8c0.4-0.7,0.5-1.1,0.6-1.9c0-0.6,0.1-1.1,0.2-1.6c0.1-0.5,0.2-1,0.4-1.5
	c0.5-1.5,1.4-2.3,2.9-2.9l0.1,0.1h0.1c0.1-0.1,0.1,0.1,0.1,0.1l-0.1,0.1c-0.1,0-0.2,0.1-0.2,0.1c-0.2,0.2-0.3,0.4-0.4,0.6
	c-0.1,0.2-0.1,0.4-0.2,0.7c0,0.1-0.1,0.2-0.1,0.4c0,0.1,0,0.2,0,0.3c0,0.6,0,1.1,0,1.6c0.1,0.3,0.3,0.6,0.4,0.9
	c0.1,0.3,0.2,0.6,0.3,1c0.2,1.3,0.2,2.1-0.3,3.3c-0.5,1.1-0.9,1.8-1.8,2.6c-0.3,0.2-0.5,0.4-0.7,0.6c-0.2,0.2-0.4,0.4-0.6,0.7
	c-0.9,1.2-1.6,2.5-1,4c0.1,0.5,0.2,0.9,0.3,1.5c0.1,0.4,0.2,0.8,0.4,1.1l0.4-0.1v-0.9c0-1.8,0.8-3,2.3-4.2c0.3-0.2,0.5-0.3,0.8-0.5
	c-0.1,0.2-0.2,0.4-0.3,0.6c-0.1,0.3-0.1,0.4-0.2,0.7c0,0.1,0,0.3,0,0.6v0.6c0,1,0.2,1.7,0.5,2.5c0.3,0.7,0.6,1.4,1,2.3
	c0.2,0.5,0.3,0.9,0.4,1.3c0.1,0.4,0.1,0.9,0.2,1.4c0.6,2.3,0.3,3.8-0.6,6c-1.7,4.1-4.5,6.5-8.9,7.3c-0.9,0.2-1.5,0.3-2.4,0.2
	c-1.5,0-2.3-0.2-3.8-0.2c-1.5-0.1-2.4-0.1-3.8,0.6c-0.1,0.1-0.2,0.1-0.3,0.2c-0.1,0.1-0.2,0.2-0.3,0.2c-0.2,0.2-0.4,0.5-0.5,0.7
	c-0.1,0.3-0.1,0.5-0.2,0.8c-0.2,0.5-0.2,0.9-0.2,1.4c0,0.3,0,0.5,0,0.8c0,0.3,0.1,0.5,0.1,0.8c0.7,1.9,1.5,2.9,3.2,3.9
	c1,0.6,1.5,1,2.4,1.8c0.4,0.4,0.8,0.7,1.1,1c0.5,0.5,1,0.9,1.1,1.1c0.6,0.9,1.2,1.6,1.7,2.4c0.5,0.8,0.9,1.7,1.2,2.7
	c0.4,1.5,0.8,2.7,1,4c0.2,1.2,0.3,2.5,0.1,4c-0.4,3.8-1.7,6-4.6,8.5c-0.4,0.4-0.8,0.6-1.3,0.9c-0.6,0.4-1.2,0.5-1.8,0.7
	c-0.6,0.2-1.2,0.3-1.9,0.6c-0.3,0.2-0.6,0.3-1,0.4c-1.6,0.2-2.8-0.3-4-1.3l-0.2-0.2l-0.1,0.2c-0.1,0.2-0.2,0.3-0.3,0.4l-0.1,0.2
	c0.1,0.2,0.1,0.4-0.1,0.6l-0.3,0.4c-0.7,0.3-1.3,0.6-2.1,0.6c-0.8-0.2-1.4-0.5-2-0.9c-0.3-0.2-0.5-0.5-0.8-0.8s-0.5-0.6-0.8-0.9
	c-0.8-1-1.6-1.8-2.3-2.6l-0.3-0.4v1c0,0.8,0,1.3,0,2.2c0,1.5-0.1,2.5-0.4,3.8l-0.1,0.2h0.2c0.3,0,0.6-0.1,1-0.1
	c0.5-0.1,0.7,0.2,0.5,0.6c0,0.2-0.1,0.3-0.2,0.5c-0.1,0.2-0.1,0.3-0.2,0.5c-0.1,0.3,0,0.7,0.3,1c0.1,0.1,0.1,0.1,0.1,0.2v0.1
	l0.3,0.1c0.1,0,0.2,0.1,0.3,0.1c0.5,0.1,1,0.1,1.4,0c0.4-0.1,0.8-0.2,1.4-0.2c0.9-0.1,1.6-0.2,2.3-0.2s1.3,0.2,2,0.7
	c0.6,0.5,0.9,1,0.9,1.9c0,0.5-0.1,0.8-0.1,1.4c0,0.3,0,0.5,0,0.8l0.1,0.2c0.1,0.1,0.1,0.2,0.1,0.3c-0.3,0.8-0.2,1.5,0.4,2.1l0.3,0.2
	c0.1,0.1,0.2,0.2,0.3,0.2c0.2,0.1,0.4,0.2,0.7,0.2c0.7,0,1,0.1,1.7,0.1c0.2,0,0.3,0.1,0.3,0.2l0.1,0.2h0.1c0.3,0,0.6,0.2,0.6,0.6
	c-0.1,0.5-0.2,0.9-0.4,1.2c-0.3,0.6-0.9,0.7-1.6,0.7h-0.2v0.2c-0.2,1.3,0,2,0.4,3.1c0.3,0.8,0.7,1.2,1.4,1.7
	c0.2,0.1,0.3,0.3,0.1,0.5c0,0.2,0,0.2,0,0.3c0,0.3-0.2,0.4-0.5,0.6c-0.3,0.5-0.6,0.7-1,1c-0.3,0.5-0.5,0.8-0.9,0.8l-0.2,0.1l0.1,0.2
	c0.1,0.2,0.2,0.5,0.2,0.8c0,0.1,0,0.1,0.1,0.2l0.1,0.2c0,0.1,0.1,0.2,0.1,0.3c0.3,1.6,0,2.6-0.8,4l-0.1,0.1c-0.1,0-0.2,0-0.4,0h-0.1
	v0.1c-0.1,1-0.3,1.8-1.1,2.4l-0.2,0.1c0,0.4-0.6,0.4-0.6,0.1c0-0.5-0.1-0.9-0.2-1.3l-0.1-0.4l-0.4,0.1c0,0.1,0,0.3,0,0.4
	c0.1,0.3,0.1,0.5,0.1,0.8c0,0.2,0.1,0.5,0.1,0.7c0,0.4-0.1,0.8-0.4,1.3c-0.2,0.3-0.3,0.5-0.6,0.7c-0.5,0.4-0.9,0.6-1.6,0.6
	c-0.2,0-0.5-0.1-0.7-0.2l-0.1-0.1l-0.1,0.1c-0.2,0.2-0.4,0.3-0.7,0.5c-0.2,0.1-0.3,0.2-0.5,0.3s-0.3,0.2-0.5,0.3
	c-0.7,0.6-1.1,1.1-1.4,2c-0.1,0.2-0.3,0.3-0.5,0.1c-0.1,0-0.1-0.1-0.1-0.2c0-0.2-0.1-0.3-0.2-0.5c-0.1-0.1-0.1-0.3-0.1-0.4
	c-0.1-0.6-0.2-1-0.3-1.6l-0.1-0.1l-0.2-0.1c-0.1,0-0.1-0.1-0.2-0.2l-0.1-0.2l-0.1,0.2c-0.5,0.7-1,1.1-1.9,1.2c-0.2,0-0.3,0-0.4-0.1
	c-0.1,0-0.3-0.1-0.4-0.2l-0.2-0.1l-0.1,0.2c-0.2,0.3-0.4,0.5-0.7,0.7c-0.3,0.2-0.7,0.3-1.1,0.5c-0.4,0.3-0.7,0.5-1,0.9l-0.3,0.4
	c-0.1,0.2-0.2,0.3-0.2,0.5c-0.1,0.2-0.1,0.3-0.2,0.5c0,0.2-0.1,0.4-0.1,0.6s-0.1,0.4-0.1,0.7c0,0.1-0.1,0.2-0.2,0.2h-0.1
	c-0.1,0.1-0.2,0-0.3-0.1c-0.1-0.1-0.1-0.2-0.2-0.3c0-0.1-0.1-0.2-0.1-0.3c-0.1-0.6-0.2-1-0.3-1.6c-0.1-0.7-0.1-1.4-0.1-2.1
	c0-0.6,0.1-1.2,0.4-1.8l0.2-0.3l-0.3,0.1c-0.1,0-0.2,0-0.3,0.1c-0.6,0.1-1-0.2-1.4-0.6l-0.1-0.1l-0.1,0.1c-0.2,0.1-0.3,0.2-0.6,0.3
	c-0.3,0.1-0.5,0.1-0.8,0.3c-1,0.4-1.6,1-1.8,2c0,0.1,0,0.2-0.1,0.3c0,0.1,0,0.2,0,0.3l-0.1,0.2c0,0.1,0,0.1,0,0.2
	c-0.1,0.1-0.2,0.1-0.2,0c0-0.1,0-0.1,0-0.2c-0.1-0.1-0.1-0.2-0.1-0.2c0-0.1,0-0.1,0-0.2c-0.4-1.8-0.6-3.1,0.2-4.7
	c0.1-0.1,0.1-0.2,0.2-0.3c0.1-0.1,0.2-0.2,0.2-0.3c0.2-0.3,0.5-0.5,0.7-0.7l0.1-0.2c0-0.5,0-0.9,0.3-1.4c0.2-0.5,0.3-0.7,0.5-1.1
	l0.2-0.3h-0.3c-0.4,0-0.7,0-1.1,0.2c-0.4,0.1-0.9,0.2-1.3,0.3c-0.4,0.1-0.8,0.4-0.8,0.9c0,0.1-0.1,0.1-0.2,0.1
	c-0.1,0-0.2-0.1-0.1-0.2c0.1-0.3,0.1-0.5,0.2-0.7c0-0.2,0-0.3,0-0.4v-0.1c0.1-0.1,0.1-0.2,0.1-0.2c0.1-0.2,0.1-0.4,0.1-0.5
	c0-0.2,0.1-0.3,0.1-0.5c0.3-0.6,0.5-1.1,0.8-1.6c0.3-0.5,0.5-0.9,1.1-1.3c0.5-0.4,0.9-0.6,1.5-0.7c0.3,0,0.4,0.1,0.5,0.3l0.1,0.4
	l0.2-0.3c0.9-1.6,2.2-2.7,3.8-2.2c0.9,0.3,1.4,0.7,1.9,1.2c0.3,0.3,0.5,0.5,0.8,0.8s0.7,0.5,1.1,0.7l0.2,0.1l0.2-0.4
	c0-0.1,0.1-0.2,0.1-0.3l0.1-0.2c0-0.9-0.2-1.5-0.2-2.4c0-3-1.3-4.7-3.1-7.1c-0.6-0.8-0.9-1.4-1.3-2c-0.8-0.8-1.7-1.2-2.9-1.6
	c-1.5-0.5-2.8-0.8-4-1.2c-1.2-0.4-2.3-1-3.5-2c-2.9-2.6-4.4-5.3-3.9-9.1l-0.4-0.1c-0.5,1.3-1.3,2.3-2.8,2.7
	c-0.7,0.1-1.1,0.2-1.8,0.2h-0.3l0.5,0.9c0.8,1.4,0.6,2.5,0.2,4.1c-0.2,0.9-0.6,1.4-1.3,2l-0.3,0.3c-0.1,0.1-0.2,0.2-0.3,0.2
	c-0.2,0.1-0.4,0.2-0.7,0.3c-0.2,0.1-0.4,0.1-0.6,0.1h-0.3l0.1,0.2c0.3,0.5,0.4,1,0.5,1.7c0.1,0.7,0,1.3-0.2,1.9
	c-0.2,0.6-0.4,1.2-0.7,1.9c-0.1,0.4-0.3,0.6-0.4,0.9c-0.2,0.3-0.3,0.5-0.6,0.9c-0.3,0.5-0.6,0.8-0.9,1.1c-0.4,0.3-0.8,0.6-1.2,1
	c-0.1,0-0.2-0.1-0.1-0.1c0.4-1.4,0.1-2.4-0.7-3.2l-0.3-0.4v0.5c0,0.2,0,0.3,0,0.5c0,0.5-0.1,0.7-0.2,1.1c0,0.2-0.1,0.3-0.1,0.5
	l-0.1,0.2l-0.9,1.8c-0.7,1-1.2,1.6-2.2,2.2c-0.4,0.2-0.6,0.3-1,0.3l-0.2,0.1c-0.3,0.4-0.9,0.1-0.7-0.4s0.3-0.9,0.1-1.4
	c0-0.1-0.1-0.3-0.1-0.4c-0.1-0.1-0.1-0.2-0.2-0.3l-0.3-0.6l-0.1,0.5c-0.5,1.6-1.6,2.3-3.3,3l-0.2,0.1c-0.4,0-0.6,0.1-1,0.1
	c-0.5,0.1-0.8,0-1.2-0.2c-0.2-0.1-0.4-0.2-0.6-0.3c-0.2-0.1-0.4-0.2-0.7-0.2h-0.1c-0.3,0.4-0.6,0.7-1,0.8c-0.1,0-0.3,0.1-0.5,0.1
	c-0.2,0-0.3,0-0.5,0.1c-0.3,0.1-0.7,0.2-0.9,0.6c-0.1,0.2-0.2,0.3-0.3,0.6c-0.1,0.2-0.1,0.4-0.2,0.6c0,0.2-0.1,0.4-0.1,0.6
	c0,0.1-0.1,0.2-0.2,0.2c-0.1,0-0.1,0-0.2-0.1l-0.2-0.2c-0.1-0.1-0.1-0.1-0.1-0.1c-0.3-0.4-0.5-0.8-0.7-1.1c-0.2-0.4-0.3-0.7-0.4-1.2
	l-0.2-0.9c0-0.6,0-1.1,0.1-1.5v-0.2h-0.2h-0.1c-0.3-0.1-0.4-0.1-0.6-0.2c-0.3-0.1-0.5-0.3-0.7-0.5l-0.1-0.1l-0.1,0.1
	c-0.2,0.2-0.5,0.3-0.9,0.3c-0.2,0-0.4,0-0.5,0.1c-0.2,0.1-0.4,0.1-0.5,0.3c-0.2,0.2-0.4,0.3-0.5,0.4c-0.2,0.1-0.4,0.2-0.5,0.3
	c-0.4,0.2-0.7,0.5-0.9,1c0,0.1-0.1,0.1-0.1,0.2l-0.1,0.2c-0.1,0.1-0.2,0.3-0.2,0.6c-0.1,0-0.1,0-0.1,0c0-0.2,0-0.4,0-0.6
	c-0.1-0.2-0.2-0.4-0.3-0.6c-0.1-0.2-0.2-0.3-0.3-0.6c-0.6-1.6-0.4-3.1,0.5-4.4v-0.2c-0.1-0.2-0.2-0.4-0.2-0.6c0-0.5,0-0.8,0.2-1.3
	c0.1-0.4,0.2-0.6,0.4-0.9l0.1-0.1l-0.1-0.1c-0.1-0.1-0.3-0.2-0.3-0.3l-0.1-0.2l-0.2,0.2c-0.1,0.1-0.1,0.1-0.3,0.1s-0.4,0.1-0.6,0.1
	s-0.4,0.1-0.6,0.2c-0.6,0.3-1.1,0.5-1.6,0.7c-0.5,0.3-0.9,0.7-1.1,1.3l-0.2-0.2c0-0.1,0.1-0.2,0.1-0.2c0-0.8-0.1-1.5-0.1-2.1
	c0-0.6,0.1-1.2,0.5-1.8c0.9-1.4,1.6-2.2,3.2-2.6c0.1,0,0.3,0,0.4,0l0.1,0.1c0.2-0.2,0.2-0.4,0.3-0.5v-0.2l-0.1-0.4
	c0-0.1,0-0.2-0.1-0.4c0-0.3,0.1-0.6,0.1-0.8c0.1-0.3,0.2-0.5,0.4-0.8l0.1-0.2l-0.2-0.1c-0.2-0.1-0.5-0.1-0.8-0.1h-0.8
	c-0.7,0-1,0.1-1.7,0.3c0.4-1,0.8-1.4,1.7-1.9c1.4-0.9,2.5-1.1,4.2-1c0.2,0,0.3,0.1,0.3,0.2l0.1,0.2l0.2-0.1c0.8-0.4,1.3-0.6,2.2-0.7
	c0.8,0,1.3,0,2,0.3c0.3,0.1,0.5,0.3,0.7,0.4c0.2,0.1,0.4,0.3,0.6,0.5c0.1,0.2,0.2,0.3,0.2,0.4c0.1,0.2,0.1,0.3,0.2,0.5
	c0,0.1,0.1,0.1,0.1,0.2c0.2,0.2,0.2,0.3,0.3,0.5c0.1,0.1,0.1,0.2,0.2,0.4c0.1,0.2,0.2,0.3,0.3,0.4c0.1,0.1,0.2,0.2,0.4,0.4l0.1,0.1
	c0.3,0.2,0.5,0.4,0.8,0.5s0.5,0.2,0.9,0.4c0.4,0,0.7,0,1-0.1c0.1-0.1,0.3-0.1,0.4-0.2c0.1-0.1,0.3-0.2,0.4-0.2
	c0.4-0.3,0.8-0.5,1.1-0.7s0.7-0.5,1-1c1.2-1.8,1.9-3,2.2-5.1c0.2-1.2,0.1-2,0.1-3.2c0-0.9-0.1-1.4-0.1-2.3c0-1-0.1-1.9-0.2-2.7
	c-0.1-0.8-0.1-1.6-0.1-2.5c0-0.2,0-0.5,0-0.7c0-0.1,0-0.2,0.1-0.2v-0.2c0.5-1,0.7-1.5,1.1-2.4c1.5-2.7,4-3.9,7.1-3.7
	c0.9,0.1,1.7,0.3,2.5,0.5c0.8,0.2,1.5,0.5,2.3,0.7c1.5,0.4,3,0.6,4.6-0.2c0.1,0,0.2,0,0.3-0.2c0,0,0-0.1,0.1-0.1l0.1-0.2h-0.3
	c-0.7-0.1-1.4-0.1-2.2-0.1c-0.7,0-1.5-0.1-2.3-0.4c-0.7-0.2-1.1-0.6-1.5-1c-0.4-0.4-0.8-1-1.3-1.5c-0.4-0.4-0.7-0.9-0.8-1.3
	l-0.2-0.6h0c-0.1,0.2-0.1,0.5-0.2,0.7c-0.4,1.3-1,1.9-2.2,2.5c-0.2,0.1-0.3-0.1-0.3-0.2s0-0.1,0-0.1c0.3-2-0.6-3.5-2.2-4.5l-0.2-0.2
	l-0.1,0.2c-0.4,1.1-1.1,2.1-2.2,2.8c-0.5,0.3-0.9,0.4-1.3,0.5c-0.2,0.1-0.5,0.1-0.7,0.2c-0.2,0.1-0.5,0.2-0.7,0.4
	c-0.1,0-0.1,0-0.1,0l-0.2-0.1l-0.1,0.2c-0.7,1.1-1.3,1.7-2.5,2c-0.1,0-0.1,0-0.2,0h-0.2c-0.1,0-0.3,0-0.4,0.1c-0.1,0-0.2,0-0.2-0.1
	l-0.1-0.3l-0.2,0.3c-0.3,0.4-0.7,0.8-1.1,1.2c-0.4,0.4-0.9,0.7-1.4,1.1c-0.1,0.1-0.2,0.1-0.3,0.2l-0.2,0.1c-0.1,0-0.1,0.1-0.2,0.1
	c-0.1,0.1-0.2,0.1-0.3,0h-0.2c-0.1,0.1-0.3,0.2-0.4,0.4c-0.3,0.2-0.5,0.3-0.8,0.5h-0.2c-0.1,0-0.2,0-0.3,0.1c-0.1,0-0.1,0-0.1,0
	c-0.3,0.1-0.3,0.1-0.3,0.1c0.1-0.4,0.1-0.8,0.1-1.1l-0.4-0.1c-0.1,0.2-0.2,0.4-0.2,0.6c-0.3,0.3-0.4,0.6-0.7,1
	c-0.3,0.6-0.7,0.9-1.3,1.3c-0.4,0.3-0.7,0.4-1.1,0.5l-0.3,0.1c-0.1,0-0.2,0-0.3,0.1c-0.2,0-0.3-0.3-0.1-0.4l0.3-0.2
	c0.3-0.6,0.5-0.9,0.5-1.5v-0.6l-0.4,0.5c-0.4,0.6-0.9,1-1.7,1.3c-0.5,0.2-0.8,0.3-1.4,0.3c-0.3,0-0.5-0.3-0.5-0.7v-0.1l-0.4-0.1
	c-0.1,0.1-0.1,0.2-0.2,0.4c-0.1,0.1-0.1,0.2-0.2,0.2c0,0.1-0.1,0.1-0.2,0.2c-0.3,0.3-0.5,0.4-0.9,0.5h-0.2c-0.8,0-1.4,0-2.1-0.4
	c-0.4-0.2-0.7-0.4-1-0.7l-0.1-0.1l-0.1,0.1c-0.2,0.2-0.4,0.3-0.7,0.6c-0.2,0.2-0.4,0.4-0.7,0.7c-0.2,0.2-0.3,0.4-0.5,0.6
	s-0.3,0.4-0.5,0.6c-0.3,0.4-0.4,0.9-0.2,1.5c-0.1-0.1-0.2-0.2-0.2-0.4c0-0.1-0.1-0.2-0.3-0.2l0,0c-0.1-0.1-0.1-0.2-0.2-0.3
	c-0.1-0.2-0.2-0.4-0.3-0.6s-0.2-0.4-0.2-0.6c-0.1-0.3-0.1-0.5-0.2-0.8c0-0.2,0-0.5,0-0.8l0.1-0.7l-0.4,0.1c-0.3,0.1-0.6,0.1-1,0.1
	c-0.3,0-0.5-0.1-0.7-0.2c-0.2-0.1-0.4-0.2-0.7-0.4c-0.3-0.2-0.5-0.3-0.6-0.6l-0.1-0.1h-0.2c-0.3,0.1-0.7,0.2-1.1,0.3
	c-0.2,0.1-0.4,0.1-0.5,0.2c-0.2,0.1-0.3,0.2-0.5,0.4c-0.2,0.2-0.3,0.3-0.5,0.5c-0.1,0.2-0.3,0.3-0.4,0.5c-0.2,0.4-0.4,0.7-0.4,1.3
	l-0.1,0.2c-0.1-0.3-0.2-0.5-0.3-0.8c-0.1-0.3-0.1-0.5-0.2-0.9c-0.1-1.3-0.1-2.2,0.6-3.2c0.2-0.2,0.3-0.4,0.4-0.6s0.3-0.3,0.5-0.5
	c0.1-0.1,0.2-0.2,0.2-0.2l0.2-0.2c0.1-0.1,0.2-0.3,0.4-0.4l0.8-0.5h-0.6c-0.1,0-0.3-0.1-0.4-0.2c-0.4-0.7-0.5-1.3-0.2-2.1l0.1-0.4
	l-0.4,0.1c-0.4,0.1-0.7,0.4-0.9,0.8c-0.1,0.1-0.2,0.1-0.3,0.1c-0.1-0.1-0.1-0.2-0.1-0.3c0.1-0.1,0.1-0.2,0.2-0.3
	c0.4-1.5,1-2.5,2.4-3.1c0.3-0.1,0.7-0.3,1-0.4l0.1-0.1c0.4-0.2,0.5-0.4,0.6-0.6c0.1-0.1,0.1-0.2,0.2-0.3c0.1-0.1,0.1-0.1,0.2-0.2
	c1.1-0.7,1.8-1,3.1-1c0.3,0,0.4,0,0.7,0c0.7,0,1.1,0.1,1.7,0.1h0.2c0.3,0.1,0.5,0.1,0.8,0.3l0.1,0.1c0.1,0,0.1,0.1,0.2,0.1
	c0.6,0.2,1.1,0.4,1.6,0.6c0.5,0.2,1,0.3,1.7,0.3c0.4,0,0.7-0.1,1-0.2c0.1-0.1,0.2-0.1,0.4-0.2c0.1,0,0.3-0.1,0.4-0.1
	c0.3-0.1,0.4-0.2,0.6-0.3c0.1-0.1,0.3-0.1,0.5-0.2c0.3-0.2,0.6-0.4,0.9-0.5c0.3-0.1,0.6-0.2,0.9-0.4h0.1c0.6-0.5,0.9-0.9,1.3-1.3
	c0.3-0.4,0.7-0.9,1.1-1.4c0.8-1,1-1.3,1.9-2.2c0.1-0.1,0.3-0.2,0.5-0.4l-0.2-0.3c-0.5,0.3-0.9,0.6-1.3,0.9c-0.4,0.3-0.8,0.5-1.4,0.8
	c-1.3,0.5-2.3,0.4-3.5,0.1c-0.6-0.1-1.1-0.3-1.7-0.4c-0.6-0.1-1.3-0.2-2-0.1c-0.4,0-0.7,0-1,0.1c-0.3,0.1-0.6,0.1-1,0.3
	c-0.1,0.1-0.2,0-0.2-0.1c0-0.1,0-0.2,0.1-0.2c0.2-0.2,0.3-0.4,0.4-0.5c0.1-0.1,0.2-0.3,0.3-0.4c0.9-0.8,1.5-1.2,2.6-1.5
	c0.5-0.1,1-0.2,1.4-0.3c0.4-0.1,0.8-0.2,1.4-0.2c0.3-0.1,0.4-0.1,0.7-0.2c1.1-0.4,1.6-1.1,2.1-2l0.1-0.2h-0.3
	c-0.3,0-0.5-0.1-0.7-0.2l-0.1-0.1l-0.1,0.1c-0.1,0.1-0.2,0.2-0.4,0.2h-0.1c-0.1,0-0.1,0-0.2,0c-1.1,0-1.9-0.4-2.8-0.9
	c-0.4-0.2-0.8-0.5-1.3-0.8c-0.5-0.3-0.9-0.5-1.5-0.7c-0.4-0.1-0.8-0.3-1.1-0.4c-0.4-0.1-0.8-0.2-1.2,0v-0.1c-0.1-0.1,0-0.2,0-0.3
	c1.1-0.8,2-1.4,3.1-1.7l-0.1-0.4c-2.2,0.2-3.7-0.1-5.2-1.5c-0.1-0.1-0.1-0.1-0.1-0.1c0.1-0.3,0.1-0.4,0.1-0.4
	c0.2-0.1,0.3-0.2,0.4-0.3l-0.2-0.3c-0.6,0.2-1.3,0.2-2,0.1c-0.5-0.1-0.8-0.3-1.1-0.6c-0.1-0.2-0.3-0.3-0.5-0.5
	c-0.2-0.2-0.4-0.4-0.6-0.5c-0.4-0.2-0.4-0.5-0.2-0.6l0.2-0.1l-0.1-0.2c-0.2-0.3-0.3-0.7-0.5-1.1l-0.1-0.1h-0.2
	c-0.5,0.2-1.1,0.2-1.7,0c-0.4-0.1-0.5-0.2-0.8-0.4c-0.3-0.1-0.5-0.4-0.7-0.5c-0.3-0.2-0.6-0.3-0.9,0c-0.1,0.1-0.2,0.1-0.3,0
	c-0.1-0.1-0.1-0.2,0-0.4c0.1-0.1,0.2-0.2,0.3-0.3c0.5-0.9,0.8-1.5,1.6-2.1c0.3-0.2,0.7-0.3,1-0.4h0.2l0.2-0.7
	c-0.1-0.2-0.1-0.4-0.2-0.6c0-0.2,0-0.5,0-0.7v-0.1h-0.1c-0.2,0-0.3-0.1-0.5-0.2s-0.4-0.2-0.6-0.3c-0.4-0.2-0.8-0.4-1.3-0.6
	c-0.5-0.1-0.9-0.3-1.3-0.3c-0.4-0.1-0.8,0-1.3,0.2c-0.1,0-0.2-0.1-0.1-0.2c0.2-0.3,0.3-0.5,0.4-0.8c0.1-0.2,0.2-0.4,0.4-0.6
	c0.6-0.6,1-0.9,1.8-1.2c0.7-0.2,1.1-0.4,1.7-0.1c0.3,0.1,0.4,0.2,0.7,0.2l0.4,0.1l-0.2-0.4c-0.2-0.4-0.2-0.6-0.2-1.1
	c0-0.3,0-0.5,0.1-0.8c0-0.3,0.1-0.5,0.2-0.7c0.1-0.2,0.2-0.5,0.4-0.7v-0.2c-0.2-0.4-0.4-0.7-0.7-0.9c-0.1-0.1-0.2-0.2-0.3-0.3
	c-0.1-0.1-0.2-0.2-0.4-0.2c-0.3-0.1-0.4-0.3-0.6-0.4c-0.2-0.1-0.5-0.2-0.8-0.3c-0.1,0-0.1-0.1-0.1-0.2c0-0.1,0.1-0.1,0.2-0.1h0.2
	c0.3-0.1,0.5-0.2,0.7-0.2c0.2-0.1,0.4-0.1,0.6-0.2c0.4,0,0.7-0.2,1-0.2c0.3-0.1,0.6-0.1,0.9,0c1.4,0.3,2.3,0.5,2.9,1.6l0.1,0.1h0.1
	c0.1,0,0.1,0,0.2,0h0.2v-0.2c0-0.4,0-0.7,0.1-1.2c0-0.3,0.1-0.4,0.3-0.6c0.1-0.1,0.1-0.2,0.2-0.3l0.3-0.3l0.1-0.1l-0.1-0.1
	c-0.1-0.2-0.3-0.4-0.4-0.5c-0.1-0.2-0.3-0.4-0.4-0.5c-0.3-0.3-0.7-0.5-1.2-0.4h-0.1c-0.1,0-0.1,0-0.2,0c-0.1,0-0.2,0-0.2-0.1
	s0-0.2,0.1-0.2c0,0,0.1,0,0.2-0.1l0.3-0.1c0.2-0.1,0.4-0.2,0.6-0.3c0.3-0.2,0.6-0.4,1-0.4c0.5-0.1,1-0.1,1.4-0.1s0.8,0.1,1.3,0.3
	c0.9,0.4,1.5,1,1.7,2l0.1,0.1c0.8,0.3,1.4,0.5,2.2,0.9l0.3,0.2c0.1,0.1,0.2,0.1,0.3,0.2c0.9,0.9,1.2,1.7,1.2,3
	c0,0.5,0.1,0.7,0.1,1.1c0,0.3,0,0.5-0.1,0.7c0,0.2-0.1,0.5-0.1,0.8c-0.1,0.7-0.3,2.4-0.6,3.6c0,0.3,0,0.5,0,0.8c0,0.1,0,0.2,0,0.3
	c0,0.1,0,0.2,0.1,0.3c0.5,1,1.3,1.2,2.2,1.5c0.1,0.1,0.2,0.2,0.3,0.2h0.8c0.5,0,0.8,0,1.2,0s0.7,0.1,1.2,0.2
	c0.5,0.2,0.9,0.4,1.3,0.6c0.4,0.2,0.7,0.5,1.1,0.7c0.8,0.5,1.5,0.9,2.7,0.9c0.5-0.1,0.8-0.1,1.2-0.2c0.3,0,0.7,0,1.1,0
	c0.4,0.1,0.7,0.1,1,0.2c0.3,0.1,0.6,0.2,1,0.4c0.1,0,0.1,0.1,0.2,0.1c0.1,0.1,0.1,0.1,0.2,0.2c0.1,0.1,0.2,0.2,0.3,0.3
	c0.1,0.1,0.1,0.1,0.1,0.2v0.4l0.3-0.2c1.1-0.8,2.1-1.5,3.7-1.8c0.3-0.1,0.6-0.1,0.9-0.1c0.2-0.1,0.3-0.1,0.4-0.2
	c0.2-0.1,0.3-0.2,0.3-0.3l0.1-0.1l0.1-0.1l0.3-0.2c0.1,0,0.1-0.1,0.2-0.1l0.1-0.1c0,0,0-0.1,0.1-0.1c0.1-0.1,0.3-0.3,0.4-0.4
	l0.2-0.2c0.2-0.3,0.4-0.6,0.5-0.9c0.1-0.9-0.4-1.9-1.2-2.2c-0.6-0.2-1.1-0.2-1.6,0c-0.5,0.1-1,0.4-1.5,0.5c-0.4,0.3-0.7,0.5-1.1,0.8
	c-0.2,0.1-0.4,0.2-0.5,0.4c-0.1,0.1-0.3,0.2-0.5,0.4c-0.8,0.3-1.5,0.5-2.4,0.6c-0.4-0.1-0.8-0.1-1.1-0.3c-0.3-0.1-0.7-0.3-1.1-0.4
	c-0.2-0.1-0.3-0.2-0.3-0.3c-0.3-0.3-0.6-0.5-0.8-0.7c-0.2-0.2-0.5-0.4-0.7-0.7c-1.2-1.4-1.2-2.8-0.9-4.7c0.1-0.4,0.2-0.8,0.3-1.1
	c0.1-0.4,0.2-0.8,0.1-1.2c0-0.2-0.1-0.3-0.1-0.5c0-0.1-0.1-0.3-0.2-0.4c0-0.1,0-0.1,0-0.2v-0.2h-0.2c-1.2-0.3-2.3-1.1-3.5-2.1
	c-0.3-0.2-0.6-0.5-0.9-0.7s-0.6-0.5-0.9-0.6c-0.5-0.3-1-0.4-1.5-0.4c0.2-0.1,0.4-0.3,0.6-0.4c0.8-0.4,1.9-0.8,3.2-0.7
	c0.5,0.1,0.9,0.3,1.2,0.4c0.2,0.1,0.4,0.2,0.6,0.3s0.4,0.2,0.6,0.3l0.4,0.1l-0.2-0.4c-0.1-0.2-0.2-0.5-0.3-0.8
	c-0.3-0.7-0.3-1.3-0.3-1.8c0.1-0.6,0.2-1.2,0.3-1.8V490h-0.2c-0.1,0-0.2-0.1-0.3-0.2c0-0.1-0.1-0.1-0.1-0.2
	c-0.8-1.1-0.8-2.2-0.2-3.4c0.1-0.1,0.2-0.2,0.3-0.3s0.1-0.1,0.2-0.2c0.1-0.1,0.2-0.2,0.3-0.2c0.8-0.5,1.5-0.9,2.3-1
	c0.2,0,0.7,0,0.8,0c1.8,0,2.7,0,4.5,0c1.5,0,2.4-0.3,3.7-1.1c0.5-0.3,0.8-0.5,1.1-0.8c0.3-0.2,0.6-0.5,1.1-0.6
	c0.7-0.3,1.3-0.4,1.9-0.4c0.6-0.1,1.2,0,2,0c2.2,0,3.6-0.1,5.6-1.1c0.7-0.4,1.2-0.7,1.8-0.9c0.6-0.3,1.1-0.4,1.9-0.6
	c0.5-0.1,0.7-0.1,1.2-0.1c0.6,0,1.6-0.2,2.2-0.2c0.8-0.1,1.6,0.1,2.2,0.4h0.1c0.1,0,0.2,0.2,0.1,0.3c-0.2,0.2-0.4,0.4-0.5,0.6
	c-0.1,0.2-0.2,0.4-0.4,0.6c-0.3,0.5-0.4,0.9-0.4,1.4s0,0.9,0,1.4v0.5l0.3-0.4c0.5-0.6,0.8-1.2,1.1-2.1c0.1-0.2,0.2-0.2,0.3-0.2
	c0.1,0,0.2,0.2,0.2,0.3l-0.1,0.3c0.1,0.5,0.2,0.8,0.3,1.3v0.3l0.2-0.1c0.4-0.2,0.8-0.4,1.4-0.6c2.2-0.4,3.5-0.5,5.7-0.3
	c1.7,0.1,2.7-0.2,4.2-0.9c1.2-0.6,1.6-0.9,2.8-1.4c0.8-0.6,1.5-0.8,2.2-1c0.7-0.2,1.5-0.2,2.5-0.5c0.1,0,0.1,0,0.1,0h0.1
	c0.1,0,0.2,0,0.2,0.1c0,0.5,0,0.9,0,1.3s-0.1,0.7-0.2,1.1l-0.1,0.4l0.7-0.2c1.1-0.4,1.8-0.5,3-0.6c0.5,0,0.7,0.6,0.3,0.8l-0.1,0.2
	c0,0,0,0.1-0.1,0.1c-1.1,1.1-1,2.4-0.7,3.7c0.2,0.7,0.4,1.3,0.6,2c0.2,0.7,0.3,1.4,0.2,2.1c-0.1,0.6-0.3,1-0.5,1.6
	c-0.2,0.4-0.4,0.6-0.6,1c0,0.1-0.1,0.1-0.1,0.2l-0.1,0.1l0.1,0.1c0.7,0.8,1.3,1.4,1.8,2.5c0.4,0.8,0.6,1.4,0.8,2.1
	c0.2,0.7,0.4,1.4,0.7,2.2c0.2,0.5,0.4,0.8,0.7,1.1c0.1,0.2,0.2,0.3,0.4,0.5c0.1,0.2,0.2,0.4,0.3,0.6c0.1,0.2,0.2,0.4,0.2,0.5
	c0.1,0.2,0.1,0.3,0.2,0.5c0.5,1.5,0.5,2.4,0.3,4c0,0.1-0.1,0.2-0.3,0.2l-0.1,0.1c-0.2,0.2-0.5,0-0.4-0.3c0.8-2.4-2.2-3.5-4.4-4.3
	l-0.6-0.2l0.4,0.5c0.2,0.2,0.3,0.5,0.5,0.8c0.5,1,0.5,1.7,0.5,2.8c0,0.8,0,1.3,0,2.1c0,1,0,1.7,0.6,2.6c0.1,0.1,0.1,0.2,0.2,0.3
	c0.1,0.1,0.1,0.2,0.2,0.3c0.2,0.2,0.3,0.2,0.5,0.3c0.1,0,0.2,0,0.3,0h0.3c0.1,0,0.1,0,0.2,0h0.2c0.2-0.3,0.3-0.3,0.5-0.2
	c0.1,0.1,0.2,0.2,0.1,0.4c-1,1.9-3.6,2.2-5.4,1l-0.2-0.1l-0.1,0.2c-0.4,0.9-0.4,1.4-0.4,2.3c0,0.5,0.1,0.8,0.2,1.3
	c0.5,2.2,0.8,3.5,0.6,5.7c0,0.1-0.1,0.2-0.2,0.2h-0.5h-0.1h-0.1c-0.1,0-0.2-0.1-0.4-0.1c-1.6,0-2.8-1-3.5-2.5l-0.3-0.7l-0.1,0.7
	c-0.1,1.5-0.7,2.6-1.9,3.5c-0.6,0.4-0.9,0.7-1.4,1.3c-0.1,0.3-0.3,0.5-0.4,0.7c-0.1,0.2-0.2,0.5-0.3,0.7c-0.1,0.5-0.1,0.9,0.1,1.5
	c0.1,0.3-0.3,0.6-0.5,0.3c-1.2-0.3-1.8-1-2.2-2c-0.3-0.9-0.4-1.7-0.2-2.5l0.1-0.5l-0.4,0.3c-0.3,0.2-0.7,0.4-1.1,0.6
	c-0.1,0.2-0.2,0.3-0.3,0.4c-0.1,0.1-0.1,0.2-0.2,0.4c-0.1,0.3-0.1,0.5-0.2,0.6c0,0.2,0,0.4,0,0.7c0.1,0.3,0,0.5-0.1,0.6l-0.1,0.2
	c0.4,1.3,1.1,2.5,1.9,3.8c0.9,1.5,1.7,2.6,2.3,3.8c0.6,1.2,1.2,2.4,1.7,4.1c0.5,1.6,0.8,2.8,1.1,4.1c0.3,1.3,0.4,2.5,0.4,4.1
	c0,0.4,0,0.7,0.1,1v0.5l0.3-0.4c0.3-0.4,0.9-0.7,1.4-0.6c0.3,0,0.5,0.2,0.8,0.3c0.4,0.2,0.7,0.3,1.1,0.4c1.2,0.5,2,1.1,2.7,1.9
	c0.4,0.4,0.7,0.8,1.1,1.2s0.8,0.9,1.3,1.3c1.2,1.1,2,1.8,3.6,2.4c0.2,0.1,0.4,0.2,0.6,0.3s0.4,0.2,0.7,0.3c1.6,0.6,3.2,1,4.6-0.1
	c1.5-1.1,2.1-2.2,2.6-4c0.1-0.4,0.2-0.7,0.3-1c0.1-0.3,0.2-0.7,0.2-1.1c0-0.5,0-0.8-0.1-1.1s-0.2-0.6-0.2-1.1
	c-0.1-1.2-2.2-5.5-3.3-7.1c-0.6-0.9-1.2-1.6-1.9-2.2c-0.7-0.6-1.3-1.2-2-1.7c-1.3-1.1-2.5-2.2-3.4-4c-0.2-0.4-0.3-0.7-0.4-1
	s-0.2-0.7-0.3-1.1c-0.2-1.1-0.3-1.7-0.2-2.8c0-0.4,0-0.6,0.1-1c0-0.3,0.1-0.6,0.1-0.9s0.1-0.5,0.2-0.8c0.7-1.7,1.3-2.7,2.7-3.7
	c0.7-2.8,2-4.5,4.5-5.7c0.6-0.3,1.2-0.6,1.7-0.9c0.5-0.3,1-0.7,1.4-1.3c0.1-0.1,0.1-0.2,0.2-0.3l0.1-0.3c0.5-1,0.5-1.8,0.2-2.8
	c-0.2-0.8-0.3-1.3-0.5-2.1c-0.5-1.6-0.5-2.8,0.2-4.3c0.2-0.5,0.3-0.7,0.6-1.1C-632.3,502-632.1,501.9-632,501.8"/>
<path fill="#C2564E" d="M-620.1,501.2l0.1-0.1l0.1-0.1l-0.1,0.1C-620,501.1-620,501.1-620.1,501.2L-620.1,501.2"/>
<path fill="none" stroke="#0066B0" stroke-width="0.932" stroke-miterlimit="3.864" d="M-672.1,498.6c0.2-0.1,0.3-0.2,0.3-0.4
	c0.2-0.8,0-1.7-0.7-2.1s-1.4-0.5-2.1-0.4c-1.3,0.6-2.6,1-3.7,0.6c-0.5-0.1-0.8-0.2-1.4-0.3c-1.3-0.3-1.7-1.3-3-1.6
	c-0.9-0.3-1.7-0.2-2.5-0.1c0.8,0.3,1.6,0.9,2.3,1.7c1.3,1.4,2.5,2.4,4.4,2.4c1.1,0,1.7-0.1,2.8-0.2c1.1-0.2,1.8-0.5,2.8-0.1
	c0.1,0.1,0.2,0.1,0.4,0.2C-672.2,498.4-672.1,498.5-672.1,498.6z"/>
<path fill="none" stroke="#0066B0" stroke-width="0.932" stroke-miterlimit="3.864" d="M-718,494.7c0.3,0.5,0.5,1.1,1.1,1.6
	c0.7,0.5,1.4,0.5,2.1,0.2l0.1-0.1c-0.1-0.7-0.5-1.1-1.2-1.4C-716.6,494.6-717.2,494.6-718,494.7z"/>
<path fill="none" stroke="#0066B0" stroke-width="0.932" stroke-miterlimit="3.864" d="M-724.5,498.3c0.2,0,0.3,0.1,0.5,0.2
	c0.4,0.2,0.6,0.4,0.9,0.6c0.4,0.3,0.6,0.6,0.9,1c0.2,0.2,0.3,0.5,0.6,0.6c0.1,0,0.2,0,0.3,0c0.5,0,1-0.2,1-0.6c0-0.1,0-0.2,0.1-0.2
	l-0.1-0.1c-0.5-0.9-1.2-1.2-2.2-1.4c-0.7-0.1-1-0.2-1.7-0.1C-724.2,498.2-724.4,498.3-724.5,498.3z"/>
<g>
	<path fill="none" stroke="#0066B0" stroke-width="0.932" stroke-miterlimit="3.864" d="M-727.7,506.4c0.9-0.3,2-0.2,2.8,0.4
		c0.7,0.4,1.6,1,1.8-0.2c0.1-0.7-1.3-1.3-1.9-1.4C-726,505.1-726.9,505.8-727.7,506.4"/>
	<path fill="#231F20" d="M-721,515.2c-0.3-0.4-0.3-1.1-0.8-1c-0.5,0.1-1,0.1-1.5-0.1c-0.7-0.3-1.5-1.2-2.3-0.9
		c-1.4,0.4-0.2-1.3,0-1.7c0.5-0.8,1.4-1.5,2.4-1.8c-0.2-0.4,0-1.3-0.5-1.5c-0.5-0.2-1-0.5-1.5-0.8c-0.6-0.2-1.2-0.4-1.8-0.5
		c-0.4-0.1-1.5,0.4-1.6,0c-0.1-0.3,0.4-1,0.6-1.2c0.3-0.5,0.8-0.9,1.2-1.2c1.1-0.8,2.3-0.9,3.5-0.4c-0.5-1.1-0.2-2.2,0.3-3.2
		s-1.9-2.2-2.7-2.3c-0.4-0.1-0.3-0.7,0.1-0.7c0.3-0.1,0.8-0.2,1.1-0.3c1.2-0.3,2.3-0.4,3.5-0.1c0.4,0.1,0.9,0.3,1.2,0.7
		c0.2,0.2,0.8,1.4,0.9,0.5c0-0.5,0.1-1.2,0.4-1.6c0.2-0.2,0.4-0.4,0.5-0.6c-0.2-0.3-0.4-0.6-0.6-0.8c-0.3-0.4-0.7-0.6-1.2-0.5
		c-0.3,0-0.9,0.1-0.8-0.4c0.1-0.3,0.8-0.5,1-0.6c0.7-0.4,1.2-0.6,2-0.6c1.2-0.1,2.4,0.2,3.2,1c0.4,0.4,0.6,0.9,0.7,1.4
		c0.6,0.2,1.3,0.4,1.9,0.7c2.3,1,2.5,3.9,2.1,6.1c-0.2,1.1-0.3,2.2-0.5,3.3c-0.2,1.2-0.1,2.4,1.1,2.9c0.7,0.3,1.3,0.5,2.1,0.5
		c1.4,0,2.6,0.2,3.8,0.9c1.6,0.9,2.7,1.7,4.6,1.4c0.9-0.1,1.8,0,2.6,0.2c0.5,0.1,1.8,0.6,1.8,1.3c0.7-0.5,1.4-1,2.2-1.4
		c0.8-0.3,1.9-0.3,2.6-0.7c0.6-0.3,0.9-0.8,1.3-1.2c0.5-0.5,1.1-1.1,1-1.9c-0.4-2.1-3.1-1.7-4.4-0.7c-1.5,1.1-3.2,2.4-5.2,1.8
		c-1.6-0.5-3.2-1.7-4-3.2c-0.8-1.7-0.2-3.5,0.2-5.2c0.1-0.4,0.1-0.8,0-1.2c0-0.2-0.1-0.4-0.2-0.6c-0.1-0.4-0.2-0.3-0.6-0.5
		c-0.9-0.3-1.7-0.9-2.4-1.5s-1.4-1.2-2.1-1.7c-0.3-0.2-0.6-0.3-1-0.4c-0.2,0-1.1,0.1-1.1,0.1c-0.2-0.1,2-1.3,2.1-1.3
		c0.7-0.3,1.5-0.4,2.3-0.3c0.9,0.1,1.6,0.7,2.5,1c-0.5-0.9-0.7-2-0.5-3c0.1-0.5,0.2-1,0.3-1.5c-0.4-0.1-0.7-0.6-0.8-0.9
		c-0.6-1-0.4-2.1,0.1-3.2c0.4-0.7,1.5-1.2,2.2-1.5c0.8-0.3,1.6-0.3,2.5-0.3c1.1,0,2.3,0,3.4,0c1,0,2-0.1,2.9-0.5
		c1-0.4,1.8-1.2,2.8-1.8c1.8-1,4.1-0.7,6.1-0.8c2.2-0.1,3.9-1.2,5.9-2c1-0.4,2-0.6,3-0.6c1.1,0,2.2-0.4,3.2-0.2
		c0.5,0.1,1.1,0.2,1.5,0.5c0.5,0.3-0.2,0.7-0.4,1c-0.8,1-0.9,2.2-0.9,3.4c0.4-0.5,1-2.6,1.7-2.3c0.4,0.1,0.3,0.5,0.2,0.8
		c-0.2,0.6,0.1,1.1,0.1,1.7c1.8-1,4-1.1,6.1-1.1c1,0,2,0.2,3,0c1-0.2,2-0.6,2.9-1.1c0.7-0.4,1.5-0.8,2.3-1.1c0.7-0.5,1.5-0.9,2.4-1
		c0.7-0.1,2-0.6,2.7-0.4c0.5,0.2,0.2,2.4,0,2.8c0.7-0.3,3.9-1.5,4-0.2c0.1,0.6-0.6,1.1-0.9,1.6c-0.4,0.7-0.4,1.6-0.2,2.4
		c0.4,1.8,1.3,3.6,0.7,5.4c-0.1,0.4-0.3,0.8-0.5,1.2c-0.2,0.4-0.7,0.8-0.4,1.2c0.7,0.7,1.2,1.5,1.7,2.4c0.9,1.8,1,3.9,2.2,5.5
		c1.2,1.5,1.6,3.5,1.4,5.4c0,0.3,0,0.9-0.3,1c-0.3,0.1-0.6,0.2-0.9-0.1c-0.2-0.3,0.1-0.8,0.1-1.1s-0.1-0.7-0.3-1
		c-0.8-1.3-2.8-1.9-4.1-2.3c1.2,1.5,1.1,3.4,1.1,5.2c0,1,0.1,4.6,2,3.8c0.2-0.1,0.3-0.3,0.6-0.3s0.5,0.4,0.4,0.7
		c-0.3,0.7-0.9,1.2-1.5,1.5c-1.3,0.6-2.9,0.4-4.1-0.4c-0.7,1.4-0.4,2.8-0.1,4.2c0.4,1.6,0.6,3.1,0.5,4.7c-0.1,1.2-1.5,0.7-2.4,0.6
		c-1.3-0.3-2.3-1.3-2.8-2.5c-0.1,1.4-0.7,2.6-1.7,3.5c-1,0.9-2.4,1.9-2.2,3.5c0,0.4,0.6,1.3-0.3,1.3c-0.4,0-1.2-0.5-1.5-0.8
		c-1.1-0.9-1.6-2.7-1.2-4.1c-0.7,0.5-1.3,0.7-1.6,1.6c-0.2,0.5-0.2,1-0.1,1.5c0.2,2.3,2,4.2,3.2,6.1c1.4,2.2,2.2,4.5,2.9,6.9
		c0.4,1.3,0.8,2.6,1,3.9c0.2,1.4,0.2,2.8,0.3,4.3c0.9-1.2,2.1-0.5,3.2,0c1.2,0.5,2.2,1.1,3.1,2c1.7,1.7,3.2,3.7,5.4,4.7
		c2.4,1.1,4.8,2.3,7,0.2c1.5-1.4,2.7-4.5,2.1-6.5c-0.9-3.8-2.7-7.8-5.6-10.5c-1.8-1.6-3.7-3-4.9-5.2c-1.2-2.2-1.4-5.1-0.8-7.5
		c0.4-1.5,1.3-3,2.5-4c0.7-0.6,0.7-1.4,1-2.2c0.3-0.7,0.7-1.3,1.2-1.9c2-2.2,6.7-2.8,6.5-6.5c-0.1-1.8-1.1-3.5-1.1-5.3
		c0-0.9,0.3-1.8,0.7-2.7c0.1-0.3,0.3-0.6,0.5-0.8c0.1-0.1,0.6-0.3,0.6-0.3c0.3,0-0.1,0.7-0.1,0.9c-0.1,0.5,0,1,0.1,1.5
		c0.4,1,1.1,1.7,1.7,2.6c1.1,1.6,1.2,3.5,0.8,5.3c1.3-2,0-4.3-0.4-6.3c-0.5-2.2-0.9-4.8,0.7-6.7c1.4-1.8,4.1-1.9,5.2-4
		c1.1-1.9,0.4-4.3,1.7-6.2c0.5-0.8,1.3-1.3,2.1-1.7c0.2-0.1,0.6-0.2,0.8,0c0.3,0.3-0.4,0.6-0.6,0.8c-1.4,2.2,0.5,4.5,0.4,6.7
		c0,1.1-0.5,2.2-1.1,3.1c-0.6,1-1.6,1.5-2.3,2.4c-0.7,0.9-1.4,1.9-1.4,3.1c0,1.1,0.5,2.5,0.9,3.5c0-2.1,0.5-3.6,2.2-5
		c0.4-0.3,0.9-0.5,1.3-0.8c0.4-0.2,0.1,0.3,0,0.4c-0.7,0.7-0.6,2.1-0.5,3.1c0.1,1.2,0.6,2.3,1.1,3.4c0.6,1.3,0.8,2.7,1.1,4.1
		c0.5,2.6-0.5,5.2-1.8,7.4c-2.5,4.2-7.1,5.9-11.8,5.6c-2.1-0.1-5.8-0.9-7.2,1.2c-1.3,2-0.5,4.7,1,6.3c1.2,1.3,2.8,2.1,4.1,3.2
		c1.4,1.2,2.5,2.5,3.6,4c2.1,3.2,3.2,7.7,2.8,11.5c-0.4,3.6-2,6.3-4.6,8.7c-0.7,0.6-1.6,1.1-2.5,1.4c-0.9,0.3-1.8,0.4-2.7,0.9
		c-1.6,0.9-3.7-0.1-4.9-1.1c-0.1,0.2-0.2,0.3-0.3,0.5c0.1,0.3,0,0.5-0.1,0.7c-0.2,0.3-0.4,0.5-0.7,0.6c-1.1,0.5-2.1,0.6-3.2,0
		c-0.9-0.5-1.6-1.2-2.2-2c-0.8-1-1.7-1.8-2.5-2.8c0,2.1,0.2,4.2-0.4,6.3c1.3,0,2.1-0.2,1.5,1.3c-0.5,1.2,0.5,1.8,1.7,1.8
		c2.2-0.1,4.9-1.3,6.7,0.6c0.8,0.9,0.5,1.9,0.5,3c0,0.6,0.1,1,0,1.6c-0.1,0.6,0,1.2,0.5,1.6c0.5,0.4,0.8,0.6,1.4,0.6
		c0.4,0,1.2,0,1.6,0.1c0.3,0.1,0.1,0.2,0.5,0.3c0.2,0,0.4,0.2,0.5,0.3c0.2,0.4-0.1,1.1-0.3,1.5c-0.2,0.5-0.6,0.8-1.1,1
		c-0.3,0.1-0.5,0.1-0.8,0.1c0,0.3-0.1,0.6-0.1,0.9c0,1,0.4,2.2,1,3c0.3,0.3,1,0.6,1.1,1c0.1,0.4-0.3,1-0.6,1.2
		c-0.5,0.3-0.8,0.8-1.2,1.2c-0.1,0.2-0.3,0.5-0.5,0.6c-0.3,0.2-0.5,0.1-0.4,0.5c0.4,1.1,0.6,2.2,0.4,3.4c-0.1,0.6-0.4,1.2-0.7,1.7
		c-0.2,0.3-0.2,0.4-0.6,0.5c-0.4,0.1-0.3,0.3-0.3,0.6c-0.1,0.6-0.3,1.1-0.7,1.5c-0.2,0.2-0.6,0.8-0.9,0.9c-0.9,0.3-0.7-1.5-1-2
		c0,1.5,0.5,2.6-0.5,3.9c-0.4,0.5-1,0.8-1.6,0.9c-0.4,0-0.7,0-1.1-0.2c-0.2,0.3-0.6,0.5-0.9,0.6c-0.6,0.3-1.1,0.7-1.5,1.3
		c-0.3,0.4-0.5,1.5-1,1.5s-0.6-0.7-0.7-1.1c-0.1-0.4-0.1-0.8-0.3-1.2c-0.1-0.5-0.2-0.5-0.5-0.9c-0.5,0.6-1,1.1-1.7,1.2
		c-0.4,0.1-0.6,0.1-1-0.1c-0.4-0.2-0.4,0.3-0.8,0.5c-0.6,0.4-1.4,0.5-1.9,1.1c-0.4,0.3-0.6,0.8-0.8,1.3c-0.2,0.4-0.1,2-0.6,2.1
		c-0.8,0.3-1-0.6-1.1-1.2c-0.3-1.6-0.6-3.8,0.1-5.3c-0.8,0.2-1.3-0.1-1.9-0.6c-0.6,0.5-1.5,0.5-2.2,1c-0.6,0.4-0.9,1-1,1.7
		c-0.1,0.6-0.3,1.3-0.7,0.4c-0.3-0.6-0.3-1.7-0.4-2.3c-0.1-0.9,0.1-1.7,0.4-2.5c0.3-0.7,0.8-1.3,1.3-1.7c-0.1-0.9,0.4-1.9,0.8-2.6
		c-0.8,0-2.6,0.2-3,1c-0.1,0.2-0.6,1-0.8,0.3c-0.1-0.4,0.3-1.2,0.4-1.6c0.3-1.1,0.7-2.3,1.4-3.2c0.4-0.5,2.5-2.4,3-1.1
		c0.9-1.6,2.4-3,4.3-2.2c0.8,0.3,1.4,0.9,2.1,1.6c0.3,0.3,0.6,0.6,1,0.8c0.5,0.3,0.5,0.3,0.7-0.2c0.4-0.6,0-2.1,0-2.9
		c0-1-0.2-1.9-0.6-2.8c-0.7-1.9-2.2-3.3-3.2-4.9c-0.5-0.9-1-1.4-2-1.9c-0.9-0.5-2-0.7-3-1c-1.8-0.5-3.6-1.1-5.2-2.2
		c-3.2-2.3-5.2-5.8-4.7-9.9c-0.8,2.2-2.6,3-4.8,3c0.7,1.4,1.1,2.6,0.7,4.3c-0.4,1.9-1.6,3.5-3.6,3.8c1.3,2.5-0.1,5.3-1.4,7.4
		c-0.2,0.4-2.1,2.6-2.5,2.2c-0.2-0.2,0.1-1.2,0.1-1.6c-0.1-0.6-0.4-1.2-0.8-1.7c0.1,1.8-0.9,3.9-2.1,5.3c-0.4,0.5-0.9,0.8-1.4,1.2
		c-0.3,0.2-0.7,0.3-1.1,0.3c-0.1,0.2-0.4,0.3-0.6,0.3c-0.7-0.1-0.5-0.7-0.3-1.2c0.2-0.7-0.1-1.2-0.4-1.8c-0.5,1.6-2,2.8-3.6,3.2
		c-0.9,0.1-1.6,0.2-2.5-0.2c-0.4-0.2-0.9-0.5-1.2-0.1c-0.3,0.3-0.7,0.6-1.1,0.7c-1.1,0.3-1.6,0.5-1.8,1.7c-0.1,0.3,0,1.1-0.5,0.9
		c-0.3,0-0.6-0.5-0.7-0.7c-0.9-1.4-1.3-3-1.1-4.6c-0.6,0-1.2-0.3-1.6-0.8c-0.3,0.3-0.6,0.3-1,0.4c-0.5,0.1-0.8,0.2-1.2,0.5
		c-0.6,0.4-1.4,0.7-1.7,1.4c-0.1,0.3-0.4,0.5-0.4,0.9c0,0.3-0.5,0.3-0.5,0c0-0.6-0.5-1.5-0.7-2.1c-0.3-0.9-0.3-1.9-0.1-2.8
		c0.1-0.4,0.3-0.8,0.5-1.1c0.2-0.4,0-0.7,0-1.2c0-0.4,0.1-0.7,0.2-1.1s0.5-0.8,0.1-1.1c-0.3-0.3-0.4,0-0.8,0
		c-0.4,0.1-0.7,0.2-1.1,0.4c-0.7,0.3-1.5,0.5-2,1.1c-0.2,0.2-0.3,0.7-0.5,0.8c-0.2,0.1-0.5-0.2-0.5-0.4c0-0.9-0.1-1.7-0.1-2.6
		c0-1.5,1.2-3.1,2.5-3.8c0.6-0.4,1.7-0.4,2-0.9c-0.2-1,0-1.6,0.4-2.5c-0.7-0.2-1.6-0.2-2.3,0c-0.2,0-1.3,0.5-1-0.1
		c0.3-0.6,0.6-1.1,1.1-1.5c0.9-0.7,2-1.3,3.1-1.5c0.6-0.1,1.2-0.1,1.8-0.1c0.2,0,0.4,0.1,0.5,0.3c0.4-0.2,0.7-0.4,1.1-0.5
		c1.1-0.4,2.5-0.3,3.5,0.2s1.5,1.5,2,2.5c0.6,1,1.4,1.5,2.5,1.9c1.1,0.1,2.2-0.7,3-1.4c1.8-1.5,2.8-4.3,3-6.5
		c0.2-2.7-0.1-5.4-0.3-8.1c-0.1-1.1-0.2-2.5,0.2-3.6c0.4-1.2,1.2-2.4,2-3.4c1.5-1.7,3.7-2.5,6-2.4c1.8,0.1,3.5,0.8,5.3,1.3
		c0.8,0.2,1.6,0.4,2.4,0.3c0.6,0,1.9-0.3,2.2-0.8c-1.7-0.2-3.5,0.1-5.1-0.8c-0.6-0.3-1.1-0.9-1.6-1.4c-0.6-0.7-1.3-1.4-1.6-2.3
		c-0.2,0.8-0.4,1.7-1,2.3c-0.3,0.3-1.8,1.6-2,0.8c-0.1-0.3,0-0.8,0-1.2s-0.1-0.9-0.3-1.3c-0.4-0.9-1.1-1.7-1.9-2.2
		c-0.3,0.9-0.8,1.7-1.6,2.4c-1,0.9-2.1,1-3.2,1.5c-0.5,0.3-0.7,0.2-1,0.7c-0.3,0.4-0.7,0.8-1.1,1.1c-0.4,0.2-2.1,1.1-2.4,0.5
		c-0.4,0.6-0.9,1.1-1.5,1.5c-0.5,0.4-1.3,1.2-2,1.4c-0.4,0.1-0.6,0.3-0.9,0.5c-0.4,0.2-0.8,0.3-1.1,0.5c-0.7,0.4-0.4-1.2-0.4-1.4
		c-0.6,1.5-1.5,2.8-3.1,3.4c-0.2,0.1-1.7,0.6-1.3-0.3c0.1-0.2,0.4-0.4,0.5-0.7c0.1-0.3,0.2-0.6,0.2-0.9c-0.6,0.8-4.2,2.9-4,0.7
		c-0.7,1.4-2.3,1.7-3.6,1.1c-0.4-0.2-0.8-0.4-1.1-0.6c-0.4-0.3-0.6,0.1-0.9,0.4c-0.6,0.5-1.2,1.2-1.5,2c-0.1,0.3-0.1,1.7-0.2,1.7
		c-0.2,0-0.9-0.3-0.9-0.6c-0.8-1.1-1.2-2.5-1.1-3.9c-0.7,0.2-1.5,0.2-2.1-0.1c-0.3-0.2-0.6-0.3-0.9-0.6c-0.4-0.3-0.3-0.4-0.8-0.2
		c-1.4,0.4-2.8,1.6-2.8,3.1c0,0.6-0.4-0.3-0.4-0.3c-0.1-0.4-0.3-0.8-0.3-1.2c-0.1-0.7-0.1-1.6,0-2.3c0.3-1.4,1.5-2.8,2.7-3.5
		c-1.1,0-1-1.9-0.8-2.6c-0.4,0.1-0.9,1.1-1.2,0.9c-0.4-0.3-0.3-1.2-0.2-1.6c0.3-1.3,1.9-2.2,3-2.6c0.8-0.3,1-0.6,1.6-1.2
		c0.5-0.5,1.3-0.9,2-1.1c1.1-0.3,2.8-0.4,3.9-0.1c1.3,0.3,2.5,1.2,3.9,1.4c1.4,0.2,2.7-0.7,3.9-1.3c0.6-0.3,1.2-0.4,1.7-0.9
		c0.6-0.6,1.1-1.2,1.6-1.9c0.8-1.1,1.7-2.3,2.8-3.2c-0.8,0.5-1.5,1.2-2.4,1.6c-1,0.5-2.1,0.6-3.2,0.4c-2-0.3-4.3-1.2-6.3-0.2
		c-0.3,0.2-0.7-0.2-0.5-0.5c0.3-0.5,0.7-0.9,1.1-1.2c0.8-0.7,1.7-1.2,2.8-1.5c1-0.3,2.1-0.4,3.1-0.7c1-0.4,1.5-1.1,2-2
		c-1-0.2-2.1,0-3.1-0.3c-1.2-0.4-2.2-1.3-3.3-1.8c-0.6-0.3-1.1-0.5-1.7-0.7c-0.3-0.1-1.6-0.1-1.7-0.3c-0.2-1,2.5-2.1,3.3-2.4
		c-1.3,0.1-2.6,0.1-3.8-0.5c-0.6-0.3-1.1-0.7-1.5-1.1c-0.4-0.4,0.2-0.8,0.5-1.1c-1,0.3-2.4,0.3-3.2-0.5
		C-720,516.9-721.8,515.6-721,515.2 M-709.3,567.1c0.3-0.1,0.6,0,0.7,0.2c0.3,0.1,0.7,0.1,1,0.1c0.4-0.1,0.7-0.3,0.9-0.7
		c0.2-0.4,0-0.4,0-0.8c-0.1,0.1-0.2,0.1-0.3,0c-0.2-0.2-0.4-0.2-0.7-0.2c-0.5,0-1,0-1.5,0.1c-1.1,0.2-2.1,0.8-2.9,1.5
		C-711.4,566.8-710,566.9-709.3,567.1 M-709.9,574.3c0.3-0.5,0.3-1.5-0.3-1.9c-0.6-0.3-1.3,0.2-1.8,0.6c-1.1,0.9-2,2.7-2,4.1
		c0.3-0.8,0.9-1.4,1.6-1.9C-711.9,574.9-710.6,574-709.9,574.3 M-709.4,583.5c0.5-0.9,1.6-2.1,2.8-2.1c1.5-0.1,1.8-1.6,1-2.7
		c-0.9-1.3-2.2,0.2-2.9,1C-709.6,580.9-709.7,581.9-709.4,583.5 M-701.6,586.6c0.1-0.9,0.8-1.8,1.6-2.3c0.4-0.2,1-0.3,1-0.8
		c0-0.4-0.2-1.2-0.4-1.5c-0.3-0.4-0.7-0.7-1.2-0.5c-0.6,0.2-1.1,0.9-1.4,1.5C-702.5,584-702.1,585.6-701.6,586.6 M-662,589.4
		c0-0.5,0.3-1,0.1-1.5c-0.2-0.7-0.6-1-1.2-0.6c-1.2,0.7-1.6,1.9-2.5,2.9C-664.5,589.3-663.2,589.3-662,589.4 M-664.8,598.8
		c0.3-1,0.8-1.8,1.7-2.3c0.4-0.2,1.2-0.1,1.5-0.6c0.3-0.5,0-1.2-0.4-1.5c-0.3-0.3-0.4-0.5-0.8-0.4c-0.1,0.3-0.4,0.2-0.6,0.4
		c-0.2,0.2-0.4,0.5-0.5,0.7C-664.6,596.3-665,597.5-664.8,598.8 M-658.4,601.8c0.2-0.8,0.7-1.7,1.4-2.1c0.8-0.6,2.2-1.3,1-2.4
		c-0.9-0.8-1.8,0.1-2.2,1C-658.7,599.3-658.6,600.7-658.4,601.8 M-649.9,599.1c0.3-0.5,0.7-0.8,1.1-1.2c0.3-0.3,0.8-0.4,1.1-0.7
		c0.5-0.6,0-1.8-0.4-2.4c-0.3,0.3-0.7,0.4-1.1,0.6c-0.4,0.3-0.8,0.7-0.9,1.2c-0.2,0.5,0.2,0.6,0.1,1.1c-0.1,0.3-0.2,0.3-0.1,0.6
		C-650.1,598.6-650,598.8-649.9,599.1 M-692.6,497.2c1.2-0.8-0.4-2.4-1.3-2.6c-1.6-0.3-2.8,1.2-4.4,1.2c-1.2,0-2.5-0.2-3.6-0.8
		c-1.3-0.8-2.6-0.8-4.1-0.4c2.4,0.6,3.7,3.2,6.3,3.3c1.2,0.1,2.5-0.3,3.7-0.6C-695.2,497-693.4,496.2-692.6,497.2 M-725.2,540.9
		c0.9-0.6,1.7-0.3,2.6-0.3c0.9,0,1.3-0.7,1.5-1.4c-0.3-0.1-0.4-0.4-0.7-0.4c-0.5,0-0.9,0.3-1.3,0.5
		C-724,539.6-724.8,540.1-725.2,540.9 M-725.8,549.5c0.5-1,1.4-1.8,2.5-2.1c0.5-0.1,1.1-0.3,1.4-0.8c0.1-0.4,0.1-1.1-0.3-1.3
		c-0.7-0.4-2,0.7-2.5,1.2C-725.6,547.2-725.8,548.4-725.8,549.5 M-717.8,551.8c0.4-1,1.1-1.8,1.8-2.6s0.7-1.6-0.1-2.3
		c-0.5-0.4-1.6,1.2-1.7,1.6C-718.2,549.6-718.1,550.8-717.8,551.8 M-717.5,546c0.4-1.3,0.9-2.3,1.6-3.5c0.8-1.3,2.2-2.8,3.7-3.1
		c-1.5-1.4-3.9-0.4-5.2,0.7c-0.8,0.6-1.6,1.1-2.3,1.9c-0.5,0.7-1,1.7-1.8,2.2c1.2,0.8,0.9,2.5,0,3.4c0.6,0.3,1.5,0.5,2.1,0.2
		C-718.4,547.5-718.2,546.6-717.5,546 M-718,494.7c0.3,0.6,0.5,1.2,1.1,1.6c0.4,0.3,1.9,0.8,2.2,0.2c0.2-0.5-0.5-1.2-0.9-1.4
		C-716.4,494.6-717.2,494.6-718,494.7 M-724.5,498.3c0.9,0.3,1.6,0.9,2.2,1.6c0.5,0.6,1.1,1.3,1.9,0.5c0.7-0.7-0.4-1.6-1.1-1.8
		C-722.3,498.3-723.6,498-724.5,498.3 M-727.7,506.4c0.9-0.3,2-0.2,2.8,0.4c0.7,0.4,1.6,1,1.8-0.2c0.1-0.7-1.3-1.3-1.9-1.4
		C-726.1,505.1-727,505.8-727.7,506.4 M-722.3,501.3c-0.2,0.5-0.3,1-0.4,1.4c-0.2,0.7,0.5,1,0.4,1.6c1.7-0.5,3.5-0.7,5.3-0.7
		c2,0,3.3,0.9,3.8,2.9c0-0.4,0-0.8-0.2-1.2c-0.2-0.5,0-1.1-0.2-1.7c-0.3-1.5-1.5-1.7-2.7-2.2c-0.6-0.2-1.1-0.5-1.7-0.7
		c-0.3-0.1-0.6-0.2-0.9-0.4c-0.5-0.3-0.4,0.1-0.6,0.4C-719.9,501.9-721.4,502-722.3,501.3 M-725.3,512.1c0.8-0.1,1.4,0.4,2.2,0.7
		c1.1,0.5,1.3-0.3,1.7-1.1c0.4-0.7-1-1-1.6-0.9C-723.8,511-724.7,511.6-725.3,512.1 M-721.5,509.9c0.6-0.2,1-0.7,1.5-1.1
		c0.5-0.4,1.2-0.6,1.8-1c1.1-0.7,2.7-1,3.8-0.3c-0.1-0.6-0.1-1.4-0.6-1.9s-1.5-0.7-2.2-0.8c-1.7-0.2-3.5,0-5.2,0
		c0.7,0.6,0.7,1.8,0.4,2.6c-0.2,0.4-0.8,0.7-0.5,1.1C-722.3,509-721.9,509.7-721.5,509.9 M-648.1,502.5c0.3,0.6,0.9,1,1.2,1.5
		c0.4,0.6,0.7,1.4,0.7,2.1c0,1.6-0.4,3.1,0.2,4.6c0.1,0.2,0.5,0.7,0.2,0.8c-0.3,0.2-0.5-0.5-0.6-0.6c-0.4-0.7-0.8-1.4-0.8-2.1
		c-0.2-1.6,0-3.3-1.1-4.6c-0.1,1.1-0.3,2.2-0.5,3.3c-0.2,1.1,0.2,2,0.8,2.9c1,1.4,2.8,3,4.6,2.2c-2.4-0.6-2-3.7-2.2-5.6
		c-0.1-1.1,0.1-2.1-0.5-3.1c-0.5-1-1.2-1.7-2.1-2.4C-648.3,502-648.3,502.2-648.1,502.5 M-653.8,517.3c0,1-0.2,1.9-0.7,2.7
		c-0.5,0.7-1.3,1.3-1.8,2c-0.6,0.8-1.1,1.9-1.3,2.9c-0.1,0.6,0.2,1.6,0.7,1.9c0-1.4,0.8-2.8,1.8-3.6c0.9-0.7,2.1-1.4,2.6-2.5
		c0.2-0.5,0.2-1,0.2-1.5c-0.1-0.2-0.1-1.4,0.1-1.5c0.2-0.1,1.1,2.6,1.3,2.9c0.5,1,1.3,1.6,2.4,1.6c0.7,0,0.9,0.2,0.9-0.7
		c0-0.7-0.1-1.3-0.3-1.9c-0.4-1.2-0.9-2.4-1-3.8c0-0.8-0.1-2.9,0.8-3.4c-0.4-0.4-0.7-0.9-0.9-1.4c0,3.2-1.5,6.4,0.2,9.4
		c0.1,0.3-0.2,0.1-0.3,0.1c-0.3-0.2-0.5-0.4-0.6-0.7c-0.4-0.7-0.7-1.5-0.8-2.3c-0.3-1.6,0.1-3.2,0.2-4.8
		C-651.2,514.4-652.3,516-653.8,517.3 M-686.3,579.6c0,0.1,0,0.1-0.1,0.2L-686.3,579.6z M-698.9,515.5c1.3,0.1,2.6,0,3.9-0.4
		c-0.3,0-0.5-0.5-0.3-0.7c0.2-0.2,0.4-0.3,0.6-0.5c-0.3-0.1-0.7-0.6-1-0.7c-0.6-0.3-1.2-0.6-1.8-0.6c-0.7-0.1-1.4,0.2-2.2,0.2
		c-0.7,0-1.3-0.2-1.9-0.5c-1.2-0.6-2.4-1.4-3.8-1.6c-1.3-0.2-2.6,0.1-3.8-0.6c-1.1-0.6-1.9-1.8-1.7-3.1c0.2-1.4,0.3-2.8,0.5-4.2
		c0.2-1.2,0.3-2.7-0.3-3.8c-0.6-1.1-1.9-1.8-3.1-2.3c0.3,0.7-0.4,1.1-1,1.2c-0.8,0.1-1.6-0.1-2.2-0.5c-0.6,0.7,0.2,1.7-0.2,2.3
		c1,0.4,2.1,0.6,3.1,1.1c1,0.4,1.3,1.3,1.7,2.2c0.2,0.4,0.2,0.9,0.2,1.4c-0.1,0.6-0.1,0.9,0,1.5c0,0.4,0.1,1.4-0.2,1.7
		c-0.2,0.3-0.2-0.1-0.4,0.3c-0.1,0.2-0.3,0.3-0.5,0.4c0.2,0.4,0.6,0.7,0.7,1.2c0.1,0.6,0,1.3,0.1,1.9c0,0.2-0.2,0.3-0.3,0.2
		c-0.2-0.1-0.2-0.5-0.2-0.7c-0.2-0.6-0.6-1-1-1.5c-0.8-1.1-1.8-1.3-2.9-0.5c-1,0.8-2.4,1.3-3.5,1.5c0.2,0.2,0.5,0.5,0.5,0.9
		c-0.1,0.2-0.1,0.4,0.1,0.5c0.1,0.2,0.1,0.3,0.1,0.5c-0.1,0.6-0.5,1.2-1,1.6c0.3,0.4,0.6,0.6,1.1,0.7c0.2,0,0.4,0.1,0.5,0.2
		c0.3,0.3,0.2,0.1,0.5,0.2c1.1,0.5-0.5,1.2-1,1.2c0.7,0.4,1.5,0.6,2.3,0.6c0.4,0,0.7-0.1,1-0.2c0.3-0.2,0.5-0.5,0.9-0.5
		c0.5-0.6,0.9,0.2,0.8,0.6c-0.2,0.9-0.4,1.3-1.2,1.9c1.5,0.4,3.1,0.2,4.7,0.5c0.6,0.1,1.1,0.4,1.8,0.4c0.5,0,1.1,0.1,1.6,0.2
		c0.4,0.1,0.8,0.1,0.4,0.5c-0.5,0.5-1.1,0.8-1.8,0.9c-1.6,0.2-2.8,0.3-4.2,1.2c2.2-0.2,4,1.8,6.2,2c-0.6-0.6,0.9-0.8,1.2-0.9
		c0.6-0.4,1-1.1,1.3-1.8c-0.4,0.1-3.2,0.7-3-0.1c0.1-0.4,1.1-0.3,1.5-0.4c0.6-0.2,1.1-0.5,1.6-0.9c-0.8-0.8-2.3-0.9-3.3-1.3
		c-0.2-0.1-0.8-0.3-0.5-0.6c0.4-0.5,1.7-0.3,2.2-0.4c0.6-0.2,1.1-0.5,1.8-0.6c0.7-0.1,1.4,0.1,2.1,0.3c1.2,0.3,2.8,0.5,4,0
		c-0.7,0-1.4-0.1-2.1-0.4c-0.3-0.1-0.6-0.3-0.9-0.4c-0.1-0.1-0.5-0.6-0.2-0.4c1.5,0.9,3.1,0.3,4.6-0.1c-0.5-0.1-1-0.2-1.5-0.2
		c-0.2,0-0.5,0-0.6-0.2C-699.2,515.6-699.1,515.5-698.9,515.5 M-694.5,580.4c0,0.7-0.1,1.4-0.3,2c0.4-0.4,0.8-1.4,0.9-2
		c0.1-0.5-0.3-1.8,0.4-1.8c1.3-0.1,0.5,3.9-0.2,4.4c0.5-0.2,1.1-0.5,1.5-0.9c0.3-0.4,0.3-1.3,0.9-1.4c-0.4-0.7-0.9-1.3-0.9-2.2
		c0-0.7,0.6-1.2,0.5-0.3c0,0.6,0.6,1.1,1,1.5c0.5,0.5,1,1.2,1.2,1.8c0.1-0.8-0.2-1.5-0.3-2.3c0-0.4-0.1-0.8-0.2-1.2
		c-0.1-0.3,0.3-0.4,0.4-0.2c0.6,1.6,1.5,2.9,1.4,4.7c1.4-1.2,2.2-3.2,2.3-5c0-0.5-0.3-1.3,0.4-1.5c0.6-0.2,1.2-0.3,1.7,0.2
		c1.1,1,0.8,2.6,0.6,3.9c1.5-1.7,2.4-3.8,2.1-6.1c-0.1-0.9-0.2-1.8-0.5-2.6c-0.2-0.4-0.7-1.2-0.1-1.5c0.5-0.2,1.3-0.1,1.9-0.2
		c0.9-0.2,1.7-0.9,2-1.8c0.3-1.1,0.6-2.2,0-3.2c-0.2-0.4-0.5-0.8-0.8-1.1c-0.4-0.4-1-0.7-0.7-1.3c-0.8,0.7-2,1.1-2.5,2.2
		c1.1-0.2,0.9,1.3,0.7,1.9c-0.3,1-1.5,0.2-1.7-0.5c-0.3-0.8,0-1.8,0.5-2.5c0.6-0.7,1.6-0.9,2.4-1.4c0.6-0.4,0-0.5,0.3-1
		c0.2-0.3,0.6-0.2,0.8,0c0.6,0.6,1.6,0.9,2.5,0.8c2-0.2,3.5-1.6,3.8-3.6c-0.3-0.1-0.6,0.2-0.9,0.2c-0.4,0.1-0.9,0.2-1.3,0
		c-0.8-0.2-1.6-0.8-2-1.6c-0.5,1.2-1.5,1.7-2.5,2.4c-0.5,0.3-2.1,2-2.7,1.5c-0.7-0.5,1.5-1.9,1.8-2.3c0.7-1,1.4-2.3,1.3-3.5
		c0-1.3,0-2.5-0.3-3.8c-0.1-0.6-0.3-1.1-0.6-1.6c-0.1-0.3-0.3-0.6-0.4-0.9c-0.1-0.3,0.3-0.4,0.4-0.2c0.6,1.1,1.2,2,1.5,3.3
		c0.1,0.6,0.3,1.2,0.4,1.8c0.1,0.7,0.1,1.4,0.3,2c0.6-1.6,0.9-3.4,0.2-5.1c0-0.1-0.6-0.8-0.2-0.9c0.2,0,0.6,0.8,0.7,1
		c0.4,0.8,0.7,1.6,0.8,2.5c0.1-0.6,0.1-1.3,0-1.9c0-0.3-0.4-1.9-0.2-1.9c0.2,0,0.6,1.5,0.7,1.8c0.3,0.7,0.6,1.4,0.9,2.1
		c-0.1-0.7-0.2-1.4-0.4-2.1c0-0.2,0.2-0.4,0.4-0.2s0.2,0.8,0.4,1c0.6,1.4,1,2.7,1,4.3c0.4-1.5,0.3-3.3,0.1-4.8c0-0.2-0.3-0.8,0-1
		c0.3-0.2,0.4,0.3,0.5,0.5c0.3,0.9,0.5,1.7,0.6,2.7c0-0.7,0.1-1.3,0.1-2c0-0.4-0.4-2.6-0.3-2.6c0.6-0.3,1.5,3.1,1.5,3.5
		c0-0.3,0.3-3,0.5-3c0.2,0.1,0.7,1.8,0.8,2.1c0.6-1.4,1.1-3.1,1.2-4.6c0-0.3-0.1-0.9,0.2-1c0.3-0.2,0.4,0.6,0.5,0.7
		c0.1,0.7,0.2,1.4,0.3,2.1c0.2-0.7,0.4-1.5,0.6-2.2c0-0.1,0.1-0.7,0.4-0.6c0.4,0.2,0.2,1,0.2,1.3c0,1,0.1,1.8-0.2,2.8
		c1.3-1.5,1.7-3.2,1.5-5.2c-0.1-1.2-0.5-2.4-1-3.4c-0.3-0.5-0.6-1-0.9-1.5c-0.1-0.1-0.4-0.4-0.1-0.6c0.3-0.2,0.6,0.4,0.7,0.6
		c0.7,0.9,1.6,1.7,2.1,2.7c0.6,1.2,0.7,2.6,0.8,3.9c0,2.8-1.9,4.7-3.5,6.7c-2.7,3.5-4.8,8.7-2.1,12.9c1.3,2,3.4,3.6,5.6,4.5
		c2.3,1,4.6,1.3,6.3,3.3c0.3,0.4,0.8,0.6,1.1,1c0.5,0.5,0.9,1,1.3,1.5c0.7,0.9,1.3,1.9,1.7,3c0.4,1.1,0.6,2.2,0.6,3.4
		c0,0.6,0,1.3,0,1.9c0,0.3,0,0.6,0,0.9s0.1,0.5,0.1,0.7c0,0.3,0,0.9-0.2,1.1c-0.4,0.4-1.2,0-1.6-0.2c-1-0.5-1.7-1.4-2.7-1.9
		s-2.2-0.7-3.2,0.1c-0.3,0.2-1.1,0.8-0.8,1.2c0.4,0.5,0.6,1,0.6,1.6c0.7-0.5,1.4-1.1,2.2-1.3c0.7-0.2,1.9-0.4,2.5,0
		c0.3,0.2,1.5,0.9,1.3,1.3c-0.3,0.7-1.3-0.6-1.6-0.7c-1.8-0.6-3.1,0.9-4.4,1.9c-1,0.8-1.7,1.9-2.1,3.2c0.6-0.3,0.6-0.1,1.2,0.1
		c0.5,0.2,0.9,0.8,1,1.2c0.2,0.5,0.2,1.1,0,1.7c-0.2,0.7,0.8,0.2,1.2,0.4c0.4-1.3,0.9-2.3,1.7-3.4c0.7-1,1.3-2.3,2.3-3.1
		c0.7-0.5,2.1-1,2.8-0.3c0.1,0.1,0.4,0.3,0.4,0.5s-0.2,0.4-0.4,0.2c-0.5-0.3-1.2-0.2-1.8,0.1c-1,0.5-1.5,1.8-2.1,2.6
		c-0.8,1.1-1.6,2.2-2,3.5c0.6-0.5,1.6-1.1,2.3-0.7c1,0.4,1.6,1.5,1.7,2.5c0.9,0.3,1.9-0.5,2.4-1.1c-0.3-1.1-0.1-2.5,0-3.7
		c0.1-1.1,0.1-2.2,0.6-3.1c0.3-0.4,0.5-0.9,0.9-1.3c0.1-0.1,1-0.5,0.8,0.1c-0.1,0.3-0.7,0.4-0.8,0.7c-0.3,0.5-0.4,1-0.4,1.5
		c0,1.3,0.1,2.5,0.1,3.8c0.7-1.3,2.3-2,3.5-1.1c0.5,0.4,0.9,1,1,1.7c0.1,0.9,0,1.2,1,0.9c0.6-0.2,0.9-1,1.2-1.5
		c0.3-0.8,0.1-1.4,0-2.2c-0.1-0.4-0.1-1.3,0.6-1c0.2,0.1,0.3,0.5,0.5,0.7c0.3,0.4,0.7,0.8,0.9,1.4c1.3-1.5,0.5-4.6-0.3-6.2
		c-0.1-0.2-0.7-1-0.4-1.2s0.9,1,1,1.2c0.6,1.1,1.1,2.1,1.2,3.4c0.7-1.3,0.6-2.5,0.4-3.8c-0.1-0.3-0.2-0.7-0.3-1
		c-0.1-0.3-0.4-0.3-0.5-0.7c0-0.3,0.1-0.3,0-0.6c-0.2-0.3-0.4-0.7-0.5-1c-0.1-0.2-1-1.3-0.6-1.4c0.3,0,1.2,1.4,1.4,1.7
		c0.2,0.2,0.4,0.5,0.5,0.7c0.4-0.1,0.7-0.3,1-0.5c0.4-0.3,0.6-1,1.1-1.3c-0.8-0.7-1.2-1.7-1.6-2.6c-0.2-0.4-0.3-0.9-0.4-1.4
		c-0.1-0.5,0.3-1.4-0.2-1.6c-0.2-0.1-1-0.3-0.9-0.7c0.1-0.5,0.9,0.1,1.2,0.1c1,0.3,1.8-0.2,2.1-1.2c-1.7,0-4.1-0.2-4.3-2.5
		c-0.3-1.7,0.9-4.3-1.1-5.2c-1.8-0.8-4,0.3-5.8,0c-1-0.2-1.6-0.5-2-1.5c-0.2-0.4,0-1.1-0.4-1.2c-0.3,0-0.9,0-1.2-0.2
		c0,0.5,0,1.1-0.1,1.6c0,0.2-0.6,1.8-0.9,0.9c-0.1-0.3,0.2-0.8,0.2-1.1c0.1-0.5,0.1-0.9,0.1-1.4c0-0.9-0.1-1.8-0.2-2.7
		c-0.2,1.3-0.5,2.5-1.1,3.6c-0.3,0.6-0.7,1.2-1.2,1.8c-0.3,0.4-0.9,0.2-1-0.3c0-0.5,0.6-1.1,0.9-1.4c0.3-0.5,0.6-1,0.8-1.6
		c0.4-1.1,0.5-2.3,0.6-3.5c0-1.2,0-2.4-0.1-3.6c0-0.6,0-1.2,0-1.9c0-0.6-0.3-1.3-0.3-1.9c0-0.4,0.5-0.6,0.8-0.3
		c0.4,0.4,0.5,1.3,0.6,1.8c0.1,0.6,0.6,1.2,0.8,1.8c0.1,0.3,0.2,0.7,0.3,1c0.1,0.3,0.3,0.6,0.4,0.9c-0.1-0.8,0-1.6-0.2-2.4
		c-0.1-0.8-0.4-1.5-0.5-2.3c-0.1-0.4,0.2-1.3,0.7-0.7c0.4,0.5,0.9,1.5,0.9,2.1c0.2,1.7,2.4,3.1,3.5,4.3c0.9,1,2.3,2.3,3.7,1.7
		c-0.5-0.1-1-0.4-1.5-0.7c-0.1-0.1-1.2-0.8-0.4-0.9c0.4,0,1.1,0.6,1.6,0.7s1.2,0,1.5-0.5c-2.5-0.4-4.6-1.8-6.2-3.6
		c-0.9-1-1.7-2.1-2.4-3.3c-0.2-0.2-0.3-0.5-0.4-0.8c-0.1-0.2,0.1-0.8,0.2-0.4c0.2,0.7,0.9,1.3,1.3,1.9c1.5,2.1,3.5,3.6,6,4.4
		c1.2,0.4,2.8,0.9,4,0.4c0.4-0.2,0.9,0.2,0.9,0.6c0,0.7-1.1,0.8-1.6,0.9c0.6,0.4,1.3,0.6,2,0.6c0.8,0,1.2,0,1.8-0.7
		c0.2-0.2,0.4-0.4,0.5-0.6c0.2-0.2,0.3-0.7,0.5-0.9c0.7-0.5,0.2,1.2,0.2,1.3c4.7-2,7.8-6.4,7.6-11.6c-0.1-2.6-1-5.6-2.2-7.9
		c-1.2-2.4-3-4.3-5.2-5.7c-2.1-1.3-3.6-2.8-4.3-5.2c-0.3-1.1-0.2-2.7,0.4-3.7c0.3-0.5,0.5-1,0.9-1.5c0.5-0.5,1.2-0.8,1.8-1
		c2.5-0.9,5.2,0,7.8,0c2.2,0,4.5-0.9,6.3-2.2c2.7-2.1,4.6-6,3.9-9.4c-0.2-0.9-0.3-1.8-0.5-2.7c-0.3-0.9-0.8-1.8-1-2.7
		c-0.4-1.6-0.6-3.4,0.1-4.9c-1.9,1.5-1.6,3.8-1.6,5.9c0,1.4-0.5,2.5-1.2,3.7c-0.2,0.4-2.1,3.9-2.1,3.9c-0.3-0.1,0.9-2.9,1-3.2
		c0.4-1.2,0.5-2.4,0.4-3.7c-0.2-2.5-1.9-5.1-0.8-7.6c0.5-1.1,1.4-2.2,2.3-3c0.9-0.7,1.8-1.4,2-2.6c0.2-1.2-0.3-2.5-0.4-3.7
		c-0.1-1.3-0.3-2.7,0.6-3.8c-1.5,1-1.9,3-2,4.7c-0.1,1.7-0.8,3.4-2.1,4.5c-1.4,1.2-3.4,1.6-4.3,3.4c-0.9,1.7-0.5,3.7-0.1,5.5
		c0.4,1.7,1.2,3.4,0.8,5.2c-0.2,0.9-0.6,1.7-1.2,2.3c-0.5,0.5-1.4,0.1-0.7-0.5c0.5-0.4,0.3-2,0.2-2.5c-0.2-0.9-0.6-1.8-1.1-2.6
		c-1.2-1.7-2.1-3.3-1.2-5.4c-1,2-1,4.1,0,6.1c0.9,1.8,1,4.2-0.4,5.8c-1.2,1.3-3.2,1.8-4.7,2.7c-1.4,0.9-2.4,2-2.9,3.7
		c0.4-0.2,0.2,0.5,0.1,0.7c-0.3,0.4-0.9,0.7-1.2,1c-0.8,0.8-1.6,1.8-1.9,2.9c-0.7,2.6-0.3,4.8,1,7.1c1.1,2.1,3.1,3.4,4.8,4.9
		c1.7,1.4,2.8,3.1,3.7,5.1c0.7,1.5,1.6,3.3,1.8,5c0.2,2.3-0.1,5.1-1.6,7c-1.6,2.1-4.2,3.1-6.7,2.2c-2.4-0.8-4.4-2.2-6.1-4.1
		c-1-1.1-1.8-2.4-3.1-3.1c-0.8-0.5-3.5-2-4-0.4c0,0.1-0.1,0.5-0.3,0.6c0,0.4,0,0.8,0,1.2c0,0.3,0.1,0.9-0.1,1.2
		c-0.2,0.2-0.6,0.1-0.5-0.2c0.1-1.8,0.1-3.6,0-5.4c-0.1-1.8-0.7-3.5-1.2-5.2c-0.6-1.8-1.1-3.5-2-5.2c-0.8-1.5-1.8-2.9-2.7-4.4
		c-0.9-1.5-2.2-2.9-2.6-4.7c-0.4,0.1-0.2,0.9-0.2,1.2c0,1,0.5,2.1,1.1,2.9c1,1.4,2.2,2.6,3.3,4c1,1.3,1.7,2.8,2,4.4
		c0.3,1.1,0.4,2.2,0.5,3.3c0,0.4,0.2,1.5-0.1,1.9c0.1-0.1-0.3-1.2-0.3-1.4c-0.1-0.6-0.3-1.2-0.5-1.8c0,0.4-0.1,0.9-0.1,1.3
		c-0.2-0.9-0.5-1.8-0.8-2.7c0,0.6-0.2,1.3-0.1,1.9c-0.2-0.9-0.4-1.9-0.7-2.8c0,0.4-0.3,1-0.2,1.3c-0.2-1.1-0.5-2.1-0.9-3.1
		c0.1,0.7-0.1,1.4,0,2.1c-0.4-1.7-0.9-3.9-2.1-5.2c-0.6-0.7-1.5-1.1-2.2-1.7c-0.9-0.7-1.5-1.6-2.1-2.5c-0.3-0.5-0.6-0.9-0.9-1.4
		c-0.1-0.2-0.2-0.4-0.2-0.6c-0.3,0-0.6,0.1-1,0.1c-1.1,0.1-2.1,0.1-3.2,0.3c-2.3,0.3-4.6,1.1-6.4,2.6c-1.5,1.2-2,3-1.5,4.8
		c0.6,2,2.2,3.3,3.7,4.6c0.1,0.1,1.1,0.7,0.7,0.9c-0.2,0.1-1.1-0.6-1.3-0.7c-1-0.4-1.9-0.9-2.6-1.7c-0.7-0.8-1.4-1.7-1.8-2.6
		c-0.2-0.5-0.4-0.9-0.5-1.4c-0.1-0.4,0-0.5-0.3-0.6c-0.2,0-0.5-0.2-0.6-0.4c-0.2,0.7-0.1,1.6,0.2,2.2c0.1,0.2,0.7,1.1,0.1,0.9
		c-1.3-0.5-1.5-2.7-1.2-3.9c-0.2,0.5-0.5,0.9-0.6,1.4c-0.1,0.6,0.2,1.5,0,2.1c0,0-0.5-0.8-0.6-0.9c-0.2-0.4-0.1-0.8-0.1-1.2
		c0.1-1.2,0.8-2.2,1.2-3.2c-1.5,1.4-2.8,2.7-4.6,3.6c-0.9,0.4-1.8,1-2.8,1.1c-0.3,0-0.8,0-0.7-0.4c0.1-0.4,0.5-0.3,0.8-0.5
		c0.8-0.5,1.7-0.9,2.4-1.5c0.8-0.6,1.5-1.3,2.2-1.9c1.5-1.3,2.2-3.3,4-4.2c-2.5,0.9-4.2,2.5-6.3,4c-1,0.7-2.1,1.2-3.4,1.4
		c-0.7,0.1-0.7-0.4,0-0.5c0.7-0.1,1.3-0.3,1.8-0.7c2.2-1.5,3.7-3.6,5.8-5.2c2.2-1.7,5.5-1.7,8.1-1.1c-2.1-1-4.2-2.2-6.6-1.1
		c-1,0.5-1.8,1.2-2.7,1.8c-1,0.6-2.3,1-3.5,1c-0.3,0-1.4,0.2-1.6-0.1c-0.2-0.5,0.9-0.4,1.1-0.5c1.1-0.2,2.4-0.6,3.4-1.1
		c0.9-0.5,1.7-1.3,2.6-1.8c1-0.6,2.1-0.9,3.2-0.8c2.2,0.2,4,1.6,6,2.1c2.3,0.6,4.8,0.5,7.1-0.1c2.1-0.6,4.1-1.5,6.2-2.1
		c1.2-0.3,4.5-1.9,4.5-3.5c-2.3,1.2-5,2.4-7.6,3c-1.2,0.3-2.5,0.5-3.8,0.5c-1.4,0-3,0-4.4-0.2c-2.7-0.5-5.2-1.5-7.9-2
		c-1.2-0.2-2.5-0.3-3.7,0c-0.6,0.1-1.2,0.3-1.7,0.5c-0.2,0.1-1.5,0.9-1.5,0.9c-0.3-0.3,2.1-1.9,2.4-2c1.3-0.4,2.6-0.7,3.9-0.5
		c2.6,0.3,5.1,1.3,7.7,1.7c1.3,0.2,2.5,0.1,3.7,0c1.4-0.1,2.8-0.1,4.3-0.4c2.4-0.5,4.9-1.6,7.1-2.8c4.4-2.2,6.8-6.6,7.4-11.4
		c0.2-1.4,0.2-2.8,0.4-4.2c0.2-1.3,0.4-2.7,0.5-4c0.1-1.3-0.1-2.6-0.2-3.9c-0.1-0.6-0.4-1.1-0.4-1.7c0-0.9,0.4-0.3,0.5,0.2
		c0.2,1,0.6,1.9,0.7,2.9s0.2,2,0.2,3.1c0.7-0.1,1.3-0.1,1.9,0c-0.6-0.9-0.7-2.3-0.8-3.3c-0.1-0.6-0.2-1.2-0.4-1.7
		c-0.3-0.9,0.2-0.2,0.4,0.2c0.6,1.1,1,2.2,1.3,3.4c0.2,0.6,0.6,1,0.9,1.5c0.2,0.3,0.8,1,0.8,1.4c0,0.7-2.3-0.4-2.7-0.4
		c-0.2,0-1.5-0.1-1.5,0.1c0,0.5-0.1,0.5,0.4,0.8c1.1,0.6,2.4,0.8,3.5,1.4c1.1,0.5,2.2,1.2,3,2.1c-0.2-1-0.6-1.9-1.2-2.7
		c-0.7-1-1-1.9-1.3-3.1c-0.2-1.1-0.5-2-1-3c-0.2-0.5-0.5-0.9-0.7-1.4c-0.1-0.3-0.3-0.5-0.5-0.7c-0.3-0.4-0.2-0.1-0.6-0.2
		c-1.1-0.2-0.6-1.3-0.3-1.9c0.4-1.1,0.6-1.9,0.6-3.1c-0.1-2-0.6-4.3,0.8-6c-1.6,0.1-4.2,0.6-5.2,2.1c-0.4,0.7-0.6,1.6-1,2.3
		c-0.3,0.5-0.6,0.9-1,1.2c-0.1,0.1-0.9,0.9-1,0.9c-0.4,0,1.1-1.8,1.2-1.9c0.6-0.9,0.6-2,0.9-2.9c0.2-0.5,0.6-0.9,0.6-1.3
		s0.1-0.9,0.4-1.2c0.3-0.3,0.6-0.4,0.9-0.6c0.4-0.3,0.1-0.7,0.3-1.1c-1.7,0.5-3.2,1.4-4.7,2.2c-1.8,0.9-3.4,1.7-5.5,1.7
		c-2,0-3.7,0-5.6,0.3c-1.9,0.3-3.3,1.7-5,2.3c-1.6,0.6-3.4,0.6-5.1,0.6c-0.8,0-2,0.2-2.7-0.1c-0.6-0.2-0.5-0.7,0.2-0.7
		c1.9,0,3.9,0,5.8-0.5c-0.1-0.7,1-1.6,1.2-2.3c0.3-0.8,0.4-1.7,0.8-2.5c-0.9,1-1.6,2.2-2.7,3.1c-0.5,0.4-1,0.7-1.6,0.9
		c-0.2,0.1-0.7,0.4-0.9,0.1c-0.2-0.2-0.1-0.5,0.1-0.5c1.3-0.4,2-1.4,2.8-2.4c0.5-0.6,2.4-3.1,3.3-2.7c-0.8-0.7-2.8,0.1-3.8,0.2
		c-1.5,0.1-2.8,0.7-4.2,1.4c-1.3,0.7-2.6,1.2-4.1,1.4c-1.5,0.2-3.1,0-4.6,0.1c-1.5,0.2-2.3,1-3.5,1.8c-1.3,0.8-2.6,1.2-4.1,1.2
		s-3-0.1-4.5-0.1c-1.3,0-2.4,0.5-3.7,0.7c0.6,0.1,0.1,0.8,0.1,1.1c0.3,0.4,0.5,0.8,1,0.9c-0.4-0.6,2.6-2.5,2.6-0.8
		c0,0.7-0.7,0.7-1.2,0.5c-0.4-0.1-0.6-0.1-0.8,0.2c-0.2,0.3,0,0.7-0.5,0.8c-0.6,0.1,0.3,1.1-0.4,1.5c0.1,0.9,0.5,1.8,0.8,2.6
		c0.3,0.8,0.5,1.5,1.4,1.9c1,0.4,1.9-0.2,2.7-0.5c0.3-0.1,0.6-0.2,0.9-0.3c0.2-0.1,0.3-0.4,0.5-0.5c0.5-0.4,1.3-0.8,2-0.6
		c0.1,0,0.7,0.3,0.6,0.6c0.3,0.1,0.7,0.2,1,0.5c0.5,0.6,0.7,1.8,0.7,2.6c0,1.8-1.2,3-2.2,4.3c-0.3,0.4-0.3,1.6-1,1.3
		c-0.7-0.3,0-1.7,0.3-2.1c-0.4-0.1-0.7-0.5-1-0.7c-0.5-0.2-1-0.3-1.6-0.2c-1.3,0.1-2.5,0.5-3.8,0.5c0.6,1.6-0.4,2.8-0.5,4.5
		c-0.1,1.6,0.6,2.9,1.9,3.8c0-0.3,0.4-1.9,0.9-1.8c0.3,0.1-0.1,0.6-0.1,0.7c0,0.4,0.1,0.7,0.3,1c0.1-0.4,1.3-2.8,1.8-2.6
		c0.3,0.2-0.3,1.2-0.4,1.5c-0.1,0.6-0.1,1.2,0,1.9c0-1.1,0.8-2.1,1.3-3c0.1-0.1,0.2-0.1,0.3-0.1c0.2,0.1,0,0.4-0.1,0.6
		c-0.3,0.5-0.4,1.1-0.3,1.7c0.3-0.5,0.8-0.9,1-1.5c0.1-0.2,0.5-0.1,0.4,0.1c-0.1,0.4-0.2,0.8-0.1,1.2c0.2-0.1,0.4-0.3,0.6-0.4
		c0.4-0.2,0.4-0.7,0.9-0.8c1.4-0.4,2.9-1.1,4.3-0.4c1,0.5,1.5,2,1.4,3c-0.2,1.3-1.2,2.3-2.2,3c1,0,2.1,0.2,3.1,0.4
		c0.4,0.1,0.8,0.3,1.2,0.1c0.4-0.2,0.8-0.5,1.2-0.8c0.6-0.5,1-1.2,0.9-2c-0.1-0.6-0.9-1.1-0.7-1.7c-0.3,0.3-1.4,1.3-1,0.3
		c0.2-0.4,0.5-0.7,0.7-1.1c0.2-0.4,0.2-0.9,0.2-1.4c-0.3,0.1-0.7,1.4-1.1,1.2c-0.3-0.2,0.1-0.6,0.2-0.8c0.2-0.5,0.1-0.7,0.1-1.1
		c-0.1,0.3-0.9,1.3-1.3,1.2c-0.1,0,0.7-1.7,0.7-1.9c-0.2,0.2-1.1,1.3-1.3,1.2c-0.3-0.1,0.4-0.9,0.5-1.1c-0.3,0.2-0.5,0.3-0.8,0.4
		c-0.2,0.1-0.8,0.1-0.5-0.1c0.6-0.3,0.9-0.8,1.1-1.4c-0.2,0.2-1.7,1.5-2.1,0.9c-0.2-0.3,0.5-0.3,0.6-0.4c0.4-0.2,0.6-0.6,0.7-0.9
		c-0.3,0.2-1.9,1.2-2,0.4c0-0.4,0.5-0.5,0.8-0.6c0.5-0.3,0.7-0.8,1.1-1.1c0.4-0.5,1-1.3,1.1-1.9c0.1-0.4,0.3-0.1,0.3,0.2
		c0,0.5,0.2,1.1,0.2,1.6c0.2-0.3,0.5-2.1,0.7-2.1c0.4,0,0.1,2,0,2.3c0.2-0.3,0.8-1.8,1-1.8c0.4,0.1-0.2,2-0.3,2.3
		c0.3-0.4,0.6-0.8,0.8-1.2c0-0.1,0.4-1.2,0.6-1c0.4,0.5-0.2,2.4-0.4,2.9c0.3-0.4,1-2.4,1.6-2.1c0-0.3-0.2-0.7-0.1-0.9
		c-0.4-0.1-0.7-0.3-1.1-0.6c-0.7-0.5-1.4-1.1-2-1.7c-0.6-0.6-1.1-1.2-1.7-1.7c-0.3-0.2-0.6-0.4-0.9-0.5c-0.2-0.1-1.1,0-1.1-0.1
		c-0.2-0.2,2.3-1.1,2.4-1.1c0.8-0.1,1.7-0.2,2.5,0.1c0.7,0.3,1.3,0.8,2,1.2c-0.2-0.4-0.2-0.3-0.5-0.6c-0.3-0.3-0.7-0.5-0.8-0.9
		c-0.2-0.8,0.4-1.5,0.7-2.2c0.1-0.3,0.1-1,0.5-1.1c-0.2-0.4-0.4-0.8-0.5-1.3c-0.1-0.5,0.1-2.9,1-2.6c0.5,0.2,0,0.8,0,1.1
		c0.2,0.4,0.4,0.7,0.8,1c1.1,0.6-0.3,0.6-0.1,1.4c0.2,0.6-0.4,0.6-0.4,1.1s0.1,1,0.2,1.5c0.2,0.9,0.3,2.1,1,2.7
		c0.9,0.7,1.8,0.4,2.8,0.1c0.4-0.1,0.9-0.2,1.3-0.3c0.3-0.1,0.6-0.5,0.9-0.6c0.8-0.3,1.7-0.6,2.3,0.3c0.2,0.3,0.6,0.4,0.9,0.8
		s0.3,1,0.4,1.4c0.3,2-0.8,3.7-2.3,4.9c-0.3,0.3-0.6,0.5-0.7,0.9c-0.1,0.3-0.2,0.7-0.6,0.6c-0.9-0.2,0.1-1.8,0.4-2.2
		c-0.4-0.2-0.7-0.7-1.1-0.9c-0.5-0.2-1-0.3-1.5-0.3c-1.2-0.1-2.5,0.2-3.7,0c0.4,1.6-0.6,2.6-1,4.1c-0.4,1.7,0.1,3.1,1.3,4.3
		c0.1-0.3,0.6-1.8,1.1-1.7c0.3,0.1-0.2,0.6-0.2,0.7c-0.1,0.4,0,0.7,0.2,1c0.2-0.6,0.7-1.1,1.1-1.5c0.1-0.1,0.9-1.3,1.1-0.7
		c0.1,0.3-0.6,1.1-0.7,1.4c-0.2,0.5-0.2,1.1-0.2,1.7c0.1-1.1,1-2,1.7-2.8c0.1-0.1,0.2-0.1,0.3,0c0.2,0.2-0.1,0.4-0.2,0.5
		c-0.3,0.5-0.5,1.1-0.5,1.7c0.4-0.5,0.9-0.8,1.2-1.4c0.1-0.2,0.5-0.1,0.4,0.2c-0.2,0.4-0.2,0.8-0.2,1.2c1.3-0.6,2.5-1.2,3.7-1.7
		c0.6-0.2,1.3-0.4,2-0.5c0.2,0,2.4,0,2.3,0.3c0,0-1.3,0-1.5,0.1c-0.6,0.3-1.2,0.7-1.8,1.2c-1,0.8-1.8,1.6-2.7,2.5
		c-2.1,2-4.4,3.2-7.3,3.4c-2.7,0.2-5.2-0.8-7.9-1c-2.7-0.2-5.5,0.5-7.7,2.1c0.5,0.2,1.2,0.6,1.4,1.1c0.2,0.4-1,1-1.3,1.1
		c-1.4,0.5-2.6,1.3-3.7,2.3c-1.2,1.2-2,2.5-3.2,3.7c-0.7,0.7-1.3,1.1-2.3,1.4c-0.9,0.2-1.7,0.2-2.6,0.2c0.8,0.5,2.1,0.1,2.5,1.1
		c0.3,0.8-1.2,2.2-1.8,2.6c-2.1,1.4-4.9,0.9-6.9,2.5c1.7-0.4,3.5,0.2,5.2,0.4c1.8,0.1,3.8-0.6,5.3-1.5c0.6-0.5,1.5-0.9,2.2-1.1
		c0.1,0,2-0.8,1.8-0.3c-0.3,0.6-1.3,0.9-1.9,1.4c-0.7,0.6-1.3,1.5-2,2.2c-1.4,1.3-2.4,2.8-3.8,4.1c-1.5,1.4-3.3,2.2-5.4,2.2
		c-0.9,0-1.8,0-2.7-0.1c-0.8-0.2-1.6-0.6-2.4-0.7c-1.8-0.2-3.6-0.1-5,1.1c1.5,0.7,0.9,2.6-0.3,3.3c-0.3,0.2-0.7,0.2-1.1,0.2
		c-0.2,0-0.4,0-0.6,0c0,0.1-0.1,0.3-0.2,0.4c-0.1,0.6,0.5,1.5,0.2,2c0.8-0.4,1.5-1.7,2.1-2.4c0.9-1,1.9-1.7,3-2.3
		c1.2-0.7,2.4-1.4,3.8-1.2c0.5,0.1,3.2,0.5,2.8,1.5c0.4,0,3.2,1.1,2.2,1.8c-0.4,0.2-0.8-0.5-1.1-0.7c-0.6-0.4-1.4-0.3-2,0.1
		c-1.1,0.6-2.1,1.7-2.7,2.8c-0.3,0.6-0.5,1.2-0.8,1.8c-0.2,0.5,0.6,0.8,1,1.1c0.4,0.3,0.8,0.7,0.9,1.2c0.1,0.3,0.1,0.6,0,0.9
		c-0.1,0.4,0,0.4,0.5,0.5c1.3,0.5,2.2,0.4,2.9-0.8c0.3-0.4,0.5-1,0.9-1.3c0.3-0.2,1.1-0.8,1.1-0.1c0,0.3-0.6,0.6-0.7,0.9
		c-0.4,0.7,0.3,1,0.4,1.7c0.6-0.1,1.3-0.5,1.7-0.9c0.4-0.3,0.6-1.1,1-1.3c0.3-0.1,1,0.2,1.2,0.5c0.3,0.5,0.1,1.5-0.2,2
		c1.3-0.9,2-1.9,2.6-3.4c0.2-0.5,0.3-1.9,1-1.1c0.6,0.6,0,2.1-0.2,2.7c0.5-0.4,1.1-0.6,1.5-1c0.3-0.6,0.6-1.1,0.7-1.8
		c0-0.4,0.1-1.2,0.7-1c0.6,0.2,0.2,1.1,0.1,1.5c0.6-0.5,1.3-0.9,1.8-1.6c0.5-0.8,0.4-1.7,0.6-2.6c-0.8,0.7-2,1.3-3,1.8
		c-1.3,0.6-2.7,1-4.1,1.3c-0.8,0.2-1.5,0.3-2.3,0.4c-0.3,0.1-0.1-0.2,0-0.3c0.4-0.1,0.8-0.2,1.2-0.4c0.5-0.2,1.1-0.7,1.5-1
		c0.1-0.1,1.1-1.2,1-1.2c0.1,0.1-0.3,1-0.4,1.1c0.7-0.5,1.3-1.1,1.9-1.7c0.2-0.2,1.4-0.9,1.4-1.1c-0.2,0.6-0.7,1.3-1.1,1.9
		c0.3-0.2,2.6-2.7,2.4-2.8c0.1,0-0.6,1.8-0.7,2c0.9-0.7,1.4-1.6,1.9-2.6c0.1-0.2,0.5-1.3,0.8-1.2c0.4,0.1-0.1,1.6-0.2,1.8
		c0.8-1.1,1.7-2.1,2.4-3.3c0.1-0.1,0.5-0.9,0.7-0.6c0.2,0.4-0.1,1.2-0.3,1.6c-0.4,1-1.1,1.8-1.7,2.7c-0.2,0.3-0.4,0.5-0.6,0.8
		c-0.3,0.3-0.2,0.7-0.2,1.2c0,0.8,0,1.6-0.3,2.3c1.1-0.5,1.9-0.9,2.6-2c0.8-1.2,1.3-2.5,1.5-4c0.1-0.4-0.1-1.5,0.2-1.8
		c0.5-0.5,0.4,1.1,0.4,1.2c0,1.5,0,2.8-0.7,4.2c1.2-0.8,2.7-1.3,3.3-2.8c0.3-0.7,0-2.8,1-2.8c0.6,0,0.6,0.5,0.7,1
		c0.7,0.3,1.3,0.6,1.7,1.2c1,1.1,1.2,2.7,1,4.1c0.9-0.7,1.4-2,1.4-3.1c0-0.5-0.3-1.2-0.2-1.6c0.1-0.3,0.6-0.4,0.9-0.2
		c0.5,0.5,0.9,1.3,1.3,1.9c0.7,1,1.6,1.8,2.8,2.4c2.3,1,4.7,1.5,6.9,2.8c0.4,0.3,2.2,1.6,1.3,2.1c-0.5,0.3-0.7-0.3-1-0.6
		c-0.4-0.5-0.9-0.8-1.5-1c0,1.1-1.6,1.6-2.5,1.8c-1.1,0.2-2.2-0.1-3.3-0.5c-2.3-0.8-4.5-1.8-7-1.5c-2.9,0.3-5.3,2.6-5.8,5.5
		c-0.4,2.2-0.1,4.4,0,6.5c0.2,2.6,0.1,5.4-0.7,7.8c-0.7,2.1-2.2,4.8-4.4,5.6c-2.8,1-4.2-1.8-5.4-3.6c-0.9-1.3-2.5-1.7-4-1.3
		c0.6,0.5,0,1.6-0.3,2.1c1.1-0.4,2.1-0.6,3.2-0.2c0.7,0.3,1.3,0.8,1.8,1.5c0.2,0.2,0.1,0.6-0.2,0.7c-0.4,0.2-0.6-0.2-0.8-0.4
		c-2.4-2.6-5.9,1.6-8,2.6c0.4,0.5,0.7,1,0.8,1.6c0,0.3-0.3,1.6,0,1.5c0.2-0.1,0.7-1,0.9-1.2c0.5-0.5,1-0.8,1.5-1.2
		c1.1-0.8,2.1-1.5,3.4-2.1c1.4-0.6,2.6,0.2,3.6,1.2c0.2,0.2,0.6,0.6,0.4,0.9c-0.1,0.3-1.3-0.7-1.4-0.8c-1.3-0.9-2.5-0.2-3.6,0.5
		c-0.6,0.4-1.1,0.9-1.7,1.4c-0.5,0.4-1.1,0.7-1.5,1.2c-0.8,0.9-1.8,2-1.8,3.3c0.8-0.8,2.6-1.9,3.5-0.6c0.2,0.3,0.2,0.7,0.5,1
		c0.2,0.3,0.4,0.7,0.6,1.1c0.1,0.4,0.2,0.8,0.2,1.1c0,0.4-0.4,0.8,0.1,0.9c-0.3-1.2,0.3-2.5,0.9-3.4c0.7-1.1,1.4-2.3,2.3-3.1
		c0.5-0.9,1.4-2.2,2.5-2.4c1.2-0.2,2.3,0.5,3.1,1.3c0.3,0.3,0.1,0.8-0.3,0.8c-0.5,0-1-0.7-1.4-0.9c-1.2-0.5-2.2,0.2-2.9,1.2
		c-0.8,1-1.4,2.1-2,3.2c-0.4,0.8-1.4,2.5-0.5,3.2c0.4-0.3,0.6-0.5,1-0.7c0.7-0.3,1.3,0,2-0.2c1.2-0.2,1.9,1.6,2,2.5
		c0.2-0.1,0.1,0,0.2-0.3c0.1-0.3,0.5-0.6,0.8-0.8c0.5-0.5,1-1,1.2-1.6c0.1-0.3,0.2-1.7,0.5-1.7
		C-694.2,578.2-694.5,580.1-694.5,580.4 M-671.5,516.3c1.2,0.7,2.6,0.9,3.9,0.2c1-0.5,1.5-1.4,2.1-2.3c0.7-1,1.8-1.7,2.9-2
		c1.3-0.4,2.6-0.2,3.9-0.5c1.9-0.4,3.9-2.1,4.2-4c0.2-1,0.1-2.1,0.1-3.2c0-0.6,0.1-1.2,0.1-1.8c0-0.2,0.1-0.3,0.3-0.3
		c0.3,0,0.3,0.4,0.3,0.6c0,2.3,0.4,4.7-0.8,6.8c-1.1,1.9-3.2,3.7-5.4,4.1c-1,0.2-2.1,0.1-3.1,0.5c-1.3,0.4-2,1.3-2.8,2.3
		c-0.7,0.9-1.9,1.5-3,1.3c-0.6-0.1-1.1-0.4-1.7-0.7c-0.3-0.2-0.6-0.4-0.9-0.5C-671.3,516.7-671.8,516.1-671.5,516.3 M-649.6,489.8
		c1.2-1,1.3-2.5,1.4-4c0-0.7-0.2-1.6,0-2.2c0.1-0.2,0.3-0.3,0.5-0.3c0.3,0.1,0.3,0.4,0.4,0.7c0.1,0.8,0.5,1.5,0.4,2.3
		c-0.1,0.7-0.2,1.4-0.5,2.1c-0.3,0.6-0.8,1.2-1.3,1.6c-0.2,0.2-0.5,0.6-0.8,0.5C-649.8,490.3-649.8,490-649.6,489.8 M-673.3,491.4
		c0.8-0.8,2-1.5,3.2-1.2c0.6,0.1,2.5,1.1,2,2c-0.6,1-1.9-0.6-2.5-0.8c-0.5-0.2-1.1-0.3-1.6-0.2c-0.3,0.1-0.5,0.2-0.7,0.3
		C-672.9,491.5-673.6,491.7-673.3,491.4 M-667.2,495.8c0,0.4,0,0.7,0.1,1.1c0.3,0,0.7-0.1,0.9,0.1c0.4,0.3,0.1,0.9-0.4,0.9
		c-0.4,0-1.4,0-1.4-0.6c0-0.4,0.2-0.7,0.3-1c0.1-0.2,0.1-0.4,0.2-0.6C-667.4,495.6-667.1,495.6-667.2,495.8 M-671.2,502.8
		c1.3,0,2.5-0.4,3.1-1.7c0.2-0.5,0.7-1.3,0.7-1.8s0.3,0.2,0.3,0.3c0,0.3,0.2,0.6,0.2,1c-0.1,1.2-1,2.3-2,2.9
		c-0.6,0.4-1.3,0.1-1.9,0.1c-0.3,0-0.6,0-0.7-0.3C-671.6,503.1-671.4,502.8-671.2,502.8 M-661.9,487.9c0,1.7-2.6,2.4-3.6,1.2
		c1.2,2.2,4.8,1,5.5-1C-660.6,488.2-661.3,488.1-661.9,487.9 M-664.5,488.2c0.5,0.3,0.9,0.1,1.1-0.4c-0.2-0.1-0.3-0.3-0.5-0.4
		C-664.1,487.7-664.3,488-664.5,488.2 M-658.2,486.5c-0.1,0.1-0.2,0.6-0.2,0.8c-0.2,0.5-0.5,0.9-0.6,1.3c-0.5,1.3-1.8,2.2-3.2,2.4
		c0.5,0.4,0.7,0.9,0.9,1.5c0.2,0.7-1-0.4-1.1-0.4c0,0.2,0.4,2,0.1,1.9c0,0-0.3-0.8-0.3-0.9c-0.2-0.3-0.6-0.6-0.9-0.9
		c0,0.3,0.1,1.6-0.1,1.7c-0.3,0.1-0.3-1-0.4-1.1c-0.3-1-0.8-2.1-1.4-2.9c-0.1-0.2-0.4-0.4-0.4-0.6c-0.3,0-0.6,0-0.9,0
		c-0.2,0-1.7-0.5-1.3-0.9c0.2-0.2,1.1,0.1,1.4,0.1c0.7,0,1.2-0.3,1.6-0.8c0.7-0.9,1.3-1.9,2.3-2.5c0.8-0.4,2.4-0.7,3.3-0.3
		c0.2,0.1,0.9,0.5,0.6,0.8c-0.1,0.1-1.1-0.2-1.4-0.3c-1.3-0.2-2.4,0.4-3.1,1.4c1.1,0.2,2.2,0.4,3.3,0c0.4-0.1,0.8-0.2,1.2-0.4
		C-658.8,486.4-657.8,485.9-658.2,486.5 M-686.5,486.8c-0.4,0-0.3-0.3-0.6,0c-0.2,0.2-0.3,0.4-0.5,0.7
		C-687,487.8-686.8,487.4-686.5,486.8 M-683.2,487.4c-0.6,0.1-1.3,0-1.9-0.2c0,1.7-2.5,2.3-3.6,1.2
		C-687.4,490.6-683.9,489.4-683.2,487.4 M-686.5,486.1c0.8,0.1,1.6,0.3,2.4,0.2c0.5-0.1,1.5-0.6,2-0.3c0.2,0.2,0.3,0.4,0.3,0.7
		c0,0.1-0.1,0.3-0.2,0.4c0.1,0.2,0.1,0.3,0,0.5c-0.3,0.7-0.5,1.3-1.1,1.8c-1.3,1-3,1.3-4.5,0.7c-0.6-0.3-1-0.8-1.4-1.4
		c-0.2-0.2-0.8-0.1-1.2-0.2c-0.5-0.1-0.6-0.4-1-0.5c-0.5-0.2,0.3-0.2,0.4-0.2c0.4,0,0.7,0.1,1,0.1c0.8,0,1.3-0.4,1.8-1
		c0.8-1.2,1.8-2.4,3.4-2.6c0.6-0.1,1.5-0.2,2.1,0c0.2,0.1,0.6,0.3,0.7,0.5c0.1,0.4-0.4,0.3-0.5,0.2c-0.5-0.3-1.5-0.3-2-0.2
		C-685.4,484.8-686,485.4-686.5,486.1 M-689.8,491.5c0.6,1,1.5,1.9,2.1,2.9c0.6,1.1,0.8,2.3,0.6,3.6c-0.1,1-0.5,2-1.2,2.8
		c-0.3,0.3-2.6,2.2-3,1.6c-0.2-0.3,2-1.7,2.3-2c0.7-0.9,0.7-2.1,0.8-3.2c0-1.2,0-2.3-0.5-3.4c-0.2-0.5-0.5-1.1-0.9-1.5
		c-0.1-0.2-0.4-0.3-0.5-0.5C-690.3,491.5-689.9,491.3-689.8,491.5 M-666.5,518.7c0.7-0.3,1.1-0.8,1.5-1.4c0.5-0.8,1.1-1.3,1.9-1.7
		c0.8-0.3,1.7-0.4,2.6-0.6c0.4-0.1,1.7-0.9,1.7,0.1c0,0.7-1.4,0.8-1.9,0.9c-0.9,0.2-1.9,0.3-2.7,0.9c-0.7,0.5-1.2,1.2-1.9,1.7
		c-0.3,0.3-0.7,0.5-1,0.6C-666.6,519.4-666.8,518.9-666.5,518.7 M-651.7,489.5c-0.4,0.5-0.7,1.6-0.4,2.2c0.5,0.9,0.9,0,1.2-0.4
		c0.1-0.2,0.8-0.9,0.6-0.2c-0.1,0.5-0.5,1.1-0.9,1.5c-0.4,0.5-1.1,0.6-1.6,0.3c-0.6-0.4-0.7-1.3-0.6-2c0-0.8,0.3-1.5,0.8-2.1
		C-652.1,488.3-651.2,488.9-651.7,489.5 M-653.7,491.4c-0.2,1.5,0.1,3.2,0.4,4.7c0.4,1.6,1.1,3.2,1.3,4.9s0.4,3.4,0.1,5.1
		c-0.1,0.8-0.4,1.5-0.7,2.2c-0.2,0.4-0.4,0.8-0.6,1.2c-0.1,0.3-0.5,0.1-0.4-0.2c1.4-2.8,0.9-6.6,0-9.5c-0.5-1.6-1.1-3.4-1.2-5
		c0-0.8,0-1.7,0.2-2.5c0.1-0.3,0.1-0.9,0.3-1.1C-654,491-653.7,491.2-653.7,491.4 M-694.8,488.2c0.5,0,2.6-1.9,2.6-0.5
		c0,0.6-1,0.8-1.4,0.8c-0.4,0-0.8,0-1.2,0C-695.1,488.5-695,488.1-694.8,488.2 M-694,489.1c0.5-0.1,0.8-0.7,1.4-0.7
		c0.4,0,0.7,0.4,0.6,0.8c-0.2,0.5-1,0.5-1.4,0.6c-0.2,0-0.5,0.2-0.7,0C-694.4,489.5-694.3,489.2-694,489.1 M-692.6,489.8
		c0.5-0.1,0.9-0.7,1.4-0.4c0.4,0.3,0.4,0.9,0,1.1c-0.4,0.2-1.2,0.5-1.5,0.2C-693.2,490.5-693.1,489.9-692.6,489.8 M-691,521.6
		c1.5-0.5,2.5-1.6,3.6-2.6c0.5-0.4,3.3-2.1,3.6-0.8c0.2,0.7-0.7,0.7-1.1,0.7c-0.8,0-1.6,0.3-2.3,0.7c-0.7,0.4-1.3,0.9-1.9,1.3
		c-0.4,0.3-0.8,0.5-1.2,0.7c-0.2,0.1-0.4,0.2-0.6,0.2C-691.1,521.9-691.2,521.6-691,521.6 M-695.1,527.3c1.3-1,2.2-2.5,3.8-3.1
		c0.9-0.3,1.8-0.3,2.6-0.9c0.3-0.2,1.4-1.2,1.4-0.2c0,0.6-1.2,1.2-1.7,1.4c-0.8,0.4-1.7,0.5-2.6,0.9c-0.7,0.4-1.3,1-2,1.5
		c-0.3,0.3-0.6,0.5-1,0.7c-0.1,0.1-0.3,0.2-0.5,0.2C-695.2,527.7-695.3,527.4-695.1,527.3 M-655.7,545.8c0.1,0.9,0.4,1.6,0.3,2.5
		c0,0.4-0.1,2.5-0.8,2.1c-0.4-0.3,0.2-1.9,0.2-2.4C-655.9,547.5-656.1,546.3-655.7,545.8C-655.7,545.7-655.7,545.7-655.7,545.8
		 M-654.8,548.9c0.1,0.6,0.2,1.2,0.2,1.8c0,0.3-0.4,1.2-0.7,0.5c-0.2-0.4,0-1.2,0-1.6c0-0.2-0.1-0.6,0-0.8
		C-655.2,548.6-654.9,548.7-654.8,548.9 M-651.4,566.8c0.7,1.2,1.3,2.5,1.4,3.9c0,0.6,0.3,3.3-0.9,3c-0.9-0.3-0.1-2.8-0.1-3.5
		s0-1.3-0.2-2c-0.1-0.4-0.3-0.8-0.5-1.2C-651.9,566.8-651.6,566.6-651.4,566.8 M-643.8,577.9c0.5,1.1,1.3,2.2,2,3.2
		c0.6,0.7-0.2,0.2-0.6,0c-0.5-0.4-1-0.9-1.3-1.4c0.1,2.1,0,4.2-0.3,6.2c-0.2,1.1-0.5,2-0.8,3c-0.2,0.6-0.3,1.8-1.2,1.4
		c-0.9-0.3-0.2-1.5,0-2.1c0.4-1.1,0.6-2.1,0.8-3.2c0.3-2.1,0.4-4.2,0.2-6.4c-0.2-2-1-4.3-2.2-5.9c-0.2-0.3-0.8-1-0.8-1.4
		c0-0.4-0.3-0.7-0.3-1.1c-0.3-1,1.4-0.7,2-0.7c1,0,1.4,0.6,1.3,1.5c0,0.4-0.1,0.8-0.2,1.2c-0.1,0.5,0.1,0.7,0.2,1.1
		c0,0.4,0.5,0.5,0.7,0.8c0.4,0.3,0.6,0.7,0.9,1.1c0.4,0.4,0.3,0.5-0.2,0.2c-0.5-0.2-1-0.3-1.4-0.6c0.2,0.5,1,1,1.4,1.4
		c0.5,0.5,1.1,1.1,1.6,1.5c0.2,0.2,0.5,0.2,0.4,0.6c-0.1,0.3-0.5,0.2-0.7,0.1c-0.6-0.2-1.1-0.7-1.6-1.2
		C-643.9,577.5-643.9,577.7-643.8,577.9 M-652.1,568.2c0.2,1,0.3,2,0,2.9c-0.1,0.3-0.6,2.2-1.1,1.4c-0.2-0.3,0.2-1,0.3-1.2
		c0.2-0.5,0.1-1.1,0.1-1.6c0-0.4-0.2-1.3,0.1-1.6C-652.6,567.7-652.2,567.9-652.1,568.2 M-654.2,569.1c0.1,0.6,0.5,1.2,0.3,1.8
		c-0.1,0.3-0.3,1.2-0.8,0.7c-0.3-0.3,0.1-1.5,0-1.9c0-0.2-0.1-0.6,0-0.8C-654.5,568.7-654.2,568.8-654.2,569.1 M-686.6,571.6
		c0,0.6,0.1,1.2,0.1,1.7c0.2-0.8,0.4-1.5,0.3-2.3c0-0.2-0.2-1.4,0.2-1.2s0.5,1.2,0.6,1.6c0.1,0.5,0.2,1,0.1,1.5
		c0.7-1,0.6-2.4,0.3-3.6c-0.1-0.5,0-1.4,0.2-0.4c0.2,0.7,0.5,1.3,0.7,2c0.3-1.1,0.5-2.2,0-3.2c-0.1-0.2-0.6-0.8-0.2-1
		c0.4-0.2,0.8,0.7,0.9,1c1.1,2,0.7,4-0.6,5.9c-0.8,0.7-1.7,1.2-2.7,1.5c-0.4,0.1-0.9,0.3-1.4,0.4c-0.1,0-1.5,0.6-1.2,0
		c0.2-0.4,0.8-0.3,1.1-0.7c0.3-0.6,0.5-1.2,0.6-1.8c0.1-0.4,0-1.2,0.2-1.6C-687.1,571.1-686.6,571.2-686.6,571.6 M-701.3,524.7
		c1.3-0.3,2.8-1.4,3.7-2.4c1.3-1.2,2.4-2.6,3.7-3.8c1.2-1.1,2.6-1.9,3.9-2.9c0.6-0.5,1.5-0.5,2.3-0.5c0.4,0,2.9,0.3,2.9,0.9
		c0,0.1-1.8-0.3-2.1-0.3c-1,0-1.9,0.5-2.7,1c-1.5,1-2.8,2-4.2,3.1c-1.3,1-2.3,2.5-3.5,3.6c-0.7,0.6-1.5,0.9-2.3,1.2
		c-0.4,0.1-0.7,0.3-1.1,0.3C-700.8,524.8-701.7,524.8-701.3,524.7 M-700.3,535c1.7,0.4,3.7-0.5,5.1-1.5c0.7-0.5,1.4-0.9,2.1-1.4
		c0.2-0.2,0.7-0.9,0.9-0.9c0.6-0.1,0,0.7-0.1,0.8c-1,1.4-2.2,2.5-3.8,3.2c-0.9,0.4-1.7,0.7-2.7,0.6c-0.5,0-1-0.2-1.5-0.3
		C-700.7,535.4-700.6,534.9-700.3,535 M-708.1,541.5c0.6,0.9,1.1,1.9,0.5,3c-0.2,0.4-2.1,1.8-2.3,0.8c-0.1-0.5,0.6-0.4,0.8-0.5
		c0.5-0.3,0.6-0.7,0.6-1.3c0-0.5,0-1-0.2-1.4c-0.1-0.2-0.3-0.4-0.1-0.6C-708.5,541.3-708.2,541.3-708.1,541.5 M-623.8,516.3
		c-0.5,0.9-0.9,1.9-1.6,2.8c1.7-1.2,2.8-3,3.2-5c0.1-0.6,0.2-1.3,0.4-2c0.5-1.2,0.7,0.6,0.7,1c0,2.2-0.5,4.5-2.1,6.1
		c-1.4,1.4-3.7,2.4-5.7,2.5c-2.1,0.1-4.4-0.8-6.4,0.1c-0.1,0.1-0.9,0.7-0.9,0.4c-0.1-0.2,1.1-0.9,1.3-1c0.9-0.5,1.9-0.6,2.9-0.9
		c0.7-0.2,1.6-0.3,2.3-0.6c1-0.5,1.7-1.3,2.5-2c0.1-0.1,0.8-0.7,0.9-0.4c0.1,0.5-0.6,1.3-0.9,1.7c0.7-0.4,1.4-0.9,2-1.5
		c0.3-0.3,0.6-0.7,0.8-1.1c0.1-0.2,0.2-0.3,0.3-0.4C-623.9,515.8-623.7,516.1-623.8,516.3 M-687.2,501.2c0.4-0.6,0.8-1.1,1.1-1.8
		c0.1-0.2,0.1-0.6,0.4-0.7c0.2-0.1,0.5,0.1,0.4,0.4c-0.1,0.6-0.3,1.1-0.8,1.6c-0.3,0.2-0.5,0.4-0.7,0.7
		C-687,501.6-687.3,501.4-687.2,501.2 M-665.3,506.7c1.1-0.7,2-1.5,3-2.3c-0.4-0.1-0.9-0.1-1.3-0.2c-0.5-0.1-1.2,0.1-1.7-0.2
		c-0.6-0.3-0.2-1.8-0.1-2.3c0.1-0.5,0.2-0.9,0.2-1.4c0-0.3,0.5-0.3,0.5,0c0,1,0.6,1.8,0.6,2.8c0-1,0.1-2,0.1-2.9
		c0-0.5-0.3-2.7,0.2-2.9c0.7-0.3,0.6,1.6,0.6,2c0.2,1,0.4,2,0.5,3c0.1-0.7,0-1.6,0.1-2.3c0.1-0.5,0.1-1,0-1.5c0-0.4-0.3-1.1-0.1-1.4
		c0.5-0.9,0.8,1.1,0.8,1.3c0.1,1,0.5,1.9,0.8,2.9c0-0.7,0-1.5-0.1-2.2c0-0.7-0.4-1.8-0.2-2.5c0.2-0.8,0.8,0.1,0.8,0.4
		c0.1,0.8,0.4,1.5,0.6,2.3c0.1-0.6,0.2-1.2,0.2-1.9c0-0.2-0.1-1.6,0.3-1.2c0.2,0.2,0.3,1.4,0.4,1.7c0.2,0.5,0.4,1.1,0.7,1.6
		c0.1-2,0.2-3.9,1-5.8c0-0.1,0.3-1,0.5-0.7c0.1,0.1-0.4,1.1-0.4,1.3c-0.2,0.9-0.2,1.9,0,2.8c0.3,1.8,1,3.6,0.9,5.5
		c-0.1,1.9-1.4,3.4-3,4.3c-1.5,0.8-3.2,1.3-4.7,1.9c-0.8,0.3-1.5,0.7-2.1,1.3c-0.3,0.3-0.5,0.7-0.7,1.1c-0.1,0.3-0.6,0.1-0.5-0.2
		c0.6-1.6,1.7-2.8,3.2-3.6c0.9-0.5,1.8-0.8,2.6-1.4c0.7-0.5,1.4-1.2,2-1.8c-1.1,0.4-2.1,1.2-3.2,1.7c-0.6,0.2-1.2,0.5-1.7,0.8
		c-0.2,0.1-0.6,0.5-0.8,0.4C-665.4,507-665.5,506.8-665.3,506.7 M-716.4,512.6c1.1,0,2.2,0.2,3.3-0.2c0.4-0.1,0.9-0.3,1.1,0.2
		s-0.3,0.8-0.7,0.9c-1,0.2-2,0-3-0.2C-716.1,513.2-717.7,512.6-716.4,512.6 M-714.7,514.3c1.1,0.1,2.5-0.1,3.6-0.5
		c0.4-0.1,0.8,0.1,0.9,0.5c0.1,0.5-0.3,0.7-0.7,0.9c-1.2,0.5-2.3,0.3-3.4-0.1c-0.1,0-1.2-0.3-1-0.5
		C-715.2,514.3-714.9,514.3-714.7,514.3 M-712.2,516c0.8,0,1.6,0,2.4-0.3c0.3-0.1,0.5-0.4,0.7-0.1c0.2,0.3-0.1,0.5-0.3,0.7
		c-0.5,0.5-1.8,0.4-2.5,0.2C-712.3,516.5-713.1,516-712.2,516 M-710.4,517.4c0.6-0.1,2.6-1.4,2.9-0.6c0.4,1.1-3.1,1.1-3.2,0.8
		C-710.7,517.5-710.6,517.4-710.4,517.4"/>
</g>
<path fill="#EE3224" d="M-709.2,567.1c0.3-0.1,0.6,0,0.7,0.2h0.2c0.6,0.1,1.2,0,1.6-0.5c0-0.2,0.1-0.3,0.1-0.4
	c0-0.1,0.1-0.1,0.1-0.2c0-0.1-0.1-0.2-0.1-0.3c0,0,0-0.1,0-0.2c-0.2,0.1-0.4,0-0.4-0.2c-1.4-0.1-2.7,0-3.9,0.7
	c-0.5,0.3-0.8,0.5-1.2,0.8c0.3-0.2,0.4-0.2,0.8-0.2l1-0.2C-709.9,566.9-709.5,567-709.2,567.1"/>
<path fill="#EE3224" d="M-709.9,574.3c0.3-0.6,0.2-1.2-0.1-1.7c-0.1-0.2-0.4-0.2-0.6-0.3c-1,0.3-1.6,0.8-2.2,1.7
	c-0.7,1.1-1.1,1.9-1.2,3.1c0.5-1.1,1.2-1.8,2.4-2.3c0.5-0.2,0.8-0.4,1.4-0.5C-710.1,574.2-710,574.2-709.9,574.3"/>
<path fill="#EE3224" d="M-725.2,540.9c0.3-0.2,0.7-0.3,1.1-0.4c0.8-0.1,1.6,0.4,2.2-0.2c0.2-0.2,0.4-0.2,0.5-0.4
	c0.1-0.2,0.1-0.3,0.1-0.5c0-0.1,0-0.2,0-0.2c-0.1,0-0.2-0.1-0.3-0.2c-0.4-0.4-0.9-0.1-1.5,0.1C-723.9,539.6-724.7,540.1-725.2,540.9
	"/>
<path fill="#EE3224" d="M-671.4,498.9c0.2-0.1,0.3-0.2,0.3-0.4c0.2-0.8,0-1.7-0.7-2.1s-1.4-0.5-2.1-0.4c-1.3,0.6-2.6,1-3.7,0.6
	c-0.5-0.1-0.8-0.2-1.3-0.3c-1.3-0.3-1.7-1.3-3-1.6c-0.9-0.3-1.7-0.2-2.5-0.1c0.8,0.3,1.6,0.9,2.3,1.7c1.3,1.4,2.5,2.4,4.4,2.4
	c1.1,0,1.7-0.1,2.8-0.3c1.1-0.2,1.8-0.5,2.8-0.1c0.1,0.1,0.2,0.1,0.4,0.2C-671.5,498.7-671.5,498.8-671.4,498.9"/>
<path fill="#EE3224" d="M-692.6,497.3c0.2-0.1,0.3-0.2,0.3-0.4c0.1-0.9-0.2-1.8-1-2.2c-0.8-0.4-1.5-0.3-2.1-0.1
	c-1.3,0.8-2.5,1.5-3.7,1.2c-0.5,0-0.9-0.1-1.4-0.1c-1.3-0.2-1.9-1.2-3.2-1.4c-1-0.2-1.7,0-2.5,0.2c0.9,0.2,1.7,0.8,2.6,1.5
	c1.5,1.3,2.8,2.3,4.8,2c1.1-0.1,1.7-0.3,2.8-0.6c1.1-0.3,1.8-0.8,2.8-0.4c0.2,0,0.2,0.1,0.4,0.2
	C-692.7,497.1-692.6,497.2-692.6,497.3"/>
<path fill="#EE3224" d="M-718,494.7c0.3,0.5,0.5,1.1,1.1,1.6c0.7,0.5,1.4,0.5,2.1,0.2l0.1-0.1c-0.1-0.7-0.5-1.1-1.2-1.4
	C-716.6,494.6-717.2,494.6-718,494.7"/>
<path fill="#EE3224" d="M-724.5,498.3c0.2,0,0.3,0.1,0.5,0.2c0.4,0.2,0.6,0.4,0.9,0.6c0.4,0.3,0.6,0.6,0.9,1
	c0.2,0.2,0.3,0.5,0.6,0.6c0.1,0,0.2,0,0.3,0c0.5,0,1-0.2,1-0.6c0-0.1,0-0.2,0.1-0.2l-0.1-0.1c-0.5-0.9-1.2-1.2-2.2-1.4
	c-0.7-0.1-1-0.2-1.7-0.1C-724.2,498.2-724.4,498.3-724.5,498.3"/>
<path fill="#EE3224" d="M-727.7,506.4c0.7-0.2,1.3-0.2,2.1,0c0.9,0.2,1.6,1.3,2.2,0.7c0.3-0.3,0.5-1.1,0-1.2c-0.1,0-0.3-0.1-0.3-0.2
	c-0.3-0.1-0.4-0.3-0.8-0.4c-0.4-0.1-0.7-0.2-1-0.1c-0.7,0.2-1.2,0.2-1.7,0.7C-727.4,506.2-727.5,506.3-727.7,506.4"/>
<path fill="#EE3224" d="M-725.2,512.1c0.6-0.1,1.2,0.1,1.7,0.5c0.3,0.2,0.4,0.2,0.7,0.3c0.6,0.2,1.3-0.2,1.3-0.9
	c0-0.2,0.1-0.4,0.3-0.5c-0.5-0.8-1.7-0.9-2.5-0.4C-724.3,511.6-724.8,511.8-725.2,512.1"/>
<path fill="#EE3224" d="M-725.7,549.5c0.2-0.4,0.5-0.7,0.8-1c0.4-0.4,0.6-0.7,1.1-0.9c0.6-0.2,1.1-0.2,1.6-0.6s0.5-1.1,0.1-1.6
	c-0.1-0.1-0.2-0.1-0.3-0.2c-0.3,0-0.6,0-0.9,0.2c-0.3,0.2-0.6,0.3-0.9,0.6c-0.4,0.3-0.6,0.5-0.9,0.9
	C-725.6,547.7-725.8,548.4-725.7,549.5"/>
<path fill="#EE3224" d="M-717.8,551.8c0.2-0.6,0.6-1.1,1-1.7c0.6-0.8,1.4-1.2,1.3-2.3c0-0.4-0.3-0.6-0.7-0.9c-0.1,0-0.1-0.1-0.1-0.1
	c-0.7,0.4-1.1,0.7-1.5,1.5c-0.2,0.5-0.2,0.8-0.2,1.4c0,0.5-0.1,0.8,0,1.2C-717.9,551.3-717.9,551.5-717.8,551.8"/>
<path fill="#EE3224" d="M-709.3,583.5c0.4-0.8,1-1.2,1.8-1.9c0.6-0.5,1.4-0.1,1.9-0.6c0.7-0.7,0.5-1.9-0.1-2.6
	c-0.1-0.1-0.3-0.2-0.4-0.3c-0.1,0-0.2,0-0.3,0c-0.6,0-0.9,0.4-1.3,0.8c-1.2,1.2-2.1,2.5-1.6,4.2
	C-709.4,583.2-709.4,583.3-709.3,583.5"/>
<path fill="#EE3224" d="M-701.7,586.6c0-0.1,0-0.2,0.1-0.3c0.1-0.3,0.2-0.5,0.3-0.7c0.5-0.8,1.1-1.2,2-1.5c0.5-0.2,0.3-0.8,0.1-1.3
	c-0.1-0.3-0.1-0.6-0.4-0.8c-0.2-0.1-0.4-0.3-0.4-0.4c-0.3,0-0.6,0.1-0.9,0.2c-0.1,0-0.1,0.1-0.2,0.1c-0.2,0.2-0.3,0.3-0.5,0.5
	c-0.5,0.6-0.7,1.1-0.7,1.8c0.1,0.3,0.1,0.5,0.2,0.8C-702,585.6-701.9,586.1-701.7,586.6"/>
<path fill="#EE3224" d="M-661.9,589.4c0-0.1,0-0.1,0-0.2c0.1-0.7,0.3-1.3-0.1-1.9c-0.1-0.1-0.2-0.3-0.3-0.3c-0.3,0-0.6,0.1-0.8,0.3
	c-1,0.7-1.4,1.3-2,2.3c-0.1,0.2-0.2,0.3-0.3,0.4c0.4-0.3,0.8-0.4,1.3-0.6C-663.4,589.2-662.8,589.3-661.9,589.4"/>
<path fill="#EE3224" d="M-664.8,598.8c0.3-1.2,0.8-2,1.9-2.4c0.5-0.2,1,0,1.2-0.5c0.4-0.6-0.1-1.3-0.6-1.7c-0.1-0.1-0.2-0.2-0.3-0.3
	l-0.3,0.1c-0.1,0.2-0.2,0.3-0.4,0.2c-0.1,0.1-0.3,0.2-0.4,0.4c-0.1,0.2-0.2,0.3-0.3,0.5C-664.6,596.4-664.9,597.5-664.8,598.8"/>
<path fill="#EE3224" d="M-658.4,601.8c0.1-0.3,0.3-0.6,0.4-0.9l0.3-0.5c0.3-0.5,0.6-0.7,1.2-1c0.5-0.3,0.8-0.5,1.1-1
	c0-0.2,0-0.3-0.1-0.5c-0.2-0.5-0.5-0.7-1-0.9c-0.2,0-0.3,0-0.4,0l-0.1,0.1c-0.1,0.1-0.2,0.1-0.2,0.2c-1.3,1-1.2,2.4-1.1,4
	C-658.5,601.4-658.5,601.6-658.4,601.8"/>
<path fill="#EE3224" d="M-649.9,599.1c0.3-0.4,0.6-0.8,1.1-1.2c0.5-0.4,1.2-0.4,1.3-1.1c0-0.5-0.1-0.8-0.2-1.2l-0.2-0.4
	c-0.1-0.1-0.1-0.2-0.2-0.3c-0.1,0.1-0.2,0.2-0.3,0.2c-1,0.4-1.7,1.1-1.8,2c0.4,0.3,0.3,0.7,0,1C-650.1,598.4-650,598.7-649.9,599.1"
	/>
</svg>
