<?xml version="1.0" encoding="utf-8"?>
<!-- Generator: Adobe Illustrator 18.1.1, SVG Export Plug-In . SVG Version: 6.00 Build 0)  -->
<svg version="1.1" id="sponosr-logo_cartwright-king"
	 xmlns="http://www.w3.org/2000/svg" xmlns:xlink="http://www.w3.org/1999/xlink" x="0px" y="0px" viewBox="-764 466 390 150"
	 enable-background="new -764 466 390 150" xml:space="preserve">
<g>
	<path fill="#1D1D1B" d="M-578.2,543.1h4.2v-28.6h-4.2V543.1z M-578.4,506.4h4.7v-4.7h-4.7V506.4z M-556.4,539.3
		c-6.2,0-7.1-5.3-7.1-10.7c0-5.3,0.9-10.7,7.1-10.7c6.2,0,7.1,5.3,7.1,10.7C-549.3,533.9-550.2,539.3-556.4,539.3 M-549.2,517.9
		c-2.3-3-4.9-3.7-8-3.7c-2.9,0-5.4,1-6.9,2.5c-2.8,2.8-3.5,7.3-3.5,11.9c0,4.6,0.6,9.1,3.5,11.9c1.5,1.5,4,2.6,6.9,2.6
		c3.1,0,5.7-0.8,8-3.7v4.5c0,4.9-2.3,8.8-7.8,8.8c-3.3,0-4.7-1-6.8-2.8l-2.7,2.7c3,2.7,5.4,3.8,9.7,3.8c7.5,0,11.9-5.2,11.9-12.2
		v-29.7h-4.1v3.4H-549.2z M-497,517.9v-3.2h-6v-8.9h-4.2v8.9h-3.6v3.2h3.6v17.5c0,4.2,2.4,7.7,7.3,7.7h3v-3.6h-2.2
		c-2.7,0-3.9-1.6-3.9-4.2v-17.4H-497z M-597.1,518v-3.5h-4.2v28.6h4.2v-17.5c0-4.4,2.7-7.7,6.8-7.7c2.2,0,3.4,0.5,4.9,2.1l3.1-3.1
		c-2-2-4.1-2.7-6.8-2.7C-592.5,514.2-595.6,515.6-597.1,518 M-681.1,518v-3.5h-4.2v28.6h4.2v-17.5c0-4.4,2.7-7.7,6.8-7.7
		c2.2,0,3.4,0.5,4.9,2.1l3.1-3.1c-2-2-4.1-2.7-6.8-2.7C-676.5,514.2-679.6,515.6-681.1,518 M-734.6,505.4c5.2,0,8.7,3.3,9.8,8.4h4.5
		c-1.4-7.8-6.9-12.3-14.3-12.3c-4.1,0-7.8,1.5-10.5,4.3c-3.9,3.9-3.9,8-3.9,16.7c0,8.8,0,12.8,3.9,16.7c2.8,2.8,6.5,4.3,10.5,4.3
		c7.4,0,13-4.5,14.3-12.3h-4.4c-1.1,5.1-4.7,8.4-9.9,8.4c-2.7,0-5.3-1-7.1-2.9c-2.6-2.7-2.9-5.5-2.9-14.2c0-8.6,0.3-11.5,2.9-14.2
		C-739.9,506.4-737.3,505.4-734.6,505.4 M-616.8,537.5l-7.5-22.9h-3.6l-7.5,22.9l-6.5-22.9h-4.5l9,28.6h3.9l7.4-22.2l7.5,22.2h3.9
		l9-28.6h-4.5L-616.8,537.5z M-696.9,533c0,2.4-0.5,4-1.4,4.9c-1.8,1.7-3.9,1.9-6.4,1.9c-4.5,0-6.5-1.6-6.5-4.9c0-3.3,2.1-5,6.4-5h8
		v3.1H-696.9z M-704.2,514.2c-4.6,0-7.5,0.9-10.1,4.2l2.8,2.6c1.7-2.4,3.5-3.2,7.2-3.2c5.2,0,7.3,2.1,7.3,6.3v2.7h-8.6
		c-6.4,0-9.8,3.3-9.8,8.2c0,2.3,0.8,4.4,2.1,5.8c1.8,1.9,4.1,2.6,8,2.6c3.8,0,5.9-0.8,8.2-3.1v2.7h4.2v-19.3
		C-692.8,517.5-696.5,514.2-704.2,514.2 M-525.3,514.2c-3.2,0-5.9,1.1-8,3.5v-15.9h-4.2v41.3h4.2v-17.7c0-4.9,2.8-7.5,7.1-7.5
		s6.9,2.6,6.9,7.5v17.7h4.2v-18.4C-515.1,518.3-518.9,514.2-525.3,514.2 M-655.8,505.8h-4.2v8.9h-3.6v3.2h3.6v17.5
		c0,4.2,2.4,7.7,7.3,7.7h3v-3.6h-2.2c-2.7,0-3.9-1.6-3.9-4.2v-17.4h6.1v-3.2h-6.1C-655.8,514.7-655.8,505.8-655.8,505.8z"/>
	<path fill="#B5144F" d="M-400.2,539.3c-6.2,0-7.1-5.3-7.1-10.7c0-5.3,0.9-10.7,7.1-10.7s7.1,5.3,7.1,10.7
		C-393.2,533.9-394,539.3-400.2,539.3 M-393.1,514.5v3.4c-2.3-3-4.9-3.7-8-3.7c-2.9,0-5.4,1-6.9,2.5c-2.8,2.8-3.5,7.3-3.5,11.9
		c0,4.6,0.6,9.1,3.5,11.9c1.5,1.5,4,2.6,6.9,2.6c3.1,0,5.7-0.8,8-3.7v4.5c0,4.9-2.3,8.8-7.8,8.8c-3.3,0-4.7-1-6.8-2.8l-2.7,2.7
		c3,2.7,5.4,3.8,9.7,3.8c7.5,0,11.9-5.2,11.9-12.2v-29.7H-393.1z M-452.1,506.4h4.7v-4.7h-4.7V506.4z M-428,514.2
		c-3.2,0-6,1.2-8,3.5v-3.1h-4.2v28.6h4.2v-17.7c0-5,2.8-7.6,7.1-7.6c4.3,0,7,2.6,7,7.6v17.6h4.2v-18.3c0-3.3-0.9-6-3-8
		C-422.4,515.1-424.9,514.2-428,514.2 M-458.6,501.8h-5.4l-19.2,23.7v-23.7h-4.4v41.3h4.4v-11.6l8.7-10.5l12.6,22h5.2l-14.8-25.4
		L-458.6,501.8z M-451.9,543.1h4.2v-28.6h-4.2V543.1z"/>
	<path fill="#1D1D1B" d="M-547,567.9h4v12.6h1.5v-12.6h4v-1.3h-9.5V567.9z M-561.7,580.5h1.5v-13.9h-1.5V580.5z M-470.8,573.9
		c-0.6-0.5-1.2-0.8-2.5-1l-1.5-0.2c-0.7-0.1-1.4-0.4-1.9-0.8c-0.4-0.4-0.6-0.9-0.6-1.6c0-1.5,1.1-2.6,2.9-2.6c1.5,0,2.4,0.4,3.2,1.2
		l1-1c-1.2-1.1-2.4-1.5-4.1-1.5c-2.7,0-4.4,1.6-4.4,3.9c0,1.1,0.4,2,1.1,2.6c0.6,0.5,1.5,0.9,2.5,1.1l1.6,0.3c1,0.2,1.4,0.3,1.8,0.7
		s0.7,1,0.7,1.7c0,1.6-1.2,2.6-3.3,2.6c-1.6,0-2.6-0.4-3.8-1.5l-1,1c1.3,1.3,2.7,1.8,4.8,1.8c2.9,0,4.8-1.5,4.8-3.9
		C-469.6,575.5-470,574.6-470.8,573.9 M-580.1,567.8c1.7,0,2.9,1.1,3.3,2.8h1.5c-0.5-2.6-2.3-4.1-4.8-4.1c-1.4,0-2.6,0.5-3.5,1.4
		c-1.3,1.3-1.3,2.7-1.3,5.6s0,4.3,1.3,5.6c0.9,0.9,2.2,1.4,3.5,1.4c2.5,0,4.4-1.5,4.8-4.1h-1.5c-0.4,1.7-1.6,2.8-3.3,2.8
		c-0.9,0-1.8-0.3-2.4-1c-0.9-0.9-1-1.9-1-4.8c0-2.9,0.1-3.9,1-4.8C-581.9,568.1-581,567.8-580.1,567.8 M-500,573v-5.1h3.7
		c1.6,0,2.8,0.9,2.8,2.6s-1.1,2.5-2.8,2.5H-500z M-492,570.5c0-2.4-1.7-3.9-4.1-3.9h-5.3v13.9h1.5v-6.2h3.3l3.2,6.2h1.7l-3.3-6.3
		C-493.2,573.8-492,572.5-492,570.5 M-517.7,578.3c-0.6,0.6-1.5,1-2.4,1c-0.9,0-1.8-0.4-2.4-1c-0.9-0.9-1-1.8-1-4.7
		c0-2.9,0.1-3.8,1-4.7c0.6-0.6,1.5-1,2.4-1c0.9,0,1.8,0.4,2.4,1c0.9,0.9,1,1.8,1,4.7C-516.8,576.4-516.9,577.4-517.7,578.3
		 M-520.1,566.5c-1.4,0-2.6,0.5-3.5,1.4c-1.3,1.3-1.3,2.7-1.3,5.6s0,4.3,1.3,5.6c0.9,0.9,2.2,1.4,3.5,1.4c1.4,0,2.6-0.5,3.5-1.4
		c1.3-1.3,1.3-2.7,1.3-5.6s0-4.3-1.3-5.6C-517.5,567-518.8,566.5-520.1,566.5 M-662.5,572.9l-1.5-0.2c-0.7-0.1-1.4-0.4-1.9-0.8
		c-0.4-0.4-0.6-0.9-0.6-1.6c0-1.5,1.1-2.6,2.9-2.6c1.5,0,2.4,0.4,3.2,1.2l1-1c-1.2-1.1-2.4-1.5-4.1-1.5c-2.7,0-4.4,1.6-4.4,3.9
		c0,1.1,0.3,2,1.1,2.6c0.6,0.5,1.5,0.9,2.5,1.1l1.6,0.3c1,0.2,1.4,0.3,1.8,0.7c0.4,0.4,0.7,1,0.7,1.7c0,1.6-1.2,2.6-3.3,2.6
		c-1.6,0-2.6-0.4-3.8-1.5l-1,1c1.3,1.3,2.7,1.8,4.7,1.8c2.9,0,4.8-1.5,4.8-3.9c0-1.2-0.4-2.1-1.2-2.8
		C-660.6,573.4-661.2,573.1-662.5,572.9 M-600.3,580.5h1.5v-13.9h-1.5V580.5z M-638.4,578.3c-0.6,0.6-1.5,1-2.4,1
		c-0.9,0-1.8-0.4-2.4-1c-0.9-0.9-1-1.8-1-4.7c0-2.9,0.1-3.8,1-4.7c0.6-0.6,1.5-1,2.4-1c0.9,0,1.8,0.4,2.4,1c0.9,0.9,1,1.8,1,4.7
		C-637.4,576.4-637.5,577.4-638.4,578.3 M-640.8,566.5c-1.4,0-2.6,0.5-3.5,1.4c-1.3,1.3-1.3,2.7-1.3,5.6s0,4.3,1.3,5.6
		c0.9,0.9,2.2,1.4,3.5,1.4c1.4,0,2.6-0.5,3.5-1.4c1.3-1.3,1.3-2.7,1.3-5.6s0-4.3-1.3-5.6C-638.2,567-639.4,566.5-640.8,566.5
		 M-620.6,566.6h-1.5v13.9h8.6v-1.3h-7.1V566.6z"/>
	<rect x="-749" y="568.9" fill="#B5144F" width="65.6" height="9.2"/>
	<rect x="-454.6" y="568.9" fill="#B5144F" width="65.6" height="9.2"/>
</g>
</svg>
