<?xml version="1.0" encoding="utf-8"?>
<!-- Generator: Adobe Illustrator 18.1.1, SVG Export Plug-In . SVG Version: 6.00 Build 0)  -->
<svg version="1.1" id="sponsor-logo_bspap" xmlns="http://www.w3.org/2000/svg" xmlns:xlink="http://www.w3.org/1999/xlink" x="0px"
	 y="0px" viewBox="-764 466 390 150" enable-background="new -764 466 390 150" xml:space="preserve">
<g>
	<g>
		<path fill="#80BBC5" d="M-570.3,602.4c0.2,0.2,0.2,0.5,0,0.7l-0.3,0.3c-0.2,0.2-0.5,0.2-0.7,0l-6-6c-0.2-0.2-0.2-0.5,0-0.7
			l0.3-0.3c0.2-0.2,0.5-0.2,0.7,0L-570.3,602.4"/>
	</g>
	<path fill="#80BBC5" d="M-566.6,599.3c-0.1,0.1-0.4,0.2-0.5,0.1l-4.8-2l3.3,3.3c0.2,0.2,0.2,0.5,0,0.7l-0.3,0.3
		c-0.2,0.2-0.5,0.2-0.7,0l-6-6c-0.2-0.2-0.2-0.5,0-0.7l0.2-0.2c0.1-0.1,0.4-0.2,0.5-0.1l4.8,2l-3.3-3.3c-0.2-0.2-0.2-0.5,0-0.7
		l0.3-0.3c0.2-0.2,0.5-0.2,0.7,0l6,6c0.2,0.2,0.2,0.5,0,0.7L-566.6,599.3"/>
	<path fill="#80BBC5" d="M-565.9,593.5l-2.9-4.7c-0.1-0.2-0.1-0.5,0.1-0.6l0.3-0.3c0.2-0.2,0.6-0.2,0.8,0.1l4.6,7.4
		c0.1,0.2,0.1,0.5-0.1,0.6l-0.2,0.2c-0.2,0.2-0.4,0.2-0.6,0.1l-7.4-4.6c-0.3-0.2-0.3-0.5-0.1-0.8l0.3-0.3c0.1-0.1,0.4-0.2,0.6-0.1
		L-565.9,593.5"/>
	<path fill="#80BBC5" d="M-565.1,584.5c0.2-0.2,0.5-0.2,0.7,0l0.3,0.3c0.2,0.2,0.2,0.5,0,0.7l-1.5,1.5l1.9,1.9l1.2-1.2
		c0.2-0.2,0.5-0.2,0.7,0l0.3,0.3c0.2,0.2,0.2,0.5,0,0.7l-1.2,1.2l1.9,1.9l1.5-1.5c0.2-0.2,0.5-0.2,0.7,0l0.3,0.3
		c0.2,0.2,0.2,0.5,0,0.7l-2.1,2.1c-0.2,0.2-0.5,0.2-0.7,0l-6-6c-0.2-0.2-0.2-0.5,0-0.7L-565.1,584.5"/>
	<path fill="#80BBC5" d="M-559.8,588.4c-0.2-0.2-0.2-0.5,0-0.7l0.3-0.3c0.2-0.2,0.5-0.2,0.7,0l0.1,0.1c0.5,0.5,0.8,0.6,1.1,0.6
		c0.2,0,0.4-0.1,0.5-0.3c0.4-0.4,0.5-0.8-0.1-1.4c-0.5-0.5-1.3-0.4-2.2-0.3l0,0c-1.2,0.1-2.4,0.3-3.4-0.7c-1.1-1.1-1.2-2.4-0.1-3.4
		c1.1-1.1,2.3-1,3.6,0.3l0.1,0.1c0.2,0.2,0.2,0.5,0,0.7l-0.3,0.3c-0.2,0.2-0.5,0.2-0.7,0l-0.1-0.1c-0.7-0.7-1.2-0.7-1.6-0.3
		c-0.4,0.4-0.4,0.9,0.1,1.4s1.4,0.4,2.2,0.3l0,0c1.2-0.1,2.3-0.3,3.3,0.7c1.1,1.1,1.1,2.3,0.1,3.3
		C-557.3,589.8-558.5,589.7-559.8,588.4L-559.8,588.4"/>
	<path fill="#80BBC5" d="M-560.4,580.5c-0.2-0.2-0.2-0.5,0-0.7l2.6-2.6c0.2-0.2,0.5-0.2,0.7,0l0.3,0.3c0.2,0.2,0.2,0.5,0,0.7
		l-0.8,0.8l5.3,5.3c0.2,0.2,0.2,0.5,0,0.7l-0.3,0.3c-0.2,0.2-0.5,0.2-0.7,0l-5.3-5.3l-0.8,0.8c-0.2,0.2-0.5,0.2-0.7,0L-560.4,580.5"
		/>
	<path fill="#80BBC5" d="M-549.5,581.5c0.2,0.2,0.2,0.5,0,0.7l-0.3,0.3c-0.2,0.2-0.5,0.2-0.7,0l-6-6c-0.2-0.2-0.2-0.5,0-0.7l0.3-0.3
		c0.2-0.2,0.5-0.2,0.7,0L-549.5,581.5"/>
	<path fill="#80BBC5" d="M-545.7,578.5c-0.1,0.1-0.4,0.2-0.5,0.1l-4.8-2l3.3,3.3c0.2,0.2,0.2,0.5,0,0.7l-0.3,0.3
		c-0.2,0.2-0.5,0.2-0.7,0l-6-6c-0.2-0.2-0.2-0.5,0-0.7l0.2-0.2c0.1-0.1,0.4-0.2,0.5-0.1l4.8,2l-3.3-3.3c-0.2-0.2-0.2-0.5,0-0.7
		l0.3-0.3c0.2-0.2,0.5-0.2,0.7,0l6,6c0.2,0.2,0.2,0.5,0,0.7L-545.7,578.5"/>
	<path fill="#80BBC5" d="M-544.8,570.9c0.2-0.2,0.5-0.2,0.7,0l1.1,1.1c1.3,1.3,1.4,2.5,0.3,3.6c-1.1,1.1-2.3,1-3.6-0.3l-2.8-2.8
		c-1.3-1.3-1.4-2.5-0.3-3.6c1.1-1.1,2.3-1,3.6,0.3l0.1,0.1c0.2,0.2,0.2,0.5,0,0.7l-0.3,0.3c-0.2,0.2-0.5,0.2-0.7,0l-0.1-0.1
		c-0.5-0.5-0.8-0.6-1-0.6s-0.4,0.1-0.5,0.3c-0.1,0.1-0.3,0.3-0.3,0.5c0,0.3,0.1,0.6,0.6,1c1.6,1.6,2.6,2.6,2.8,2.8
		c0.6,0.6,1.2,0.7,1.6,0.3c0.4-0.4,0.3-0.9-0.3-1.6l-0.4-0.4l-0.3,0.3c-0.6,0.6-1.6-0.4-1-1L-544.8,570.9"/>
	<path fill="#80BBC5" d="M-537.7,569.8c0.2,0.2,0.2,0.5,0,0.7l-0.3,0.3c-0.2,0.2-0.5,0.2-0.7,0l-6-6c-0.2-0.2-0.2-0.5,0-0.7l0.3-0.3
		c0.2-0.2,0.5-0.2,0.7,0L-537.7,569.8"/>
	<path fill="#80BBC5" d="M-534,566.8c-0.1,0.1-0.4,0.2-0.5,0.1l-4.8-2l3.3,3.3c0.2,0.2,0.2,0.5,0,0.7l-0.3,0.3
		c-0.2,0.2-0.5,0.2-0.7,0l-6-6c-0.2-0.2-0.2-0.5,0-0.7l0.2-0.2c0.1-0.1,0.4-0.2,0.5-0.1l4.8,2l-3.3-3.3c-0.2-0.2-0.2-0.5,0-0.7
		l0.3-0.3c0.2-0.2,0.5-0.2,0.7,0l6,6c0.2,0.2,0.2,0.5,0,0.7L-534,566.8"/>
	<path fill="#80BBC5" d="M-530,559.1l-1,1l1.2,1.9c0.1,0.2,0.1,0.5-0.1,0.6l-0.3,0.3c-0.2,0.2-0.6,0.2-0.8-0.1l-1.6-2.6l-3-4.8
		c-0.1-0.2-0.1-0.5,0.1-0.6l0.2-0.2c0.2-0.1,0.4-0.2,0.6-0.1l7.3,4.6c0.3,0.2,0.3,0.5,0.1,0.8l-0.3,0.3c-0.2,0.1-0.4,0.2-0.6,0.1
		L-530,559.1 M-531.8,558.9l0.6-0.6c-0.6-0.4-0.8-0.7-1.9-1.3L-531.8,558.9z"/>
	<path fill="#80BBC5" d="M-531.4,554.7c-0.8-0.8-1-1.5-1-2.1c0-0.6,0.3-1.1,0.7-1.5c0.4-0.4,0.9-0.7,1.5-0.7c0.6,0,1.3,0.3,2.1,1
		l0.1,0.1c0.2,0.2,0.2,0.5,0,0.7l-0.3,0.3c-0.2,0.2-0.5,0.2-0.7,0l-0.1-0.1c-0.7-0.7-1.2-0.7-1.6-0.3c-0.4,0.4-0.3,0.9,0.3,1.6
		l2.8,2.8c0.7,0.7,1.2,0.8,1.6,0.3c0.2-0.2,0.3-0.4,0.3-0.6c0-0.3-0.3-0.6-0.6-1l-0.1-0.1c-0.2-0.2-0.2-0.5,0-0.7l0.3-0.3
		c0.2-0.2,0.5-0.2,0.7,0l0.1,0.1c0.8,0.8,1,1.4,1,2.1c0,0.6-0.3,1.1-0.7,1.5c-0.4,0.4-0.9,0.7-1.5,0.7c-0.6,0-1.3-0.2-2.1-1
		L-531.4,554.7"/>
	<path fill="#80BBC5" d="M-529.5,549.6c-0.2-0.2-0.2-0.5,0-0.7l2.6-2.6c0.2-0.2,0.5-0.2,0.7,0l0.3,0.3c0.2,0.2,0.2,0.5,0,0.7
		l-0.8,0.8l5.3,5.3c0.2,0.2,0.2,0.5,0,0.7l-0.3,0.3c-0.2,0.2-0.5,0.2-0.7,0l-5.3-5.3l-0.8,0.8c-0.2,0.2-0.5,0.2-0.7,0L-529.5,549.6"
		/>
	<path fill="#80BBC5" d="M-518.5,550.6c0.2,0.2,0.2,0.5,0,0.7l-0.3,0.3c-0.2,0.2-0.5,0.2-0.7,0l-6-6c-0.2-0.2-0.2-0.5,0-0.7l0.3-0.3
		c0.2-0.2,0.5-0.2,0.7,0L-518.5,550.6"/>
	<path fill="#80BBC5" d="M-518.4,545.9l-2.9-4.7c-0.1-0.2-0.1-0.5,0.1-0.6l0.3-0.3c0.2-0.2,0.6-0.2,0.8,0.1l4.6,7.4
		c0.1,0.2,0.1,0.5-0.1,0.6l-0.2,0.2c-0.2,0.2-0.4,0.2-0.6,0.1l-7.4-4.6c-0.3-0.2-0.3-0.5-0.1-0.8l0.3-0.3c0.1-0.1,0.4-0.2,0.6-0.1
		L-518.4,545.9"/>
	<path fill="#80BBC5" d="M-517.5,536.9c0.2-0.2,0.5-0.2,0.7,0l0.3,0.3c0.2,0.2,0.2,0.5,0,0.7l-1.5,1.5l1.9,1.9l1.2-1.2
		c0.2-0.2,0.5-0.2,0.7,0l0.3,0.3c0.2,0.2,0.2,0.5,0,0.7l-1.3,1.2l1.9,1.9l1.5-1.5c0.2-0.2,0.5-0.2,0.7,0l0.3,0.3
		c0.2,0.2,0.2,0.5,0,0.7l-2.1,2.1c-0.2,0.2-0.5,0.2-0.7,0l-6-6c-0.2-0.2-0.2-0.5,0-0.7L-517.5,536.9"/>
	<path fill="#80BBC5" d="M-505.3,537.4c0.2,0.2,0.2,0.5,0,0.7l-2.1,2.1c-0.2,0.2-0.5,0.2-0.7,0l-6-6c-0.2-0.2-0.2-0.5,0-0.7l0.3-0.3
		c0.2-0.2,0.5-0.2,0.7,0l5.3,5.3l1.5-1.5c0.2-0.2,0.5-0.2,0.7,0L-505.3,537.4"/>
	<path fill="#80BBC5" d="M-503.8,535.9c0.2,0.2,0.2,0.5,0,0.7l-0.3,0.3c-0.2,0.2-0.5,0.2-0.7,0l-6-6c-0.2-0.2-0.2-0.5,0-0.7l0.3-0.3
		c0.2-0.2,0.5-0.2,0.7,0L-503.8,535.9"/>
	<path fill="#80BBC5" d="M-507,526.4c0.2-0.2,0.5-0.2,0.7,0l0.3,0.3c0.2,0.2,0.2,0.5,0,0.7l-1.5,1.5l1.9,1.9l1.1-1.1
		c0.2-0.2,0.5-0.2,0.7,0l0.3,0.3c0.2,0.2,0.2,0.5,0,0.7l-1.1,1.1l2.5,2.5c0.2,0.2,0.2,0.5,0,0.7l-0.3,0.3c-0.2,0.2-0.5,0.2-0.7,0
		l-6-6c-0.2-0.2-0.2-0.5,0-0.7L-507,526.4"/>
	<path fill="#80BBC5" d="M-503.4,522.8c0.2-0.2,0.5-0.2,0.7,0l0.3,0.3c0.2,0.2,0.2,0.5,0,0.7l-1.5,1.5l1.9,1.9l1.2-1.2
		c0.2-0.2,0.5-0.2,0.7,0l0.3,0.3c0.2,0.2,0.2,0.5,0,0.7l-1.2,1.2l1.9,1.9l1.5-1.5c0.2-0.2,0.5-0.2,0.7,0l0.3,0.3
		c0.2,0.2,0.2,0.5,0,0.7l-2.1,2.1c-0.2,0.2-0.5,0.2-0.7,0l-6-6c-0.2-0.2-0.2-0.5,0-0.7L-503.4,522.8"/>
	<path fill="#80BBC5" d="M-498.1,526.8c-0.2-0.2-0.2-0.5,0-0.7l0.3-0.3c0.2-0.2,0.5-0.2,0.7,0l0.1,0.1c0.5,0.5,0.8,0.6,1.1,0.6
		c0.2,0,0.4-0.1,0.5-0.3c0.4-0.4,0.5-0.8-0.1-1.4c-0.5-0.5-1.3-0.4-2.2-0.3l0,0c-1.2,0.1-2.4,0.3-3.4-0.7c-1.1-1.1-1.2-2.4-0.1-3.4
		c1.1-1.1,2.3-1,3.6,0.3l0.1,0.1c0.2,0.2,0.2,0.5,0,0.7l-0.3,0.3c-0.2,0.2-0.5,0.2-0.7,0l-0.1-0.1c-0.7-0.7-1.2-0.7-1.6-0.3
		c-0.4,0.4-0.4,0.9,0.1,1.4s1.4,0.4,2.2,0.3l0,0c1.2-0.1,2.3-0.3,3.3,0.7c1.1,1.1,1.1,2.3,0.1,3.3
		C-495.6,528.2-496.8,528.1-498.1,526.8L-498.1,526.8"/>
	<path fill="#80BBC5" d="M-498.8,518.9c-0.2-0.2-0.2-0.5,0-0.7l2.6-2.6c0.2-0.2,0.5-0.2,0.7,0l0.3,0.3c0.2,0.2,0.2,0.5,0,0.7
		l-0.8,0.8l5.3,5.3c0.2,0.2,0.2,0.5,0,0.7l-0.3,0.3c-0.2,0.2-0.5,0.2-0.7,0l-5.3-5.3l-0.8,0.8c-0.2,0.2-0.5,0.2-0.7,0L-498.8,518.9"
		/>
	<path fill="#80BBC5" d="M-491.4,514.9l-1-2.6c0-0.1,0-0.4,0.1-0.5l0.3-0.3c0.3-0.3,0.7-0.2,0.8,0.2l1.7,4.3l2.9,2.9
		c0.2,0.2,0.2,0.5,0,0.7l-0.3,0.3c-0.2,0.2-0.5,0.2-0.7,0l-2.9-2.9c-1.4-0.6-2.8-1.1-4.3-1.7c-0.4-0.1-0.4-0.5-0.2-0.8l0.3-0.3
		c0.1-0.1,0.4-0.2,0.5-0.1L-491.4,514.9"/>
	<path fill="#80BBC5" d="M-482,514.1c0.2,0.2,0.2,0.5,0,0.7l-2.1,2.1c-0.2,0.2-0.5,0.2-0.7,0l-6-6c-0.2-0.2-0.2-0.5,0-0.7l0.3-0.3
		c0.2-0.2,0.5-0.2,0.7,0l5.3,5.3l1.5-1.5c0.2-0.2,0.5-0.2,0.7,0L-482,514.1"/>
	<path fill="#80BBC5" d="M-485.3,504.7c0.2-0.2,0.5-0.2,0.7,0l0.3,0.3c0.2,0.2,0.2,0.5,0,0.7l-1.5,1.5l1.9,1.9l1.3-1.3
		c0.2-0.2,0.5-0.2,0.7,0l0.3,0.3c0.2,0.2,0.2,0.5,0,0.7l-1.2,1.2l1.9,1.9l1.5-1.5c0.2-0.2,0.5-0.2,0.7,0l0.3,0.3
		c0.2,0.2,0.2,0.5,0,0.7l-2.1,2.1c-0.2,0.2-0.5,0.2-0.7,0l-6-6c-0.2-0.2-0.2-0.5,0-0.7L-485.3,504.7"/>
	<g>
		<path fill="#80BBC5" d="M-480,508.6c-0.2-0.2-0.2-0.5,0-0.7l0.3-0.3c0.2-0.2,0.5-0.2,0.7,0l0.1,0.1c0.5,0.5,0.8,0.6,1.1,0.6
			c0.2,0,0.4-0.1,0.5-0.3c0.4-0.4,0.5-0.8-0.1-1.4c-0.5-0.5-1.3-0.4-2.2-0.3l0,0c-1.2,0.1-2.4,0.3-3.4-0.7c-1.1-1.1-1.2-2.4-0.1-3.4
			c1.1-1.1,2.3-1,3.6,0.3l0.1,0.1c0.2,0.2,0.2,0.5,0,0.7l-0.3,0.3c-0.2,0.2-0.5,0.2-0.7,0l-0.1-0.1c-0.7-0.7-1.2-0.7-1.6-0.3
			c-0.4,0.4-0.4,0.9,0.1,1.4s1.4,0.4,2.2,0.3l0,0c1.2-0.1,2.3-0.3,3.3,0.7c1.1,1.1,1.1,2.3,0.1,3.3
			C-477.5,510-478.7,509.9-480,508.6L-480,508.6"/>
	</g>
	<path fill="#409AA8" d="M-609.6,564.9c-0.5-0.5-0.5-1.4,0-1.9l0.8-0.8c0.5-0.5,1.4-0.5,1.9,0l0.3,0.4c1.3,1.3,2.2,1.7,2.9,1.6
		c0.6,0,1.1-0.4,1.5-0.8c1.1-1.1,1.3-2.2-0.2-3.7c-1.3-1.3-3.5-1-5.9-0.7l0,0c-3.2,0.4-6.5,0.8-9.2-1.9c-3.1-3.1-3.2-6.4-0.4-9.3
		c2.9-2.9,6.3-2.6,9.7,0.8l0.4,0.4c0.5,0.5,0.5,1.4,0,1.9l-0.8,0.8c-0.5,0.5-1.4,0.5-1.9,0l-0.4-0.4c-1.8-1.8-3.2-2-4.3-0.8
		c-1.1,1.1-1.1,2.4,0.3,3.8c1.4,1.4,3.8,1.1,6.1,0.8l0,0c3.2-0.4,6.3-0.8,9,1.8c3,3,3.1,6.2,0.2,9.1c-3,3-6.2,2.7-9.7-0.8
		L-609.6,564.9"/>
	<path fill="#409AA8" d="M-598.3,549.4l6.8,6.8c0.5,0.5,0.5,1.4,0,1.9l-0.8,0.8c-0.5,0.5-1.4,0.5-1.9,0l-16.3-16.3
		c-0.5-0.5-0.5-1.4,0-1.9l2.9-2.9c3.3-3.3,6.5-3,10,0.5s3.8,6.7,0.5,10L-598.3,549.4 M-606,541.6l5.1,5.1l1.2-1.2
		c1.5-1.5,1.3-2.8-0.5-4.6c-1.8-1.8-3.1-1.9-4.6-0.5L-606,541.6z"/>
	<path fill="#409AA8" d="M-595.6,536.4c-3.4-3.4-3.8-6.7-0.8-9.7s6.3-2.6,9.7,0.8l7.6,7.6c2.1,2.1,2.8,3.9,2.8,5.6
		c0,1.8-0.9,3.1-1.9,4.1s-2.3,1.9-4.1,1.9c-1.7,0-3.5-0.6-5.6-2.8L-595.6,536.4 M-585.3,541.3c1.8,1.8,3.2,2.1,4.3,0.9
		c1.1-1.1,0.9-2.5-0.9-4.3l-7.6-7.6c-1.8-1.8-3.2-2-4.3-0.9c-1.2,1.2-0.9,2.6,0.9,4.3L-585.3,541.3z"/>
	<path fill="#409AA8" d="M-564,528.6c0.5,0.5,0.5,1.4,0,1.9l-0.8,0.8c-0.5,0.5-1.4,0.5-1.9,0l-4.5-4.5c-1.4-1.4-2.9-1.4-4.2,0
		l-1.2,1.2l6.6,6.6c0.5,0.5,0.5,1.4,0,1.9l-0.8,0.8c-0.5,0.5-1.4,0.5-1.9,0L-589,521c-0.5-0.5-0.5-1.4,0-1.9l3.4-3.4
		c3.3-3.3,6.2-2.8,9.8,0.8c1.7,1.7,2.7,3.3,2.7,5c0,0.2,0,0.3,0,0.4c1.6,0.1,3.1,0.8,4.5,2.2L-564,528.6 M-579.4,525.3l1.2-1.2
		c1.5-1.5,1.5-3.1-0.3-4.9s-3-2.2-4.4-0.8l-1.7,1.7L-579.4,525.3z"/>
	<path fill="#409AA8" d="M-578.3,510.4c-0.5-0.5-0.5-1.4,0-1.9l7.1-7.1c0.5-0.5,1.4-0.5,1.9,0l0.8,0.8c0.5,0.5,0.5,1.4,0,1.9
		l-2.2,2.2l14.5,14.5c0.5,0.5,0.5,1.4,0,1.9l-0.7,0.7c-0.5,0.5-1.4,0.5-1.9,0l-14.6-14.4l-2.2,2.2c-0.5,0.5-1.4,0.5-1.9,0
		L-578.3,510.4"/>
	<path fill="#00788B" d="M-580.4,591.8c-0.5,0.5-1.4,0.5-1.9,0l-16.3-16.3c-0.5-0.5-0.5-1.4,0-1.9l2.7-2.7c3.2-3.2,6.3-2.8,9.8,0.6
		c2.5,2.5,2.7,5,2.7,5c1.6,0.2,3.4,1.1,5.1,2.7c3.5,3.5,3.8,6.6,0.6,9.8L-580.4,591.8 M-594.2,574.6l5.1,5.1l0.9-0.9
		c1.3-1.3,1.1-2.6-0.7-4.4c-1.8-1.8-3.1-2-4.4-0.7L-594.2,574.6z M-586.5,582.3l5.1,5.1l0.9-0.9c1.3-1.3,1.1-2.6-0.7-4.4
		c-1.8-1.8-3.1-2-4.4-0.7L-586.5,582.3z"/>
	<path fill="#00788B" d="M-569.5,579c0.5,0.5,0.5,1.4,0,1.9l-0.8,0.8c-0.5,0.5-1.4,0.5-1.9,0l-16.3-16.3c-0.5-0.5-0.5-1.4,0-1.9
		l0.8-0.8c0.5-0.5,1.4-0.5,1.9,0L-569.5,579"/>
	<path fill="#00788B" d="M-559,568.4c0.5,0.5,0.5,1.4,0,1.9l-0.8,0.8c-0.5,0.5-1.4,0.5-1.9,0l-4.5-4.5c-1.4-1.3-2.9-1.3-4.2,0
		l-1.2,1.2l6.6,6.6c0.5,0.5,0.5,1.4,0,1.9l-0.8,0.8c-0.5,0.5-1.4,0.5-1.9,0l-16.3-16.3c-0.5-0.5-0.5-1.4,0-1.9l3.4-3.4
		c3.3-3.3,6.2-2.8,9.8,0.8c1.7,1.7,2.7,3.3,2.7,5c0,0.2,0,0.3,0,0.4c1.6,0.1,3.1,0.8,4.5,2.2L-559,568.4 M-574.4,565.1l1.2-1.2
		c1.5-1.5,1.5-3.1-0.3-4.9s-3-2.2-4.4-0.8l-1.7,1.7L-574.4,565.1z"/>
	<path fill="#00788B" d="M-551.5,562.9c-0.4,0.4-1.2,0.5-1.7,0.2l-7-5.2l5.9,5.9c0.5,0.5,0.5,1.4,0,1.9l-0.8,0.8
		c-0.5,0.5-1.4,0.5-1.9,0l-16.3-16.3c-0.5-0.5-0.5-1.4,0-1.9l0.8-0.8c0.4-0.4,1.2-0.5,1.7-0.2l13,8.7l-8.8-13
		c-0.3-0.5-0.2-1.3,0.2-1.7l0.8-0.8c0.5-0.5,1.4-0.5,1.9,0l16.3,16.3c0.5,0.5,0.5,1.4,0,1.9l-0.8,0.8c-0.5,0.5-1.4,0.5-1.9,0
		l-5.8-5.8l5.1,6.9c0.3,0.5,0.2,1.3-0.2,1.7L-551.5,562.9"/>
	<path fill="#00788B" d="M-542.4,551.8c0.5,0.5,0.5,1.4,0,1.9l-0.8,0.8c-0.5,0.5-1.4,0.5-1.9,0l-16.3-16.3c-0.5-0.5-0.5-1.4,0-1.9
		l0.8-0.8c0.5-0.5,1.4-0.5,1.9,0L-542.4,551.8"/>
	<path fill="#00788B" d="M-532.2,543.6c-0.3,0.3-1.1,0.5-1.5,0.3l-13-5.5l8.9,8.9c0.5,0.5,0.5,1.4,0,1.9l-0.8,0.8
		c-0.5,0.5-1.4,0.5-1.9,0l-16.3-16.3c-0.5-0.5-0.5-1.4,0-1.9l0.7-0.6c0.3-0.4,1.1-0.5,1.5-0.3l13,5.5l-8.9-8.9
		c-0.5-0.5-0.5-1.4,0-1.9l0.8-0.8c0.5-0.5,1.4-0.5,1.9,0l16.3,16.3c0.5,0.5,0.5,1.4,0,1.9L-532.2,543.6"/>
	<path fill="#00788B" d="M-529.7,522.8c0.5-0.5,1.4-0.5,1.9,0l2.9,2.9c3.4,3.4,3.8,6.7,0.8,9.7s-6.3,2.6-9.7-0.8l-7.7-7.7
		c-3.4-3.4-3.8-6.7-0.8-9.7s6.2-2.6,9.7,0.8l0.4,0.4c0.5,0.5,0.5,1.4,0,1.9l-0.8,0.8c-0.5,0.5-1.4,0.5-1.9,0l-0.4-0.4
		c-1.3-1.3-2.2-1.6-2.8-1.6c-0.6,0-1.1,0.4-1.5,0.8c-0.4,0.4-0.8,0.9-0.8,1.5c-0.1,0.7,0.4,1.6,1.6,2.8c4.3,4.3,7,7,7.7,7.7
		c1.8,1.8,3.2,2,4.3,0.8c1.2-1.2,0.9-2.6-0.9-4.3l-1.2-1.2l-0.9,0.9c-1.5,1.5-4.3-1.1-2.7-2.7L-529.7,522.8"/>
	<path fill="#00788B" d="M-522.4,512.9l-6.8-6.8c-0.5-0.5-0.5-1.4,0-1.9l0.8-0.8c0.5-0.5,1.4-0.5,1.9,0l16.3,16.3
		c0.5,0.5,0.5,1.4,0,1.9l-0.8,0.8c-0.5,0.5-1.4,0.5-1.9,0l-6.8-6.8l-3,3l6.8,6.8c0.5,0.5,0.5,1.4,0,1.9l-0.8,0.8
		c-0.5,0.5-1.4,0.5-1.9,0l-16.3-16.3c-0.5-0.5-0.5-1.4,0-1.9l0.8-0.8c0.5-0.5,1.4-0.5,1.9,0l6.8,6.8L-522.4,512.9"/>
	<path fill="#00788B" d="M-505.6,507l-2.8,2.8l3.3,5.2c0.3,0.5,0.2,1.3-0.2,1.7l-0.8,0.8c-0.6,0.6-1.6,0.5-2.1-0.2l-4.4-7l-8.1-13
		c-0.3-0.5-0.2-1.3,0.2-1.7l0.6-0.6c0.4-0.4,1.2-0.5,1.7-0.2l20,12.5c0.8,0.5,0.9,1.5,0.2,2.1l-0.8,0.8c-0.4,0.4-1.2,0.5-1.7,0.2
		L-505.6,507 M-510.4,506.5l1.5-1.5c-1.6-1-2.3-1.8-5.1-3.6L-510.4,506.5z"/>
	<path fill="#00788B" d="M-490.6,502c-0.4,0.4-1.2,0.5-1.7,0.2l-7-5.2l5.9,5.9c0.5,0.5,0.5,1.4,0,1.9l-0.8,0.8
		c-0.5,0.5-1.4,0.5-1.9,0l-16.3-16.3c-0.5-0.5-0.5-1.4,0-1.9l0.8-0.8c0.4-0.4,1.2-0.5,1.7-0.2l13,8.7l-8.8-13
		c-0.3-0.5-0.2-1.3,0.2-1.7l0.8-0.8c0.5-0.5,1.4-0.5,1.9,0l16.3,16.3c0.5,0.5,0.5,1.4,0,1.9l-0.8,0.8c-0.5,0.5-1.4,0.5-1.9,0
		l-5.8-5.8l5.1,6.9c0.3,0.5,0.2,1.3-0.2,1.7L-490.6,502"/>
	<g>
		<path fill="#00788B" d="M-627.9,481.1c-9.2-4.7-20.2-2.9-27.6,4.4c-4.5,4.5-7,10.5-7,16.8c0,6.4,2.5,12.3,7,16.8l8,8.1
			c0.2,0.2,5,5.1,11.5,5.1c3.9,0,7.4-1.6,10.6-4.7l16.1-16.1c2.1-2.1,3.3-4.9,3.3-7.9s-1.2-5.8-3.3-7.9c-4.3-4.3-11.4-4.3-15.8,0
			l-10.7,10.8c-1.6,1.6-4.1,1.6-5.7,0c-1.6-1.6-1.6-4.1,0-5.7l5.5-5.4l0,0c0.1-0.1,0.1-0.1,0.1-0.2c1.2-1.4,1.1-3.5-0.2-4.8
			c-1.4-1.4-3.6-1.4-5,0l-5.4,5.4c-1.1,1.1-1.9,2.3-2.4,3.7c-0.8,2-1,4.2-0.6,6.3c0.4,2.2,1.5,4.2,3.1,5.8c4.3,4.3,11.4,4.3,15.8,0
			l10.7-10.8c1.6-1.6,4.1-1.6,5.7,0c1.6,1.6,1.6,4.1,0,5.7l-16.1,16.1c-1.8,1.8-3.6,2.6-5.5,2.6c-3.5,0-6.4-2.9-6.5-3l-8-8.2
			c-3.2-3.2-4.9-7.4-4.9-11.8c0-4.5,1.7-8.7,4.9-11.8c5.5-5.5,14-6.5,20.7-2.4c1.1,0.7,2.6,0.7,3.8,0c6.6-4.2,15.1-3.2,20.7,2.3
			c3.2,3.2,4.9,7.3,4.9,11.8s-1.7,8.7-4.9,11.8c0,0,0,0-0.1,0.1l-25.1,25.1c-1.4,1.4-1.4,3.6,0,5c1.4,1.4,3.6,1.4,5,0l25.3-25.2
			c0.1-0.1,0.1-0.1,0.1-0.2c4.2-4.4,6.5-10.2,6.5-16.3c0-6.4-2.5-12.3-7-16.8C-607.7,478.2-618.7,476.4-627.9,481.1"/>
	</g>
</g>
</svg>
