<?xml version="1.0" encoding="utf-8"?>
<!-- Generator: Adobe Illustrator 18.1.1, SVG Export Plug-In . SVG Version: 6.00 Build 0)  -->
<svg version="1.1" id="sponsor-logo_mattioli-woods"
	 xmlns="http://www.w3.org/2000/svg" xmlns:xlink="http://www.w3.org/1999/xlink" x="0px" y="0px" viewBox="-764 466 390 150"
	 enable-background="new -764 466 390 150" xml:space="preserve">
<g>
	<rect x="-692.7" y="515.5" fill="#C41230" width="0.9" height="53.2"/>
	<path fill="#C41230" d="M-723,542.2c1.1-3.8,5.6-10.2,13.4-9.7c7.8,0.5,10.3,7.6,7.5,10.7c-1.8,2-4.6,0.9-4.6,0.9s4.6-0.6,3.1-5.6
		c-0.5-1.7-1.8-3-3.4-3.7c-1.1-0.4-3.4-1.1-4.4-0.3c-0.1,0.3,0.2,0.4,0.4,0.4c1,0.1,2.8,0.4,3.8,1.6c1,1.3,1.3,2.6,0.6,3.4
		c0,0-0.4-1-1.4-0.9s-1.7,0.5-3.3-0.5c0,0,0.4,1.7-0.3,2.5c0,0-1.9-0.6-3.1-1.6c-1.3-1-2.8-1.3-4.1-0.2c-1.3,1-2.2,2.4-2.4,3
		C-721.2,542.2-723,542.2-723,542.2z"/>
	<path fill="#C41230" d="M-710.7,549.1c-0.1-0.7-0.3-1.2-0.7-1.6c-0.4-0.6-1.1-1-1.9-1c-1.2,0-2.2,1-2.2,2.2s1,2.2,2.2,2.2
		c0.2,0,0.4,0,0.6-0.1l0,0c-0.3,1-1,1.6-2.1,1.9c-1.8,0.4-3.3,0.1-4.5-0.8c-1.8-1.5-2.4-4.2-2.4-6h-1.8c0,2.2,0.7,5.5,3,7.4
		c1.6,1.3,3.7,1.7,6,1.2C-711.5,553.8-710.3,551.3-710.7,549.1"/>
	<path fill="#C41230" d="M-730,542.2c-1.1-3.8-5.6-10.2-13.4-9.7c-7.8,0.5-10.3,7.6-7.5,10.7c1.8,2,4.6,0.9,4.6,0.9
		s-4.6-0.6-3.1-5.6c0.5-1.7,1.8-3,3.4-3.7c1.1-0.4,3.4-1.1,4.4-0.3c0.1,0.3-0.2,0.4-0.4,0.4c-1,0.1-2.8,0.4-3.8,1.6
		c-1,1.3-1.3,2.6-0.6,3.4c0,0,0.4-1,1.4-0.9s1.7,0.5,3.3-0.5c0,0-0.4,1.7,0.3,2.5c0,0,1.9-0.6,3.1-1.6c1.3-1,2.8-1.3,4.1-0.2
		c1.3,1,2.2,2.4,2.4,3C-731.8,542.2-730,542.2-730,542.2z"/>
	<path fill="#C41230" d="M-742.3,549.1c0.1-0.7,0.3-1.2,0.7-1.6c0.4-0.6,1.1-1,1.9-1c1.2,0,2.2,1,2.2,2.2s-1,2.2-2.2,2.2
		c-0.2,0-0.4,0-0.6-0.1l0,0c0.3,1,1,1.6,2.1,1.9c1.8,0.4,3.3,0.1,4.5-0.8c1.8-1.5,2.4-4.2,2.4-6h1.8c0,2.2-0.7,5.5-3,7.4
		c-1.6,1.3-3.7,1.7-6,1.2C-741.5,553.8-742.6,551.3-742.3,549.1"/>
	<path fill="#C41230" d="M-726.9,540.6c-0.4,0-1.2,0.2-1.2,0.2c-0.4-0.7-1.8-5.6-4.7-8.9c-3-3.3-5.6-3.6-8-3.4
		c-2.4,0.2-2.3,2.9-2.3,2.9s-2-2.9-0.1-4.6c1.9-1.8,4.5-1.4,5.9-0.7c1.4,0.7,1.2,0,0.9-0.9c-0.3-0.9,0.3-2.4,0.3-2.4
		c0.2,1.4,3,2,4.5,4.8c1,1.9,2.7,6.9,3,8.1c0.3,1.2,0.5,2.2,1,2.1s0.4-1-0.1-2.7c-0.5-1.7-0.9-3.1-1.9-5.8c-1-2.8-0.4-7.9,0-8.8
		c0.4-0.9,0.5-1.5,0.5-1.5c0.5,0.3,1.3,0.9,1.3,0.9s-0.4-1-0.1-2.1c0.2-0.9,1-1.3,1.3-2.5l0,0c0.3,1.2,1.2,1.7,1.4,2.5
		c0.3,1-0.1,2.1-0.1,2.1s0.8-0.6,1.3-0.9c0,0,0.1,0.6,0.5,1.5s1,6.1,0,8.8c-1,2.8-1.4,4.1-1.9,5.8c-0.5,1.7-0.6,2.6-0.1,2.7
		s0.7-0.9,1-2.1c0.3-1.2,1.9-6.2,3-8.1c1.6-2.9,4.3-3.5,4.5-4.8c0,0,0.6,1.5,0.3,2.4c-0.3,0.9-0.5,1.6,0.9,0.9
		c1.4-0.7,4-1.1,5.9,0.7c1.9,1.8-0.1,4.6-0.1,4.6s0.1-2.7-2.3-2.9c-2.4-0.2-5,0.1-8,3.4c-3,3.3-4.3,8.2-4.7,8.9c0,0-0.8-0.2-1.2-0.2
		H-726.9z"/>
	<path fill="#C41230" d="M-724.9,543.9c0,0.9-0.7,1.6-1.6,1.6s-1.6-0.7-1.6-1.6c0-0.9,0.7-1.6,1.6-1.6S-724.9,543-724.9,543.9"/>
	<path fill="#C41230" d="M-732.3,543.1v1.6h3.5c-0.1-0.3-0.1-0.5-0.1-0.8c0-0.3,0.1-0.6,0.1-0.8
		C-728.8,543.1-732.3,543.1-732.3,543.1z M-724.1,543.1c0.1,0.3,0.1,0.5,0.1,0.8c0,0.3-0.1,0.6-0.1,0.8h3.5v-1.6
		C-720.6,543.1-724.1,543.1-724.1,543.1z"/>
	<path fill="#C41230" d="M-726.5,561.8c-0.1-0.9-0.8-1.4-1.3-1.9c-0.4-0.5-0.6-1.3-0.6-1.3c-1.1,2.9-4.6,2.8-4.6,2.8
		c-0.4-0.7,0.5-2.5,0.5-2.5s-1.6,0.5-2.7-0.3c-1.1-0.7-1-2.3-1-2.3c6.7,1.6,9.1-5.9,9.7-9.9v0.2c0.6,4,3.1,11.3,9.8,9.7
		c0,0,0,1.6-1,2.3c-1.2,0.8-2.7,0.3-2.7,0.3s0.9,1.8,0.5,2.5c0,0-3.5,0.1-4.6-2.8c0,0-0.1,0.8-0.6,1.3S-726.4,560.9-726.5,561.8"/>
	<path fill="#C41230" d="M-727.4,567.7c0-0.5,0.4-0.9,0.9-0.9s0.9,0.4,0.9,0.9s-0.4,0.9-0.9,0.9S-727.4,568.2-727.4,567.7"/>
	<path fill="#C41230" d="M-728.6,564.2c0-1.1,0.9-2.1,2.1-2.1c1.1,0,2.1,0.9,2.1,2.1c0,1.1-0.9,2.1-2.1,2.1
		C-727.6,566.2-728.6,565.3-728.6,564.2"/>
	<path fill="#231F20" d="M-680.3,543.5l1.2-0.2c2.3-0.4,2.2-0.3,2.5-2.3c0.2-1.7,0.6-6.5,1.2-14.6c0.3-4.5,0.5-7.2,0.5-8.1
		c0-1.1-0.1-1-2-1.2l-2.2-0.2v-1.4c1.6,0.1,3,0.2,4.2,0.2c1.2,0,2.4,0,3.7-0.2c2.4,6.8,5.6,14.6,9.6,23.3c3.6-8.5,6.5-16.3,8.7-23.3
		c1.5,0.1,2.8,0.2,3.8,0.2s2.2,0,4-0.2v1.4h-1c-2.8,0.2-2.9-0.1-2.9,2.8c0,3.2,0.1,10.5,0.8,21.3c0.1,1.8,0,1.9,2.1,2.2l1.6,0.2v1.6
		c-1.5-0.1-3.3-0.2-5.6-0.2s-4.4,0.1-6.3,0.2v-1.5l2.2-0.3c2-0.3,2.2-0.5,2.2-2.3V540v-11.9c0-3.3-0.1-6.4-0.3-9.1
		c-2.8,6.2-5,13.4-7.7,21.2c-1.1,1.5-1.9,2.9-2.4,4.6h-0.9c-2.2-6.9-5.9-15-10.2-24.9c-0.8,8.5-1,15.2-1,19.6v1.5
		c0,1.9,0.2,1.9,2.2,2.2l1.8,0.3v1.5c-1.5-0.1-3.2-0.2-4.9-0.2c-1.5,0-3.2,0-4.8,0.2L-680.3,543.5L-680.3,543.5z"/>
	<path fill="#231F20" d="M-638.1,545.5c-2,0-3.5-1.5-3.5-3.7c0-2.9,3.4-5.4,10.2-7.8v-2.2c0-2.2-0.9-3.3-2.8-3.3
		c-1.9,0-3.3,1.1-3.6,2.5c-0.3,1.3-0.1,3.6-2.5,3.6c-0.7,0-1-0.4-1-1.2c0-1,0.6-2.1,1.8-3.3c2.2-2.1,5-3.2,6.9-3.2
		c3.9,0,4.2,2.7,4.2,7.5v6.6c0,1.6,0.1,2.3,0.9,2.3c0.5,0,1-0.4,1.5-1.2l0.3,1.1c-0.9,1.7-1.9,2.5-2.9,2.5c-1.2,0-2-1-2.5-3.2
		C-633.8,544.4-635.9,545.5-638.1,545.5 M-638.2,541c0,1.3,1,2.2,2.3,2.2c2.4,0,4.5-1.4,4.5-4.4v-3.7
		C-636,536.9-638.2,538.8-638.2,541"/>
	<path fill="#231F20" d="M-624.3,528.8v-0.9c2.4-0.6,4-2.4,4.7-5.3h1v4.7h5.5v1.5h-5.5v9.3c0,3.3,0,4.9,1.9,4.9c1,0,2.2-0.4,3.7-1
		l0.4,1c-2.3,1.5-4,2.5-5.6,2.5c-2.5,0-3.3-1.9-3.3-5.9c0-1.5,0-2.7,0-3.7v-7.2L-624.3,528.8L-624.3,528.8z"/>
	<path fill="#231F20" d="M-611.4,528.8v-0.9c2.4-0.6,4-2.4,4.7-5.3h1v4.7h5.5v1.5h-5.5v9.3c0,3.3,0,4.9,1.9,4.9c1,0,2.2-0.4,3.7-1
		l0.4,1c-2.3,1.5-4,2.5-5.6,2.5c-2.5,0-3.3-1.9-3.3-5.9c0-1.5,0-2.7,0-3.7v-7.2L-611.4,528.8L-611.4,528.8z"/>
	<path fill="#231F20" d="M-595.2,532.1v-0.2c0-2.1,0-2.5-2.8-2.7v-1c2.5-0.1,4-0.8,5.1-2.5h1c-0.2,2.9-0.3,5.4-0.3,7.3v6.4v1
		c0,2.8,0.1,3.3,2.5,3.3h0.6v1.2c-2.1-0.1-3.7-0.1-4.7-0.1s-2.6,0-4.7,0.1v-1.2c3.3,0,3.3-0.2,3.3-4v-0.3v-6.1L-595.2,532.1
		L-595.2,532.1z M-595.9,518.8c0-1.2,1.2-2.6,2.4-2.6c1,0,2,0.8,2,1.8c0,1.4-1.2,2.7-2.5,2.7C-595.1,520.6-595.9,519.9-595.9,518.8"
		/>
	<path fill="#231F20" d="M-577.8,526.7c5.4,0,9,3.8,9,9.2c0,5.6-4,9.6-9.6,9.6c-5.2,0-9.1-3.9-9.1-9.4
		C-587.5,530.5-583.5,526.7-577.8,526.7 M-577.7,544.1c3.4,0,5.6-2.6,5.6-7c0-5.5-2.7-9.3-6.3-9.3c-3.2,0-5.6,2.7-5.6,7.3
		C-584.1,540.6-581.3,544.1-577.7,544.1"/>
	<path fill="#231F20" d="M-564,520.4v-1.5c0-2.3-0.2-2.6-2.8-2.7v-1c1.8-0.3,3.4-1,4.8-2h1.1c-0.2,4.2-0.2,8.4-0.2,12.7v8.7v3.1
		c0,3.2,0,5,0.2,5.4c0.3,0.6,1.2,0.6,2.9,0.6v1.2c-2.2-0.1-3.8-0.1-4.8-0.1c-1.2,0-2.7,0.1-4.5,0.1v-1.2c1.5,0,2.4-0.1,2.7-0.5
		c0.5-0.5,0.5-3.4,0.5-8.8L-564,520.4L-564,520.4z"/>
	<path fill="#231F20" d="M-553.8,532.1v-0.2c0-2.1,0-2.5-2.8-2.7v-1c2.5-0.1,4-0.8,5.1-2.5h1c-0.2,2.9-0.3,5.4-0.3,7.3v6.4v1
		c0,2.8,0.1,3.3,2.5,3.3h0.6v1.2c-2.1-0.1-3.7-0.1-4.7-0.1s-2.6,0-4.7,0.1v-1.2c3.3,0,3.3-0.2,3.3-4v-0.3v-6.1V532.1L-553.8,532.1z
		 M-554.5,518.8c0-1.2,1.2-2.6,2.5-2.6c1,0,2,0.8,2,1.8c0,1.4-1.2,2.7-2.5,2.7C-553.7,520.6-554.5,519.9-554.5,518.8"/>
	<path fill="#231F20" d="M-534.3,521.7c-1.6-3.7-1.6-4.8-4-4.8h-0.4v-1.5c1.1,0.1,2.2,0.2,3.3,0.2c1.2,0,3.2,0,5.7-0.2v1.4
		c-1.4,0.2-1.8,0.2-1.8,1.1c0,0.7,2.5,9,8.8,23.4c1.7-3.3,3.1-6.5,4.4-9.6l-3-7.1c-1.9-4.5-3.2-6.8-3.3-7c-0.4-0.6-1.4-0.6-3-0.8
		v-1.4c1.7,0.1,3.3,0.2,4.9,0.2c1.5,0,3,0,4.5-0.2v1.5c-1.5,0-2.1,0.2-2.1,1c0,0.3,0.2,1.2,0.8,2.7l3,7.6c2.9-6,4.1-9.6,4.1-10.4
		c0-0.7-0.6-0.7-2.5-0.8v-1.5c1.5,0.1,2.8,0.2,3.9,0.2s2.5,0,4-0.2v1.4c-0.2,0-0.3,0-0.5,0c-2.7,0-4,4.4-8.3,13.2
		c1.5,3.9,3.3,7.6,5,11.4c1.8-3.7,3.7-9,5.8-16.1c1.3-4.3,1.9-6.8,1.9-7.5c0-0.4-0.1-0.6-0.3-0.7c-0.5-0.2-1.2-0.2-2.2-0.2v-1.4
		c1.4,0.1,2.9,0.2,4.3,0.2c0.5,0,1.7,0,3.3-0.2v1.5c-2.2,0.2-2.2,0.8-2.9,2.7c-4.4,11.1-7,19.2-8.3,23.8c-0.8,0.8-1.2,1.6-1.4,2.6
		h-1.5l-5.4-12.3c-1.7,3.4-3.2,6.5-4.2,9.6c-0.9,0.8-1.4,1.7-1.5,2.8h-1.8C-526.2,541.9-529.1,533.7-534.3,521.7"/>
	<path fill="#231F20" d="M-492.6,526.7c5.4,0,9,3.8,9,9.2c0,5.6-4,9.6-9.6,9.6c-5.2,0-9.1-3.9-9.1-9.4
		C-502.3,530.5-498.3,526.7-492.6,526.7 M-492.5,544.1c3.4,0,5.6-2.6,5.6-7c0-5.5-2.7-9.3-6.3-9.3c-3.2,0-5.6,2.7-5.6,7.3
		C-498.9,540.6-496.1,544.1-492.5,544.1"/>
	<path fill="#231F20" d="M-471.4,526.7c5.4,0,9,3.8,9,9.2c0,5.6-4,9.6-9.6,9.6c-5.2,0-9.1-3.9-9.1-9.4
		C-481.1,530.5-477.1,526.7-471.4,526.7 M-471.3,544.1c3.4,0,5.6-2.6,5.6-7c0-5.5-2.7-9.3-6.3-9.3c-3.2,0-5.6,2.7-5.6,7.3
		C-477.7,540.6-474.9,544.1-471.3,544.1"/>
	<path fill="#231F20" d="M-451.6,545.6c-4.9,0-8.3-3.7-8.3-8.4c0-5.8,4.2-10,10.1-10c1.5,0,3,0.4,4.6,1v-6v-1.4
		c0-3.7-0.1-4.4-2.3-4.4h-0.5v-1c1.8-0.4,3.4-1,4.9-2.1h0.9c-0.1,3.4-0.2,6.4-0.2,8.9v3.8v10.6c0,3.3,0,5.4,0.2,6
		c0.2,0.6,1,0.7,2.5,0.9v1.1c-1.5,0-2.8,0.3-4.1,0.9h-1l-0.5-2.2C-447.4,544.7-449.3,545.6-451.6,545.6 M-445.2,534.8
		c0-4.2-1.3-6.4-4.9-6.4s-6.5,3-6.5,7.5c0,4.4,3,7.7,6.5,7.7c1.7,0,3.3-0.7,4.9-2.2V534.8z"/>
	<path fill="#231F20" d="M-436.6,539.3h1.2c0.5,3.2,2.3,5,4.5,5c2,0,3.4-1.4,3.4-3.2c0-1.8-1.3-2.6-3.8-3.9
		c-3.3-1.6-5.4-2.6-5.4-5.7c0-2.9,2.3-4.9,6.3-4.9c1.4,0,2.9,0.2,4.5,0.6l0.2,4.2h-1.3c-0.5-2.4-2-3.7-4.1-3.7
		c-1.9,0-3.1,1.1-3.1,2.6c0,2.1,2.1,2.6,5.3,4.1c2.8,1.4,4.2,2.9,4.2,5.3c0,3.2-2.6,5.7-6.6,5.7c-1.8,0-3.5-0.4-5.1-1.3v-4.8H-436.6
		z"/>
	<path fill="#231F20" d="M-416.8,550.5c1.2-0.1,1.6-0.2,1.7-0.7s0.2-3.4,0.2-8.9v-2.5c0-2.4-0.1-3.3-1.3-3.3c-0.1,0-0.2,0-0.3,0
		v-0.6c1.3-0.2,2-0.6,2.7-1.7h0.6v2.5c1.4-1.1,2.5-1.7,4.1-1.7c3,0,5.2,2.2,5.2,5.6c0,3.6-2.6,6.3-5.8,6.3c-1.2,0-2.2-0.3-3.4-0.9
		v3.1v0.9c0,1.7,0.2,1.7,2.6,1.8v0.7c-1.4-0.1-2.5-0.1-3.4-0.1c-0.6,0-1.6,0-2.9,0.1L-416.8,550.5L-416.8,550.5z M-413,541.4
		c0,2.1,1.5,3.4,3.4,3.4c2.1,0,3.8-1.8,3.8-4.6c0-3.1-1.9-5.2-4.5-5.2c-1.3,0-2.7,0.8-2.7,2.4L-413,541.4L-413,541.4z"/>
	<path fill="#231F20" d="M-400.8,529.5v-1c0-1.5-0.1-1.7-1.8-1.7v-0.6c1.2-0.2,2.2-0.6,3.1-1.3h0.7c-0.1,2.7-0.2,5.4-0.2,8.2v5.6v2
		c0,2.1,0,3.2,0.2,3.4c0.2,0.4,0.8,0.4,1.9,0.4v0.7c-1.4-0.1-2.4-0.1-3.1-0.1s-1.7,0.1-2.9,0.1v-0.7c1,0,1.5-0.1,1.8-0.3
		c0.3-0.3,0.3-2.2,0.3-5.7V529.5z"/>
	<path fill="#231F20" d="M-386,543.7c-1.4,1.3-2.9,2-4.5,2c-3.1,0-5.3-2.5-5.3-5.8c0-3.6,2.6-6.3,6.1-6.3c2.2,0,3.7,1.2,3.7,2.3
		c0,0.5-0.3,0.7-0.9,0.7s-1.1-0.3-1.4-0.8c-0.4-0.7-0.5-1.4-1.8-1.4c-1.8,0-3.6,1.9-3.6,4.6c0,3,2,5.3,4.5,5.3c1,0,1.9-0.4,3-1.1
		L-386,543.7z"/>
	<polygon fill="#C41230" points="-672.7,568.4 -674.8,560.4 -677,568.4 -677.7,568.4 -680,559.2 -679.3,559.2 -677.4,567.2 
		-675.2,559.2 -674.5,559.2 -672.3,567.2 -670.4,559.2 -669.6,559.2 -672,568.4 	"/>
	<polygon fill="#C41230" points="-668,559.2 -662.4,559.2 -662.4,559.8 -667.3,559.8 -667.3,563.5 -663.1,563.5 -663.1,564.1 
		-667.3,564.1 -667.3,567.8 -662.4,567.8 -662.4,568.4 -668,568.4 	"/>
	<path fill="#C41230" d="M-655.6,566.2h-4.3l-0.8,2.2h-0.8l3.4-9.2h0.6l3.4,9.2h-0.8L-655.6,566.2z M-659.7,565.6h3.9l-1.9-5.4
		L-659.7,565.6z"/>
	<polygon fill="#C41230" points="-652.4,559.2 -651.7,559.2 -651.7,567.8 -646.8,567.8 -646.8,568.4 -652.4,568.4 	"/>
	<polygon fill="#C41230" points="-643.6,568.4 -644.3,568.4 -644.3,559.8 -647.1,559.8 -647.1,559.2 -640.8,559.2 -640.8,559.8 
		-643.6,559.8 	"/>
	<polygon fill="#C41230" points="-633.5,564.1 -638.3,564.1 -638.3,568.4 -639,568.4 -639,559.2 -638.3,559.2 -638.3,563.5 
		-633.5,563.5 -633.5,559.2 -632.8,559.2 -632.8,568.4 -633.5,568.4 	"/>
	<polygon fill="#C41230" points="-619.6,560.8 -622.4,567.1 -623.1,567.1 -626,560.8 -626,568.4 -626.7,568.4 -626.7,559.2 
		-626,559.2 -622.7,566.3 -619.6,559.2 -618.9,559.2 -618.9,568.4 -619.6,568.4 	"/>
	<path fill="#C41230" d="M-611.4,566.2h-4.3l-0.8,2.2h-0.8l3.4-9.2h0.6l3.4,9.2h-0.8L-611.4,566.2z M-615.5,565.6h3.9l-1.9-5.4
		L-615.5,565.6z"/>
	<polygon fill="#C41230" points="-607.5,560.4 -607.5,568.4 -608.2,568.4 -608.2,559.2 -607.5,559.2 -602.2,567.2 -602.2,559.2 
		-601.5,559.2 -601.5,568.4 -602.2,568.4 	"/>
	<path fill="#C41230" d="M-594,566.2h-4.3l-0.8,2.2h-0.8l3.4-9.2h0.6l3.4,9.2h-0.8L-594,566.2z M-598.1,565.6h3.9l-1.9-5.4
		L-598.1,565.6z"/>
	<path fill="#C41230" d="M-585.8,567.5c-0.6,0.7-1.5,1.1-2.4,1.1c-0.9,0-1.7-0.3-2.3-0.9c-0.8-0.8-0.9-1.7-0.9-3.7
		c0-2.1,0-2.9,0.9-3.7c0.6-0.6,1.4-0.9,2.3-0.9c1.6,0,2.9,1.1,3.2,2.7h-0.7c-0.3-1.3-1.2-2.1-2.5-2.1c-0.7,0-1.3,0.2-1.8,0.7
		c-0.7,0.7-0.7,1.4-0.7,3.4s0.1,2.7,0.7,3.4c0.5,0.5,1.1,0.7,1.8,0.7s1.4-0.3,1.9-0.9c0.4-0.5,0.6-1,0.6-1.8v-0.8h-2.5v-0.6h3.2v1.5
		C-585,566.2-585.2,566.9-585.8,567.5"/>
	<polygon fill="#C41230" points="-582.5,559.2 -576.9,559.2 -576.9,559.8 -581.8,559.8 -581.8,563.5 -577.7,563.5 -577.7,564.1 
		-581.8,564.1 -581.8,567.8 -576.9,567.8 -576.9,568.4 -582.5,568.4 	"/>
	<polygon fill="#C41230" points="-567.7,560.8 -570.5,567.1 -571.2,567.1 -574.1,560.8 -574.1,568.4 -574.8,568.4 -574.8,559.2 
		-574.1,559.2 -570.9,566.3 -567.7,559.2 -567,559.2 -567,568.4 -567.7,568.4 	"/>
	<polygon fill="#C41230" points="-564.2,559.2 -558.6,559.2 -558.6,559.8 -563.5,559.8 -563.5,563.5 -559.3,563.5 -559.3,564.1 
		-563.5,564.1 -563.5,567.8 -558.6,567.8 -558.6,568.4 -564.2,568.4 	"/>
	<polygon fill="#C41230" points="-555.7,560.4 -555.7,568.4 -556.4,568.4 -556.4,559.2 -555.7,559.2 -550.4,567.2 -550.4,559.2 
		-549.7,559.2 -549.7,568.4 -550.4,568.4 	"/>
	<polygon fill="#C41230" points="-544.4,568.4 -545.1,568.4 -545.1,559.8 -547.9,559.8 -547.9,559.2 -541.7,559.2 -541.7,559.8 
		-544.4,559.8 	"/>
	<path fill="#C41230" d="M-531.2,567.4c-0.4,0.4-1.3,1.2-2.8,1.2c-1.7,0-2.9-1.1-2.9-2.6s1-2.1,2.1-2.9c-0.5-0.6-1-1.2-1-2
		c0-1,0.8-1.8,1.9-1.8c1,0,1.9,0.8,1.9,1.9c0,0.8-0.5,1.3-1.1,1.7c0,0-0.5,0.3-0.7,0.5l2.6,3.2c0.4-0.6,0.5-1.1,0.5-2.3h0.7
		c0,1.2-0.2,2.1-0.8,2.8l1.3,1.6h-0.9L-531.2,567.4z M-536.2,565.8c0,1.2,0.9,2,2.2,2c0.7,0,1.5-0.2,2.5-1l-2.8-3.4
		C-535.2,564.1-536.2,564.7-536.2,565.8 M-533.9,559.8c-0.7,0-1.2,0.5-1.2,1.2c0,0.5,0.2,0.8,0.9,1.7l0.2-0.1
		c0.2-0.1,0.3-0.2,0.3-0.2c0.5-0.3,0.9-0.7,0.9-1.3C-532.7,560.3-533.2,559.8-533.9,559.8"/>
	<polygon fill="#C41230" points="-523.6,559.2 -518,559.2 -518,559.8 -522.9,559.8 -522.9,563.5 -518.7,563.5 -518.7,564.1 
		-522.9,564.1 -522.9,567.8 -518,567.8 -518,568.4 -523.6,568.4 	"/>
	<polygon fill="#C41230" points="-508.8,560.8 -511.6,567.1 -512.3,567.1 -515.1,560.8 -515.1,568.4 -515.8,568.4 -515.8,559.2 
		-515.1,559.2 -511.9,566.3 -508.8,559.2 -508.1,559.2 -508.1,568.4 -508.8,568.4 	"/>
	<path fill="#C41230" d="M-501.8,564.5h-2.7v3.9h-0.7v-9.2h3.4c1.6,0,2.8,1,2.8,2.7C-499,563.6-500.2,564.5-501.8,564.5
		 M-501.9,559.8h-2.6v4.1h2.6c1.3,0,2.2-0.6,2.2-2C-499.7,560.5-500.6,559.8-501.9,559.8"/>
	<polygon fill="#C41230" points="-497,559.2 -496.3,559.2 -496.3,567.8 -491.4,567.8 -491.4,568.4 -497,568.4 	"/>
	<path fill="#C41230" d="M-484.8,567.6c-0.6,0.6-1.4,0.9-2.3,0.9s-1.7-0.3-2.3-0.9c-0.8-0.8-0.9-1.7-0.9-3.7c0-2.1,0-2.9,0.9-3.7
		c0.6-0.6,1.4-0.9,2.3-0.9s1.7,0.3,2.3,0.9c0.8,0.8,0.9,1.7,0.9,3.7C-484,565.9-484,566.7-484.8,567.6 M-485.4,560.5
		c-0.5-0.5-1.1-0.7-1.8-0.7c-0.7,0-1.3,0.2-1.8,0.7c-0.7,0.7-0.7,1.4-0.7,3.4s0.1,2.7,0.7,3.4c0.5,0.5,1.1,0.7,1.8,0.7
		c0.7,0,1.3-0.2,1.8-0.7c0.7-0.7,0.7-1.4,0.7-3.4S-484.7,561.1-485.4,560.5"/>
	<polygon fill="#C41230" points="-479.5,568.4 -480.2,568.4 -480.2,564.6 -482.9,559.2 -482.2,559.2 -479.8,563.9 -477.5,559.2 
		-476.8,559.2 -479.5,564.6 	"/>
	<polygon fill="#C41230" points="-475.2,559.2 -469.6,559.2 -469.6,559.8 -474.5,559.8 -474.5,563.5 -470.3,563.5 -470.3,564.1 
		-474.5,564.1 -474.5,567.8 -469.6,567.8 -469.6,568.4 -475.2,568.4 	"/>
	<polygon fill="#C41230" points="-467.5,559.2 -461.9,559.2 -461.9,559.8 -466.8,559.8 -466.8,563.5 -462.6,563.5 -462.6,564.1 
		-466.8,564.1 -466.8,567.8 -461.9,567.8 -461.9,568.4 -467.5,568.4 	"/>
	<path fill="#C41230" d="M-452.9,568.4h-3.5v-9.2h3.4c1.5,0,2.7,0.9,2.7,2.4c0,1-0.5,1.8-1.4,2.1c1,0.4,1.6,1.2,1.6,2.2
		C-450.2,567.6-451.3,568.4-452.9,568.4 M-453.1,559.8h-2.6v3.6h2.6c1.1,0,2-0.5,2-1.8C-451.1,560.3-452,559.8-453.1,559.8
		 M-453,564h-2.7v3.8h2.7c1.3,0,2.1-0.7,2.1-1.9C-450.9,564.7-451.7,564-453,564"/>
	<polygon fill="#C41230" points="-447.7,559.2 -442.1,559.2 -442.1,559.8 -447,559.8 -447,563.5 -442.8,563.5 -442.8,564.1 
		-447,564.1 -447,567.8 -442.1,567.8 -442.1,568.4 -447.7,568.4 	"/>
	<polygon fill="#C41230" points="-439.3,560.4 -439.3,568.4 -440,568.4 -440,559.2 -439.3,559.2 -433.9,567.2 -433.9,559.2 
		-433.2,559.2 -433.2,568.4 -433.9,568.4 	"/>
	<polygon fill="#C41230" points="-430.4,559.2 -424.8,559.2 -424.8,559.8 -429.7,559.8 -429.7,563.5 -425.5,563.5 -425.5,564.1 
		-429.7,564.1 -429.7,567.8 -424.8,567.8 -424.8,568.4 -430.4,568.4 	"/>
	<polygon fill="#C41230" points="-421.9,563.6 -417.7,563.6 -417.7,564.3 -421.9,564.3 -421.9,568.4 -422.6,568.4 -422.6,559.2 
		-417,559.2 -417,559.8 -421.9,559.8 	"/>
	<rect x="-415.1" y="559.2" fill="#C41230" width="0.7" height="9.2"/>
	<polygon fill="#C41230" points="-409.2,568.4 -409.9,568.4 -409.9,559.8 -412.6,559.8 -412.6,559.2 -406.4,559.2 -406.4,559.8 
		-409.2,559.8 	"/>
	<path fill="#C41230" d="M-402.3,568.5c-1.4,0-2.2-0.4-3.1-1.2l0.5-0.5c0.8,0.8,1.5,1.1,2.6,1.1c1.5,0,2.4-0.7,2.4-1.9
		c0-0.6-0.2-1-0.5-1.3s-0.6-0.4-1.3-0.5l-1.1-0.2c-0.7-0.1-1.2-0.3-1.6-0.7c-0.5-0.4-0.7-1-0.7-1.7c0-1.6,1.1-2.5,2.9-2.5
		c1.1,0,1.9,0.3,2.7,1l-0.5,0.5c-0.5-0.5-1.2-0.9-2.2-0.9c-1.3,0-2.1,0.7-2.1,1.9c0,0.5,0.2,0.9,0.5,1.2s0.9,0.5,1.4,0.6l1,0.2
		c0.9,0.1,1.3,0.3,1.6,0.6c0.5,0.4,0.8,1.1,0.8,1.8C-399.2,567.5-400.4,568.5-402.3,568.5"/>
</g>
</svg>
