<?xml version="1.0" encoding="utf-8"?>
<!-- Generator: Adobe Illustrator 18.1.1, SVG Export Plug-In . SVG Version: 6.00 Build 0)  -->
<svg version="1.1" id="Grosvenor_Casinos" xmlns="http://www.w3.org/2000/svg" xmlns:xlink="http://www.w3.org/1999/xlink" x="0px"
	 y="0px" viewBox="0 0 390 150" enable-background="new 0 0 390 150" xml:space="preserve">
<g>
	<path fill="#08262C" d="M195.8,12.5c-26.5,0-48,21.5-48,48c0,26.5,21.5,48,48,48c26.5,0,48-21.5,48-48
		C243.8,34,222.3,12.5,195.8,12.5z M195.8,106.2c-25.2,0-45.6-20.4-45.6-45.6c0-25.2,20.4-45.6,45.6-45.6
		c25.2,0,45.6,20.4,45.6,45.6C241.4,85.8,221,106.2,195.8,106.2z"/>
	<path fill="#08262C" d="M232.1,67.8c-1-0.3-2,0.4-2.3,1.4c-0.3,1,0.4,2,1.4,2.3c1,0.3,2-0.3,2.3-1.3
		C233.7,69.1,233.1,68.1,232.1,67.8z"/>
	<path fill="#08262C" d="M159.5,67.8c-1,0.3-1.6,1.3-1.4,2.3c0.3,1,1.3,1.6,2.3,1.3c1-0.3,1.6-1.3,1.4-2.3
		C161.5,68.2,160.5,67.6,159.5,67.8z"/>
	<path fill="#08262C" d="M160.6,56.5c2.5-0.1,4.5-1.8,5.1-4.4c0.4-1.4,0.4-2.6,0.2-4.2l0-0.1l-4.6-1.2l-1,3.8l1.7,0.4l0.5-1.9
		l1.8,0.5c0,0.6,0,1.4-0.2,2.1c-0.5,1.9-1.8,3-3.5,3.1c-0.4,0-0.8,0-1.2-0.1c-1-0.3-1.8-0.9-2.4-1.8c-0.5-0.9-0.6-1.9-0.4-2.9
		c0.3-1.2,0.9-2.3,1.9-3.3l0.2-0.2l-1.9-0.5l-0.1,0.1c-1.1,1.4-1.5,2.2-1.8,3.5c-0.8,3.2,0.9,6.2,4,7
		C159.5,56.4,160.1,56.5,160.6,56.5z"/>
	<path fill="#08262C" d="M168.8,44.6l-3.8-2.5l0.2-0.4c0.4-0.5,0.8-0.9,3.4-0.9l2.7,0.1l1.3-1.9l-1.2,0c-0.6,0-1,0-1.7,0l-0.1,0
		c-1.5-0.1-2.6-0.1-3.4,0.2c0.1-1.1-0.3-2.1-1.3-2.8c-0.6-0.4-1.2-0.6-1.8-0.6c-1,0-2,0.7-2.8,1.8l-1.6,2.3l9,6.1L168.8,44.6z
		 M164,40.5l-0.4,0.7l-2.4-1.6l0.4-0.6c0.7-1,1.4-1.3,2.2-0.8c0.4,0.2,0.6,0.5,0.7,0.9C164.6,39.4,164.4,39.9,164,40.5z"/>
	<path fill="#08262C" d="M173.4,37.2c1.2,0,2.4-0.5,3.4-1.3c3.1-2.3,2.9-5.8,1.3-8c-1.1-1.5-2.8-2.2-4.5-2.2c-1.2,0-2.4,0.5-3.5,1.3
		c-2.6,2-3.2,5.4-1.2,8C169.9,36.4,171.6,37.2,173.4,37.2z M171.1,28.4c0.7-0.5,1.5-0.8,2.3-0.9c1.2,0,2.3,0.5,3.1,1.5
		c0.6,0.8,0.9,1.8,0.8,2.8c-0.1,1-0.7,1.9-1.6,2.6c-0.7,0.5-1.5,0.8-2.3,0.9h0c-1.2,0-2.3-0.5-3.1-1.5C169,32,169.4,29.8,171.1,28.4
		z"/>
	<path fill="#08262C" d="M183.5,26.6c1.2,0.3,2.2,0.5,2.5,1.3c0.1,0.4,0,1.2-1.1,1.6c-0.9,0.3-2,0.1-2.9-0.5l-0.5-0.3l0.8,2.4l0.1,0
		c0.6,0.2,1.1,0.3,1.7,0.3c0.5,0,1-0.1,1.5-0.3c1.7-0.6,2.5-2.2,2-3.9c-0.6-1.9-2.4-2.2-3.8-2.5c-1.1-0.2-2-0.4-2.2-1.1
		c-0.2-0.6,0.2-1.2,1-1.5c0.8-0.3,1.6-0.2,2.5,0.2l0.4,0.2l-0.7-2.1l-0.1,0c-0.9-0.2-1.8-0.2-2.6,0.1c-1.9,0.7-2.8,2.2-2.2,3.9
		C180.6,26,182.2,26.3,183.5,26.6z"/>
	<polygon fill="#08262C" points="206.2,29.1 201.8,28.1 202.4,25.3 206.5,26.2 206.9,24.5 202.7,23.6 203.3,20.9 207.6,21.8 
		208,20.1 201.8,18.8 199.6,29.2 199.6,29.4 205.9,30.7 	"/>
	<polygon fill="#08262C" points="209.4,32.2 213.5,25.6 215.1,35.8 216.5,36.6 222.2,27.4 220.6,26.4 216.5,33.1 214.8,22.8 
		213.6,22.1 207.9,31.3 	"/>
	<path fill="#08262C" d="M219.7,37.7c-0.2,1.5,0.2,3.1,1.2,4.4c1.2,1.7,2.9,2.6,4.8,2.5c1.1,0,2.2-0.4,3.1-1.1c2.6-1.9,3-5.3,1-8
		c-1.2-1.6-3-2.5-4.8-2.5c-1.1,0-2.2,0.4-3.1,1.1C220.7,35,219.9,36.3,219.7,37.7z M223.1,35.7c0.7-0.5,1.4-0.7,2.2-0.8
		c1.2,0,2.4,0.6,3.2,1.6c1.3,1.8,1,4.1-0.7,5.4c-0.6,0.5-1.4,0.7-2.2,0.8c-1.2,0-2.4-0.6-3.2-1.7c-0.6-0.9-0.9-1.9-0.8-2.9
		C221.7,37.2,222.2,36.3,223.1,35.7z"/>
	<path fill="#08262C" d="M236,47.8l-0.8-2.7l-10.2,3l-0.2,0l0.5,1.8l4.4-1.3l0.1,0.4c0.2,0.6,0.2,1.2-1.5,3.2l-1.7,2l0.6,2.2
		l0.4-0.5c0.6-0.8,0.9-1.2,1.4-1.8l0,0c0.9-1,1.6-1.8,2-2.8c0.8,0.8,1.8,1.1,2.9,0.8C235.8,51.6,236.6,49.9,236,47.8z M233.5,50.3
		c-0.2,0.1-0.3,0.1-0.5,0.1c-0.7,0-1.2-0.5-1.5-1.5l-0.2-0.7l2.8-0.8l0.2,0.8C234.8,49.7,234.1,50.1,233.5,50.3z"/>
	<polygon fill="#08262C" points="193.7,29.5 194.2,29.4 198.2,18.2 196.3,18.4 193.7,25.6 190.2,18.7 188.3,18.8 193.6,29.4 	"/>
	<path fill="#08262C" d="M165.7,87.4c-0.8-0.9-1.2-1.9-1.1-2.9c0-1,0.5-1.9,1.3-2.6c0.8-0.7,1.6-1,2.6-0.9c1.1,0,2.1,0.6,2.9,1.5
		c0.8,0.9,1.2,1.9,1.5,3.4l0.1,0.3l1.6-1.4l0-0.1c-0.5-1.5-1-2.5-1.7-3.3c-1.2-1.3-2.7-2.1-4.3-2.2c-1.4,0-2.7,0.4-3.9,1.4
		c-1.6,1.4-3,4.7-0.3,8c1.2,1.4,2.3,1.9,3.3,2.3l0.1,0l1.6-1.4l-0.3-0.1C167.6,89,166.4,88.3,165.7,87.4z"/>
	<path fill="#08262C" d="M169.4,93.5l1.7,1l2.7-2l3.6,2.2l-0.4,3.4l1.7,1l1.4-11.7l0-0.1l-1.1-0.7L169.4,93.5z M177.6,92.8l-2.3-1.4
		l2.7-2L177.6,92.8z"/>
	<path fill="#08262C" d="M187.4,90.2c-0.4-0.1-0.7-0.2-1.1-0.2c-1.5,0-2.6,0.8-3,2.1c-0.4,1.6,0.7,2.8,1.6,3.8
		c0.8,0.9,1.5,1.7,1.3,2.5c-0.1,0.4-0.5,0.8-1.3,0.8c-0.2,0-0.3,0-0.5-0.1c-0.9-0.3-1.7-1-2.1-2.1l-0.2-0.5l-0.7,2.4l0.1,0.1
		c0.7,0.9,1.5,1.5,2.7,1.8c0.3,0.1,0.6,0.1,0.8,0.1c1.4,0,2.6-0.8,3-2.2c0.5-1.9-0.7-3.2-1.7-4.2c-0.8-0.8-1.4-1.4-1.2-2.2
		c0.1-0.5,0.6-0.7,1.2-0.7c0.2,0,0.4,0,0.5,0.1c0.8,0.2,1.4,0.8,2,1.6l0.2,0.4l0.6-2.2l-0.1-0.1C189,90.9,188.3,90.4,187.4,90.2z"/>
	<polygon fill="#08262C" points="191.2,101.9 191.2,102.1 193.1,102.2 194,91.6 194,91.4 192.1,91.3 	"/>
	<polygon fill="#08262C" points="204.4,90.4 205.7,98.1 197.8,91.7 197.7,91.6 196.2,91.9 198.1,102.5 199.9,102.2 198.5,94.6 
		206.4,101 206.5,101.1 208,100.8 206.2,90.1 	"/>
	<path fill="#08262C" d="M215.5,85.8c-1.1,0-2.3,0.3-3.4,1c-1.4,0.9-2.4,2.1-2.7,3.6c-0.3,1.4-0.1,2.9,0.7,4.2
		c1,1.6,2.7,2.6,4.5,2.7c1.1,0,2.3-0.3,3.3-0.9c1.5-0.9,2.4-2.2,2.8-3.7c0.3-1.4,0.1-2.9-0.7-4.1C219,86.8,217.3,85.9,215.5,85.8z
		 M217,94.8c-0.7,0.4-1.5,0.6-2.2,0.6c-1.3,0-2.4-0.7-3.1-1.8c-1.1-1.9-0.6-4.1,1.3-5.3c0.7-0.4,1.5-0.6,2.2-0.6
		c1.3,0,2.4,0.7,3.1,1.8C219.5,91.4,218.9,93.6,217,94.8z"/>
	<path fill="#08262C" d="M225.6,82.7c-0.9,0-1.8,0.3-2.5,0.5c-0.6,0.2-1.3,0.4-1.8,0.4c-0.3,0-0.5-0.1-0.7-0.3
		c-0.5-0.4-0.4-1.2,0.2-1.8c0.5-0.6,1.3-1,2.3-1.1l0.4,0l-1.7-1.5l-0.1,0c-0.9,0.2-1.6,0.7-2.2,1.3c-0.7,0.7-1,1.6-1,2.4
		c0,0.8,0.4,1.6,1,2.1c0.5,0.4,1,0.6,1.7,0.7c0.8,0,1.6-0.2,2.4-0.5c0.7-0.2,1.4-0.4,1.9-0.4c0.4,0,0.7,0.1,0.9,0.3
		c0.2,0.2,0.3,0.5,0.3,0.8c0,0.3-0.1,0.7-0.5,1.1c-0.6,0.7-1.5,1.1-2.7,1l-0.7,0l1.9,1.7l0.1,0c1.1-0.2,2-0.7,2.8-1.6
		c1.2-1.4,1.1-3.2-0.2-4.3C227,83,226.4,82.8,225.6,82.7z"/>
	<path fill="#08262C" d="M223.3,60.6c0-15.2-12.3-27.5-27.5-27.5c-15.2,0-27.5,12.3-27.5,27.5c0,15.2,12.3,27.5,27.5,27.5
		C210.9,88.1,223.3,75.7,223.3,60.6z M170.7,60.6c0-7.8,3.6-14.8,9.2-19.4c-4.1,4.9-5.7,12.2-2,18c-1.6,3.4-2.5,6.9-2.5,10.4
		c0,2.6,0.5,5.4,1.8,7.8C173.2,72.9,170.7,67,170.7,60.6z M195.8,85.6c-3,0-5.8-0.5-8.5-1.5c2.7,0.4,6.1,0.3,10.3-0.7
		c5.5-1.3,10.2-4.1,13.7-8.3c1.5-1.8,2.7-3.7,3.5-5.7c0.7-1.6,0.9-3.6,0.8-4.8c0-0.7-0.6-1.3-1.5-1.5c-0.9-0.2-2-0.1-2.7,0.4
		c-1.8,1.2-3,1.9-5.1,2.7c-0.6,0.2-1.9,0.8-2.5,1c-1.4,0.5-2.8,1-4.3,1.4c-1.6,0.4-3.4,0.7-5.2,0.7c-1,0-2,0-3-0.3
		c-0.4-0.1-0.8-0.2-1.2-0.2c-0.4,0-0.6,0.4-0.6,0.7c0,0.6,0.9,0.8,1.4,1c0.7,0.2,1.4,0.4,2.1,0.5c2.7,0.4,5.6,0.1,8.2-0.4
		c1.7-0.3,3.4-0.7,5-1.1c0.5-0.1,0.9-0.2,1.4-0.4c0.5-0.1,1.2-0.5,1.8-0.2c0.4,0.2,0.1,1-0.1,1.2c-0.4,0.7-0.9,1.4-1.5,2
		c-1.7,2-3.6,3.9-5.9,5.3c-0.7,0.4-1.3,0.8-2.1,1.1c-2.3,1-4.7,1.6-7.3,1.8c-6.3,0.6-10.7-2.9-12.4-8.5c-1-3.4-1.3-7.1-0.7-10.6
		c2,2.1,4.4,3.6,7.3,4.7c0.6,0.2,1.3,0.4,2,0.6c1,0.2,2.1,0.4,3.2,0.5c5.7,0.5,10.4-0.6,15.3-3.6c0.2-0.1,2.7-1.6,2.7-1.7
		c-0.1-0.5-1.3-0.5-2-0.6c-4.3,3.4-9.7,4.9-15.2,4.2c-4.6-0.6-10-3.1-12.2-8c0.2-0.7,0.5-1.3,0.9-1.9c1-2,2.4-3.8,3.9-5.5
		c2.4-2.7,5.5-5.3,9.3-6.4c4.9-1.4,14.8-1,16.3,4.5c0.6,2.2,0.3,4.3-0.6,6.2c0.3,0.7,0.9,1.2,2,0.6c1.5-2.7,1.3-5.1,0.7-6.4
		c-1.2-2.7-3.3-5.1-8.7-6.1c-3.9-0.7-7.8-0.2-11.8,1.5c-5.1,2.2-9.6,6.4-12.7,11.3c-0.5-2-0.5-4-0.2-6.1c0.6-3.2,1.9-6.1,4.2-8.3
		c0.9-0.8,1.9-1.5,2.9-2.1c1.4-0.7,3.1-1.4,4.6-1.5c1.9-0.2,3.9,0,5.6,1.1c0.5,0.3,0.7,0.9,1.2,1.2c1,0.6,2.9-0.1,1.7-1.4
		c-1.2-1.3-3.2-2.3-5-2.8c0.2,0,0.4,0,0.7,0c13.8,0,25.1,11.2,25.1,25.1C220.8,74.4,209.6,85.6,195.8,85.6z"/>
	<path fill="#08262C" d="M164.9,132.1c-1.1,0-2,0.9-2,1.9c0,1.1,0.9,1.9,2,1.9c1.1,0,2-0.9,2-1.9C166.9,133,166,132.1,164.9,132.1z"
		/>
	<path fill="#08262C" d="M224.8,132.1c-1.1,0-2,0.9-2,1.9c0,1.1,0.9,1.9,2,1.9c1.1,0,2-0.9,2-1.9C226.7,133,225.9,132.1,224.8,132.1
		z"/>
	<path fill="#08262C" d="M111.4,133.4c0,2.9,2.2,5,5.1,5c1,0,1.6-0.3,2.5-0.6v-2.5c-0.7,0.5-1.4,0.8-2.3,0.8c-1.5,0-2.7-1-2.7-2.6
		c0-1.6,0.9-2.8,2.6-2.8c1,0,1.7,0.2,2.5,0.8v-2.6c-0.9-0.5-1.6-0.6-2.6-0.6C113.4,128.2,111.4,130.5,111.4,133.4z"/>
	<path fill="#08262C" d="M126,131.2c-0.7-0.6-1.3-0.9-2.3-0.9c-2.2,0-3.8,2-3.8,4.1c0,2.2,1.3,4,3.7,4c0.8,0,1.8-0.3,2.3-0.9v0.8
		h2.4v-7.7H126V131.2z M124.2,136.2c-1.1,0-1.8-0.9-1.8-2c0-1.1,0.8-1.8,1.9-1.8c1.1,0,1.9,0.8,1.9,1.9
		C126.1,135.4,125.3,136.2,124.2,136.2z"/>
	<path fill="#08262C" d="M133.3,133.4c-0.8-0.3-1.5-0.4-1.5-0.8c0-0.4,0.3-0.5,0.6-0.5c0.4,0,0.8,0.2,1,0.6l1.8-0.8
		c-0.5-1-1.4-1.7-2.6-1.7c-1.5,0-3,0.9-3,2.5c0,1.4,1,2,1.9,2.3c0.8,0.3,1.6,0.4,1.6,0.9c0,0.4-0.5,0.5-0.8,0.5
		c-0.4,0-0.9-0.3-1.1-0.7l-1.8,0.9c0.6,1.1,1.6,1.6,2.9,1.6c1.6,0,3.1-0.8,3.1-2.6C135.4,134.3,134.3,133.8,133.3,133.4z"/>
	<rect x="136.5" y="130.4" fill="#08262C" width="2.4" height="7.7"/>
	<path fill="#08262C" d="M137.7,127c-0.8,0-1.4,0.6-1.4,1.4c0,0.8,0.6,1.4,1.4,1.4c0.8,0,1.5-0.6,1.5-1.4
		C139.2,127.7,138.5,127,137.7,127z"/>
	<path fill="#08262C" d="M145.2,130.3c-0.8,0-1.8,0.4-2.3,1.2v-1h-2.4v7.7h2.4v-4.4c0-0.8,0.7-1.4,1.4-1.4c0.9,0,1.2,0.4,1.2,1.2
		v4.5h2.5v-5.3C148,131.3,146.7,130.3,145.2,130.3z"/>
	<path fill="#08262C" d="M153.4,130.3c-2.4,0-4.3,1.7-4.3,4.1c0,2.2,1.8,4.1,4.2,4.1c2.6,0,4.3-1.8,4.3-4.1
		C157.6,132,155.8,130.3,153.4,130.3z M153.4,136.2c-1.1,0-1.9-0.8-1.9-1.8c0-1.1,0.8-1.9,1.9-1.9c1.1,0,1.9,0.8,1.9,1.8
		C155.3,135.5,154.6,136.2,153.4,136.2z"/>
	<path fill="#08262C" d="M177,128.2c-3,0-5.4,2.1-5.4,5.2c0,3,2.2,5.2,5.4,5.2c3,0,5.4-2.2,5.4-5.3C182.4,130.4,180,128.2,177,128.2
		z M177,136.1c-1.7,0-2.8-1.2-2.8-2.8c0-1.6,1.2-2.8,2.8-2.8c1.6,0,2.8,1.2,2.8,2.8C179.8,135,178.6,136.1,177,136.1z"/>
	<path fill="#08262C" d="M188.4,130.3c-0.8,0-1.8,0.4-2.3,1.2v-1h-2.4v7.7h2.4v-4.4c0-0.8,0.7-1.4,1.4-1.4c0.9,0,1.2,0.4,1.2,1.2
		v4.5h2.5v-5.3C191.2,131.3,189.9,130.3,188.4,130.3z"/>
	<rect x="192.8" y="128.5" fill="#08262C" width="2.4" height="9.6"/>
	<path fill="#08262C" d="M198,127c-0.8,0-1.4,0.6-1.4,1.4c0,0.8,0.6,1.4,1.4,1.4c0.8,0,1.5-0.6,1.5-1.4
		C199.4,127.7,198.7,127,198,127z"/>
	<rect x="196.8" y="130.4" fill="#08262C" width="2.4" height="7.7"/>
	<path fill="#08262C" d="M205.4,130.3c-0.8,0-1.8,0.4-2.3,1.2v-1h-2.4v7.7h2.4v-4.4c0-0.8,0.7-1.4,1.4-1.4c0.9,0,1.2,0.4,1.2,1.2
		v4.5h2.5v-5.3C208.2,131.3,206.9,130.3,205.4,130.3z"/>
	<path fill="#08262C" d="M213.4,130.3c-2.4,0-4,1.7-4,4c0,2.5,1.5,4,4.1,4c1.5,0,2.9-0.7,3.7-2l-1.9-1.1c-0.4,0.6-0.9,1.1-1.7,1.1
		c-0.9,0-1.6-0.5-1.8-1.4h5.5c0-0.1,0-0.3,0-0.5C217.3,132.1,216,130.3,213.4,130.3z M211.8,133.3c0.3-0.7,0.7-1.1,1.5-1.1
		c0.8,0,1.2,0.4,1.4,1.1H211.8z"/>
	<polygon fill="#08262C" points="241,128.5 239,133.8 236.9,128.5 234.4,128.5 232.9,138.1 235.5,138.1 236.2,132.6 238.4,138.1 
		239.6,138.1 241.8,132.6 242.6,138.1 245.2,138.1 243.6,128.5 	"/>
	<path fill="#08262C" d="M250.1,130.3c-2.4,0-4.3,1.7-4.3,4.1c0,2.2,1.8,4.1,4.2,4.1c2.6,0,4.3-1.8,4.3-4.1
		C254.3,132,252.5,130.3,250.1,130.3z M250.1,136.2c-1.1,0-1.9-0.8-1.9-1.8c0-1.1,0.8-1.9,1.9-1.9c1.1,0,1.9,0.8,1.9,1.8
		C252,135.5,251.3,136.2,250.1,136.2z"/>
	<path fill="#08262C" d="M260,130.3c-0.8,0-1.8,0.4-2.4,0.9v-2.6h-2.4v9.6h2.3v-0.8c0.7,0.7,1.5,1,2.5,1c2.3,0,3.6-2,3.6-4
		C263.7,132.2,262.3,130.3,260,130.3z M259.6,136.3c-1.2,0-2-0.7-2-2c0-1.1,0.8-1.9,1.9-1.9c1,0,1.9,0.8,1.9,1.8
		C261.4,135.3,260.8,136.3,259.6,136.3z"/>
	<path fill="#08262C" d="M266.1,127c-0.8,0-1.4,0.6-1.4,1.4c0,0.8,0.6,1.4,1.4,1.4c0.8,0,1.5-0.6,1.5-1.4
		C267.5,127.7,266.9,127,266.1,127z"/>
	<rect x="264.9" y="130.4" fill="#08262C" width="2.4" height="7.7"/>
	<rect x="268.8" y="128.5" fill="#08262C" width="2.4" height="9.6"/>
	<path fill="#08262C" d="M280.3,134.5c0-2.4-1.3-4.2-3.9-4.2c-2.3,0-4,1.7-4,4c0,2.5,1.5,4,4.1,4c1.5,0,2.9-0.7,3.7-2l-1.9-1.1
		c-0.4,0.6-0.9,1.1-1.7,1.1c-0.9,0-1.6-0.5-1.8-1.4h5.5C280.3,134.9,280.3,134.6,280.3,134.5z M274.9,133.3c0.3-0.7,0.7-1.1,1.5-1.1
		c0.8,0,1.2,0.4,1.4,1.1H274.9z"/>
</g>
<g>
</g>
<g>
</g>
<g>
</g>
<g>
</g>
<g>
</g>
<g>
</g>
<g>
</g>
<g>
</g>
<g>
</g>
<g>
</g>
</svg>
