<?xml version="1.0" encoding="utf-8"?>
<!-- Generator: Adobe Illustrator 18.1.1, SVG Export Plug-In . SVG Version: 6.00 Build 0)  -->
<svg version="1.1" id="Aston_Villa" xmlns="http://www.w3.org/2000/svg" xmlns:xlink="http://www.w3.org/1999/xlink" x="0px"
	 y="0px" viewBox="0 0 390 150" enable-background="new 0 0 390 150" xml:space="preserve">
<g>
	<path id="path2722" fill="#FFFFFF" d="M194.8,137.5l-2.9-3.1c0,0-1.5-1.5-2.5-2.1c-0.1,0-2.4-1.1-2.7-1.3c-5.5-1.8-14.1-3.6-21.6-7
		c-3.8-1.7-7.4-3.9-10.2-7c-2.8-3.1-4.7-7.3-4.7-12V16.6v-4.1h4.1h81.2h4.1v4.1V105c0,4.9-1.9,9-4.7,12.1c-2.9,3.1-6.5,5.2-10.3,6.9
		c-7.7,3.4-16.4,5.1-21.6,7c-2,0.7-2.2,0.9-3.3,1.7v-0.1c-0.4,0.3-2,1.8-2,1.8L194.8,137.5L194.8,137.5z"/>
</g>
<path id="path2724" fill="#94BEE5" d="M197.3,129.5c1.3-1,2.2-1.5,4.4-2.3c11.5-4.2,34-6.7,34-22.2V16.6h-81.2V105
	c0,15.2,21.9,18.2,33.7,22.1c0,0,2.6,1.1,3.7,1.8c1.6,1.1,3.1,2.7,3.1,2.7S196.4,130.2,197.3,129.5"/>
<path id="path2726" fill="none" stroke="#7A003C" stroke-width="2.2437" stroke-miterlimit="6" d="M197.3,129.5
	c1.3-1,2.2-1.5,4.4-2.3c11.5-4.2,34-6.7,34-22.2V16.6h-81.2V105c0,15.2,21.9,18.2,33.7,22.1c0,0,2.6,1.1,3.7,1.8
	c1.6,1.1,3.1,2.7,3.1,2.7S196.4,130.2,197.3,129.5z"/>
<path id="path2728" fill="#FFFFFF" d="M172.8,44.5l1.3,2.7l2.9,0.4l-2.1,2.1l0.5,3l-2.6-1.4l-2.6,1.4l0.5-3l-2.1-2.1l2.9-0.4
	L172.8,44.5"/>
<path id="path2730" fill="#7A003C" d="M170.2,22.1c-0.1,0-0.2,0.1-0.3,0.2l-1.2,0.9c-0.2,0.2-0.4,0.5-0.6,1c-0.2,0.5-0.3,1-0.4,1.4
	l-3,8.8c-0.4,1.2-0.8,2-1.1,2.5c-0.3,0.5-0.8,0.7-1.4,0.7c-0.2,0-0.4,0.1-0.4,0.3v0.4c0,0.1,0.1,0.2,0.3,0.2c0.1,0,0.5,0,1.1-0.1
	c0.6,0,1,0,1.3,0c0.3,0,0.7,0,1.2,0c0.6,0,0.9,0.1,1.1,0.1c0.3,0,0.4-0.1,0.4-0.2v-0.4c0-0.2-0.1-0.3-0.3-0.3
	c-1.1,0-1.6-0.3-1.6-0.9c0-0.2,0.1-0.6,0.3-1.1l1.1-3.2h4.6l1.1,2.6c0.3,0.6,0.4,1,0.5,1.2c0.1,0.2,0.1,0.3,0.1,0.5
	c0,0.6-0.5,0.9-1.4,0.9c-0.2,0-0.4,0.1-0.4,0.3v0.4c0,0.1,0.1,0.2,0.2,0.2c0.2,0,0.7,0,1.6-0.1c0.9,0,1.5,0,1.8,0c0.4,0,0.9,0,1.5,0
	c0.7,0,1.1,0.1,1.4,0.1c0.2,0,0.3-0.1,0.3-0.3v-0.4c0-0.1-0.1-0.2-0.3-0.3c-0.6-0.1-1-0.2-1.2-0.4c-0.2-0.2-0.5-0.7-0.8-1.4
	l-5.4-13.4C170.3,22.2,170.3,22.1,170.2,22.1L170.2,22.1z M221.7,22.4c-2.5,0-4.7,0.8-6.4,2.3c-1.7,1.5-2.6,3.4-2.6,5.6
	c0,2.8,0.9,4.9,2.6,6.4c1.7,1.5,3.8,2.2,6.4,2.2c2,0,3.7-0.4,5.2-1.2l0.7-2.8c0-0.2,0.1-0.3,0.1-0.3c0-0.1-0.1-0.2-0.3-0.3
	c-0.2-0.1-0.4-0.1-0.5-0.1c-0.1,0-0.2,0.2-0.3,0.5c-0.5,1.1-1.1,1.9-1.7,2.4c-0.6,0.5-1.5,0.7-2.8,0.7c-1.8,0-3.2-0.7-4.4-2.1
	c-1.2-1.4-1.7-3.1-1.7-5.2c0-2,0.5-3.7,1.6-5c1.1-1.3,2.5-2,4.2-2c1.2,0,2.1,0.3,2.9,1c0.7,0.6,1.3,1.4,1.5,2.3
	c0,0.1,0.1,0.2,0.1,0.3c0,0.1,0.1,0,0.1,0c0.1,0,0.3,0,0.5,0c0.2,0,0.3-0.1,0.3-0.2c0-0.1-0.1-0.6-0.2-1.4c-0.1-0.9-0.2-1.3-0.3-1.4
	c-0.1-0.3-0.7-0.6-1.8-1C223.9,22.6,222.8,22.4,221.7,22.4L221.7,22.4z M177.9,22.8c-0.2,0-0.3,0.1-0.3,0.3v0.4
	c0,0.2,0.1,0.3,0.3,0.3c0.6,0,1.1,0.1,1.4,0.3c0.3,0.2,0.6,0.8,0.9,1.4l5.3,13.1c0.1,0.2,0.1,0.2,0.2,0.3c0.1,0,0.2,0,0.4,0h0.4
	c0.1,0,0.2,0,0.3,0c0.1,0,0.1-0.1,0.2-0.3l5.2-13c0.3-0.8,0.5-1.3,0.7-1.6c0.2-0.2,0.6-0.3,1.1-0.3c0.2,0,0.3-0.1,0.3-0.3V23
	c0-0.2-0.1-0.3-0.3-0.3c-0.2,0-0.4,0-0.9,0c-0.5,0-0.8,0-1,0c-0.3,0-0.8,0-1.5,0c-0.7,0-1.1,0-1.2,0c-0.2,0-0.3,0.1-0.3,0.3v0.3
	c0,0.2,0.1,0.3,0.3,0.3c0.6,0,1.1,0,1.3,0.1c0.2,0.1,0.3,0.3,0.3,0.6c0,0.3-0.1,0.8-0.2,1.2l-3.5,9.2l-3.9-9.5
	c-0.2-0.5-0.3-0.9-0.3-1.1c0-0.2,0.1-0.4,0.3-0.5c0.2-0.1,0.6-0.1,1.2-0.1c0.2,0,0.3-0.1,0.3-0.3V23c0-0.2-0.1-0.3-0.3-0.3
	c-0.2,0-0.8,0-1.7,0c-1,0-1.7,0-2,0c-0.4,0-1,0-1.7,0C178.5,22.8,178.1,22.8,177.9,22.8z M198.1,22.8c-0.3,0-0.4,0.1-0.4,0.2v0.4
	c0,0.2,0.2,0.3,0.5,0.3c0.7,0,1.1,0.1,1.3,0.5c0.2,0.3,0.3,0.9,0.3,1.8v9.8c0,0.6-0.1,1.1-0.4,1.4c-0.3,0.3-0.7,0.5-1.3,0.5
	c-0.3,0-0.4,0.1-0.4,0.3v0.4c0,0.2,0.1,0.3,0.4,0.3c0.1,0,0.7,0,1.7-0.1c1,0,1.6,0,1.8,0c0.3,0,0.8,0,1.6,0c0.7,0,1.2,0.1,1.3,0.1
	c0.2,0,0.3-0.1,0.3-0.2v-0.5c0-0.1-0.1-0.2-0.3-0.2c-0.6,0-1-0.1-1.3-0.4c-0.3-0.3-0.4-0.8-0.4-1.5v-5.2h3.1c0.7,0,1.1,0.2,1.4,0.4
	c0.3,0.3,0.6,0.7,0.7,1.4c0,0.2,0.1,0.3,0.3,0.3h0.5c0.1,0,0.1-0.1,0.1-0.3c0-0.1,0-0.5,0-1c0-0.5,0-0.8,0-1c0-0.3,0-0.7,0-1.3
	c0-0.5,0-0.8,0-1c0-0.2-0.1-0.3-0.2-0.3h-0.4c-0.1,0-0.2,0.1-0.2,0.2c-0.1,0.6-0.3,1-0.6,1.2c-0.2,0.2-0.7,0.3-1.4,0.3h-3.3v-4.4
	c0-0.6,0.2-0.9,0.5-1.1c0.3-0.2,0.9-0.3,1.7-0.3h0.7c1.2,0,2,0.1,2.4,0.3c0.4,0.2,0.7,0.6,0.9,1.2l0.3,0.6c0.1,0.2,0.2,0.3,0.3,0.3
	h0.3c0.2,0,0.2-0.1,0.2-0.3V23c0-0.2-0.1-0.2-0.2-0.2c-0.2,0-1.4,0-3.5,0c-2.1,0-3.4,0-3.9,0c-0.6,0-1.5,0-2.5,0
	C198.8,22.8,198.2,22.8,198.1,22.8L198.1,22.8z M168.7,26.2l2.1,5.1h-3.7L168.7,26.2z M179.4,113.2c-0.8,0-1.5,0.1-1.5,0.1v5.7h0.8
	v-3c0,0,2.3-0.5,2.3-1.9C181,113.5,180.2,113.3,179.4,113.2z M183.6,113.2c-0.8,0-1.6,0.1-1.6,0.1v5.7h0.9v-3c0,0,0.4-0.1,0.9-0.3
	c0.1,0.1,0.3,0.6,0.7,1.5c0.4,1,0.6,1.8,0.6,1.8h0.8c0,0-0.2-1-0.6-2c-0.3-0.8-0.8-1.5-0.9-1.7c0.4-0.3,0.8-0.7,0.8-1.2
	C185.2,113.5,184.4,113.3,183.6,113.2z M192.5,113.2c-0.8,0-1.6,0.1-1.6,0.1v5.7h0.9v-3c0,0,2.3-0.5,2.3-1.9
	C194.1,113.5,193.3,113.3,192.5,113.2z M201.1,113.2c-0.8,0-1.6,0.1-1.6,0.1v5.7h0.8v-3c0,0,0.4-0.1,0.9-0.3
	c0.1,0.1,0.4,0.6,0.8,1.5c0.4,1,0.5,1.8,0.5,1.8h0.8c0,0-0.2-1-0.6-2c-0.3-0.8-0.7-1.5-0.9-1.7c0.4-0.3,0.7-0.7,0.7-1.2
	C202.6,113.5,201.8,113.3,201.1,113.2z M208.7,113.2c-0.3,0-0.6,0.1-0.6,0.1v5.7h0.9c0,0,2.8,0,2.8-3.5
	C211.8,113.4,209.7,113.2,208.7,113.2z M187.1,113.3v0.6v1.2v0.6v2.6v0.7h2.5v-0.7h-1.7v-2.6h1.2v-0.6h-1.2V114h1.7v-0.6H187.1z
	 M195.7,113.3l-1.8,5.7h0.9l0.9-3.3h1.1l0.9,3.3h0.9l-1.7-5.7h-0.5H195.7z M204.2,113.3v0.6v1.2v0.6v3.3h2.5v-0.7h-1.7v-2.6h1.1
	v-0.6h-1.1V114h1.7v-0.6H204.2z M196.3,113.8l0.4,1.3h-0.8L196.3,113.8z M179.4,113.9c0.4,0,0.7,0.1,0.7,0.3c0,0.8-1.4,1.1-1.4,1.1
	v-1.3C178.7,113.9,179,113.9,179.4,113.9L179.4,113.9z M183.6,113.9c0.4,0,0.7,0.1,0.7,0.3c0,0.8-1.4,1.1-1.4,1.1v-1.3
	C182.9,113.9,183.2,113.9,183.6,113.9L183.6,113.9z M192.5,113.9c0.4,0,0.7,0.1,0.7,0.3c0,0.8-1.4,1.1-1.4,1.1v-1.3
	C191.8,113.9,192.2,113.9,192.5,113.9L192.5,113.9z M201,113.9c0.4,0,0.7,0.1,0.7,0.3c0,0.8-1.4,1.1-1.4,1.1v-1.3
	C200.3,113.9,200.7,113.9,201,113.9L201,113.9z M209.2,114c0.6,0,1.7,0.1,1.7,1.6c0,2.6-1.4,2.9-1.9,2.9V114
	C209,114,209.1,114,209.2,114L209.2,114z"/>
<path id="path2776" fill="#FFE600" d="M197.4,46.8c-0.5,0.7-1.7,1.2-1.7,1.2s-0.3,0-0.1-0.5c0.2-0.5,0.3-0.7,0.3-0.7l-1,0.4
	c0,0,0.3-0.3,0.5-0.8c0.1-0.5,0.1-0.8,0.1-0.8s-0.1,0.4-0.6,0.6c-0.4,0.2-1.2,0.3-1.2,0.3s0.9-2,2.4-1.8
	C197.6,44.7,197.8,46.1,197.4,46.8L197.4,46.8z M190.7,49c-0.2,0.4-0.6,0.9-1.1,1c-0.4,0.1-0.8,0.1-1.1,0c-0.7-0.3-0.9-0.8-0.9-0.8
	l0.8-0.4c0.1,0.4,0.4,0.6,0.7,0.6c0.3,0,0.6-0.1,0.7-0.4c0.1-0.2,0-0.4,0-0.4s-0.1,0.2-0.3,0.2c-0.1,0-0.4-0.1-0.3-0.4l1.8-0.8
	C191.1,47.6,191,48.3,190.7,49L190.7,49z M225.9,54.9c0,0-1.6,2.2-3.4,2.6c-1.2,0.3-2.1,0.1-2.1,0.1s0.5,0,0.8-0.3
	c0.4-0.3,0.6-0.8,0.6-0.8s-0.7,0.4-1.9,0c-0.6-0.1-1.8-0.3-2.7,0.1c-0.7,0.3-1.6,1-1.6,1s0.3-0.3,0.4-0.6c0.2-0.4,0.1-0.9,0.1-0.9
	s-0.1,0.5-0.7,0.7c-0.4,0.2-1.1,0.5-1.5,1c-0.5,0.7-0.4,1.5-0.6,1.7c-0.1,0.2-4.6,2.2-4.9,6.2c-0.3,4.1,2.7,7.2,3.7,8.4
	c1,1.2,5.2,6.1,5.9,7.2c0.5,0.9,1,1.8,0.5,2.9c-0.3,0.7-1.4,1.5-2.9,0.7c-1.6-0.7-2.7-1.8-4.3-2.5c-1.3-0.6-2.9-1-3.2-1.3
	c-0.3-0.2-2.6-1.7-2.8-4.4c-0.2-2.1,0.7-5.4,0.8-7.7c0.2-3.1-0.7-4.5-0.7-4.6c0-0.2,0.8,0,1.1,0.7c0.5,0.9,0.4,1.2,0.4,1.2
	s1.1-2,0.6-4.5c-0.5-2.9-2.3-3.2-2.3-3.4c0-0.2,0.5-0.3,1.1-0.1c1.6,0.5,1.8,2,1.8,2s0.7-2.1-0.3-4.3c-0.9-2-2.1-2.2-2.2-2.4
	c0-0.1,0.4-0.3,1.2-0.1c1.3,0.3,1.6,1.4,1.6,1.4s0.3-1.8-0.2-3.4c-1-2.8-3-3.1-3-3.3c0-0.1,0.6-0.3,1.2-0.1c1,0.3,1.1,0.6,1.1,0.6
	s0-0.7-0.6-1.7c-0.6-1.1-2-2.6-2.6-3c-3.3-2-5.1-1.6-5.7-1.6c-0.2,0-0.5-0.3-0.3-0.8c0.2-0.7,0.7-1,0.7-1s-1.4,0-2.6,0.4
	c-1.5,0.5-2.2,1.4-2.4,1.4c-0.2,0-0.3-0.3-0.3-0.6c0-0.5,0.2-0.7,0.2-0.7s-1.7,0.6-2.6,1.2c-0.6,0.4-1.5,1.1-1.9,2.2
	c-0.4,0.8-0.5,1.9-0.5,1.9s-0.4-0.3-0.9,0.1c-0.6,0.4-1.2,1.2-1.5,1.7c-0.3,0.4-0.7,0.9-1,1c-0.3,0.1-2.3,0.8-2.7,1
	c-0.3,0.2-0.5,0.9-0.4,1.2c0,0.1,0.2,0.5,0.5,0.8c0.2,0.2,0.3,0,0.4-0.2c0.1-0.1,0.1-0.2,0.2-0.1c0.4,0.2,0.1,1.1,0.2,1.4
	c0.1,0.3,0.4,0.6,0.8,0.8c0.4,0.3,1.3,0.6,1.3,0.6s-0.1-0.4,0-0.6c0.1-0.2,0.5-0.5,0.9-0.5c0.7-0.1,1.8,0,2.3,0.4
	c0.8,0.7,0.7,1.5,0.7,1.5s-1.4,0.5-2,0.6c-0.7,0.1-1.2,0.1-1.7-0.1c-0.5-0.2-0.9-0.7-0.9-0.7s-0.2,0.8-0.2,0.9
	c0,0.1-0.4,0.2-0.4,0.5c0.1,0.4,0.7,0.5,0.7,0.6c0.1,0.2-0.4,0.6-0.1,1.3c0.2,0.4,0.6,0.7,0.9,0.9c0.4,0.2,0.7,0.3,0.7,0.3
	s-0.1-0.5,0.2-0.9c0.2-0.2,0.5-0.3,0.5-0.3c0.1,0,0.1,0.2,0.5,0.5c0.4,0.2,0.9,0.2,0.9,0.2s-0.4-0.5,0-0.9c0.2-0.3,0.8-0.4,0.8-0.4
	c0.1,0,0.6,0.6,1.6,0.9c0.5,0.1,1.3,0.2,1.6,0c0.9-0.5,0.9-0.9,1.8-1.1c0,0-0.5,0.2-1,1.4c-0.4,1-1.6,1.4-2.3,1.7
	c-0.9,0.3-1.9,0.5-2.7,0.9c-0.6,0.3-1.3,0.7-2,1.4c-0.7,0.6-1.3,1.6-1.6,1.8c-0.3,0.2-3.3,0.6-6.1-0.4c-2.8-0.9-3.8-2.3-5-3.9
	c-1.2-1.6-2.3-2.7-3.1-3c-0.7-0.3-1.2-0.4-1.8-0.3c-0.5,0.1-0.9,0.4-1,0.9c-0.2,0.7-0.1,1.1,0.1,1.3c0.2,0.3,0.8,0.5,0.8,0.5
	s-0.7-0.1-1.2,0.3c-0.4,0.4-0.5,1.7,0.1,2.2c0.5,0.4,1,0.4,1,0.4s-0.3,0-0.4,0.2c-0.2,0.4-0.4,1-0.1,1.4c0.7,1,1.4,0.6,2.2,0.8
	c1.1,0.2,1.5,0.3,2.2,0.7c1.2,0.6,2.4,1.7,3.5,2.8c1.4,1.3,2.5,2,2.9,2.3c3.1,2.5,6.2,2.2,6.2,2.2s-0.2-0.1-0.7-0.3
	c-0.3-0.2-0.5-0.4-0.4-0.4c0.2,0,0.9,0.2,1.9,0.2c1-0.1,1.4-0.3,1.5-0.3c0.2,0-0.1,1.6-1.2,2.6c-1,0.9-1.7,1.1-2.9,1.2
	c-1,0.1-4.4,0.5-5.1,0.4c-0.8-0.1-2-0.7-2.5-0.8c-0.5-0.1-0.9-0.2-1.4,0.3c-0.5,0.5-1,1.7-0.8,2.3c0.3,0.6,1.1,0.7,1.1,0.7
	s-1.2,0-1.6,0.6c-0.4,0.5-0.6,1.2-0.1,2.2c0.3,0.6,1,1.1,1.4,1c0.4-0.1,1-0.5,1-0.5s-0.7,0.8-0.4,1.3c0.3,0.4,1.2,0.9,1.9,0.8
	c0.7,0,1.5-1.1,1.9-1.8c0.5-0.8,1.2-1,2-1.3c0.9-0.4,6.5-1.1,7.4-0.9c0.9,0.2,0.9,0.2,1.4,0.3c0,0-0.1-0.3-0.3-0.6
	c-0.3-0.4-0.5-0.6-0.5-0.7c0.1-0.1,1.3-0.1,2.3,0.1c1.1,0.3,2.1,1,2.1,1s-0.8-0.3-1.7-0.2c-0.6,0-1,0.2-1,0.2
	c0.1,0.1,0.1,0.2,0.2,0.4c0.1,0.4,0.3,0.9,0.2,0.9c-0.1,0-0.6-0.1-1.1-0.3c-0.7-0.1-0.9-0.2-1.5-0.2c-0.4,0-4.3,1-5.5,3.3
	c-1.1,2.1-0.5,3.4-0.2,4c0.4,0.7,1.5,1.6,1.8,1.9c0.6,0.4,2.5,1.3,2.5,1.5c0,0.2-1.3,0.6-2.7,0.8c-1.4,0.2-3.5-0.4-4.2-1.1
	c-0.4-0.5-1.3-2-1.8-2.6c-0.5-0.6-1.9-1.2-2.7-0.9c-0.6,0.2-0.9,0.7-1.1,1.2c-0.2,0.5,0,0.9,0.1,1c0.1,0.1,0.4,0.3,0.4,0.3
	s-0.4-0.1-0.8,0.2c-0.3,0.3-0.6,0.6-0.6,1.4c-0.1,0.7,0.2,1.1,0.5,1.4c0.3,0.3,0.8,0.2,0.8,0.2s-0.7,0.2-0.7,0.7
	c0,0.5,0.3,1.3,0.9,1.6c0.6,0.3,2.8-0.1,3.8-0.2c0.7-0.1,2,0.1,2.8,0.6c0.5,0.3,0.8,0.8,1.2,1.2c0.3,0.2,0.9,0.3,1.3,0
	c0.3-0.2,0.3-0.5,0.5-0.7c0.2-0.2,0.3-0.3,1.8-0.4c1.2-0.1,1.7,0.4,1.9,0.7c0.1,0.1,0.1,0,0.2,0.4c0.1,0.6-0.1,0.8-0.1,0.8
	s0.7,0,1.2-0.4c0.3-0.2,0.7-0.5,0.7-0.5c0.1-0.1,0.3-0.2,0.4,0.1c0.1,0.3,0,0.4,0,0.4s0.7-0.1,1.1-0.4c0.6-0.4,0.7-0.6,0.9-0.6
	c0.1,0,0.2,0.1,0.1,0.5c0,0,2.2-0.4,1.9-2.8c-0.3-3.1-0.6-4.4-0.3-5.6c0.3-1.3,1.4-2.5,1.4-2.5l0.5,0.7c0,0-0.8,1.2-0.9,2.7
	c-0.1,0.9,0.2,2.7,0.5,3.6c0.3,1,0.9,1.9,1.2,2.2c0.6,0.7,1,0.7,1,0.7s0-0.2,0.1-0.5c0.1-0.2,0.3-0.2,0.3-0.2c0.1,0,0.2,0.4,0.5,0.7
	c0.4,0.4,1.5,0.5,1.5,0.5s-0.1-0.2-0.1-0.4c0-0.3,0.2-0.4,0.2-0.4c0.1,0,0,0.2,0.7,0.5c0.6,0.3,1.3,0.2,1.3,0.2s-0.1-0.2-0.1-0.4
	c0-0.2,0.1-0.4,0.2-0.4c0.1,0,0,0.1,0.8,0.3c0.8,0.2,1.2-0.3,1.2-0.3s-0.3-0.3-0.5-0.7c-0.1-0.2-0.1-0.4,0-0.5
	c0.1-0.1,1.1-0.1,1.6,0.5c0.4,0.6,0.7,3.3,0.6,4.8c-0.1,1.1-1.1,3.1-2.6,4c-1.3,0.8-1.8,0.5-2.2,0.1c-0.5-0.4-1.5-1.2-2.1-1.3
	c-0.6-0.1-1.2-0.1-1.7,0c-0.4,0.1-0.2,0-0.9,0.2c-0.5,0.1-1.3,0.4-1.6,1c-0.3,0.6-0.3,1.5,0.2,1.9c0.4,0.3,0.9,0.4,1.1,0.2
	c0,0-0.2,0.2-0.4,0.5c-0.3,0.5-0.3,0.9,0.2,1.6c0.4,0.6,1,0.8,1.3,0.9c0.5,0,0.8-0.1,0.8-0.1s0.1,0,0.4-0.4c0,0-0.6,0.8-0.2,1.4
	c0.2,0.3,0.7,0.6,1.3,0.6c0.8,0,1.6-0.1,1.9-0.3c0.6-0.3,1.1-0.7,1.5-1.1c0.8-0.7,1.4-1.5,2.5-2.1c0.6-0.4,2.8-1.5,3.8-1.7
	c0.6-0.1,0.9-0.2,1.2-0.5c0.4-0.3,0.7-1.2,0.3-2s-0.1-1.8,0.2-3.3c0.3-1.5,0.7-2.4,1.1-2.8c0.5-0.3,1-0.3,1.9-0.9
	c1-0.6,0.9-1.7,0.9-1.7s-0.3,0.1-1-0.3c-0.6-0.3-0.6-0.7-0.5-0.9c0-0.2,0.2-0.2,0.8-0.6c0.6-0.6,0.5-2,0.5-2s-0.2,0.3-0.9,0.3
	c-0.5,0-0.9,0-1-0.5c-0.1-0.4,0.3-0.5,0.3-1.1c0.1-0.7-0.3-1.2-0.3-1.2s-0.3,0.5-1.5,0.6c-0.7,0-1.1-0.1-1.4-0.2
	c-0.5-0.2-1-0.8-1.1-1.3c-0.2-1.1,0.2-1.7,0.3-1.8c0.4-0.5,1.5-0.3,2.8,0.6c1.5,1,4.3,2.5,6.6,1.5c2.2-0.9,4.1-4.8,1.9-8
	c-2-2.9-7.8-9.1-8.4-10.1c-0.6-0.9-1.5-2.4-1.3-3.9c0.2-1.3,0.8-2.1,1.3-2.6c0.6-0.5,1.3-0.8,1.5-0.8c0.2,0,1.8,0.9,3.1,1.1
	c1.3,0.2,2.5-0.4,3.4-0.9c0.7-0.4,1.4-0.3,1.4-0.3c-0.3-0.2-0.2-0.2-0.6-0.4c-0.2-0.1-0.7-0.1-0.7-0.1s2-0.6,3.1-1.8
	C225.6,58.2,225.9,54.9,225.9,54.9"/>
<g>
</g>
<g>
</g>
<g>
</g>
<g>
</g>
<g>
</g>
<g>
</g>
<g>
</g>
<g>
</g>
<g>
</g>
<g>
</g>
</svg>
